G04*
G04 #@! TF.GenerationSoftware,Altium Limited,Altium Designer,18.1.7 (191)*
G04*
G04 Layer_Color=2752767*
%FSLAX25Y25*%
%MOIN*%
G70*
G01*
G75*
%ADD10C,0.01000*%
%ADD11C,0.02500*%
%ADD12C,0.00201*%
%ADD13C,0.00900*%
%ADD14C,0.02953*%
%ADD15C,0.00500*%
%ADD16C,0.00600*%
%ADD71C,0.00200*%
%ADD72C,0.01500*%
%ADD73C,0.10000*%
%ADD74C,0.01600*%
%ADD75C,0.00800*%
D10*
X787532Y423682D02*
G03*
X777532Y433682I-10000J0D01*
G01*
Y168921D02*
G03*
X787532Y178921I0J10000D01*
G01*
X347532Y179022D02*
G03*
X357455Y168923I10100J0D01*
G01*
X357532Y433682D02*
G03*
X347532Y423682I0J-10000D01*
G01*
X357532Y168922D02*
X777532D01*
X357532Y433682D02*
X777532D01*
X787532Y178236D02*
Y423682D01*
X347532Y178727D02*
Y423682D01*
X126880Y495487D02*
G03*
X126880Y495487I-3333J0D01*
G01*
X120214Y477154D02*
X126880D01*
Y483821D01*
X120214D02*
X126880D01*
X120214Y477154D02*
Y483821D01*
X131163Y820738D02*
X205663D01*
X125151Y579494D02*
X201651D01*
X140745Y699235D02*
X140913Y583031D01*
X137864Y591507D02*
X140864Y582007D01*
Y581507D02*
X143364Y591507D01*
X141163Y811238D02*
X143663Y821238D01*
Y820738D02*
X146663Y811238D01*
X143663Y716339D02*
Y821238D01*
X707672Y492154D02*
Y498152D01*
X710671D01*
X711671Y497152D01*
Y495153D01*
X710671Y494153D01*
X707672D01*
X709671D02*
X711671Y492154D01*
X714670D02*
X716669D01*
X717669Y493154D01*
Y495153D01*
X716669Y496153D01*
X714670D01*
X713670Y495153D01*
Y493154D01*
X714670Y492154D01*
X719668Y496153D02*
Y493154D01*
X720668Y492154D01*
X723667D01*
Y496153D01*
X725666Y492154D02*
Y496153D01*
X728665D01*
X729665Y495153D01*
Y492154D01*
X735663Y498152D02*
Y492154D01*
X732664D01*
X731664Y493154D01*
Y495153D01*
X732664Y496153D01*
X735663D01*
X740661Y492154D02*
X738662D01*
X737662Y493154D01*
Y495153D01*
X738662Y496153D01*
X740661D01*
X741661Y495153D01*
Y494153D01*
X737662D01*
X747659Y498152D02*
Y492154D01*
X744660D01*
X743660Y493154D01*
Y495153D01*
X744660Y496153D01*
X747659D01*
X707672Y477154D02*
Y483152D01*
X710671D01*
X711671Y482152D01*
Y480153D01*
X710671Y479153D01*
X707672D01*
X709671D02*
X711671Y477154D01*
X714670D02*
X716669D01*
X717669Y478154D01*
Y480153D01*
X716669Y481153D01*
X714670D01*
X713670Y480153D01*
Y478154D01*
X714670Y477154D01*
X719668Y481153D02*
Y478154D01*
X720668Y477154D01*
X723667D01*
Y481153D01*
X725666Y477154D02*
Y481153D01*
X728665D01*
X729665Y480153D01*
Y477154D01*
X735663Y483152D02*
Y477154D01*
X732664D01*
X731664Y478154D01*
Y480153D01*
X732664Y481153D01*
X735663D01*
X740661Y477154D02*
X738662D01*
X737662Y478154D01*
Y480153D01*
X738662Y481153D01*
X740661D01*
X741661Y480153D01*
Y479153D01*
X737662D01*
X747659Y483152D02*
Y477154D01*
X744660D01*
X743660Y478154D01*
Y480153D01*
X744660Y481153D01*
X747659D01*
X648687Y498152D02*
Y494153D01*
X650686Y492154D01*
X652686Y494153D01*
Y498152D01*
X654685Y492154D02*
X656684D01*
X655685D01*
Y496153D01*
X654685D01*
X660683D02*
X662682D01*
X663682Y495153D01*
Y492154D01*
X660683D01*
X659684Y493154D01*
X660683Y494153D01*
X663682D01*
X648687Y483152D02*
Y479153D01*
X650686Y477154D01*
X652686Y479153D01*
Y483152D01*
X654685Y477154D02*
X656684D01*
X655685D01*
Y481153D01*
X654685D01*
X660683D02*
X662682D01*
X663682Y480153D01*
Y477154D01*
X660683D01*
X659684Y478154D01*
X660683Y479153D01*
X663682D01*
X455746Y498152D02*
Y492154D01*
X459745D01*
X462744Y496153D02*
X464743D01*
X465743Y495153D01*
Y492154D01*
X462744D01*
X461744Y493154D01*
X462744Y494153D01*
X465743D01*
X467742Y496153D02*
Y493154D01*
X468742Y492154D01*
X471741D01*
Y491154D01*
X470741Y490155D01*
X469741D01*
X471741Y492154D02*
Y496153D01*
X476739Y492154D02*
X474740D01*
X473740Y493154D01*
Y495153D01*
X474740Y496153D01*
X476739D01*
X477739Y495153D01*
Y494153D01*
X473740D01*
X479738Y496153D02*
Y492154D01*
Y494153D01*
X480738Y495153D01*
X481738Y496153D01*
X482737D01*
X491734Y497152D02*
X492734Y498152D01*
X494733D01*
X495733Y497152D01*
Y496153D01*
X494733Y495153D01*
X493734D01*
X494733D01*
X495733Y494153D01*
Y493154D01*
X494733Y492154D01*
X492734D01*
X491734Y493154D01*
X503730Y495153D02*
X507729D01*
X515727Y498152D02*
Y492154D01*
X519725D01*
X522724Y496153D02*
X524724D01*
X525723Y495153D01*
Y492154D01*
X522724D01*
X521725Y493154D01*
X522724Y494153D01*
X525723D01*
X527723Y496153D02*
Y493154D01*
X528722Y492154D01*
X531721D01*
Y491154D01*
X530722Y490155D01*
X529722D01*
X531721Y492154D02*
Y496153D01*
X536720Y492154D02*
X534720D01*
X533721Y493154D01*
Y495153D01*
X534720Y496153D01*
X536720D01*
X537719Y495153D01*
Y494153D01*
X533721D01*
X539719Y496153D02*
Y492154D01*
Y494153D01*
X540719Y495153D01*
X541718Y496153D01*
X542718D01*
X554714Y492154D02*
Y498152D01*
X551715Y495153D01*
X555714D01*
X565710Y492154D02*
X563711Y494153D01*
Y496153D01*
X565710Y498152D01*
X568709D02*
Y492154D01*
X571708D01*
X572708Y493154D01*
Y494153D01*
Y495153D01*
X571708Y496153D01*
X568709D01*
X575707Y492154D02*
X577706D01*
X578706Y493154D01*
Y495153D01*
X577706Y496153D01*
X575707D01*
X574707Y495153D01*
Y493154D01*
X575707Y492154D01*
X581705Y497152D02*
Y496153D01*
X580705D01*
X582705D01*
X581705D01*
Y493154D01*
X582705Y492154D01*
X586704Y497152D02*
Y496153D01*
X585704D01*
X587703D01*
X586704D01*
Y493154D01*
X587703Y492154D01*
X591702D02*
X593701D01*
X594701Y493154D01*
Y495153D01*
X593701Y496153D01*
X591702D01*
X590702Y495153D01*
Y493154D01*
X591702Y492154D01*
X596700D02*
Y496153D01*
X597700D01*
X598700Y495153D01*
Y492154D01*
Y495153D01*
X599699Y496153D01*
X600699Y495153D01*
Y492154D01*
X602698D02*
X604698Y494153D01*
Y496153D01*
X602698Y498152D01*
X455746Y483152D02*
Y477154D01*
X459745D01*
X462744Y481153D02*
X464743D01*
X465743Y480153D01*
Y477154D01*
X462744D01*
X461744Y478154D01*
X462744Y479153D01*
X465743D01*
X467742Y481153D02*
Y478154D01*
X468742Y477154D01*
X471741D01*
Y476154D01*
X470741Y475155D01*
X469741D01*
X471741Y477154D02*
Y481153D01*
X476739Y477154D02*
X474740D01*
X473740Y478154D01*
Y480153D01*
X474740Y481153D01*
X476739D01*
X477739Y480153D01*
Y479153D01*
X473740D01*
X479738Y481153D02*
Y477154D01*
Y479153D01*
X480738Y480153D01*
X481738Y481153D01*
X482737D01*
X491734Y477154D02*
X493734D01*
X492734D01*
Y483152D01*
X491734Y482152D01*
X504730Y477154D02*
X502731Y479153D01*
Y481153D01*
X504730Y483152D01*
X507729D02*
X511728D01*
X509728D01*
Y477154D01*
X514727D02*
X516726D01*
X517726Y478154D01*
Y480153D01*
X516726Y481153D01*
X514727D01*
X513727Y480153D01*
Y478154D01*
X514727Y477154D01*
X519725Y475155D02*
Y481153D01*
X522724D01*
X523724Y480153D01*
Y478154D01*
X522724Y477154D01*
X519725D01*
X525723D02*
X527723Y479153D01*
Y481153D01*
X525723Y483152D01*
X536720Y480153D02*
X540718D01*
X548716Y483152D02*
Y477154D01*
X552715D01*
X555714Y481153D02*
X557713D01*
X558713Y480153D01*
Y477154D01*
X555714D01*
X554714Y478154D01*
X555714Y479153D01*
X558713D01*
X560712Y481153D02*
Y478154D01*
X561712Y477154D01*
X564711D01*
Y476154D01*
X563711Y475155D01*
X562711D01*
X564711Y477154D02*
Y481153D01*
X569709Y477154D02*
X567710D01*
X566710Y478154D01*
Y480153D01*
X567710Y481153D01*
X569709D01*
X570709Y480153D01*
Y479153D01*
X566710D01*
X572708Y481153D02*
Y477154D01*
Y479153D01*
X573708Y480153D01*
X574707Y481153D01*
X575707D01*
X587703Y477154D02*
Y483152D01*
X584704Y480153D01*
X588703D01*
X598700Y477154D02*
X596700Y479153D01*
Y481153D01*
X598700Y483152D01*
X601699D02*
Y477154D01*
X604698D01*
X605697Y478154D01*
Y479153D01*
Y480153D01*
X604698Y481153D01*
X601699D01*
X608697Y477154D02*
X610696D01*
X611695Y478154D01*
Y480153D01*
X610696Y481153D01*
X608697D01*
X607697Y480153D01*
Y478154D01*
X608697Y477154D01*
X614694Y482152D02*
Y481153D01*
X613695D01*
X615694D01*
X614694D01*
Y478154D01*
X615694Y477154D01*
X619693Y482152D02*
Y481153D01*
X618693D01*
X620693D01*
X619693D01*
Y478154D01*
X620693Y477154D01*
X624691D02*
X626691D01*
X627690Y478154D01*
Y480153D01*
X626691Y481153D01*
X624691D01*
X623692Y480153D01*
Y478154D01*
X624691Y477154D01*
X629690D02*
Y481153D01*
X630689D01*
X631689Y480153D01*
Y477154D01*
Y480153D01*
X632689Y481153D01*
X633688Y480153D01*
Y477154D01*
X635688D02*
X637687Y479153D01*
Y481153D01*
X635688Y483152D01*
X382366Y492154D02*
Y498152D01*
X385365D01*
X386364Y497152D01*
Y495153D01*
X385365Y494153D01*
X382366D01*
X384365D02*
X386364Y492154D01*
X389364D02*
X391363D01*
X392362Y493154D01*
Y495153D01*
X391363Y496153D01*
X389364D01*
X388364Y495153D01*
Y493154D01*
X389364Y492154D01*
X394362Y496153D02*
Y493154D01*
X395361Y492154D01*
X398361D01*
Y496153D01*
X400360Y492154D02*
Y496153D01*
X403359D01*
X404359Y495153D01*
Y492154D01*
X410357Y498152D02*
Y492154D01*
X407358D01*
X406358Y493154D01*
Y495153D01*
X407358Y496153D01*
X410357D01*
X382366Y477154D02*
Y483152D01*
X385365D01*
X386364Y482152D01*
Y480153D01*
X385365Y479153D01*
X382366D01*
X384365D02*
X386364Y477154D01*
X389364D02*
X391363D01*
X392362Y478154D01*
Y480153D01*
X391363Y481153D01*
X389364D01*
X388364Y480153D01*
Y478154D01*
X389364Y477154D01*
X394362Y481153D02*
Y478154D01*
X395361Y477154D01*
X398361D01*
Y481153D01*
X400360Y477154D02*
Y481153D01*
X403359D01*
X404359Y480153D01*
Y477154D01*
X410357Y483152D02*
Y477154D01*
X407358D01*
X406358Y478154D01*
Y480153D01*
X407358Y481153D01*
X410357D01*
X331778Y492154D02*
Y498152D01*
X334777D01*
X335777Y497152D01*
Y495153D01*
X334777Y494153D01*
X331778D01*
X337776Y498152D02*
X341775D01*
X339776D01*
Y492154D01*
X343774Y498152D02*
Y492154D01*
Y495153D01*
X347773D01*
Y498152D01*
Y492154D01*
X331778Y477154D02*
Y483152D01*
X334777D01*
X335777Y482152D01*
Y480153D01*
X334777Y479153D01*
X331778D01*
X337776Y483152D02*
X341775D01*
X339776D01*
Y477154D01*
X343774Y483152D02*
Y477154D01*
Y480153D01*
X347773D01*
Y483152D01*
Y477154D01*
X227808Y497152D02*
X228808Y498152D01*
X230807D01*
X231807Y497152D01*
Y493154D01*
X230807Y492154D01*
X228808D01*
X227808Y493154D01*
Y497152D01*
X233806Y492154D02*
Y493154D01*
X234806D01*
Y492154D01*
X233806D01*
X238805Y497152D02*
X239804Y498152D01*
X241804D01*
X242803Y497152D01*
Y493154D01*
X241804Y492154D01*
X239804D01*
X238805Y493154D01*
Y497152D01*
X244803D02*
X245802Y498152D01*
X247802D01*
X248801Y497152D01*
Y496153D01*
X247802Y495153D01*
X248801Y494153D01*
Y493154D01*
X247802Y492154D01*
X245802D01*
X244803Y493154D01*
Y494153D01*
X245802Y495153D01*
X244803Y496153D01*
Y497152D01*
X245802Y495153D02*
X247802D01*
X254800Y498152D02*
X250801D01*
Y495153D01*
X252800Y496153D01*
X253800D01*
X254800Y495153D01*
Y493154D01*
X253800Y492154D01*
X251800D01*
X250801Y493154D01*
X256799Y492154D02*
Y496153D01*
X257799D01*
X258798Y495153D01*
Y492154D01*
Y495153D01*
X259798Y496153D01*
X260798Y495153D01*
Y492154D01*
X262797D02*
Y496153D01*
X263797D01*
X264796Y495153D01*
Y492154D01*
Y495153D01*
X265796Y496153D01*
X266796Y495153D01*
Y492154D01*
X276792D02*
X274793Y494153D01*
Y496153D01*
X276792Y498152D01*
X279791Y497152D02*
X280791Y498152D01*
X282790D01*
X283790Y497152D01*
Y496153D01*
X282790Y495153D01*
X281791D01*
X282790D01*
X283790Y494153D01*
Y493154D01*
X282790Y492154D01*
X280791D01*
X279791Y493154D01*
X285789Y492154D02*
Y493154D01*
X286789D01*
Y492154D01*
X285789D01*
X290788Y497152D02*
X291788Y498152D01*
X293787D01*
X294787Y497152D01*
Y496153D01*
X293787Y495153D01*
X292787D01*
X293787D01*
X294787Y494153D01*
Y493154D01*
X293787Y492154D01*
X291788D01*
X290788Y493154D01*
X300785Y498152D02*
X296786D01*
Y495153D01*
X298785Y496153D01*
X299785D01*
X300785Y495153D01*
Y493154D01*
X299785Y492154D01*
X297786D01*
X296786Y493154D01*
X302784Y492154D02*
Y496153D01*
X303784D01*
X304783Y495153D01*
Y492154D01*
Y495153D01*
X305783Y496153D01*
X306783Y495153D01*
Y492154D01*
X308782D02*
X310781D01*
X309782D01*
Y496153D01*
X308782D01*
X313780Y492154D02*
X315780D01*
X314780D01*
Y498152D01*
X313780D01*
X318779Y492154D02*
X320778Y494153D01*
Y496153D01*
X318779Y498152D01*
X227808Y482152D02*
X228808Y483152D01*
X230807D01*
X231807Y482152D01*
Y478154D01*
X230807Y477154D01*
X228808D01*
X227808Y478154D01*
Y482152D01*
X233806Y477154D02*
Y478154D01*
X234806D01*
Y477154D01*
X233806D01*
X238805Y482152D02*
X239804Y483152D01*
X241804D01*
X242803Y482152D01*
Y478154D01*
X241804Y477154D01*
X239804D01*
X238805Y478154D01*
Y482152D01*
X244803D02*
X245802Y483152D01*
X247802D01*
X248801Y482152D01*
Y481153D01*
X247802Y480153D01*
X248801Y479153D01*
Y478154D01*
X247802Y477154D01*
X245802D01*
X244803Y478154D01*
Y479153D01*
X245802Y480153D01*
X244803Y481153D01*
Y482152D01*
X245802Y480153D02*
X247802D01*
X254800Y483152D02*
X250801D01*
Y480153D01*
X252800Y481153D01*
X253800D01*
X254800Y480153D01*
Y478154D01*
X253800Y477154D01*
X251800D01*
X250801Y478154D01*
X256799Y477154D02*
Y481153D01*
X257799D01*
X258798Y480153D01*
Y477154D01*
Y480153D01*
X259798Y481153D01*
X260798Y480153D01*
Y477154D01*
X262797D02*
Y481153D01*
X263797D01*
X264796Y480153D01*
Y477154D01*
Y480153D01*
X265796Y481153D01*
X266796Y480153D01*
Y477154D01*
X276792D02*
X274793Y479153D01*
Y481153D01*
X276792Y483152D01*
X279791Y482152D02*
X280791Y483152D01*
X282790D01*
X283790Y482152D01*
Y481153D01*
X282790Y480153D01*
X281791D01*
X282790D01*
X283790Y479153D01*
Y478154D01*
X282790Y477154D01*
X280791D01*
X279791Y478154D01*
X285789Y477154D02*
Y478154D01*
X286789D01*
Y477154D01*
X285789D01*
X290788Y482152D02*
X291788Y483152D01*
X293787D01*
X294787Y482152D01*
Y481153D01*
X293787Y480153D01*
X292787D01*
X293787D01*
X294787Y479153D01*
Y478154D01*
X293787Y477154D01*
X291788D01*
X290788Y478154D01*
X300785Y483152D02*
X296786D01*
Y480153D01*
X298785Y481153D01*
X299785D01*
X300785Y480153D01*
Y478154D01*
X299785Y477154D01*
X297786D01*
X296786Y478154D01*
X302784Y477154D02*
Y481153D01*
X303784D01*
X304783Y480153D01*
Y477154D01*
Y480153D01*
X305783Y481153D01*
X306783Y480153D01*
Y477154D01*
X308782D02*
X310781D01*
X309782D01*
Y481153D01*
X308782D01*
X313780Y477154D02*
X315780D01*
X314780D01*
Y483152D01*
X313780D01*
X318779Y477154D02*
X320778Y479153D01*
Y481153D01*
X318779Y483152D01*
X177821Y462154D02*
X173822D01*
X177821Y466153D01*
Y467152D01*
X176821Y468152D01*
X174822D01*
X173822Y467152D01*
X179820D02*
X180820Y468152D01*
X182819D01*
X183819Y467152D01*
Y466153D01*
X182819Y465153D01*
X183819Y464153D01*
Y463154D01*
X182819Y462154D01*
X180820D01*
X179820Y463154D01*
Y464153D01*
X180820Y465153D01*
X179820Y466153D01*
Y467152D01*
X180820Y465153D02*
X182819D01*
X191816Y468152D02*
X195815D01*
X193816D01*
Y462154D01*
X198814D02*
X200813D01*
X201813Y463154D01*
Y465153D01*
X200813Y466153D01*
X198814D01*
X197814Y465153D01*
Y463154D01*
X198814Y462154D01*
X204812Y467152D02*
Y466153D01*
X203812D01*
X205812D01*
X204812D01*
Y463154D01*
X205812Y462154D01*
X209810Y466153D02*
X211810D01*
X212809Y465153D01*
Y462154D01*
X209810D01*
X208811Y463154D01*
X209810Y464153D01*
X212809D01*
X214809Y462154D02*
X216808D01*
X215809D01*
Y468152D01*
X214809D01*
X173822Y497152D02*
X174822Y498152D01*
X176821D01*
X177821Y497152D01*
Y496153D01*
X176821Y495153D01*
X177821Y494153D01*
Y493154D01*
X176821Y492154D01*
X174822D01*
X173822Y493154D01*
Y494153D01*
X174822Y495153D01*
X173822Y496153D01*
Y497152D01*
X174822Y495153D02*
X176821D01*
X177821Y477154D02*
X173822D01*
X177821Y481153D01*
Y482152D01*
X176821Y483152D01*
X174822D01*
X173822Y482152D01*
X179820D02*
X180820Y483152D01*
X182819D01*
X183819Y482152D01*
Y478154D01*
X182819Y477154D01*
X180820D01*
X179820Y478154D01*
Y482152D01*
X458992Y747898D02*
Y752896D01*
X461491Y755395D01*
X463990Y752896D01*
Y747898D01*
Y751647D01*
X458992D01*
X466490Y755395D02*
Y747898D01*
X470238D01*
X471488Y749147D01*
Y754146D01*
X470238Y755395D01*
X466490D01*
X473987D02*
Y747898D01*
Y751647D01*
X478986D01*
Y755395D01*
Y747898D01*
X486483Y755395D02*
X481485D01*
Y747898D01*
X486483D01*
X481485Y751647D02*
X483984D01*
X493981Y754146D02*
X492731Y755395D01*
X490232D01*
X488982Y754146D01*
Y752896D01*
X490232Y751647D01*
X492731D01*
X493981Y750397D01*
Y749147D01*
X492731Y747898D01*
X490232D01*
X488982Y749147D01*
X496480Y755395D02*
X498979D01*
X497729D01*
Y747898D01*
X496480D01*
X498979D01*
X502728Y755395D02*
Y750397D01*
X505227Y747898D01*
X507726Y750397D01*
Y755395D01*
X515224D02*
X510225D01*
Y747898D01*
X515224D01*
X510225Y751647D02*
X512725D01*
X457771Y633852D02*
Y641350D01*
X461520D01*
X462770Y640100D01*
Y637601D01*
X461520Y636351D01*
X457771D01*
X469018Y641350D02*
X466518D01*
X465269Y640100D01*
Y635102D01*
X466518Y633852D01*
X469018D01*
X470267Y635102D01*
Y640100D01*
X469018Y641350D01*
X472766D02*
Y633852D01*
X477765D01*
X480264Y641350D02*
Y640100D01*
X482763Y637601D01*
X485262Y640100D01*
Y641350D01*
X482763Y637601D02*
Y633852D01*
X487761Y641350D02*
X490261D01*
X489011D01*
Y633852D01*
X487761D01*
X490261D01*
X494009D02*
Y641350D01*
X496509Y638850D01*
X499008Y641350D01*
Y633852D01*
X501507Y641350D02*
X504006D01*
X502757D01*
Y633852D01*
X501507D01*
X504006D01*
X507755Y641350D02*
Y633852D01*
X511504D01*
X512753Y635102D01*
Y640100D01*
X511504Y641350D01*
X507755D01*
X520251D02*
X515253D01*
Y633852D01*
X520251D01*
X515253Y637601D02*
X517752D01*
X458598Y620159D02*
Y612662D01*
X462346D01*
X463596Y613911D01*
Y615161D01*
X462346Y616410D01*
X458598D01*
X462346D01*
X463596Y617660D01*
Y618910D01*
X462346Y620159D01*
X458598D01*
X469844D02*
X467345D01*
X466095Y618910D01*
Y613911D01*
X467345Y612662D01*
X469844D01*
X471094Y613911D01*
Y618910D01*
X469844Y620159D01*
X473593D02*
X478591D01*
X476092D01*
Y612662D01*
X481090Y620159D02*
X486089D01*
X483589D01*
Y612662D01*
X492337Y620159D02*
X489837D01*
X488588Y618910D01*
Y613911D01*
X489837Y612662D01*
X492337D01*
X493586Y613911D01*
Y618910D01*
X492337Y620159D01*
X496085Y612662D02*
Y620159D01*
X498585Y617660D01*
X501084Y620159D01*
Y612662D01*
X511081Y620159D02*
Y612662D01*
X516079D01*
X518578D02*
Y617660D01*
X521077Y620159D01*
X523576Y617660D01*
Y612662D01*
Y616410D01*
X518578D01*
X526076Y620159D02*
Y618910D01*
X528575Y616410D01*
X531074Y618910D01*
Y620159D01*
X528575Y616410D02*
Y612662D01*
X538572Y620159D02*
X533573D01*
Y612662D01*
X538572D01*
X533573Y616410D02*
X536072D01*
X541071Y612662D02*
Y620159D01*
X544820D01*
X546069Y618910D01*
Y616410D01*
X544820Y615161D01*
X541071D01*
X543570D02*
X546069Y612662D01*
X549818Y611412D02*
X551068Y612662D01*
Y613911D01*
X549818D01*
Y612662D01*
X551068D01*
X549818Y611412D01*
X548568Y610162D01*
X571061Y612662D02*
X573560D01*
X572311D01*
Y620159D01*
X571061Y618910D01*
X588556Y620159D02*
X586056D01*
X584807Y618910D01*
Y613911D01*
X586056Y612662D01*
X588556D01*
X589805Y613911D01*
Y618910D01*
X588556Y620159D01*
X592304D02*
X597303D01*
Y618910D01*
X592304Y613911D01*
Y612662D01*
X597303D01*
X599802D02*
Y613911D01*
X601052D01*
Y612662D01*
X599802D01*
X618546Y620159D02*
X613548D01*
Y616410D01*
X616047D01*
X613548D01*
Y612662D01*
X621045Y620159D02*
X623544D01*
X622295D01*
Y612662D01*
X621045D01*
X623544D01*
X627293D02*
Y620159D01*
X632291Y612662D01*
Y620159D01*
X634791D02*
X637290D01*
X636040D01*
Y612662D01*
X634791D01*
X637290D01*
X646037Y618910D02*
X644787Y620159D01*
X642288D01*
X641039Y618910D01*
Y617660D01*
X642288Y616410D01*
X644787D01*
X646037Y615161D01*
Y613911D01*
X644787Y612662D01*
X642288D01*
X641039Y613911D01*
X648536Y620159D02*
Y612662D01*
Y616410D01*
X653535D01*
Y620159D01*
Y612662D01*
X661032Y620159D02*
X656034D01*
Y612662D01*
X661032D01*
X656034Y616410D02*
X658533D01*
X663531Y620159D02*
Y612662D01*
X667280D01*
X668530Y613911D01*
Y618910D01*
X667280Y620159D01*
X663531D01*
X683525Y618910D02*
X682275Y620159D01*
X679776D01*
X678526Y618910D01*
Y613911D01*
X679776Y612662D01*
X682275D01*
X683525Y613911D01*
X686024Y620159D02*
Y613911D01*
X687274Y612662D01*
X689773D01*
X691022Y613911D01*
Y620159D01*
X703518Y612662D02*
X701019Y615161D01*
Y617660D01*
X703518Y620159D01*
X712266Y618910D02*
X711016Y620159D01*
X708517D01*
X707267Y618910D01*
Y613911D01*
X708517Y612662D01*
X711016D01*
X712266Y613911D01*
X714765Y620159D02*
Y613911D01*
X716014Y612662D01*
X718514D01*
X719763Y613911D01*
Y620159D01*
X722262Y616410D02*
X727261D01*
X724762Y618910D02*
Y613911D01*
X729760Y612662D02*
Y620159D01*
X733509D01*
X734758Y618910D01*
Y616410D01*
X733509Y615161D01*
X729760D01*
X737257Y620159D02*
Y612662D01*
X742256D01*
X744755D02*
Y617660D01*
X747254Y620159D01*
X749754Y617660D01*
Y612662D01*
Y616410D01*
X744755D01*
X752253Y620159D02*
X757251D01*
X754752D01*
Y612662D01*
X759750Y620159D02*
X762250D01*
X761000D01*
Y612662D01*
X759750D01*
X762250D01*
X765998D02*
Y620159D01*
X770997Y612662D01*
Y620159D01*
X778494Y618910D02*
X777245Y620159D01*
X774745D01*
X773496Y618910D01*
Y613911D01*
X774745Y612662D01*
X777245D01*
X778494Y613911D01*
Y616410D01*
X775995D01*
X780993Y612662D02*
X783493Y615161D01*
Y617660D01*
X780993Y620159D01*
X804736Y612662D02*
X802237Y615161D01*
Y617660D01*
X804736Y620159D01*
X808484Y618910D02*
X813483Y613911D01*
X808484D02*
X813483Y618910D01*
X808484Y616410D02*
X813483D01*
X810984Y613911D02*
Y618910D01*
X815982Y612662D02*
Y613911D01*
X817232D01*
Y612662D01*
X815982D01*
X827229Y618910D02*
X825979Y620159D01*
X823480D01*
X822230Y618910D01*
Y613911D01*
X823480Y612662D01*
X825979D01*
X827229Y613911D01*
Y616410D01*
X824729D01*
X829728Y620159D02*
Y612662D01*
X833477D01*
X834726Y613911D01*
Y615161D01*
X833477Y616410D01*
X829728D01*
X833477D01*
X834726Y617660D01*
Y618910D01*
X833477Y620159D01*
X829728D01*
X837225D02*
Y612662D01*
X842224D01*
X844723D02*
X847222Y615161D01*
Y617660D01*
X844723Y620159D01*
X458408Y658686D02*
Y663685D01*
X460907Y666184D01*
X463406Y663685D01*
Y658686D01*
Y662435D01*
X458408D01*
X465906Y666184D02*
Y658686D01*
X469654D01*
X470904Y659936D01*
Y664934D01*
X469654Y666184D01*
X465906D01*
X473403D02*
Y658686D01*
Y662435D01*
X478402D01*
Y666184D01*
Y658686D01*
X485899Y666184D02*
X480901D01*
Y658686D01*
X485899D01*
X480901Y662435D02*
X483400D01*
X493397Y664934D02*
X492147Y666184D01*
X489648D01*
X488398Y664934D01*
Y663685D01*
X489648Y662435D01*
X492147D01*
X493397Y661186D01*
Y659936D01*
X492147Y658686D01*
X489648D01*
X488398Y659936D01*
X495896Y666184D02*
X498395D01*
X497146D01*
Y658686D01*
X495896D01*
X498395D01*
X502144Y666184D02*
Y661186D01*
X504643Y658686D01*
X507142Y661186D01*
Y666184D01*
X514640D02*
X509641D01*
Y658686D01*
X514640D01*
X509641Y662435D02*
X512141D01*
X458992Y688034D02*
Y680537D01*
X463990D01*
X466490D02*
Y685535D01*
X468989Y688034D01*
X471488Y685535D01*
Y680537D01*
Y684285D01*
X466490D01*
X473987Y688034D02*
Y686785D01*
X476486Y684285D01*
X478986Y686785D01*
Y688034D01*
X476486Y684285D02*
Y680537D01*
X486483Y688034D02*
X481485D01*
Y680537D01*
X486483D01*
X481485Y684285D02*
X483984D01*
X488982Y680537D02*
Y688034D01*
X492731D01*
X493981Y686785D01*
Y684285D01*
X492731Y683036D01*
X488982D01*
X491481D02*
X493981Y680537D01*
X503977Y686785D02*
X505227Y688034D01*
X507726D01*
X508976Y686785D01*
Y685535D01*
X507726Y684285D01*
X506477D01*
X507726D01*
X508976Y683036D01*
Y681786D01*
X507726Y680537D01*
X505227D01*
X503977Y681786D01*
X512725Y679287D02*
X513974Y680537D01*
Y681786D01*
X512725D01*
Y680537D01*
X513974D01*
X512725Y679287D01*
X511475Y678037D01*
X526470Y680537D02*
X528969D01*
X527720D01*
Y688034D01*
X526470Y686785D01*
X532718Y680537D02*
X537717Y685535D01*
X545214Y680537D02*
X540216D01*
X545214Y685535D01*
Y686785D01*
X543965Y688034D01*
X541465D01*
X540216Y686785D01*
X558960Y688034D02*
X556461D01*
X555211Y686785D01*
Y681786D01*
X556461Y680537D01*
X558960D01*
X560209Y681786D01*
Y686785D01*
X558960Y688034D01*
X562709D02*
X567707D01*
Y686785D01*
X562709Y681786D01*
Y680537D01*
X567707D01*
X570206D02*
Y681786D01*
X571456D01*
Y680537D01*
X570206D01*
X588950Y686785D02*
X587701Y688034D01*
X585201D01*
X583952Y686785D01*
Y681786D01*
X585201Y680537D01*
X587701D01*
X588950Y681786D01*
X591449Y688034D02*
Y681786D01*
X592699Y680537D01*
X595198D01*
X596448Y681786D01*
Y688034D01*
X608944Y680537D02*
X606444Y683036D01*
Y685535D01*
X608944Y688034D01*
X612692Y686785D02*
X617691Y681786D01*
X612692D02*
X617691Y686785D01*
X612692Y684285D02*
X617691D01*
X615192Y681786D02*
Y686785D01*
X620190Y680537D02*
Y681786D01*
X621440D01*
Y680537D01*
X620190D01*
X631436Y686785D02*
X630187Y688034D01*
X627688D01*
X626438Y686785D01*
Y681786D01*
X627688Y680537D01*
X630187D01*
X631436Y681786D01*
Y684285D01*
X628937D01*
X638934Y680537D02*
X633935D01*
X638934Y685535D01*
Y686785D01*
X637684Y688034D01*
X635185D01*
X633935Y686785D01*
X641433Y680537D02*
X643932Y683036D01*
Y685535D01*
X641433Y688034D01*
X459518Y700534D02*
Y708032D01*
X463267D01*
X464517Y706782D01*
Y704283D01*
X463267Y703034D01*
X459518D01*
X470765Y708032D02*
X468265D01*
X467016Y706782D01*
Y701784D01*
X468265Y700534D01*
X470765D01*
X472014Y701784D01*
Y706782D01*
X470765Y708032D01*
X474513D02*
Y700534D01*
X479512D01*
X482011Y708032D02*
Y706782D01*
X484510Y704283D01*
X487009Y706782D01*
Y708032D01*
X484510Y704283D02*
Y700534D01*
X489509Y708032D02*
X492008D01*
X490758D01*
Y700534D01*
X489509D01*
X492008D01*
X495757D02*
Y708032D01*
X498256Y705533D01*
X500755Y708032D01*
Y700534D01*
X503254Y708032D02*
X505753D01*
X504504D01*
Y700534D01*
X503254D01*
X505753D01*
X509502Y708032D02*
Y700534D01*
X513251D01*
X514501Y701784D01*
Y706782D01*
X513251Y708032D01*
X509502D01*
X521998D02*
X517000D01*
Y700534D01*
X521998D01*
X517000Y704283D02*
X519499D01*
X535744Y708032D02*
X533245D01*
X531995Y706782D01*
Y701784D01*
X533245Y700534D01*
X535744D01*
X536993Y701784D01*
Y706782D01*
X535744Y708032D01*
X539493Y700534D02*
Y708032D01*
X544491Y700534D01*
Y708032D01*
X546990D02*
Y700534D01*
X551988D01*
X554488Y708032D02*
Y706782D01*
X556987Y704283D01*
X559486Y706782D01*
Y708032D01*
X556987Y704283D02*
Y700534D01*
X458084Y593968D02*
Y586471D01*
X461833D01*
X463082Y587720D01*
Y588970D01*
X461833Y590219D01*
X458084D01*
X461833D01*
X463082Y591469D01*
Y592719D01*
X461833Y593968D01*
X458084D01*
X469330D02*
X466831D01*
X465582Y592719D01*
Y587720D01*
X466831Y586471D01*
X469330D01*
X470580Y587720D01*
Y592719D01*
X469330Y593968D01*
X473079D02*
X478078D01*
X475578D01*
Y586471D01*
X480577Y593968D02*
X485575D01*
X483076D01*
Y586471D01*
X491823Y593968D02*
X489324D01*
X488074Y592719D01*
Y587720D01*
X489324Y586471D01*
X491823D01*
X493073Y587720D01*
Y592719D01*
X491823Y593968D01*
X495572Y586471D02*
Y593968D01*
X498071Y591469D01*
X500570Y593968D01*
Y586471D01*
X515565Y592719D02*
X514316Y593968D01*
X511817D01*
X510567Y592719D01*
Y591469D01*
X511817Y590219D01*
X514316D01*
X515565Y588970D01*
Y587720D01*
X514316Y586471D01*
X511817D01*
X510567Y587720D01*
X521813Y593968D02*
X519314D01*
X518065Y592719D01*
Y587720D01*
X519314Y586471D01*
X521813D01*
X523063Y587720D01*
Y592719D01*
X521813Y593968D01*
X525562D02*
Y586471D01*
X530561D01*
X533060Y593968D02*
Y586471D01*
X536809D01*
X538058Y587720D01*
Y592719D01*
X536809Y593968D01*
X533060D01*
X545556D02*
X540557D01*
Y586471D01*
X545556D01*
X540557Y590219D02*
X543056D01*
X548055Y586471D02*
Y593968D01*
X551804D01*
X553053Y592719D01*
Y590219D01*
X551804Y588970D01*
X548055D01*
X550554D02*
X553053Y586471D01*
X563050D02*
Y593968D01*
X565549Y591469D01*
X568048Y593968D01*
Y586471D01*
X570548D02*
Y591469D01*
X573047Y593968D01*
X575546Y591469D01*
Y586471D01*
Y590219D01*
X570548D01*
X583044Y592719D02*
X581794Y593968D01*
X579295D01*
X578045Y592719D01*
Y591469D01*
X579295Y590219D01*
X581794D01*
X583044Y588970D01*
Y587720D01*
X581794Y586471D01*
X579295D01*
X578045Y587720D01*
X585543Y593968D02*
Y586471D01*
Y588970D01*
X590541Y593968D01*
X586792Y590219D01*
X590541Y586471D01*
X594290Y585221D02*
X595540Y586471D01*
Y587720D01*
X594290D01*
Y586471D01*
X595540D01*
X594290Y585221D01*
X593040Y583972D01*
X608036Y593968D02*
Y586471D01*
X613034D01*
X615533D02*
Y593968D01*
X619282D01*
X620532Y592719D01*
Y590219D01*
X619282Y588970D01*
X615533D01*
X623031Y593968D02*
X625530D01*
X624280D01*
Y586471D01*
X623031D01*
X625530D01*
X639276D02*
X636776Y588970D01*
Y591469D01*
X639276Y593968D01*
X643024Y592719D02*
X648023Y587720D01*
X643024D02*
X648023Y592719D01*
X643024Y590219D02*
X648023D01*
X645523Y587720D02*
Y592719D01*
X650522Y586471D02*
Y587720D01*
X651771D01*
Y586471D01*
X650522D01*
X661768Y592719D02*
X660519Y593968D01*
X658019D01*
X656770Y592719D01*
Y587720D01*
X658019Y586471D01*
X660519D01*
X661768Y587720D01*
Y590219D01*
X659269D01*
X664267Y593968D02*
Y586471D01*
X668016D01*
X669266Y587720D01*
Y588970D01*
X668016Y590219D01*
X664267D01*
X668016D01*
X669266Y591469D01*
Y592719D01*
X668016Y593968D01*
X664267D01*
X676763Y592719D02*
X675514Y593968D01*
X673015D01*
X671765Y592719D01*
Y591469D01*
X673015Y590219D01*
X675514D01*
X676763Y588970D01*
Y587720D01*
X675514Y586471D01*
X673015D01*
X671765Y587720D01*
X679263Y586471D02*
X681762Y588970D01*
Y591469D01*
X679263Y593968D01*
X461111Y570254D02*
Y562756D01*
X464860D01*
X466110Y564006D01*
Y565255D01*
X464860Y566505D01*
X461111D01*
X464860D01*
X466110Y567755D01*
Y569004D01*
X464860Y570254D01*
X461111D01*
X472358D02*
X469859D01*
X468609Y569004D01*
Y564006D01*
X469859Y562756D01*
X472358D01*
X473607Y564006D01*
Y569004D01*
X472358Y570254D01*
X476107D02*
X481105D01*
X478606D01*
Y562756D01*
X483604Y570254D02*
X488603D01*
X486103D01*
Y562756D01*
X494851Y570254D02*
X492351D01*
X491102Y569004D01*
Y564006D01*
X492351Y562756D01*
X494851D01*
X496100Y564006D01*
Y569004D01*
X494851Y570254D01*
X498599Y562756D02*
Y570254D01*
X501099Y567755D01*
X503598Y570254D01*
Y562756D01*
X518593Y569004D02*
X517343Y570254D01*
X514844D01*
X513594Y569004D01*
Y567755D01*
X514844Y566505D01*
X517343D01*
X518593Y565255D01*
Y564006D01*
X517343Y562756D01*
X514844D01*
X513594Y564006D01*
X524841Y570254D02*
X522342D01*
X521092Y569004D01*
Y564006D01*
X522342Y562756D01*
X524841D01*
X526090Y564006D01*
Y569004D01*
X524841Y570254D01*
X528590D02*
Y562756D01*
X533588D01*
X536087Y570254D02*
Y562756D01*
X539836D01*
X541086Y564006D01*
Y569004D01*
X539836Y570254D01*
X536087D01*
X548583D02*
X543585D01*
Y562756D01*
X548583D01*
X543585Y566505D02*
X546084D01*
X551082Y562756D02*
Y570254D01*
X554831D01*
X556081Y569004D01*
Y566505D01*
X554831Y565255D01*
X551082D01*
X553582D02*
X556081Y562756D01*
X558580D02*
Y570254D01*
X562329D01*
X563578Y569004D01*
Y566505D01*
X562329Y565255D01*
X558580D01*
X566078Y562756D02*
Y567755D01*
X568577Y570254D01*
X571076Y567755D01*
Y562756D01*
Y566505D01*
X566078D01*
X578574Y569004D02*
X577324Y570254D01*
X574825D01*
X573575Y569004D01*
Y567755D01*
X574825Y566505D01*
X577324D01*
X578574Y565255D01*
Y564006D01*
X577324Y562756D01*
X574825D01*
X573575Y564006D01*
X581073Y570254D02*
X586071D01*
X583572D01*
Y562756D01*
X593569Y570254D02*
X588570D01*
Y562756D01*
X593569D01*
X588570Y566505D02*
X591070D01*
X606065Y562756D02*
X603566Y565255D01*
Y567755D01*
X606065Y570254D01*
X609813Y569004D02*
X614812Y564006D01*
X609813D02*
X614812Y569004D01*
X609813Y566505D02*
X614812D01*
X612313Y564006D02*
Y569004D01*
X617311Y562756D02*
Y564006D01*
X618561D01*
Y562756D01*
X617311D01*
X628557Y569004D02*
X627308Y570254D01*
X624809D01*
X623559Y569004D01*
Y564006D01*
X624809Y562756D01*
X627308D01*
X628557Y564006D01*
Y566505D01*
X626058D01*
X631057Y570254D02*
Y562756D01*
X634805D01*
X636055Y564006D01*
Y565255D01*
X634805Y566505D01*
X631057D01*
X634805D01*
X636055Y567755D01*
Y569004D01*
X634805Y570254D01*
X631057D01*
X638554Y562756D02*
Y570254D01*
X642303D01*
X643553Y569004D01*
Y566505D01*
X642303Y565255D01*
X638554D01*
X646052Y562756D02*
X648551Y565255D01*
Y567755D01*
X646052Y570254D01*
X357432Y453286D02*
Y447288D01*
X360431D01*
X361431Y448287D01*
Y452286D01*
X360431Y453286D01*
X357432D01*
X363430Y451286D02*
Y447288D01*
Y449287D01*
X364430Y450287D01*
X365429Y451286D01*
X366429D01*
X369428Y447288D02*
X371428D01*
X370428D01*
Y451286D01*
X369428D01*
X374427Y447288D02*
X376426D01*
X375426D01*
Y453286D01*
X374427D01*
X379425Y447288D02*
X381424D01*
X380425D01*
Y453286D01*
X379425D01*
X390421D02*
Y447288D01*
X393421D01*
X394420Y448287D01*
Y452286D01*
X393421Y453286D01*
X390421D01*
X396420Y451286D02*
Y447288D01*
Y449287D01*
X397419Y450287D01*
X398419Y451286D01*
X399418D01*
X403417D02*
X405417D01*
X406416Y450287D01*
Y447288D01*
X403417D01*
X402418Y448287D01*
X403417Y449287D01*
X406416D01*
X408416Y451286D02*
Y448287D01*
X409415Y447288D01*
X410415Y448287D01*
X411415Y447288D01*
X412414Y448287D01*
Y451286D01*
X414414Y447288D02*
X416413D01*
X415413D01*
Y451286D01*
X414414D01*
X419412Y447288D02*
Y451286D01*
X422411D01*
X423411Y450287D01*
Y447288D01*
X427410Y445288D02*
X428409D01*
X429409Y446288D01*
Y451286D01*
X426410D01*
X425410Y450287D01*
Y448287D01*
X426410Y447288D01*
X429409D01*
X431408D02*
Y448287D01*
X432408D01*
Y447288D01*
X431408D01*
X460044Y768948D02*
Y776446D01*
X463793D01*
X465043Y775196D01*
Y772697D01*
X463793Y771447D01*
X460044D01*
X471291Y776446D02*
X468792D01*
X467542Y775196D01*
Y770198D01*
X468792Y768948D01*
X471291D01*
X472541Y770198D01*
Y775196D01*
X471291Y776446D01*
X475040D02*
Y768948D01*
X480038D01*
X482537Y776446D02*
Y775196D01*
X485037Y772697D01*
X487536Y775196D01*
Y776446D01*
X485037Y772697D02*
Y768948D01*
X490035Y776446D02*
X492534D01*
X491285D01*
Y768948D01*
X490035D01*
X492534D01*
X496283D02*
Y776446D01*
X498782Y773947D01*
X501281Y776446D01*
Y768948D01*
X503780Y776446D02*
X506280D01*
X505030D01*
Y768948D01*
X503780D01*
X506280D01*
X510028Y776446D02*
Y768948D01*
X513777D01*
X515027Y770198D01*
Y775196D01*
X513777Y776446D01*
X510028D01*
X522524D02*
X517526D01*
Y768948D01*
X522524D01*
X517526Y772697D02*
X520025D01*
X459518Y733292D02*
Y725795D01*
X464517D01*
X467016D02*
Y730793D01*
X469515Y733292D01*
X472014Y730793D01*
Y725795D01*
Y729544D01*
X467016D01*
X474513Y733292D02*
Y732043D01*
X477013Y729544D01*
X479512Y732043D01*
Y733292D01*
X477013Y729544D02*
Y725795D01*
X487009Y733292D02*
X482011D01*
Y725795D01*
X487009D01*
X482011Y729544D02*
X484510D01*
X489509Y725795D02*
Y733292D01*
X493257D01*
X494507Y732043D01*
Y729544D01*
X493257Y728294D01*
X489509D01*
X492008D02*
X494507Y725795D01*
X509502D02*
X504504D01*
X509502Y730793D01*
Y732043D01*
X508252Y733292D01*
X505753D01*
X504504Y732043D01*
X513251Y724545D02*
X514501Y725795D01*
Y727044D01*
X513251D01*
Y725795D01*
X514501D01*
X513251Y724545D01*
X512001Y723296D01*
X526997Y725795D02*
X529496D01*
X528246D01*
Y733292D01*
X526997Y732043D01*
X533245Y725795D02*
X538243Y730793D01*
X545740Y725795D02*
X540742D01*
X545740Y730793D01*
Y732043D01*
X544491Y733292D01*
X541992D01*
X540742Y732043D01*
X559486Y733292D02*
X556987D01*
X555737Y732043D01*
Y727044D01*
X556987Y725795D01*
X559486D01*
X560736Y727044D01*
Y732043D01*
X559486Y733292D01*
X563235D02*
X568233D01*
Y732043D01*
X563235Y727044D01*
Y725795D01*
X568233D01*
X570732D02*
Y727044D01*
X571982D01*
Y725795D01*
X570732D01*
X589476Y732043D02*
X588227Y733292D01*
X585728D01*
X584478Y732043D01*
Y727044D01*
X585728Y725795D01*
X588227D01*
X589476Y727044D01*
X591975Y733292D02*
Y727044D01*
X593225Y725795D01*
X595724D01*
X596974Y727044D01*
Y733292D01*
X609470Y725795D02*
X606971Y728294D01*
Y730793D01*
X609470Y733292D01*
X613219Y732043D02*
X618217Y727044D01*
X613219D02*
X618217Y732043D01*
X613219Y729544D02*
X618217D01*
X615718Y727044D02*
Y732043D01*
X620716Y725795D02*
Y727044D01*
X621966D01*
Y725795D01*
X620716D01*
X631963Y732043D02*
X630713Y733292D01*
X628214D01*
X626964Y732043D01*
Y727044D01*
X628214Y725795D01*
X630713D01*
X631963Y727044D01*
Y729544D01*
X629463D01*
X634462Y725795D02*
X636961D01*
X635711D01*
Y733292D01*
X634462Y732043D01*
X640710Y725795D02*
X643209Y728294D01*
Y730793D01*
X640710Y733292D01*
X459899Y837209D02*
X464897D01*
X462398D01*
Y829712D01*
X471145Y837209D02*
X468646D01*
X467397Y835960D01*
Y830961D01*
X468646Y829712D01*
X471145D01*
X472395Y830961D01*
Y835960D01*
X471145Y837209D01*
X474894Y829712D02*
Y837209D01*
X478643D01*
X479893Y835960D01*
Y833461D01*
X478643Y832211D01*
X474894D01*
X494888Y835960D02*
X493638Y837209D01*
X491139D01*
X489889Y835960D01*
Y834710D01*
X491139Y833461D01*
X493638D01*
X494888Y832211D01*
Y830961D01*
X493638Y829712D01*
X491139D01*
X489889Y830961D01*
X501136Y837209D02*
X498637D01*
X497387Y835960D01*
Y830961D01*
X498637Y829712D01*
X501136D01*
X502385Y830961D01*
Y835960D01*
X501136Y837209D01*
X504885D02*
Y829712D01*
X509883D01*
X512382Y837209D02*
Y829712D01*
X516131D01*
X517381Y830961D01*
Y835960D01*
X516131Y837209D01*
X512382D01*
X524878D02*
X519880D01*
Y829712D01*
X524878D01*
X519880Y833461D02*
X522379D01*
X527377Y829712D02*
Y837209D01*
X531126D01*
X532376Y835960D01*
Y833461D01*
X531126Y832211D01*
X527377D01*
X529877D02*
X532376Y829712D01*
X534875D02*
Y837209D01*
X538624D01*
X539873Y835960D01*
Y833461D01*
X538624Y832211D01*
X534875D01*
X542373Y829712D02*
Y834710D01*
X544872Y837209D01*
X547371Y834710D01*
Y829712D01*
Y833461D01*
X542373D01*
X554869Y835960D02*
X553619Y837209D01*
X551120D01*
X549870Y835960D01*
Y834710D01*
X551120Y833461D01*
X553619D01*
X554869Y832211D01*
Y830961D01*
X553619Y829712D01*
X551120D01*
X549870Y830961D01*
X557368Y837209D02*
X562366D01*
X559867D01*
Y829712D01*
X569864Y837209D02*
X564865D01*
Y829712D01*
X569864D01*
X564865Y833461D02*
X567365D01*
X582360Y829712D02*
X579860Y832211D01*
Y834710D01*
X582360Y837209D01*
X586108Y835960D02*
X591107Y830961D01*
X586108D02*
X591107Y835960D01*
X586108Y833461D02*
X591107D01*
X588608Y830961D02*
Y835960D01*
X593606Y829712D02*
Y830961D01*
X594856D01*
Y829712D01*
X593606D01*
X604852Y835960D02*
X603603Y837209D01*
X601104D01*
X599854Y835960D01*
Y830961D01*
X601104Y829712D01*
X603603D01*
X604852Y830961D01*
Y833461D01*
X602353D01*
X607352Y837209D02*
X612350D01*
X609851D01*
Y829712D01*
X614849D02*
Y837209D01*
X618598D01*
X619847Y835960D01*
Y833461D01*
X618598Y832211D01*
X614849D01*
X622347Y829712D02*
X624846Y832211D01*
Y834710D01*
X622347Y837209D01*
X259226Y877928D02*
Y857935D01*
X272555D01*
X279219D02*
Y871264D01*
X285884Y877928D01*
X292548Y871264D01*
Y857935D01*
Y867932D01*
X279219D01*
X299213Y877928D02*
Y874596D01*
X305877Y867932D01*
X312542Y874596D01*
Y877928D01*
X305877Y867932D02*
Y857935D01*
X332535Y877928D02*
X319206D01*
Y857935D01*
X332535D01*
X319206Y867932D02*
X325871D01*
X339200Y857935D02*
Y877928D01*
X349197D01*
X352529Y874596D01*
Y867932D01*
X349197Y864599D01*
X339200D01*
X345865D02*
X352529Y857935D01*
X392516Y874596D02*
X389184Y877928D01*
X382519D01*
X379187Y874596D01*
Y871264D01*
X382519Y867932D01*
X389184D01*
X392516Y864599D01*
Y861267D01*
X389184Y857935D01*
X382519D01*
X379187Y861267D01*
X399181Y877928D02*
X412510D01*
X405845D01*
Y857935D01*
X419174D02*
Y871264D01*
X425839Y877928D01*
X432503Y871264D01*
Y857935D01*
Y867932D01*
X419174D01*
X452497Y874596D02*
X449164Y877928D01*
X442500D01*
X439168Y874596D01*
Y861267D01*
X442500Y857935D01*
X449164D01*
X452497Y861267D01*
X459161Y877928D02*
Y857935D01*
Y864599D01*
X472490Y877928D01*
X462494Y867932D01*
X472490Y857935D01*
X479155Y867932D02*
X492484D01*
X499148Y877928D02*
Y861267D01*
X502481Y857935D01*
X509145D01*
X512477Y861267D01*
Y877928D01*
X519142Y857935D02*
Y877928D01*
X529139D01*
X532471Y874596D01*
Y867932D01*
X529139Y864599D01*
X519142D01*
X458863Y796998D02*
X463861D01*
X461362D01*
Y789500D01*
X470109Y796998D02*
X467610D01*
X466360Y795748D01*
Y790750D01*
X467610Y789500D01*
X470109D01*
X471359Y790750D01*
Y795748D01*
X470109Y796998D01*
X473858Y789500D02*
Y796998D01*
X477607D01*
X478856Y795748D01*
Y793249D01*
X477607Y791999D01*
X473858D01*
X488853Y796998D02*
Y789500D01*
X493851D01*
X496351D02*
Y794498D01*
X498850Y796998D01*
X501349Y794498D01*
Y789500D01*
Y793249D01*
X496351D01*
X503848Y796998D02*
Y795748D01*
X506347Y793249D01*
X508847Y795748D01*
Y796998D01*
X506347Y793249D02*
Y789500D01*
X516344Y796998D02*
X511346D01*
Y789500D01*
X516344D01*
X511346Y793249D02*
X513845D01*
X518843Y789500D02*
Y796998D01*
X522592D01*
X523842Y795748D01*
Y793249D01*
X522592Y791999D01*
X518843D01*
X521343D02*
X523842Y789500D01*
X527591Y788250D02*
X528840Y789500D01*
Y790750D01*
X527591D01*
Y789500D01*
X528840D01*
X527591Y788250D01*
X526341Y787001D01*
X541336Y789500D02*
X543835D01*
X542586D01*
Y796998D01*
X541336Y795748D01*
X558830Y796998D02*
X556331D01*
X555082Y795748D01*
Y790750D01*
X556331Y789500D01*
X558830D01*
X560080Y790750D01*
Y795748D01*
X558830Y796998D01*
X562579D02*
X567578D01*
Y795748D01*
X562579Y790750D01*
Y789500D01*
X567578D01*
X570077D02*
Y790750D01*
X571326D01*
Y789500D01*
X570077D01*
X588821Y796998D02*
X583822D01*
Y793249D01*
X586322D01*
X583822D01*
Y789500D01*
X591320Y796998D02*
X593819D01*
X592570D01*
Y789500D01*
X591320D01*
X593819D01*
X597568D02*
Y796998D01*
X602566Y789500D01*
Y796998D01*
X605065D02*
X607565D01*
X606315D01*
Y789500D01*
X605065D01*
X607565D01*
X616312Y795748D02*
X615062Y796998D01*
X612563D01*
X611313Y795748D01*
Y794498D01*
X612563Y793249D01*
X615062D01*
X616312Y791999D01*
Y790750D01*
X615062Y789500D01*
X612563D01*
X611313Y790750D01*
X618811Y796998D02*
Y789500D01*
Y793249D01*
X623809D01*
Y796998D01*
Y789500D01*
X631307Y796998D02*
X626309D01*
Y789500D01*
X631307D01*
X626309Y793249D02*
X628808D01*
X633806Y796998D02*
Y789500D01*
X637555D01*
X638805Y790750D01*
Y795748D01*
X637555Y796998D01*
X633806D01*
X653800Y795748D02*
X652550Y796998D01*
X650051D01*
X648801Y795748D01*
Y790750D01*
X650051Y789500D01*
X652550D01*
X653800Y790750D01*
X656299Y796998D02*
Y790750D01*
X657549Y789500D01*
X660048D01*
X661297Y790750D01*
Y796998D01*
X673793Y789500D02*
X671294Y791999D01*
Y794498D01*
X673793Y796998D01*
X682541Y795748D02*
X681291Y796998D01*
X678792D01*
X677542Y795748D01*
Y790750D01*
X678792Y789500D01*
X681291D01*
X682541Y790750D01*
X685040Y796998D02*
Y790750D01*
X686289Y789500D01*
X688789D01*
X690038Y790750D01*
Y796998D01*
X692537Y793249D02*
X697536D01*
X695037Y795748D02*
Y790750D01*
X700035Y789500D02*
Y796998D01*
X703784D01*
X705033Y795748D01*
Y793249D01*
X703784Y791999D01*
X700035D01*
X707532Y796998D02*
Y789500D01*
X712531D01*
X715030D02*
Y794498D01*
X717529Y796998D01*
X720028Y794498D01*
Y789500D01*
Y793249D01*
X715030D01*
X722528Y796998D02*
X727526D01*
X725027D01*
Y789500D01*
X730025Y796998D02*
X732524D01*
X731275D01*
Y789500D01*
X730025D01*
X732524D01*
X736273D02*
Y796998D01*
X741271Y789500D01*
Y796998D01*
X748769Y795748D02*
X747519Y796998D01*
X745020D01*
X743771Y795748D01*
Y790750D01*
X745020Y789500D01*
X747519D01*
X748769Y790750D01*
Y793249D01*
X746270D01*
X751268Y789500D02*
X753767Y791999D01*
Y794498D01*
X751268Y796998D01*
X767513Y789500D02*
X765014Y791999D01*
Y794498D01*
X767513Y796998D01*
X771262Y795748D02*
X776260Y790750D01*
X771262D02*
X776260Y795748D01*
X771262Y793249D02*
X776260D01*
X773761Y790750D02*
Y795748D01*
X778759Y789500D02*
Y790750D01*
X780009D01*
Y789500D01*
X778759D01*
X790006Y795748D02*
X788756Y796998D01*
X786257D01*
X785007Y795748D01*
Y790750D01*
X786257Y789500D01*
X788756D01*
X790006Y790750D01*
Y793249D01*
X787507D01*
X792505Y796998D02*
X797503D01*
X795004D01*
Y789500D01*
X800003Y796998D02*
Y789500D01*
X805001D01*
X807500D02*
X809999Y791999D01*
Y794498D01*
X807500Y796998D01*
X459399Y817709D02*
X464397D01*
X461898D01*
Y810212D01*
X470646Y817709D02*
X468146D01*
X466897Y816460D01*
Y811461D01*
X468146Y810212D01*
X470646D01*
X471895Y811461D01*
Y816460D01*
X470646Y817709D01*
X474394Y810212D02*
Y817709D01*
X478143D01*
X479393Y816460D01*
Y813960D01*
X478143Y812711D01*
X474394D01*
X494388Y816460D02*
X493138Y817709D01*
X490639D01*
X489390Y816460D01*
Y815210D01*
X490639Y813960D01*
X493138D01*
X494388Y812711D01*
Y811461D01*
X493138Y810212D01*
X490639D01*
X489390Y811461D01*
X500636Y817709D02*
X498137D01*
X496887Y816460D01*
Y811461D01*
X498137Y810212D01*
X500636D01*
X501885Y811461D01*
Y816460D01*
X500636Y817709D01*
X504385D02*
Y810212D01*
X509383D01*
X511882Y817709D02*
Y810212D01*
X515631D01*
X516881Y811461D01*
Y816460D01*
X515631Y817709D01*
X511882D01*
X524378D02*
X519380D01*
Y810212D01*
X524378D01*
X519380Y813960D02*
X521879D01*
X526877Y810212D02*
Y817709D01*
X530626D01*
X531876Y816460D01*
Y813960D01*
X530626Y812711D01*
X526877D01*
X529377D02*
X531876Y810212D01*
X541873D02*
Y817709D01*
X544372Y815210D01*
X546871Y817709D01*
Y810212D01*
X549370D02*
Y815210D01*
X551869Y817709D01*
X554368Y815210D01*
Y810212D01*
Y813960D01*
X549370D01*
X561866Y816460D02*
X560616Y817709D01*
X558117D01*
X556868Y816460D01*
Y815210D01*
X558117Y813960D01*
X560616D01*
X561866Y812711D01*
Y811461D01*
X560616Y810212D01*
X558117D01*
X556868Y811461D01*
X564365Y817709D02*
Y810212D01*
Y812711D01*
X569364Y817709D01*
X565615Y813960D01*
X569364Y810212D01*
X573112Y808962D02*
X574362Y810212D01*
Y811461D01*
X573112D01*
Y810212D01*
X574362D01*
X573112Y808962D01*
X571863Y807712D01*
X586858Y817709D02*
Y810212D01*
X591856D01*
X594356D02*
Y817709D01*
X598104D01*
X599354Y816460D01*
Y813960D01*
X598104Y812711D01*
X594356D01*
X601853Y817709D02*
X604352D01*
X603103D01*
Y810212D01*
X601853D01*
X604352D01*
X618098D02*
X615599Y812711D01*
Y815210D01*
X618098Y817709D01*
X621847Y816460D02*
X626845Y811461D01*
X621847D02*
X626845Y816460D01*
X621847Y813960D02*
X626845D01*
X624346Y811461D02*
Y816460D01*
X629344Y810212D02*
Y811461D01*
X630594D01*
Y810212D01*
X629344D01*
X640591Y816460D02*
X639341Y817709D01*
X636842D01*
X635592Y816460D01*
Y811461D01*
X636842Y810212D01*
X639341D01*
X640591Y811461D01*
Y813960D01*
X638092D01*
X643090Y817709D02*
X648088D01*
X645589D01*
Y810212D01*
X655586Y816460D02*
X654336Y817709D01*
X651837D01*
X650587Y816460D01*
Y815210D01*
X651837Y813960D01*
X654336D01*
X655586Y812711D01*
Y811461D01*
X654336Y810212D01*
X651837D01*
X650587Y811461D01*
X658085Y810212D02*
X660584Y812711D01*
Y815210D01*
X658085Y817709D01*
X86734Y705967D02*
X87984Y704717D01*
X90483D01*
X91733Y705967D01*
Y710965D01*
X90483Y712215D01*
X87984D01*
X86734Y710965D01*
Y709715D01*
X87984Y708466D01*
X91733D01*
X94232Y704717D02*
Y705967D01*
X95482D01*
Y704717D01*
X94232D01*
X100480D02*
X102979D01*
X101730D01*
Y712215D01*
X100480Y710965D01*
X106728D02*
X107977Y712215D01*
X110477D01*
X111726Y710965D01*
Y709715D01*
X110477Y708466D01*
X111726Y707216D01*
Y705967D01*
X110477Y704717D01*
X107977D01*
X106728Y705967D01*
Y707216D01*
X107977Y708466D01*
X106728Y709715D01*
Y710965D01*
X107977Y708466D02*
X110477D01*
X114225Y704717D02*
Y709715D01*
X115475D01*
X116725Y708466D01*
Y704717D01*
Y708466D01*
X117974Y709715D01*
X119224Y708466D01*
Y704717D01*
X121723D02*
X124222D01*
X122973D01*
Y709715D01*
X121723D01*
X127971Y704717D02*
X130470D01*
X129221D01*
Y712215D01*
X127971D01*
X134219Y708466D02*
X139217D01*
X136718Y710965D02*
Y705967D01*
X141717Y704717D02*
X146715Y709715D01*
X149214Y708466D02*
X154213D01*
X156712Y704717D02*
X159211D01*
X157961D01*
Y712215D01*
X156712Y710965D01*
X162960Y704717D02*
Y705967D01*
X164209D01*
Y704717D01*
X162960D01*
X174206Y712215D02*
X169208D01*
Y708466D01*
X171707Y709715D01*
X172957D01*
X174206Y708466D01*
Y705967D01*
X172957Y704717D01*
X170457D01*
X169208Y705967D01*
X176705Y704717D02*
Y709715D01*
X177955D01*
X179204Y708466D01*
Y704717D01*
Y708466D01*
X180454Y709715D01*
X181704Y708466D01*
Y704717D01*
X184203D02*
X186702D01*
X185452D01*
Y709715D01*
X184203D01*
X190451Y704717D02*
X192950D01*
X191700D01*
Y712215D01*
X190451D01*
D11*
X530032Y323682D02*
G03*
X525032Y328682I-5000J0D01*
G01*
X525148Y173921D02*
G03*
X530030Y178889I84J4800D01*
G01*
X540032Y328682D02*
G03*
X535032Y323682I0J-5000D01*
G01*
Y178921D02*
G03*
X539944Y173922I5000J0D01*
G01*
X712532Y323682D02*
G03*
X707532Y328682I-5000J0D01*
G01*
X707648Y173921D02*
G03*
X712530Y178889I84J4800D01*
G01*
X717532Y178822D02*
G03*
X722517Y173922I4900J0D01*
G01*
X722532Y328682D02*
G03*
X717532Y323682I0J-5000D01*
G01*
X437532Y398782D02*
G03*
X432632Y403682I-4900J0D01*
G01*
X432732Y371182D02*
G03*
X437532Y375982I0J4800D01*
G01*
Y361282D02*
G03*
X432461Y366179I-4900J0D01*
G01*
X442532Y366082D02*
G03*
X447432Y361182I4900J0D01*
G01*
X442532Y338582D02*
G03*
X447432Y333682I4900J0D01*
G01*
X432632D02*
G03*
X437532Y338582I0J4900D01*
G01*
X612532Y351282D02*
G03*
X607632Y356182I-4900J0D01*
G01*
Y333682D02*
G03*
X612531Y338668I0J4900D01*
G01*
X617532Y338782D02*
G03*
X622543Y333683I5100J0D01*
G01*
X622332Y356182D02*
G03*
X617538Y351131I0J-4800D01*
G01*
X447532Y356182D02*
G03*
X442532Y351182I0J-5000D01*
G01*
X447532Y403682D02*
G03*
X442532Y398682I0J-5000D01*
G01*
X352532Y338682D02*
G03*
X357444Y333683I5000J0D01*
G01*
X357532Y366182D02*
G03*
X352532Y361182I0J-5000D01*
G01*
Y376182D02*
G03*
X357532Y371182I5000J0D01*
G01*
Y403682D02*
G03*
X352532Y398682I0J-5000D01*
G01*
Y413682D02*
G03*
X357532Y408682I5000J0D01*
G01*
Y428682D02*
G03*
X352532Y423682I0J-5000D01*
G01*
X612532D02*
G03*
X607532Y428682I-5000J0D01*
G01*
X622532D02*
G03*
X617532Y423682I0J-5000D01*
G01*
X607532Y408682D02*
G03*
X612532Y413682I0J5000D01*
G01*
Y398682D02*
G03*
X607532Y403682I-5000J0D01*
G01*
X357532Y328682D02*
G03*
X352532Y323682I0J-5000D01*
G01*
X607619Y361182D02*
G03*
X612533Y366182I-87J5000D01*
G01*
X352532Y178921D02*
G03*
X357444Y173922I5000J0D01*
G01*
X657532Y351282D02*
G03*
X652632Y356182I-4900J0D01*
G01*
X652532Y333682D02*
G03*
X657532Y338682I0J5000D01*
G01*
X777532Y173922D02*
G03*
X782532Y178921I0J5000D01*
G01*
X782532Y323770D02*
G03*
X777532Y328683I-5000J-87D01*
G01*
Y333682D02*
G03*
X782532Y338682I0J5000D01*
G01*
Y423782D02*
G03*
X777461Y428679I-4900J0D01*
G01*
X617532Y366182D02*
G03*
X622532Y361182I5000J0D01*
G01*
X777532D02*
G03*
X782532Y366182I0J5000D01*
G01*
X667532Y356182D02*
G03*
X662532Y351182I0J-5000D01*
G01*
X782532Y351282D02*
G03*
X777632Y356182I-4900J0D01*
G01*
X662532Y338582D02*
G03*
X667517Y333683I4900J0D01*
G01*
X540032Y173922D02*
X707532D01*
X357532D02*
X525032D01*
X357532Y328682D02*
X525032D01*
X540032D02*
X707532D01*
X722532Y173922D02*
X777532D01*
X722532Y328682D02*
X777532D01*
X357532Y428682D02*
X607532D01*
X357532Y333682D02*
X432532D01*
X357532Y366182D02*
X432532D01*
X357532Y371182D02*
X432532D01*
X357532Y403682D02*
X432532D01*
X357532Y408682D02*
X607532D01*
X447532Y403682D02*
X607532D01*
X447532Y356182D02*
X607532D01*
X447532Y333682D02*
X607532D01*
X622532D02*
X652532D01*
X622532Y356182D02*
X652532D01*
X667532Y333682D02*
X777532D01*
X622532Y428682D02*
X777532D01*
X447532Y361182D02*
X607619D01*
X622532D02*
X777532D01*
X667532Y356182D02*
X777532D01*
X530029Y178972D02*
X530032Y323682D01*
X535032Y178236D02*
Y323682D01*
X712529Y178236D02*
X712532Y323682D01*
X717532Y177990D02*
Y323682D01*
X352532Y338682D02*
Y361182D01*
X437532Y338682D02*
Y361182D01*
X352532Y376182D02*
Y398682D01*
X437532Y376182D02*
Y398682D01*
X352532Y413682D02*
Y423682D01*
X612532Y413682D02*
Y423682D01*
Y366182D02*
Y398682D01*
X442532Y366182D02*
Y398682D01*
X612532Y338682D02*
Y351182D01*
X442532Y338682D02*
Y351182D01*
X617532Y338682D02*
Y351182D01*
X657532Y338682D02*
Y351182D01*
X782532Y177745D02*
Y323682D01*
Y338682D02*
Y351282D01*
X352395Y178727D02*
X352532Y323682D01*
X617532Y366182D02*
Y423682D01*
X782532Y366182D02*
Y423682D01*
X662532Y338682D02*
Y351182D01*
X239703Y614687D02*
X431703D01*
X239703D02*
Y620687D01*
X431704Y614687D02*
Y620687D01*
X239703D02*
X431704D01*
X214333Y747841D02*
Y754320D01*
X444333D01*
Y747841D02*
Y754320D01*
X214333Y747841D02*
X444333D01*
X213059Y636406D02*
X443059D01*
Y642884D01*
X213059D02*
X443059D01*
X213059Y636406D02*
Y642884D01*
X214333Y658056D02*
Y664534D01*
X444333D01*
Y658056D02*
Y664534D01*
X214333Y658056D02*
X444333D01*
X216880Y700083D02*
Y706562D01*
X446880D01*
Y700083D02*
Y706562D01*
X216880Y700083D02*
X446880D01*
X236252Y687261D02*
X428253D01*
Y681261D02*
Y687261D01*
X236252Y681261D02*
Y687261D01*
X236252Y681261D02*
X428253D01*
X215104Y598654D02*
X445104D01*
X445741Y586154D02*
Y598654D01*
X215104Y586154D02*
X445104D01*
X215104D02*
Y598654D01*
X233069Y723288D02*
X425069D01*
X233069D02*
Y729288D01*
X425069Y723288D02*
Y729288D01*
X233069D02*
X425069D01*
X212663Y808238D02*
Y820738D01*
Y808238D02*
X442663D01*
Y820738D01*
X212663D02*
X442663D01*
X237526Y789285D02*
X429526D01*
X237526D02*
Y795285D01*
X429526Y789285D02*
Y795285D01*
X237526D02*
X429526D01*
X217663Y832738D02*
Y837738D01*
Y832738D02*
X437663D01*
Y837738D01*
X217663D02*
X437663D01*
X213696Y768855D02*
X443696D01*
Y775333D01*
X213696D02*
X443696D01*
X213696Y768855D02*
Y775333D01*
X220248Y564453D02*
X440248D01*
Y569453D01*
X220248D02*
X440248D01*
X220248Y564453D02*
Y569453D01*
D12*
X190499Y287573D02*
Y298923D01*
X216875Y287573D02*
Y298924D01*
X180061Y299902D02*
X190926D01*
X180061Y312107D02*
X190926D01*
D13*
X627735Y408701D02*
X625355Y405368D01*
X628925D01*
X627735Y408701D02*
Y403702D01*
X633139Y408701D02*
X630758Y403702D01*
X629806Y408701D02*
X633139D01*
X637114Y407986D02*
X636876Y408463D01*
X636162Y408701D01*
X635686D01*
X634972Y408463D01*
X634495Y407748D01*
X634257Y406558D01*
Y405368D01*
X634495Y404416D01*
X634972Y403940D01*
X635686Y403702D01*
X635924D01*
X636638Y403940D01*
X637114Y404416D01*
X637352Y405130D01*
Y405368D01*
X637114Y406082D01*
X636638Y406558D01*
X635924Y406796D01*
X635686D01*
X634972Y406558D01*
X634495Y406082D01*
X634257Y405368D01*
X641304Y408701D02*
X638923D01*
X638685Y406558D01*
X638923Y406796D01*
X639637Y407034D01*
X640351D01*
X641066Y406796D01*
X641542Y406320D01*
X641780Y405606D01*
Y405130D01*
X641542Y404416D01*
X641066Y403940D01*
X640351Y403702D01*
X639637D01*
X638923Y403940D01*
X638685Y404178D01*
X638447Y404654D01*
X650397Y407510D02*
X650159Y407986D01*
X649683Y408463D01*
X649207Y408701D01*
X648254D01*
X647778Y408463D01*
X647302Y407986D01*
X647064Y407510D01*
X646826Y406796D01*
Y405606D01*
X647064Y404892D01*
X647302Y404416D01*
X647778Y403940D01*
X648254Y403702D01*
X649207D01*
X649683Y403940D01*
X650159Y404416D01*
X650397Y404892D01*
X655610Y403702D02*
X653706Y408701D01*
X651801Y403702D01*
X652515Y405368D02*
X654896D01*
X656776Y408701D02*
Y403702D01*
X659633D01*
X660181Y408701D02*
Y403702D01*
X663037D01*
X666679Y408701D02*
X663585D01*
Y403702D01*
X666679D01*
X663585Y406320D02*
X665489D01*
X672868Y408701D02*
X672392Y408463D01*
X671916Y407986D01*
X671678Y407510D01*
X671440Y406796D01*
Y405606D01*
X671678Y404892D01*
X671916Y404416D01*
X672392Y403940D01*
X672868Y403702D01*
X673820D01*
X674297Y403940D01*
X674773Y404416D01*
X675011Y404892D01*
X675249Y405606D01*
Y406796D01*
X675011Y407510D01*
X674773Y407986D01*
X674297Y408463D01*
X673820Y408701D01*
X672868D01*
X673582Y404654D02*
X675011Y403226D01*
X676415Y408701D02*
Y405130D01*
X676653Y404416D01*
X677129Y403940D01*
X677843Y403702D01*
X678319D01*
X679034Y403940D01*
X679510Y404416D01*
X679748Y405130D01*
Y408701D01*
X684223D02*
X681128D01*
Y403702D01*
X684223D01*
X681128Y406320D02*
X683033D01*
X686722Y408701D02*
Y403702D01*
X685056Y408701D02*
X688389D01*
X692316D02*
X688984Y403702D01*
Y408701D02*
X692316D01*
X688984Y403702D02*
X692316D01*
X697244D02*
X695340Y408701D01*
X693435Y403702D01*
X694149Y405368D02*
X696530D01*
X698410Y408701D02*
Y403702D01*
X701267D01*
X628294Y398876D02*
X628056Y399352D01*
X627580Y399828D01*
X627104Y400066D01*
X626152D01*
X625676Y399828D01*
X625200Y399352D01*
X624962Y398876D01*
X624724Y398161D01*
Y396971D01*
X624962Y396257D01*
X625200Y395781D01*
X625676Y395305D01*
X626152Y395067D01*
X627104D01*
X627580Y395305D01*
X628056Y395781D01*
X628294Y396257D01*
X633508Y395067D02*
X631603Y400066D01*
X629699Y395067D01*
X630413Y396733D02*
X632794D01*
X634674Y400066D02*
Y395067D01*
Y400066D02*
X636578Y395067D01*
X638483Y400066D02*
X636578Y395067D01*
X638483Y400066D02*
Y395067D01*
X643720D02*
X641815Y400066D01*
X639911Y395067D01*
X640625Y396733D02*
X643006D01*
X644886Y400066D02*
Y395067D01*
Y400066D02*
X647028D01*
X647743Y399828D01*
X647981Y399590D01*
X648219Y399114D01*
Y398638D01*
X647981Y398161D01*
X647743Y397923D01*
X647028Y397685D01*
X644886D01*
X646552D02*
X648219Y395067D01*
X649338Y400066D02*
Y395067D01*
X650385Y400066D02*
Y395067D01*
X653241D01*
X653789Y400066D02*
Y395067D01*
X656645D01*
X658621Y400066D02*
X658145Y399828D01*
X657669Y399352D01*
X657431Y398876D01*
X657193Y398161D01*
Y396971D01*
X657431Y396257D01*
X657669Y395781D01*
X658145Y395305D01*
X658621Y395067D01*
X659573D01*
X660049Y395305D01*
X660526Y395781D01*
X660764Y396257D01*
X661002Y396971D01*
Y398161D01*
X660764Y398876D01*
X660526Y399352D01*
X660049Y399828D01*
X659573Y400066D01*
X658621D01*
X662644Y395305D02*
X662406Y395067D01*
X662168Y395305D01*
X662406Y395543D01*
X662644Y395305D01*
Y394829D01*
X662406Y394353D01*
X662168Y394115D01*
X671238Y398876D02*
X671000Y399352D01*
X670524Y399828D01*
X670047Y400066D01*
X669095D01*
X668619Y399828D01*
X668143Y399352D01*
X667905Y398876D01*
X667667Y398161D01*
Y396971D01*
X667905Y396257D01*
X668143Y395781D01*
X668619Y395305D01*
X669095Y395067D01*
X670047D01*
X670524Y395305D01*
X671000Y395781D01*
X671238Y396257D01*
X676451Y395067D02*
X674546Y400066D01*
X672642Y395067D01*
X673356Y396733D02*
X675737D01*
X684640Y398399D02*
X684401Y397685D01*
X683925Y397209D01*
X683211Y396971D01*
X682973D01*
X682259Y397209D01*
X681783Y397685D01*
X681545Y398399D01*
Y398638D01*
X681783Y399352D01*
X682259Y399828D01*
X682973Y400066D01*
X683211D01*
X683925Y399828D01*
X684401Y399352D01*
X684640Y398399D01*
Y397209D01*
X684401Y396019D01*
X683925Y395305D01*
X683211Y395067D01*
X682735D01*
X682021Y395305D01*
X681783Y395781D01*
X686472Y400066D02*
X689091D01*
X687663Y398161D01*
X688377D01*
X688853Y397923D01*
X689091Y397685D01*
X689329Y396971D01*
Y396495D01*
X689091Y395781D01*
X688615Y395305D01*
X687901Y395067D01*
X687187D01*
X686472Y395305D01*
X686234Y395543D01*
X685996Y396019D01*
X691876Y400066D02*
X691162Y399828D01*
X690686Y399114D01*
X690448Y397923D01*
Y397209D01*
X690686Y396019D01*
X691162Y395305D01*
X691876Y395067D01*
X692352D01*
X693066Y395305D01*
X693542Y396019D01*
X693780Y397209D01*
Y397923D01*
X693542Y399114D01*
X693066Y399828D01*
X692352Y400066D01*
X691876D01*
X694899Y399114D02*
X695375Y399352D01*
X696089Y400066D01*
Y395067D01*
X698803Y398876D02*
Y399114D01*
X699041Y399590D01*
X699279Y399828D01*
X699755Y400066D01*
X700707D01*
X701184Y399828D01*
X701422Y399590D01*
X701660Y399114D01*
Y398638D01*
X701422Y398161D01*
X700946Y397447D01*
X698565Y395067D01*
X701898D01*
X365032Y417967D02*
X368888D01*
X370173Y418396D01*
X370602Y418824D01*
X371030Y419681D01*
Y420966D01*
X370602Y421824D01*
X370173Y422252D01*
X368888Y422680D01*
X365032D01*
Y413682D01*
X373044Y422680D02*
Y413682D01*
Y422680D02*
X376901D01*
X378186Y422252D01*
X378614Y421824D01*
X379043Y420966D01*
Y420110D01*
X378614Y419253D01*
X378186Y418824D01*
X376901Y418396D01*
X373044D01*
X376044D02*
X379043Y413682D01*
X383628Y422680D02*
X382771Y422252D01*
X381914Y421395D01*
X381485Y420538D01*
X381057Y419253D01*
Y417110D01*
X381485Y415825D01*
X381914Y414968D01*
X382771Y414111D01*
X383628Y413682D01*
X385342D01*
X386198Y414111D01*
X387055Y414968D01*
X387484Y415825D01*
X387912Y417110D01*
Y419253D01*
X387484Y420538D01*
X387055Y421395D01*
X386198Y422252D01*
X385342Y422680D01*
X383628D01*
X394297D02*
Y415825D01*
X393868Y414539D01*
X393440Y414111D01*
X392583Y413682D01*
X391726D01*
X390869Y414111D01*
X390441Y414539D01*
X390012Y415825D01*
Y416682D01*
X402181Y422680D02*
X396611D01*
Y413682D01*
X402181D01*
X396611Y418396D02*
X400038D01*
X410108Y420538D02*
X409679Y421395D01*
X408822Y422252D01*
X407965Y422680D01*
X406251D01*
X405394Y422252D01*
X404537Y421395D01*
X404109Y420538D01*
X403681Y419253D01*
Y417110D01*
X404109Y415825D01*
X404537Y414968D01*
X405394Y414111D01*
X406251Y413682D01*
X407965D01*
X408822Y414111D01*
X409679Y414968D01*
X410108Y415825D01*
X415635Y422680D02*
Y413682D01*
X412636Y422680D02*
X418634D01*
X420134Y419681D02*
X419706Y419253D01*
X420134Y418824D01*
X420563Y419253D01*
X420134Y419681D01*
Y414539D02*
X419706Y414111D01*
X420134Y413682D01*
X420563Y414111D01*
X420134Y414539D01*
X435602Y422680D02*
X429603Y413682D01*
Y422680D02*
X435602D01*
X429603Y413682D02*
X435602D01*
X437616Y417967D02*
X441472D01*
X442758Y418396D01*
X443186Y418824D01*
X443615Y419681D01*
Y420966D01*
X443186Y421824D01*
X442758Y422252D01*
X441472Y422680D01*
X437616D01*
Y413682D01*
X445629Y422680D02*
X447771Y413682D01*
X449913Y422680D02*
X447771Y413682D01*
X449913Y422680D02*
X452056Y413682D01*
X454198Y422680D02*
X452056Y413682D01*
X463496Y420538D02*
Y420966D01*
X463925Y421824D01*
X464353Y422252D01*
X465210Y422680D01*
X466924D01*
X467781Y422252D01*
X468210Y421824D01*
X468638Y420966D01*
Y420110D01*
X468210Y419253D01*
X467352Y417967D01*
X463068Y413682D01*
X469066D01*
X473651Y422680D02*
X472366Y422252D01*
X471509Y420966D01*
X471080Y418824D01*
Y417539D01*
X471509Y415396D01*
X472366Y414111D01*
X473651Y413682D01*
X474508D01*
X475794Y414111D01*
X476650Y415396D01*
X477079Y417539D01*
Y418824D01*
X476650Y420966D01*
X475794Y422252D01*
X474508Y422680D01*
X473651D01*
X483378D02*
X479093Y416682D01*
X485520D01*
X483378Y422680D02*
Y413682D01*
X623824Y388273D02*
X625014Y383274D01*
X626204Y388273D02*
X625014Y383274D01*
X626204Y388273D02*
X627394Y383274D01*
X628585Y388273D02*
X627394Y383274D01*
X629585Y388273D02*
X630775Y383274D01*
X631965Y388273D02*
X630775Y383274D01*
X631965Y388273D02*
X633155Y383274D01*
X634345Y388273D02*
X633155Y383274D01*
X635345Y388273D02*
X636535Y383274D01*
X637726Y388273D02*
X636535Y383274D01*
X637726Y388273D02*
X638916Y383274D01*
X640106Y388273D02*
X638916Y383274D01*
X641344Y383750D02*
X641106Y383512D01*
X641344Y383274D01*
X641582Y383512D01*
X641344Y383750D01*
X646009Y388273D02*
X642677Y383274D01*
Y388273D02*
X646009D01*
X642677Y383274D02*
X646009D01*
X647128Y385654D02*
X649271D01*
X649985Y385892D01*
X650223Y386130D01*
X650461Y386606D01*
Y387320D01*
X650223Y387797D01*
X649985Y388035D01*
X649271Y388273D01*
X647128D01*
Y383274D01*
X653008Y388273D02*
X652532Y388035D01*
X652056Y387559D01*
X651818Y387082D01*
X651580Y386368D01*
Y385178D01*
X651818Y384464D01*
X652056Y383988D01*
X652532Y383512D01*
X653008Y383274D01*
X653960D01*
X654436Y383512D01*
X654912Y383988D01*
X655150Y384464D01*
X655388Y385178D01*
Y386368D01*
X655150Y387082D01*
X654912Y387559D01*
X654436Y388035D01*
X653960Y388273D01*
X653008D01*
X656555D02*
X657745Y383274D01*
X658935Y388273D02*
X657745Y383274D01*
X658935Y388273D02*
X660125Y383274D01*
X661316Y388273D02*
X660125Y383274D01*
X665410Y388273D02*
X662316D01*
Y383274D01*
X665410D01*
X662316Y385892D02*
X664220D01*
X666243Y388273D02*
Y383274D01*
Y388273D02*
X668386D01*
X669100Y388035D01*
X669338Y387797D01*
X669576Y387320D01*
Y386844D01*
X669338Y386368D01*
X669100Y386130D01*
X668386Y385892D01*
X666243D01*
X667910D02*
X669576Y383274D01*
X670695Y388273D02*
Y383274D01*
Y388273D02*
X672837D01*
X673551Y388035D01*
X673789Y387797D01*
X674027Y387320D01*
Y386844D01*
X673789Y386368D01*
X673551Y386130D01*
X672837Y385892D01*
X670695D02*
X672837D01*
X673551Y385654D01*
X673789Y385416D01*
X674027Y384940D01*
Y384226D01*
X673789Y383750D01*
X673551Y383512D01*
X672837Y383274D01*
X670695D01*
X678955D02*
X677050Y388273D01*
X675146Y383274D01*
X675860Y384940D02*
X678241D01*
X681788Y388273D02*
Y383274D01*
X680121Y388273D02*
X683454D01*
X685715D02*
Y383274D01*
X684049Y388273D02*
X687382D01*
X691071D02*
X687977D01*
Y383274D01*
X691071D01*
X687977Y385892D02*
X689881D01*
X691904Y388273D02*
Y383274D01*
Y388273D02*
X694047D01*
X694761Y388035D01*
X694999Y387797D01*
X695237Y387320D01*
Y386844D01*
X694999Y386368D01*
X694761Y386130D01*
X694047Y385892D01*
X691904D01*
X693571D02*
X695237Y383274D01*
X696356Y388273D02*
X698260Y385892D01*
Y383274D01*
X700165Y388273D02*
X698260Y385892D01*
X701045Y383750D02*
X700807Y383512D01*
X701045Y383274D01*
X701283Y383512D01*
X701045Y383750D01*
X705949Y387082D02*
X705711Y387559D01*
X705235Y388035D01*
X704759Y388273D01*
X703807D01*
X703331Y388035D01*
X702854Y387559D01*
X702616Y387082D01*
X702378Y386368D01*
Y385178D01*
X702616Y384464D01*
X702854Y383988D01*
X703331Y383512D01*
X703807Y383274D01*
X704759D01*
X705235Y383512D01*
X705711Y383988D01*
X705949Y384464D01*
X708782Y388273D02*
X708306Y388035D01*
X707830Y387559D01*
X707592Y387082D01*
X707353Y386368D01*
Y385178D01*
X707592Y384464D01*
X707830Y383988D01*
X708306Y383512D01*
X708782Y383274D01*
X709734D01*
X710210Y383512D01*
X710686Y383988D01*
X710924Y384464D01*
X711162Y385178D01*
Y386368D01*
X710924Y387082D01*
X710686Y387559D01*
X710210Y388035D01*
X709734Y388273D01*
X708782D01*
X712329D02*
Y383274D01*
Y388273D02*
X714233Y383274D01*
X716137Y388273D02*
X714233Y383274D01*
X716137Y388273D02*
Y383274D01*
X474980Y342441D02*
X474699Y341597D01*
X474136Y341035D01*
X473293Y340754D01*
X473012D01*
X472168Y341035D01*
X471606Y341597D01*
X471325Y342441D01*
Y342722D01*
X471606Y343565D01*
X472168Y344128D01*
X473012Y344409D01*
X473293D01*
X474136Y344128D01*
X474699Y343565D01*
X474980Y342441D01*
Y341035D01*
X474699Y339629D01*
X474136Y338786D01*
X473293Y338505D01*
X472731D01*
X471887Y338786D01*
X471606Y339348D01*
X476583Y341035D02*
X481643D01*
X483387Y343284D02*
X483949Y343565D01*
X484792Y344409D01*
Y338505D01*
X489403Y344409D02*
X488560Y344128D01*
X487997Y343284D01*
X487716Y341879D01*
Y341035D01*
X487997Y339629D01*
X488560Y338786D01*
X489403Y338505D01*
X489965D01*
X490809Y338786D01*
X491371Y339629D01*
X491652Y341035D01*
Y341879D01*
X491371Y343284D01*
X490809Y344128D01*
X489965Y344409D01*
X489403D01*
X492974Y341035D02*
X498035D01*
X501465Y344409D02*
X500621Y344128D01*
X500059Y343284D01*
X499778Y341879D01*
Y341035D01*
X500059Y339629D01*
X500621Y338786D01*
X501465Y338505D01*
X502027D01*
X502871Y338786D01*
X503433Y339629D01*
X503714Y341035D01*
Y341879D01*
X503433Y343284D01*
X502871Y344128D01*
X502027Y344409D01*
X501465D01*
X506722D02*
X505879Y344128D01*
X505317Y343284D01*
X505035Y341879D01*
Y341035D01*
X505317Y339629D01*
X505879Y338786D01*
X506722Y338505D01*
X507285D01*
X508128Y338786D01*
X508690Y339629D01*
X508972Y341035D01*
Y341879D01*
X508690Y343284D01*
X508128Y344128D01*
X507285Y344409D01*
X506722D01*
X510574Y343003D02*
Y343284D01*
X510855Y343847D01*
X511136Y344128D01*
X511699Y344409D01*
X512823D01*
X513386Y344128D01*
X513667Y343847D01*
X513948Y343284D01*
Y342722D01*
X513667Y342160D01*
X513105Y341316D01*
X510293Y338505D01*
X514229D01*
X517238Y344409D02*
X516394Y344128D01*
X515832Y343284D01*
X515551Y341879D01*
Y341035D01*
X515832Y339629D01*
X516394Y338786D01*
X517238Y338505D01*
X517800D01*
X518643Y338786D01*
X519206Y339629D01*
X519487Y341035D01*
Y341879D01*
X519206Y343284D01*
X518643Y344128D01*
X517800Y344409D01*
X517238D01*
X521371D02*
X524463D01*
X522776Y342160D01*
X523620D01*
X524182Y341879D01*
X524463Y341597D01*
X524744Y340754D01*
Y340192D01*
X524463Y339348D01*
X523901Y338786D01*
X523057Y338505D01*
X522214D01*
X521371Y338786D01*
X521089Y339067D01*
X520808Y339629D01*
X526066Y341035D02*
X531127D01*
X533432Y344409D02*
X536525D01*
X534838Y342160D01*
X535681D01*
X536244Y341879D01*
X536525Y341597D01*
X536806Y340754D01*
Y340192D01*
X536525Y339348D01*
X535962Y338786D01*
X535119Y338505D01*
X534275D01*
X533432Y338786D01*
X533151Y339067D01*
X532870Y339629D01*
X538127Y336537D02*
X542626D01*
X543385Y344409D02*
Y338505D01*
Y344409D02*
X545915D01*
X546759Y344128D01*
X547040Y343847D01*
X547321Y343284D01*
Y342722D01*
X547040Y342160D01*
X546759Y341879D01*
X545915Y341597D01*
X543385D01*
X545353D02*
X547321Y338505D01*
X552297Y344409D02*
X548642D01*
Y338505D01*
X552297D01*
X548642Y341597D02*
X550892D01*
X553281Y344409D02*
X555531Y338505D01*
X557780Y344409D02*
X555531Y338505D01*
X560226Y344409D02*
X559383Y344128D01*
X558820Y343284D01*
X558539Y341879D01*
Y341035D01*
X558820Y339629D01*
X559383Y338786D01*
X560226Y338505D01*
X560788D01*
X561632Y338786D01*
X562194Y339629D01*
X562475Y341035D01*
Y341879D01*
X562194Y343284D01*
X561632Y344128D01*
X560788Y344409D01*
X560226D01*
X564078Y343003D02*
Y343284D01*
X564359Y343847D01*
X564640Y344128D01*
X565203Y344409D01*
X566327D01*
X566889Y344128D01*
X567171Y343847D01*
X567452Y343284D01*
Y342722D01*
X567171Y342160D01*
X566608Y341316D01*
X563797Y338505D01*
X567733D01*
X569054Y336537D02*
X573553D01*
X575999Y344409D02*
X575155Y344128D01*
X574593Y343284D01*
X574312Y341879D01*
Y341035D01*
X574593Y339629D01*
X575155Y338786D01*
X575999Y338505D01*
X576561D01*
X577405Y338786D01*
X577967Y339629D01*
X578248Y341035D01*
Y341879D01*
X577967Y343284D01*
X577405Y344128D01*
X576561Y344409D01*
X575999D01*
X582943Y343565D02*
X582662Y344128D01*
X581819Y344409D01*
X581256D01*
X580413Y344128D01*
X579851Y343284D01*
X579569Y341879D01*
Y340473D01*
X579851Y339348D01*
X580413Y338786D01*
X581256Y338505D01*
X581538D01*
X582381Y338786D01*
X582943Y339348D01*
X583224Y340192D01*
Y340473D01*
X582943Y341316D01*
X582381Y341879D01*
X581538Y342160D01*
X581256D01*
X580413Y341879D01*
X579851Y341316D01*
X579569Y340473D01*
X584799Y343003D02*
Y343284D01*
X585080Y343847D01*
X585361Y344128D01*
X585924Y344409D01*
X587048D01*
X587610Y344128D01*
X587892Y343847D01*
X588173Y343284D01*
Y342722D01*
X587892Y342160D01*
X587329Y341316D01*
X584518Y338505D01*
X588454D01*
X591462Y344409D02*
X590619Y344128D01*
X590057Y343284D01*
X589775Y341879D01*
Y341035D01*
X590057Y339629D01*
X590619Y338786D01*
X591462Y338505D01*
X592025D01*
X592868Y338786D01*
X593430Y339629D01*
X593712Y341035D01*
Y341879D01*
X593430Y343284D01*
X592868Y344128D01*
X592025Y344409D01*
X591462D01*
X595033Y343284D02*
X595595Y343565D01*
X596439Y344409D01*
Y338505D01*
X600769Y344409D02*
X599925Y344128D01*
X599644Y343565D01*
Y343003D01*
X599925Y342441D01*
X600487Y342160D01*
X601612Y341879D01*
X602456Y341597D01*
X603018Y341035D01*
X603299Y340473D01*
Y339629D01*
X603018Y339067D01*
X602737Y338786D01*
X601893Y338505D01*
X600769D01*
X599925Y338786D01*
X599644Y339067D01*
X599363Y339629D01*
Y340473D01*
X599644Y341035D01*
X600206Y341597D01*
X601050Y341879D01*
X602174Y342160D01*
X602737Y342441D01*
X603018Y343003D01*
Y343565D01*
X602737Y344128D01*
X601893Y344409D01*
X600769D01*
X449639Y387342D02*
X453495D01*
X454780Y387771D01*
X455209Y388199D01*
X455638Y389056D01*
Y390341D01*
X455209Y391198D01*
X454780Y391627D01*
X453495Y392055D01*
X449639D01*
Y383057D01*
X457651Y392055D02*
X459794Y383057D01*
X461936Y392055D02*
X459794Y383057D01*
X461936Y392055D02*
X464079Y383057D01*
X466221Y392055D02*
X464079Y383057D01*
X468020Y392055D02*
Y383057D01*
Y392055D02*
X471877D01*
X473162Y391627D01*
X473591Y391198D01*
X474019Y390341D01*
Y389484D01*
X473591Y388627D01*
X473162Y388199D01*
X471877Y387771D01*
X468020D02*
X471877D01*
X473162Y387342D01*
X473591Y386913D01*
X474019Y386057D01*
Y384771D01*
X473591Y383914D01*
X473162Y383486D01*
X471877Y383057D01*
X468020D01*
X476890Y383486D02*
X476462Y383057D01*
X476033Y383486D01*
X476462Y383914D01*
X476890Y383486D01*
Y382629D01*
X476462Y381772D01*
X476033Y381343D01*
X490216Y392055D02*
X485931Y386057D01*
X492358D01*
X490216Y392055D02*
Y383057D01*
X501014Y392055D02*
Y383057D01*
X506155D01*
X513996D02*
X510569Y392055D01*
X507141Y383057D01*
X508426Y386057D02*
X512711D01*
X516096Y392055D02*
X519524Y387771D01*
Y383057D01*
X522952Y392055D02*
X519524Y387771D01*
X529679Y392055D02*
X524109D01*
Y383057D01*
X529679D01*
X524109Y387771D02*
X527536D01*
X531178Y392055D02*
Y383057D01*
Y392055D02*
X535035D01*
X536320Y391627D01*
X536749Y391198D01*
X537177Y390341D01*
Y389484D01*
X536749Y388627D01*
X536320Y388199D01*
X535035Y387771D01*
X531178D01*
X534178D02*
X537177Y383057D01*
X546261Y392055D02*
Y383057D01*
Y392055D02*
X551831D01*
X546261Y387771D02*
X549689D01*
X552859Y392055D02*
Y383057D01*
X558001D01*
X564557Y392055D02*
X558987D01*
Y383057D01*
X564557D01*
X558987Y387771D02*
X562415D01*
X566057Y392055D02*
X572055Y383057D01*
Y392055D02*
X566057Y383057D01*
X363102Y312281D02*
X362673Y310996D01*
X361817Y310139D01*
X360531Y309710D01*
X360103D01*
X358817Y310139D01*
X357960Y310996D01*
X357532Y312281D01*
Y312710D01*
X357960Y313995D01*
X358817Y314852D01*
X360103Y315281D01*
X360531D01*
X361817Y314852D01*
X362673Y313995D01*
X363102Y312281D01*
Y310139D01*
X362673Y307996D01*
X361817Y306711D01*
X360531Y306282D01*
X359674D01*
X358389Y306711D01*
X357960Y307568D01*
X365544Y310139D02*
X373257D01*
X375913Y313567D02*
X376770Y313995D01*
X378056Y315281D01*
Y306282D01*
X385083Y315281D02*
X383798Y314852D01*
X382941Y313567D01*
X382512Y311424D01*
Y310139D01*
X382941Y307996D01*
X383798Y306711D01*
X385083Y306282D01*
X385940D01*
X387225Y306711D01*
X388082Y307996D01*
X388511Y310139D01*
Y311424D01*
X388082Y313567D01*
X387225Y314852D01*
X385940Y315281D01*
X385083D01*
X390525Y310139D02*
X398237D01*
X403465Y315281D02*
X402179Y314852D01*
X401322Y313567D01*
X400894Y311424D01*
Y310139D01*
X401322Y307996D01*
X402179Y306711D01*
X403465Y306282D01*
X404322D01*
X405607Y306711D01*
X406464Y307996D01*
X406892Y310139D01*
Y311424D01*
X406464Y313567D01*
X405607Y314852D01*
X404322Y315281D01*
X403465D01*
X411477D02*
X410192Y314852D01*
X409335Y313567D01*
X408906Y311424D01*
Y310139D01*
X409335Y307996D01*
X410192Y306711D01*
X411477Y306282D01*
X412334D01*
X413620Y306711D01*
X414477Y307996D01*
X414905Y310139D01*
Y311424D01*
X414477Y313567D01*
X413620Y314852D01*
X412334Y315281D01*
X411477D01*
X417347Y313138D02*
Y313567D01*
X417776Y314423D01*
X418204Y314852D01*
X419061Y315281D01*
X420775D01*
X421632Y314852D01*
X422061Y314423D01*
X422489Y313567D01*
Y312710D01*
X422061Y311853D01*
X421204Y310567D01*
X416919Y306282D01*
X422918D01*
X427502Y315281D02*
X426217Y314852D01*
X425360Y313567D01*
X424931Y311424D01*
Y310139D01*
X425360Y307996D01*
X426217Y306711D01*
X427502Y306282D01*
X428359D01*
X429645Y306711D01*
X430502Y307996D01*
X430930Y310139D01*
Y311424D01*
X430502Y313567D01*
X429645Y314852D01*
X428359Y315281D01*
X427502D01*
X433801D02*
X438514D01*
X435944Y311853D01*
X437229D01*
X438086Y311424D01*
X438514Y310996D01*
X438943Y309710D01*
Y308853D01*
X438514Y307568D01*
X437657Y306711D01*
X436372Y306282D01*
X435086D01*
X433801Y306711D01*
X433373Y307139D01*
X432944Y307996D01*
X440957Y310139D02*
X448669D01*
X452183Y315281D02*
X456896D01*
X454325Y311853D01*
X455611D01*
X456468Y311424D01*
X456896Y310996D01*
X457325Y309710D01*
Y308853D01*
X456896Y307568D01*
X456039Y306711D01*
X454754Y306282D01*
X453468D01*
X452183Y306711D01*
X451754Y307139D01*
X451326Y307996D01*
X459338Y303283D02*
X466194D01*
X467351Y315281D02*
Y306282D01*
Y315281D02*
X471207D01*
X472493Y314852D01*
X472921Y314423D01*
X473350Y313567D01*
Y312710D01*
X472921Y311853D01*
X472493Y311424D01*
X471207Y310996D01*
X467351D01*
X470350D02*
X473350Y306282D01*
X480934Y315281D02*
X475364D01*
Y306282D01*
X480934D01*
X475364Y310996D02*
X478791D01*
X482434Y315281D02*
X485861Y306282D01*
X489289Y315281D02*
X485861Y306282D01*
X493017Y315281D02*
X491732Y314852D01*
X490874Y313567D01*
X490446Y311424D01*
Y310139D01*
X490874Y307996D01*
X491732Y306711D01*
X493017Y306282D01*
X493874D01*
X495159Y306711D01*
X496016Y307996D01*
X496445Y310139D01*
Y311424D01*
X496016Y313567D01*
X495159Y314852D01*
X493874Y315281D01*
X493017D01*
X498887Y313138D02*
Y313567D01*
X499316Y314423D01*
X499744Y314852D01*
X500601Y315281D01*
X502315D01*
X503172Y314852D01*
X503600Y314423D01*
X504029Y313567D01*
Y312710D01*
X503600Y311853D01*
X502743Y310567D01*
X498459Y306282D01*
X504457D01*
X506471Y303283D02*
X513327D01*
X517055Y315281D02*
X515769Y314852D01*
X514912Y313567D01*
X514484Y311424D01*
Y310139D01*
X514912Y307996D01*
X515769Y306711D01*
X517055Y306282D01*
X517912D01*
X519197Y306711D01*
X520054Y307996D01*
X520482Y310139D01*
Y311424D01*
X520054Y313567D01*
X519197Y314852D01*
X517912Y315281D01*
X517055D01*
X527638Y313995D02*
X527210Y314852D01*
X525924Y315281D01*
X525067D01*
X523782Y314852D01*
X522925Y313567D01*
X522496Y311424D01*
Y309282D01*
X522925Y307568D01*
X523782Y306711D01*
X525067Y306282D01*
X525496D01*
X526781Y306711D01*
X527638Y307568D01*
X528067Y308853D01*
Y309282D01*
X527638Y310567D01*
X526781Y311424D01*
X525496Y311853D01*
X525067D01*
X523782Y311424D01*
X522925Y310567D01*
X522496Y309282D01*
X530466Y313138D02*
Y313567D01*
X530895Y314423D01*
X531323Y314852D01*
X532180Y315281D01*
X533894D01*
X534751Y314852D01*
X535179Y314423D01*
X535608Y313567D01*
Y312710D01*
X535179Y311853D01*
X534322Y310567D01*
X530038Y306282D01*
X536036D01*
X540621Y315281D02*
X539336Y314852D01*
X538479Y313567D01*
X538050Y311424D01*
Y310139D01*
X538479Y307996D01*
X539336Y306711D01*
X540621Y306282D01*
X541478D01*
X542763Y306711D01*
X543620Y307996D01*
X544049Y310139D01*
Y311424D01*
X543620Y313567D01*
X542763Y314852D01*
X541478Y315281D01*
X540621D01*
X546063Y313567D02*
X546920Y313995D01*
X548205Y315281D01*
Y306282D01*
X554804Y315281D02*
X553518Y314852D01*
X553090Y313995D01*
Y313138D01*
X553518Y312281D01*
X554375Y311853D01*
X556089Y311424D01*
X557375Y310996D01*
X558231Y310139D01*
X558660Y309282D01*
Y307996D01*
X558231Y307139D01*
X557803Y306711D01*
X556518Y306282D01*
X554804D01*
X553518Y306711D01*
X553090Y307139D01*
X552661Y307996D01*
Y309282D01*
X553090Y310139D01*
X553947Y310996D01*
X555232Y311424D01*
X556946Y311853D01*
X557803Y312281D01*
X558231Y313138D01*
Y313995D01*
X557803Y314852D01*
X556518Y315281D01*
X554804D01*
X561102Y307139D02*
X560674Y306711D01*
X561102Y306282D01*
X561531Y306711D01*
X561102Y307139D01*
X563502Y310567D02*
X567358D01*
X568644Y310996D01*
X569072Y311424D01*
X569501Y312281D01*
Y313567D01*
X569072Y314423D01*
X568644Y314852D01*
X567358Y315281D01*
X563502D01*
Y306282D01*
X576656Y310996D02*
X575799Y311853D01*
X574942Y312281D01*
X573657D01*
X572800Y311853D01*
X571943Y310996D01*
X571514Y309710D01*
Y308853D01*
X571943Y307568D01*
X572800Y306711D01*
X573657Y306282D01*
X574942D01*
X575799Y306711D01*
X576656Y307568D01*
X578584Y315281D02*
Y306282D01*
Y310996D02*
X579441Y311853D01*
X580298Y312281D01*
X581584D01*
X582441Y311853D01*
X583298Y310996D01*
X583726Y309710D01*
Y308853D01*
X583298Y307568D01*
X582441Y306711D01*
X581584Y306282D01*
X580298D01*
X579441Y306711D01*
X578584Y307568D01*
X585654Y315281D02*
Y306282D01*
Y315281D02*
X588654D01*
X589939Y314852D01*
X590796Y313995D01*
X591224Y313138D01*
X591653Y311853D01*
Y309710D01*
X591224Y308425D01*
X590796Y307568D01*
X589939Y306711D01*
X588654Y306282D01*
X585654D01*
X595809Y312281D02*
X594952Y311853D01*
X594095Y310996D01*
X593667Y309710D01*
Y308853D01*
X594095Y307568D01*
X594952Y306711D01*
X595809Y306282D01*
X597095D01*
X597952Y306711D01*
X598809Y307568D01*
X599237Y308853D01*
Y309710D01*
X598809Y310996D01*
X597952Y311853D01*
X597095Y312281D01*
X595809D01*
X606350Y310996D02*
X605493Y311853D01*
X604636Y312281D01*
X603350D01*
X602493Y311853D01*
X601637Y310996D01*
X601208Y309710D01*
Y308853D01*
X601637Y307568D01*
X602493Y306711D01*
X603350Y306282D01*
X604636D01*
X605493Y306711D01*
X606350Y307568D01*
X364387Y288782D02*
X360960Y297780D01*
X357532Y288782D01*
X358817Y291782D02*
X363102D01*
X366487Y294781D02*
Y288782D01*
Y292210D02*
X366915Y293496D01*
X367772Y294353D01*
X368629Y294781D01*
X369915D01*
X372014Y297780D02*
Y290496D01*
X372443Y289211D01*
X373300Y288782D01*
X374157D01*
X370729Y294781D02*
X373728D01*
X375442D02*
X377156Y288782D01*
X378870Y294781D02*
X377156Y288782D01*
X378870Y294781D02*
X380584Y288782D01*
X382298Y294781D02*
X380584Y288782D01*
X386540Y294781D02*
X385683Y294353D01*
X384826Y293496D01*
X384397Y292210D01*
Y291353D01*
X384826Y290068D01*
X385683Y289211D01*
X386540Y288782D01*
X387825D01*
X388682Y289211D01*
X389539Y290068D01*
X389968Y291353D01*
Y292210D01*
X389539Y293496D01*
X388682Y294353D01*
X387825Y294781D01*
X386540D01*
X391939D02*
Y288782D01*
Y292210D02*
X392367Y293496D01*
X393224Y294353D01*
X394081Y294781D01*
X395366D01*
X396181Y297780D02*
Y288782D01*
X400465Y294781D02*
X396181Y290496D01*
X397894Y292210D02*
X400894Y288782D01*
X415805Y295638D02*
X415376Y296495D01*
X414519Y297352D01*
X413662Y297780D01*
X411949D01*
X411092Y297352D01*
X410235Y296495D01*
X409806Y295638D01*
X409378Y294353D01*
Y292210D01*
X409806Y290925D01*
X410235Y290068D01*
X411092Y289211D01*
X411949Y288782D01*
X413662D01*
X414519Y289211D01*
X415376Y290068D01*
X415805Y290925D01*
Y292210D01*
X413662D02*
X415805D01*
X417862Y294781D02*
Y288782D01*
Y292210D02*
X418290Y293496D01*
X419147Y294353D01*
X420004Y294781D01*
X421289D01*
X427245D02*
Y288782D01*
Y293496D02*
X426388Y294353D01*
X425531Y294781D01*
X424246D01*
X423389Y294353D01*
X422532Y293496D01*
X422104Y292210D01*
Y291353D01*
X422532Y290068D01*
X423389Y289211D01*
X424246Y288782D01*
X425531D01*
X426388Y289211D01*
X427245Y290068D01*
X429645Y294781D02*
Y285783D01*
Y293496D02*
X430502Y294353D01*
X431359Y294781D01*
X432644D01*
X433501Y294353D01*
X434358Y293496D01*
X434787Y292210D01*
Y291353D01*
X434358Y290068D01*
X433501Y289211D01*
X432644Y288782D01*
X431359D01*
X430502Y289211D01*
X429645Y290068D01*
X436715Y297780D02*
Y288782D01*
Y293067D02*
X438000Y294353D01*
X438857Y294781D01*
X440142D01*
X441000Y294353D01*
X441428Y293067D01*
Y288782D01*
X444642Y297780D02*
X445070Y297352D01*
X445499Y297780D01*
X445070Y298209D01*
X444642Y297780D01*
X445070Y294781D02*
Y288782D01*
X452226Y293496D02*
X451369Y294353D01*
X450512Y294781D01*
X449226D01*
X448369Y294353D01*
X447512Y293496D01*
X447084Y292210D01*
Y291353D01*
X447512Y290068D01*
X448369Y289211D01*
X449226Y288782D01*
X450512D01*
X451369Y289211D01*
X452226Y290068D01*
X458867Y293496D02*
X458439Y294353D01*
X457153Y294781D01*
X455868D01*
X454582Y294353D01*
X454154Y293496D01*
X454582Y292639D01*
X455439Y292210D01*
X457582Y291782D01*
X458439Y291353D01*
X458867Y290496D01*
Y290068D01*
X458439Y289211D01*
X457153Y288782D01*
X455868D01*
X454582Y289211D01*
X454154Y290068D01*
X634578Y345791D02*
X633292Y345363D01*
X632436Y344077D01*
X632007Y341935D01*
Y340650D01*
X632436Y338507D01*
X633292Y337222D01*
X634578Y336793D01*
X635435D01*
X636720Y337222D01*
X637577Y338507D01*
X638006Y340650D01*
Y341935D01*
X637577Y344077D01*
X636720Y345363D01*
X635435Y345791D01*
X634578D01*
X640448Y343649D02*
Y344077D01*
X640876Y344934D01*
X641305Y345363D01*
X642162Y345791D01*
X643876D01*
X644733Y345363D01*
X645161Y344934D01*
X645590Y344077D01*
Y343220D01*
X645161Y342363D01*
X644304Y341078D01*
X640020Y336793D01*
X646018D01*
X630100Y423476D02*
X624435Y414977D01*
Y423476D02*
X630100D01*
X624435Y414977D02*
X630100D01*
X632002Y419024D02*
X635644D01*
X636858Y419429D01*
X637263Y419833D01*
X637668Y420643D01*
Y421857D01*
X637263Y422666D01*
X636858Y423071D01*
X635644Y423476D01*
X632002D01*
Y414977D01*
X641998Y423476D02*
X641188Y423071D01*
X640379Y422261D01*
X639974Y421452D01*
X639570Y420238D01*
Y418215D01*
X639974Y417001D01*
X640379Y416191D01*
X641188Y415382D01*
X641998Y414977D01*
X643616D01*
X644426Y415382D01*
X645235Y416191D01*
X645640Y417001D01*
X646044Y418215D01*
Y420238D01*
X645640Y421452D01*
X645235Y422261D01*
X644426Y423071D01*
X643616Y423476D01*
X641998D01*
X648027D02*
X650051Y414977D01*
X652074Y423476D02*
X650051Y414977D01*
X652074Y423476D02*
X654098Y414977D01*
X656121Y423476D02*
X654098Y414977D01*
X663081Y423476D02*
X657821D01*
Y414977D01*
X663081D01*
X657821Y419429D02*
X661058D01*
X664498Y423476D02*
Y414977D01*
Y423476D02*
X668140D01*
X669354Y423071D01*
X669758Y422666D01*
X670163Y421857D01*
Y421047D01*
X669758Y420238D01*
X669354Y419833D01*
X668140Y419429D01*
X664498D01*
X667330D02*
X670163Y414977D01*
X672874Y415382D02*
X672470Y414977D01*
X672065Y415382D01*
X672470Y415787D01*
X672874Y415382D01*
Y414573D01*
X672470Y413763D01*
X672065Y413359D01*
X681413Y423476D02*
Y414977D01*
X686269D01*
X687200Y423476D02*
Y414977D01*
X692056D01*
X699057Y421452D02*
X698652Y422261D01*
X697843Y423071D01*
X697034Y423476D01*
X695415D01*
X694605Y423071D01*
X693796Y422261D01*
X693392Y421452D01*
X692987Y420238D01*
Y418215D01*
X693392Y417001D01*
X693796Y416191D01*
X694605Y415382D01*
X695415Y414977D01*
X697034D01*
X697843Y415382D01*
X698652Y416191D01*
X699057Y417001D01*
X696030Y348931D02*
X691746Y339932D01*
X690032Y348931D02*
X696030D01*
X698044Y338647D02*
X704043Y348931D01*
X705071Y346788D02*
Y347217D01*
X705500Y348074D01*
X705928Y348502D01*
X706785Y348931D01*
X708499D01*
X709356Y348502D01*
X709785Y348074D01*
X710213Y347217D01*
Y346360D01*
X709785Y345503D01*
X708928Y344217D01*
X704643Y339932D01*
X710641D01*
X718654Y348931D02*
X714369Y339932D01*
X712655Y348931D02*
X718654D01*
X720668Y338647D02*
X726667Y348931D01*
X727695Y346788D02*
Y347217D01*
X728124Y348074D01*
X728552Y348502D01*
X729409Y348931D01*
X731123D01*
X731980Y348502D01*
X732408Y348074D01*
X732837Y347217D01*
Y346360D01*
X732408Y345503D01*
X731551Y344217D01*
X727267Y339932D01*
X733265D01*
X737850Y348931D02*
X736565Y348502D01*
X735708Y347217D01*
X735279Y345074D01*
Y343789D01*
X735708Y341646D01*
X736565Y340361D01*
X737850Y339932D01*
X738707D01*
X739992Y340361D01*
X740849Y341646D01*
X741278Y343789D01*
Y345074D01*
X740849Y347217D01*
X739992Y348502D01*
X738707Y348931D01*
X737850D01*
X743292Y347217D02*
X744149Y347645D01*
X745434Y348931D01*
Y339932D01*
X752033Y348931D02*
X750747Y348502D01*
X750319Y347645D01*
Y346788D01*
X750747Y345931D01*
X751604Y345503D01*
X753318Y345074D01*
X754604Y344646D01*
X755461Y343789D01*
X755889Y342932D01*
Y341646D01*
X755461Y340789D01*
X755032Y340361D01*
X753747Y339932D01*
X752033D01*
X750747Y340361D01*
X750319Y340789D01*
X749890Y341646D01*
Y342932D01*
X750319Y343789D01*
X751176Y344646D01*
X752461Y345074D01*
X754175Y345503D01*
X755032Y345931D01*
X755461Y346788D01*
Y347645D01*
X755032Y348502D01*
X753747Y348931D01*
X752033D01*
X625829Y378306D02*
X625115Y378068D01*
X624877Y377592D01*
Y377116D01*
X625115Y376640D01*
X625591Y376402D01*
X626543Y376164D01*
X627257Y375926D01*
X627733Y375450D01*
X627971Y374974D01*
Y374259D01*
X627733Y373783D01*
X627495Y373545D01*
X626781Y373307D01*
X625829D01*
X625115Y373545D01*
X624877Y373783D01*
X624639Y374259D01*
Y374974D01*
X624877Y375450D01*
X625353Y375926D01*
X626067Y376164D01*
X627019Y376402D01*
X627495Y376640D01*
X627733Y377116D01*
Y377592D01*
X627495Y378068D01*
X626781Y378306D01*
X625829D01*
X631947Y377592D02*
X631709Y378068D01*
X630995Y378306D01*
X630518D01*
X629804Y378068D01*
X629328Y377354D01*
X629090Y376164D01*
Y374974D01*
X629328Y374021D01*
X629804Y373545D01*
X630518Y373307D01*
X630757D01*
X631471Y373545D01*
X631947Y374021D01*
X632185Y374735D01*
Y374974D01*
X631947Y375688D01*
X631471Y376164D01*
X630757Y376402D01*
X630518D01*
X629804Y376164D01*
X629328Y375688D01*
X629090Y374974D01*
X636136Y377592D02*
X635898Y378068D01*
X635184Y378306D01*
X634708D01*
X633994Y378068D01*
X633518Y377354D01*
X633280Y376164D01*
Y374974D01*
X633518Y374021D01*
X633994Y373545D01*
X634708Y373307D01*
X634946D01*
X635660Y373545D01*
X636136Y374021D01*
X636374Y374735D01*
Y374974D01*
X636136Y375688D01*
X635660Y376164D01*
X634946Y376402D01*
X634708D01*
X633994Y376164D01*
X633518Y375688D01*
X633280Y374974D01*
X637469Y375450D02*
X641754D01*
X643706Y378306D02*
X646325D01*
X644896Y376402D01*
X645611D01*
X646087Y376164D01*
X646325Y375926D01*
X646563Y375212D01*
Y374735D01*
X646325Y374021D01*
X645849Y373545D01*
X645134Y373307D01*
X644420D01*
X643706Y373545D01*
X643468Y373783D01*
X643230Y374259D01*
X650538Y377592D02*
X650300Y378068D01*
X649586Y378306D01*
X649110D01*
X648396Y378068D01*
X647920Y377354D01*
X647681Y376164D01*
Y374974D01*
X647920Y374021D01*
X648396Y373545D01*
X649110Y373307D01*
X649348D01*
X650062Y373545D01*
X650538Y374021D01*
X650776Y374735D01*
Y374974D01*
X650538Y375688D01*
X650062Y376164D01*
X649348Y376402D01*
X649110D01*
X648396Y376164D01*
X647920Y375688D01*
X647681Y374974D01*
X654251Y378306D02*
X651871Y374974D01*
X655442D01*
X654251Y378306D02*
Y373307D01*
X656322Y375450D02*
X660607D01*
X662321Y377116D02*
Y377354D01*
X662559Y377830D01*
X662797Y378068D01*
X663273Y378306D01*
X664225D01*
X664702Y378068D01*
X664940Y377830D01*
X665178Y377354D01*
Y376878D01*
X664940Y376402D01*
X664464Y375688D01*
X662083Y373307D01*
X665416D01*
X669629Y376640D02*
X669391Y375926D01*
X668915Y375450D01*
X668201Y375212D01*
X667963D01*
X667249Y375450D01*
X666773Y375926D01*
X666535Y376640D01*
Y376878D01*
X666773Y377592D01*
X667249Y378068D01*
X667963Y378306D01*
X668201D01*
X668915Y378068D01*
X669391Y377592D01*
X669629Y376640D01*
Y375450D01*
X669391Y374259D01*
X668915Y373545D01*
X668201Y373307D01*
X667725D01*
X667011Y373545D01*
X666773Y374021D01*
X672414Y378306D02*
X671700Y378068D01*
X671224Y377354D01*
X670986Y376164D01*
Y375450D01*
X671224Y374259D01*
X671700Y373545D01*
X672414Y373307D01*
X672890D01*
X673604Y373545D01*
X674081Y374259D01*
X674319Y375450D01*
Y376164D01*
X674081Y377354D01*
X673604Y378068D01*
X672890Y378306D01*
X672414D01*
X678532Y376640D02*
X678294Y375926D01*
X677818Y375450D01*
X677104Y375212D01*
X676866D01*
X676152Y375450D01*
X675675Y375926D01*
X675437Y376640D01*
Y376878D01*
X675675Y377592D01*
X676152Y378068D01*
X676866Y378306D01*
X677104D01*
X677818Y378068D01*
X678294Y377592D01*
X678532Y376640D01*
Y375450D01*
X678294Y374259D01*
X677818Y373545D01*
X677104Y373307D01*
X676628D01*
X675913Y373545D01*
X675675Y374021D01*
D14*
X109463Y371406D02*
X106183Y374685D01*
X99624D01*
X96344Y371406D01*
Y358286D01*
X99624Y355007D01*
X106183D01*
X109463Y358286D01*
X125862Y374685D02*
X119302D01*
X116023Y371406D01*
Y358286D01*
X119302Y355007D01*
X125862D01*
X129142Y358286D01*
Y371406D01*
X125862Y374685D01*
X135701Y355007D02*
Y374685D01*
X148820Y355007D01*
Y374685D01*
X168499D02*
X155380D01*
Y364846D01*
X161940D01*
X155380D01*
Y355007D01*
X175059Y374685D02*
X181618D01*
X178339D01*
Y355007D01*
X175059D01*
X181618D01*
X191458Y374685D02*
Y355007D01*
X201297D01*
X204577Y358286D01*
Y371406D01*
X201297Y374685D01*
X191458D01*
X224255D02*
X211136D01*
Y355007D01*
X224255D01*
X211136Y364846D02*
X217696D01*
X230815Y355007D02*
Y374685D01*
X243934Y355007D01*
Y374685D01*
X250494D02*
X263613D01*
X257053D01*
Y355007D01*
X270172Y374685D02*
X276732D01*
X273452D01*
Y355007D01*
X270172D01*
X276732D01*
X286571D02*
Y368126D01*
X293131Y374685D01*
X299690Y368126D01*
Y355007D01*
Y364846D01*
X286571D01*
X306250Y374685D02*
Y355007D01*
X319369D01*
D15*
X359474Y341418D02*
X361402D01*
X362045Y341632D01*
X362259Y341846D01*
X362473Y342275D01*
Y342917D01*
X362259Y343346D01*
X362045Y343560D01*
X361402Y343774D01*
X359474D01*
Y339275D01*
X363480Y343774D02*
Y339275D01*
X366480Y343774D02*
Y339275D01*
X363480Y341632D02*
X366480D01*
X369008Y343774D02*
X368579Y343560D01*
X368151Y343132D01*
X367936Y342703D01*
X367722Y342060D01*
Y340989D01*
X367936Y340347D01*
X368151Y339918D01*
X368579Y339490D01*
X369008Y339275D01*
X369865D01*
X370293Y339490D01*
X370722Y339918D01*
X370936Y340347D01*
X371150Y340989D01*
Y342060D01*
X370936Y342703D01*
X370722Y343132D01*
X370293Y343560D01*
X369865Y343774D01*
X369008D01*
X372200D02*
Y339275D01*
Y343774D02*
X375199Y339275D01*
Y343774D02*
Y339275D01*
X379227Y343774D02*
X376442D01*
Y339275D01*
X379227D01*
X376442Y341632D02*
X378156D01*
X380191Y342275D02*
X379977Y342060D01*
X380191Y341846D01*
X380405Y342060D01*
X380191Y342275D01*
Y339704D02*
X379977Y339490D01*
X380191Y339275D01*
X380405Y339490D01*
X380191Y339704D01*
X385997Y343774D02*
X385354Y343560D01*
X385140Y343132D01*
Y342703D01*
X385354Y342275D01*
X385783Y342060D01*
X386640Y341846D01*
X387282Y341632D01*
X387711Y341203D01*
X387925Y340775D01*
Y340132D01*
X387711Y339704D01*
X387497Y339490D01*
X386854Y339275D01*
X385997D01*
X385354Y339490D01*
X385140Y339704D01*
X384926Y340132D01*
Y340775D01*
X385140Y341203D01*
X385568Y341632D01*
X386211Y341846D01*
X387068Y342060D01*
X387497Y342275D01*
X387711Y342703D01*
Y343132D01*
X387497Y343560D01*
X386854Y343774D01*
X385997D01*
X390217D02*
X389575Y343560D01*
X389146Y342917D01*
X388932Y341846D01*
Y341203D01*
X389146Y340132D01*
X389575Y339490D01*
X390217Y339275D01*
X390646D01*
X391289Y339490D01*
X391717Y340132D01*
X391931Y341203D01*
Y341846D01*
X391717Y342917D01*
X391289Y343560D01*
X390646Y343774D01*
X390217D01*
X395509D02*
X393367D01*
X393153Y341846D01*
X393367Y342060D01*
X394009Y342275D01*
X394652D01*
X395295Y342060D01*
X395724Y341632D01*
X395938Y340989D01*
Y340561D01*
X395724Y339918D01*
X395295Y339490D01*
X394652Y339275D01*
X394009D01*
X393367Y339490D01*
X393153Y339704D01*
X392938Y340132D01*
X396945Y341203D02*
X400801D01*
X403200Y343774D02*
X402558Y343560D01*
X402343Y343132D01*
Y342703D01*
X402558Y342275D01*
X402986Y342060D01*
X403843Y341846D01*
X404486Y341632D01*
X404914Y341203D01*
X405129Y340775D01*
Y340132D01*
X404914Y339704D01*
X404700Y339490D01*
X404057Y339275D01*
X403200D01*
X402558Y339490D01*
X402343Y339704D01*
X402129Y340132D01*
Y340775D01*
X402343Y341203D01*
X402772Y341632D01*
X403415Y341846D01*
X404272Y342060D01*
X404700Y342275D01*
X404914Y342703D01*
Y343132D01*
X404700Y343560D01*
X404057Y343774D01*
X403200D01*
X407207D02*
X406564Y343560D01*
X406350Y343132D01*
Y342703D01*
X406564Y342275D01*
X406992Y342060D01*
X407849Y341846D01*
X408492Y341632D01*
X408921Y341203D01*
X409135Y340775D01*
Y340132D01*
X408921Y339704D01*
X408706Y339490D01*
X408064Y339275D01*
X407207D01*
X406564Y339490D01*
X406350Y339704D01*
X406136Y340132D01*
Y340775D01*
X406350Y341203D01*
X406778Y341632D01*
X407421Y341846D01*
X408278Y342060D01*
X408706Y342275D01*
X408921Y342703D01*
Y343132D01*
X408706Y343560D01*
X408064Y343774D01*
X407207D01*
X412927Y342275D02*
X412713Y341632D01*
X412284Y341203D01*
X411641Y340989D01*
X411427D01*
X410784Y341203D01*
X410356Y341632D01*
X410142Y342275D01*
Y342489D01*
X410356Y343132D01*
X410784Y343560D01*
X411427Y343774D01*
X411641D01*
X412284Y343560D01*
X412713Y343132D01*
X412927Y342275D01*
Y341203D01*
X412713Y340132D01*
X412284Y339490D01*
X411641Y339275D01*
X411213D01*
X410570Y339490D01*
X410356Y339918D01*
X414148Y341203D02*
X418004D01*
X421475Y343774D02*
X419333Y340775D01*
X422546D01*
X421475Y343774D02*
Y339275D01*
X425910Y343774D02*
X423767D01*
X423553Y341846D01*
X423767Y342060D01*
X424410Y342275D01*
X425053D01*
X425696Y342060D01*
X426124Y341632D01*
X426338Y340989D01*
Y340561D01*
X426124Y339918D01*
X425696Y339490D01*
X425053Y339275D01*
X424410D01*
X423767Y339490D01*
X423553Y339704D01*
X423339Y340132D01*
X427774Y343774D02*
X430130D01*
X428845Y342060D01*
X429488D01*
X429916Y341846D01*
X430130Y341632D01*
X430345Y340989D01*
Y340561D01*
X430130Y339918D01*
X429702Y339490D01*
X429059Y339275D01*
X428416D01*
X427774Y339490D01*
X427560Y339704D01*
X427345Y340132D01*
X431352Y342917D02*
X431780Y343132D01*
X432423Y343774D01*
Y339275D01*
X359474Y361274D02*
Y356775D01*
Y361274D02*
X360974D01*
X361616Y361060D01*
X362045Y360632D01*
X362259Y360203D01*
X362473Y359560D01*
Y358489D01*
X362259Y357847D01*
X362045Y357418D01*
X361616Y356990D01*
X360974Y356775D01*
X359474D01*
X366266Y361274D02*
X363480D01*
Y356775D01*
X366266D01*
X363480Y359132D02*
X365194D01*
X370015Y360632D02*
X369586Y361060D01*
X368944Y361274D01*
X368087D01*
X367444Y361060D01*
X367015Y360632D01*
Y360203D01*
X367230Y359775D01*
X367444Y359560D01*
X367872Y359346D01*
X369158Y358918D01*
X369586Y358703D01*
X369800Y358489D01*
X370015Y358061D01*
Y357418D01*
X369586Y356990D01*
X368944Y356775D01*
X368087D01*
X367444Y356990D01*
X367015Y357418D01*
X371022Y361274D02*
Y356775D01*
X375178Y360203D02*
X374964Y360632D01*
X374535Y361060D01*
X374107Y361274D01*
X373250D01*
X372821Y361060D01*
X372393Y360632D01*
X372179Y360203D01*
X371964Y359560D01*
Y358489D01*
X372179Y357847D01*
X372393Y357418D01*
X372821Y356990D01*
X373250Y356775D01*
X374107D01*
X374535Y356990D01*
X374964Y357418D01*
X375178Y357847D01*
Y358489D01*
X374107D02*
X375178D01*
X376206Y361274D02*
Y356775D01*
Y361274D02*
X379206Y356775D01*
Y361274D02*
Y356775D01*
X383233Y361274D02*
X380448D01*
Y356775D01*
X383233D01*
X380448Y359132D02*
X382162D01*
X383983Y361274D02*
Y356775D01*
Y361274D02*
X385911D01*
X386554Y361060D01*
X386768Y360846D01*
X386982Y360418D01*
Y359989D01*
X386768Y359560D01*
X386554Y359346D01*
X385911Y359132D01*
X383983D01*
X385483D02*
X386982Y356775D01*
X388204Y359775D02*
X387989Y359560D01*
X388204Y359346D01*
X388418Y359560D01*
X388204Y359775D01*
Y357204D02*
X387989Y356990D01*
X388204Y356775D01*
X388418Y356990D01*
X388204Y357204D01*
X395081Y361274D02*
Y357847D01*
X394866Y357204D01*
X394652Y356990D01*
X394224Y356775D01*
X393795D01*
X393367Y356990D01*
X393153Y357204D01*
X392938Y357847D01*
Y358275D01*
X396452Y357204D02*
X396238Y356990D01*
X396452Y356775D01*
X396666Y356990D01*
X396452Y357204D01*
X401187Y358918D02*
X403115D01*
X403757Y359132D01*
X403972Y359346D01*
X404186Y359775D01*
Y360418D01*
X403972Y360846D01*
X403757Y361060D01*
X403115Y361274D01*
X401187D01*
Y356775D01*
X407978Y361274D02*
X405193D01*
Y356775D01*
X407978D01*
X405193Y359132D02*
X406907D01*
X408728Y361274D02*
Y356775D01*
Y361274D02*
X410656D01*
X411299Y361060D01*
X411513Y360846D01*
X411727Y360418D01*
Y359989D01*
X411513Y359560D01*
X411299Y359346D01*
X410656Y359132D01*
X408728D01*
X410227D02*
X411727Y356775D01*
X415519Y361274D02*
X412734D01*
Y356775D01*
X415519D01*
X412734Y359132D02*
X414448D01*
X419268Y361274D02*
X416269Y356775D01*
Y361274D02*
X419268D01*
X416269Y356775D02*
X419268D01*
X360317Y398181D02*
X357532D01*
Y393682D01*
X360317D01*
X357532Y396039D02*
X359245D01*
X361067Y398181D02*
Y393682D01*
Y398181D02*
X364066Y393682D01*
Y398181D02*
Y393682D01*
X368522Y397110D02*
X368308Y397539D01*
X367879Y397967D01*
X367451Y398181D01*
X366594D01*
X366165Y397967D01*
X365737Y397539D01*
X365523Y397110D01*
X365308Y396467D01*
Y395396D01*
X365523Y394754D01*
X365737Y394325D01*
X366165Y393897D01*
X366594Y393682D01*
X367451D01*
X367879Y393897D01*
X368308Y394325D01*
X368522Y394754D01*
Y395396D01*
X367451D02*
X368522D01*
X369550Y398181D02*
Y393682D01*
X370493Y398181D02*
Y393682D01*
Y398181D02*
X373493Y393682D01*
Y398181D02*
Y393682D01*
X377520Y398181D02*
X374735D01*
Y393682D01*
X377520D01*
X374735Y396039D02*
X376449D01*
X381055Y398181D02*
X378270D01*
Y393682D01*
X381055D01*
X378270Y396039D02*
X379984D01*
X381805Y398181D02*
Y393682D01*
Y398181D02*
X383733D01*
X384376Y397967D01*
X384590Y397753D01*
X384804Y397324D01*
Y396896D01*
X384590Y396467D01*
X384376Y396253D01*
X383733Y396039D01*
X381805D01*
X383305D02*
X384804Y393682D01*
X386026Y396682D02*
X385811Y396467D01*
X386026Y396253D01*
X386240Y396467D01*
X386026Y396682D01*
Y394111D02*
X385811Y393897D01*
X386026Y393682D01*
X386240Y393897D01*
X386026Y394111D01*
X392903Y398181D02*
Y394754D01*
X392688Y394111D01*
X392474Y393897D01*
X392046Y393682D01*
X391617D01*
X391189Y393897D01*
X390974Y394111D01*
X390760Y394754D01*
Y395182D01*
X394274Y394111D02*
X394059Y393897D01*
X394274Y393682D01*
X394488Y393897D01*
X394274Y394111D01*
X399008Y395825D02*
X400937D01*
X401579Y396039D01*
X401794Y396253D01*
X402008Y396682D01*
Y397324D01*
X401794Y397753D01*
X401579Y397967D01*
X400937Y398181D01*
X399008D01*
Y393682D01*
X405800Y398181D02*
X403015D01*
Y393682D01*
X405800D01*
X403015Y396039D02*
X404729D01*
X406550Y398181D02*
Y393682D01*
Y398181D02*
X408478D01*
X409121Y397967D01*
X409335Y397753D01*
X409549Y397324D01*
Y396896D01*
X409335Y396467D01*
X409121Y396253D01*
X408478Y396039D01*
X406550D01*
X408049D02*
X409549Y393682D01*
X413341Y398181D02*
X410556D01*
Y393682D01*
X413341D01*
X410556Y396039D02*
X412270D01*
X417090Y398181D02*
X414091Y393682D01*
Y398181D02*
X417090D01*
X414091Y393682D02*
X417090D01*
X726745Y323110D02*
X726531Y323539D01*
X726102Y323967D01*
X725674Y324181D01*
X724817D01*
X724389Y323967D01*
X723960Y323539D01*
X723746Y323110D01*
X723532Y322467D01*
Y321396D01*
X723746Y320754D01*
X723960Y320325D01*
X724389Y319897D01*
X724817Y319682D01*
X725674D01*
X726102Y319897D01*
X726531Y320325D01*
X726745Y320754D01*
Y321396D01*
X725674D02*
X726745D01*
X730559Y324181D02*
X727774D01*
Y319682D01*
X730559D01*
X727774Y322039D02*
X729488D01*
X731309Y324181D02*
Y319682D01*
Y324181D02*
X733237D01*
X733879Y323967D01*
X734094Y323753D01*
X734308Y323324D01*
Y322896D01*
X734094Y322467D01*
X733879Y322253D01*
X733237Y322039D01*
X731309D01*
X732808D02*
X734308Y319682D01*
X735315Y324181D02*
Y319682D01*
Y324181D02*
X737243D01*
X737886Y323967D01*
X738100Y323753D01*
X738314Y323324D01*
Y322896D01*
X738100Y322467D01*
X737886Y322253D01*
X737243Y322039D01*
X735315D02*
X737243D01*
X737886Y321825D01*
X738100Y321611D01*
X738314Y321182D01*
Y320539D01*
X738100Y320111D01*
X737886Y319897D01*
X737243Y319682D01*
X735315D01*
X742106Y324181D02*
X739321D01*
Y319682D01*
X742106D01*
X739321Y322039D02*
X741035D01*
X742856Y324181D02*
Y319682D01*
Y324181D02*
X744784D01*
X745427Y323967D01*
X745641Y323753D01*
X745856Y323324D01*
Y322896D01*
X745641Y322467D01*
X745427Y322253D01*
X744784Y322039D01*
X742856D01*
X744356D02*
X745856Y319682D01*
X747077Y322682D02*
X746862Y322467D01*
X747077Y322253D01*
X747291Y322467D01*
X747077Y322682D01*
Y320111D02*
X746862Y319897D01*
X747077Y319682D01*
X747291Y319897D01*
X747077Y320111D01*
X357532Y324181D02*
Y319682D01*
Y324181D02*
X360317D01*
X357532Y322039D02*
X359246D01*
X360831Y324181D02*
Y319682D01*
X361774Y324181D02*
Y319682D01*
X364345D01*
X367622Y324181D02*
X364837D01*
Y319682D01*
X367622D01*
X364837Y322039D02*
X366551D01*
X371907Y324181D02*
Y319682D01*
Y324181D02*
X374906Y319682D01*
Y324181D02*
Y319682D01*
X379577D02*
X377863Y324181D01*
X376149Y319682D01*
X376792Y321182D02*
X378934D01*
X380627Y324181D02*
Y319682D01*
Y324181D02*
X382341Y319682D01*
X384055Y324181D02*
X382341Y319682D01*
X384055Y324181D02*
Y319682D01*
X388125Y324181D02*
X385340D01*
Y319682D01*
X388125D01*
X385340Y322039D02*
X387054D01*
X389089Y322682D02*
X388875Y322467D01*
X389089Y322253D01*
X389303Y322467D01*
X389089Y322682D01*
Y320111D02*
X388875Y319897D01*
X389089Y319682D01*
X389303Y319897D01*
X389089Y320111D01*
X447781Y399431D02*
Y394932D01*
X446282Y399431D02*
X449281D01*
X449817D02*
Y394932D01*
X452259Y399431D02*
Y394932D01*
X450759Y399431D02*
X453759D01*
X454294D02*
Y394932D01*
X456865D01*
X460143Y399431D02*
X457358D01*
Y394932D01*
X460143D01*
X457358Y397289D02*
X459072D01*
X461107Y397932D02*
X460893Y397717D01*
X461107Y397503D01*
X461321Y397717D01*
X461107Y397932D01*
Y395361D02*
X460893Y395147D01*
X461107Y394932D01*
X461321Y395147D01*
X461107Y395361D01*
X447532Y349575D02*
X449460D01*
X450103Y349789D01*
X450317Y350003D01*
X450531Y350432D01*
Y351075D01*
X450317Y351503D01*
X450103Y351717D01*
X449460Y351931D01*
X447532D01*
Y347432D01*
X454966D02*
X453252Y351931D01*
X451538Y347432D01*
X452181Y348932D02*
X454323D01*
X456015Y351931D02*
Y347432D01*
Y351931D02*
X457944D01*
X458586Y351717D01*
X458801Y351503D01*
X459015Y351075D01*
Y350646D01*
X458801Y350218D01*
X458586Y350003D01*
X457944Y349789D01*
X456015D01*
X457515D02*
X459015Y347432D01*
X461521Y351931D02*
Y347432D01*
X460022Y351931D02*
X463021D01*
X467092D02*
Y347432D01*
Y351931D02*
X470091Y347432D01*
Y351931D02*
Y347432D01*
X472619Y351931D02*
X472191Y351717D01*
X471762Y351289D01*
X471548Y350860D01*
X471334Y350218D01*
Y349146D01*
X471548Y348504D01*
X471762Y348075D01*
X472191Y347647D01*
X472619Y347432D01*
X473476D01*
X473905Y347647D01*
X474333Y348075D01*
X474547Y348504D01*
X474761Y349146D01*
Y350218D01*
X474547Y350860D01*
X474333Y351289D01*
X473905Y351717D01*
X473476Y351931D01*
X472619D01*
X476026Y347861D02*
X475811Y347647D01*
X476026Y347432D01*
X476240Y347647D01*
X476026Y347861D01*
X477439Y350432D02*
X477225Y350218D01*
X477439Y350003D01*
X477654Y350218D01*
X477439Y350432D01*
Y347861D02*
X477225Y347647D01*
X477439Y347432D01*
X477654Y347647D01*
X477439Y347861D01*
X541532Y324181D02*
Y319682D01*
X544102D01*
X548023D02*
X546309Y324181D01*
X544595Y319682D01*
X545238Y321182D02*
X547380D01*
X549073Y324181D02*
X550787Y322039D01*
Y319682D01*
X552501Y324181D02*
X550787Y322039D01*
X555864Y324181D02*
X553079D01*
Y319682D01*
X555864D01*
X553079Y322039D02*
X554793D01*
X556614Y324181D02*
Y319682D01*
Y324181D02*
X558542D01*
X559185Y323967D01*
X559399Y323753D01*
X559614Y323324D01*
Y322896D01*
X559399Y322467D01*
X559185Y322253D01*
X558542Y322039D01*
X556614D01*
X558114D02*
X559614Y319682D01*
X560835Y322682D02*
X560620Y322467D01*
X560835Y322253D01*
X561049Y322467D01*
X560835Y322682D01*
Y320111D02*
X560620Y319897D01*
X560835Y319682D01*
X561049Y319897D01*
X560835Y320111D01*
X357532Y378325D02*
X359460D01*
X360103Y378539D01*
X360317Y378753D01*
X360531Y379182D01*
Y379824D01*
X360317Y380253D01*
X360103Y380467D01*
X359460Y380681D01*
X357532D01*
Y376182D01*
X361538Y380681D02*
Y376182D01*
X364537Y380681D02*
Y376182D01*
X361538Y378539D02*
X364537D01*
X367065Y380681D02*
X366637Y380467D01*
X366208Y380039D01*
X365994Y379610D01*
X365780Y378967D01*
Y377896D01*
X365994Y377254D01*
X366208Y376825D01*
X366637Y376397D01*
X367065Y376182D01*
X367922D01*
X368351Y376397D01*
X368779Y376825D01*
X368993Y377254D01*
X369208Y377896D01*
Y378967D01*
X368993Y379610D01*
X368779Y380039D01*
X368351Y380467D01*
X367922Y380681D01*
X367065D01*
X370257D02*
Y376182D01*
Y380681D02*
X373257Y376182D01*
Y380681D02*
Y376182D01*
X377285Y380681D02*
X374499D01*
Y376182D01*
X377285D01*
X374499Y378539D02*
X376213D01*
X378249Y379182D02*
X378034Y378967D01*
X378249Y378753D01*
X378463Y378967D01*
X378249Y379182D01*
Y376611D02*
X378034Y376397D01*
X378249Y376182D01*
X378463Y376397D01*
X378249Y376611D01*
X384054Y380681D02*
X383412Y380467D01*
X383197Y380039D01*
Y379610D01*
X383412Y379182D01*
X383840Y378967D01*
X384697Y378753D01*
X385340Y378539D01*
X385768Y378111D01*
X385983Y377682D01*
Y377039D01*
X385768Y376611D01*
X385554Y376397D01*
X384911Y376182D01*
X384054D01*
X383412Y376397D01*
X383197Y376611D01*
X382983Y377039D01*
Y377682D01*
X383197Y378111D01*
X383626Y378539D01*
X384269Y378753D01*
X385126Y378967D01*
X385554Y379182D01*
X385768Y379610D01*
Y380039D01*
X385554Y380467D01*
X384911Y380681D01*
X384054D01*
X388275D02*
X387632Y380467D01*
X387204Y379824D01*
X386990Y378753D01*
Y378111D01*
X387204Y377039D01*
X387632Y376397D01*
X388275Y376182D01*
X388703D01*
X389346Y376397D01*
X389775Y377039D01*
X389989Y378111D01*
Y378753D01*
X389775Y379824D01*
X389346Y380467D01*
X388703Y380681D01*
X388275D01*
X393567D02*
X391424D01*
X391210Y378753D01*
X391424Y378967D01*
X392067Y379182D01*
X392710D01*
X393353Y378967D01*
X393781Y378539D01*
X393995Y377896D01*
Y377468D01*
X393781Y376825D01*
X393353Y376397D01*
X392710Y376182D01*
X392067D01*
X391424Y376397D01*
X391210Y376611D01*
X390996Y377039D01*
X395002Y378111D02*
X398858D01*
X401258Y380681D02*
X400615Y380467D01*
X400401Y380039D01*
Y379610D01*
X400615Y379182D01*
X401044Y378967D01*
X401901Y378753D01*
X402543Y378539D01*
X402972Y378111D01*
X403186Y377682D01*
Y377039D01*
X402972Y376611D01*
X402758Y376397D01*
X402115Y376182D01*
X401258D01*
X400615Y376397D01*
X400401Y376611D01*
X400187Y377039D01*
Y377682D01*
X400401Y378111D01*
X400830Y378539D01*
X401472Y378753D01*
X402329Y378967D01*
X402758Y379182D01*
X402972Y379610D01*
Y380039D01*
X402758Y380467D01*
X402115Y380681D01*
X401258D01*
X405264D02*
X404622Y380467D01*
X404407Y380039D01*
Y379610D01*
X404622Y379182D01*
X405050Y378967D01*
X405907Y378753D01*
X406550Y378539D01*
X406978Y378111D01*
X407192Y377682D01*
Y377039D01*
X406978Y376611D01*
X406764Y376397D01*
X406121Y376182D01*
X405264D01*
X404622Y376397D01*
X404407Y376611D01*
X404193Y377039D01*
Y377682D01*
X404407Y378111D01*
X404836Y378539D01*
X405478Y378753D01*
X406335Y378967D01*
X406764Y379182D01*
X406978Y379610D01*
Y380039D01*
X406764Y380467D01*
X406121Y380681D01*
X405264D01*
X410984Y379182D02*
X410770Y378539D01*
X410342Y378111D01*
X409699Y377896D01*
X409485D01*
X408842Y378111D01*
X408414Y378539D01*
X408199Y379182D01*
Y379396D01*
X408414Y380039D01*
X408842Y380467D01*
X409485Y380681D01*
X409699D01*
X410342Y380467D01*
X410770Y380039D01*
X410984Y379182D01*
Y378111D01*
X410770Y377039D01*
X410342Y376397D01*
X409699Y376182D01*
X409270D01*
X408628Y376397D01*
X408414Y376825D01*
X412206Y378111D02*
X416062D01*
X419533Y380681D02*
X417390Y377682D01*
X420604D01*
X419533Y380681D02*
Y376182D01*
X423967Y380681D02*
X421825D01*
X421611Y378753D01*
X421825Y378967D01*
X422468Y379182D01*
X423110D01*
X423753Y378967D01*
X424182Y378539D01*
X424396Y377896D01*
Y377468D01*
X424182Y376825D01*
X423753Y376397D01*
X423110Y376182D01*
X422468D01*
X421825Y376397D01*
X421611Y376611D01*
X421396Y377039D01*
X425831Y380681D02*
X428188D01*
X426902Y378967D01*
X427545D01*
X427974Y378753D01*
X428188Y378539D01*
X428402Y377896D01*
Y377468D01*
X428188Y376825D01*
X427759Y376397D01*
X427117Y376182D01*
X426474D01*
X425831Y376397D01*
X425617Y376611D01*
X425403Y377039D01*
X429409Y379824D02*
X429838Y380039D01*
X430480Y380681D01*
Y376182D01*
X667532Y351931D02*
Y347432D01*
Y351931D02*
X669031D01*
X669674Y351717D01*
X670103Y351289D01*
X670317Y350860D01*
X670531Y350218D01*
Y349146D01*
X670317Y348504D01*
X670103Y348075D01*
X669674Y347647D01*
X669031Y347432D01*
X667532D01*
X674966D02*
X673252Y351931D01*
X671538Y347432D01*
X672181Y348932D02*
X674323D01*
X677515Y351931D02*
Y347432D01*
X676016Y351931D02*
X679015D01*
X682336D02*
X679551D01*
Y347432D01*
X682336D01*
X679551Y349789D02*
X681264D01*
X683300Y350432D02*
X683085Y350218D01*
X683300Y350003D01*
X683514Y350218D01*
X683300Y350432D01*
Y347861D02*
X683085Y347647D01*
X683300Y347432D01*
X683514Y347647D01*
X683300Y347861D01*
X621282Y351931D02*
Y347432D01*
Y351931D02*
X623210D01*
X623852Y351717D01*
X624067Y351503D01*
X624281Y351075D01*
Y350646D01*
X624067Y350218D01*
X623852Y350003D01*
X623210Y349789D01*
X621282D01*
X622781D02*
X624281Y347432D01*
X628073Y351931D02*
X625288D01*
Y347432D01*
X628073D01*
X625288Y349789D02*
X627002D01*
X628823Y351931D02*
X630537Y347432D01*
X632251Y351931D02*
X630537Y347432D01*
X633043Y350432D02*
X632829Y350218D01*
X633043Y350003D01*
X633258Y350218D01*
X633043Y350432D01*
Y347861D02*
X632829Y347647D01*
X633043Y347432D01*
X633258Y347647D01*
X633043Y347861D01*
D16*
X178902Y284707D02*
X179569Y285373D01*
X180902D01*
X181568Y284707D01*
Y282041D01*
X180902Y281375D01*
X179569D01*
X178902Y282041D01*
Y284707D01*
X182901Y281375D02*
Y282041D01*
X183568D01*
Y281375D01*
X182901D01*
X186233Y284707D02*
X186900Y285373D01*
X188233D01*
X188899Y284707D01*
Y282041D01*
X188233Y281375D01*
X186900D01*
X186233Y282041D01*
Y284707D01*
X190232D02*
X190899Y285373D01*
X192231D01*
X192898Y284707D01*
Y282041D01*
X192231Y281375D01*
X190899D01*
X190232Y282041D01*
Y284707D01*
X194231Y281375D02*
Y284040D01*
X194897D01*
X195564Y283374D01*
Y281375D01*
Y283374D01*
X196230Y284040D01*
X196897Y283374D01*
Y281375D01*
X198230D02*
Y284040D01*
X198896D01*
X199562Y283374D01*
Y281375D01*
Y283374D01*
X200229Y284040D01*
X200895Y283374D01*
Y281375D01*
X207944Y285373D02*
X206611Y284707D01*
X205278Y283374D01*
Y282041D01*
X205945Y281375D01*
X207278D01*
X207944Y282041D01*
Y282707D01*
X207278Y283374D01*
X205278D01*
X209277Y281375D02*
Y282041D01*
X209944D01*
Y281375D01*
X209277D01*
X212609Y285373D02*
X215275D01*
Y284707D01*
X212609Y282041D01*
Y281375D01*
X216608Y284707D02*
X217275Y285373D01*
X218607D01*
X219274Y284707D01*
Y282041D01*
X218607Y281375D01*
X217275D01*
X216608Y282041D01*
Y284707D01*
X220607Y281375D02*
Y284040D01*
X221273D01*
X221940Y283374D01*
Y281375D01*
Y283374D01*
X222606Y284040D01*
X223273Y283374D01*
Y281375D01*
X224606D02*
Y284040D01*
X225272D01*
X225939Y283374D01*
Y281375D01*
Y283374D01*
X226605Y284040D01*
X227271Y283374D01*
Y281375D01*
X155868Y300635D02*
X156535Y301302D01*
X157868D01*
X158534Y300635D01*
Y297969D01*
X157868Y297303D01*
X156535D01*
X155868Y297969D01*
Y300635D01*
X159867Y297303D02*
Y297969D01*
X160534D01*
Y297303D01*
X159867D01*
X163199Y300635D02*
X163866Y301302D01*
X165199D01*
X165865Y300635D01*
Y297969D01*
X165199Y297303D01*
X163866D01*
X163199Y297969D01*
Y300635D01*
X167198D02*
X167865Y301302D01*
X169197D01*
X169864Y300635D01*
Y297969D01*
X169197Y297303D01*
X167865D01*
X167198Y297969D01*
Y300635D01*
X171197Y297303D02*
Y299969D01*
X171863D01*
X172530Y299302D01*
Y297303D01*
Y299302D01*
X173196Y299969D01*
X173863Y299302D01*
Y297303D01*
X175196D02*
Y299969D01*
X175862D01*
X176528Y299302D01*
Y297303D01*
Y299302D01*
X177195Y299969D01*
X177861Y299302D01*
Y297303D01*
X156535Y312840D02*
X157201Y313506D01*
X158534D01*
X159201Y312840D01*
Y312173D01*
X158534Y311507D01*
X157868D01*
X158534D01*
X159201Y310841D01*
Y310174D01*
X158534Y309508D01*
X157201D01*
X156535Y310174D01*
X160534Y309508D02*
Y310174D01*
X161200D01*
Y309508D01*
X160534D01*
X163866D02*
X165199D01*
X164532D01*
Y313506D01*
X163866Y312840D01*
X167198D02*
X167865Y313506D01*
X169197D01*
X169864Y312840D01*
Y310174D01*
X169197Y309508D01*
X167865D01*
X167198Y310174D01*
Y312840D01*
X171197Y309508D02*
Y312173D01*
X171863D01*
X172530Y311507D01*
Y309508D01*
Y311507D01*
X173196Y312173D01*
X173863Y311507D01*
Y309508D01*
X175196D02*
Y312173D01*
X175862D01*
X176528Y311507D01*
Y309508D01*
Y311507D01*
X177195Y312173D01*
X177861Y311507D01*
Y309508D01*
D71*
X200080Y301146D02*
X202080D01*
Y303146D01*
X200080D02*
X202080D01*
X200080Y301146D02*
Y303146D01*
X190336Y306186D02*
X192336D01*
Y308186D01*
X190336D02*
X192336D01*
X190336Y306186D02*
Y308186D01*
X198308Y308351D02*
X200308D01*
Y310351D01*
X198308D02*
X200308D01*
X198308Y308351D02*
Y310351D01*
X213859Y305989D02*
X215859D01*
Y307989D01*
X213859D02*
X215859D01*
X213859Y305989D02*
Y307989D01*
X214155Y308351D02*
X216155D01*
Y310351D01*
X214155D02*
X216155D01*
X214155Y308351D02*
Y310351D01*
X206576Y310221D02*
X208576D01*
Y312221D01*
X206576D02*
X208576D01*
X206576Y310221D02*
Y312221D01*
X202836Y308449D02*
X204836D01*
Y310449D01*
X202836D02*
X204836D01*
X202836Y308449D02*
Y310449D01*
X190336Y300379D02*
X192336D01*
Y302379D01*
X190336D02*
X192336D01*
X190336Y300379D02*
Y302379D01*
Y309631D02*
X192336D01*
Y311631D01*
X190336D02*
X192336D01*
X190336Y309631D02*
Y311631D01*
Y303823D02*
X192336D01*
Y305823D01*
X190336D02*
X192336D01*
X190336Y303823D02*
Y305823D01*
X194962Y299886D02*
X196962D01*
Y301887D01*
X194962D02*
X196962D01*
X194962Y299886D02*
Y301887D01*
X192797Y302839D02*
X194797D01*
Y304839D01*
X192797D02*
X194797D01*
X192797Y302839D02*
Y304839D01*
X210218Y300871D02*
X212218D01*
Y302871D01*
X210218D02*
X212218D01*
X210218Y300871D02*
Y302871D01*
X213072Y299788D02*
X215072D01*
Y301788D01*
X213072D02*
X215072D01*
X213072Y299788D02*
Y301788D01*
X198505Y309729D02*
X200505D01*
Y311729D01*
X198505D02*
X200505D01*
X198505Y309729D02*
Y311729D01*
X206930Y307444D02*
X208930D01*
Y309444D01*
X206930D02*
X208930D01*
X206930Y307444D02*
Y309444D01*
X199981Y305083D02*
X201981D01*
Y307083D01*
X199981D02*
X201981D01*
X199981Y305083D02*
Y307083D01*
X199489Y303528D02*
X201489D01*
Y305528D01*
X199489D02*
X201489D01*
X199489Y303528D02*
Y305528D01*
X203623Y299886D02*
X205623D01*
Y301887D01*
X203623D02*
X205623D01*
X203623Y299886D02*
Y301887D01*
X210119Y304020D02*
X212119D01*
Y306020D01*
X210119D02*
X212119D01*
X210119Y304020D02*
Y306020D01*
D72*
X114235Y502654D02*
X782252D01*
X114235Y472654D02*
X782252D01*
X114235Y457654D02*
X782252D01*
Y517654D01*
X114235D02*
X782252D01*
X114235Y457654D02*
Y517654D01*
X703172Y457654D02*
Y517654D01*
X644187Y457654D02*
Y517654D01*
X451246Y457654D02*
Y517654D01*
X377866Y457654D02*
Y517654D01*
X327278Y457654D02*
Y517654D01*
X223308Y457654D02*
Y517654D01*
X169322Y457654D02*
Y517654D01*
D73*
X69291Y124311D02*
Y1174311D01*
Y124311D02*
X869291D01*
Y1174311D01*
X69291D02*
X869291D01*
D74*
X707672Y507154D02*
Y514352D01*
X711271D01*
X712470Y513152D01*
Y510753D01*
X711271Y509553D01*
X707672D01*
X716069Y511952D02*
X718468D01*
X719668Y510753D01*
Y507154D01*
X716069D01*
X714870Y508354D01*
X716069Y509553D01*
X719668D01*
X726866Y514352D02*
Y507154D01*
X723267D01*
X722067Y508354D01*
Y510753D01*
X723267Y511952D01*
X726866D01*
X741261Y513152D02*
X740061Y514352D01*
X737662D01*
X736463Y513152D01*
Y511952D01*
X737662Y510753D01*
X740061D01*
X741261Y509553D01*
Y508354D01*
X740061Y507154D01*
X737662D01*
X736463Y508354D01*
X743660Y514352D02*
Y507154D01*
Y510753D01*
X744860Y511952D01*
X747259D01*
X748459Y510753D01*
Y507154D01*
X752058Y511952D02*
X754457D01*
X755656Y510753D01*
Y507154D01*
X752058D01*
X750858Y508354D01*
X752058Y509553D01*
X755656D01*
X758056Y504755D02*
Y511952D01*
X761654D01*
X762854Y510753D01*
Y508354D01*
X761654Y507154D01*
X758056D01*
X768852D02*
X766453D01*
X765253Y508354D01*
Y510753D01*
X766453Y511952D01*
X768852D01*
X770052Y510753D01*
Y509553D01*
X765253D01*
X648687Y514352D02*
Y509553D01*
X651086Y507154D01*
X653485Y509553D01*
Y514352D01*
X655885Y507154D02*
X658284D01*
X657084D01*
Y511952D01*
X655885D01*
X663082D02*
X665482D01*
X666681Y510753D01*
Y507154D01*
X663082D01*
X661883Y508354D01*
X663082Y509553D01*
X666681D01*
X669080Y507154D02*
X673879Y511952D01*
X676278Y507154D02*
Y514352D01*
X679877D01*
X681077Y513152D01*
Y510753D01*
X679877Y509553D01*
X676278D01*
X684675Y511952D02*
X687075D01*
X688274Y510753D01*
Y507154D01*
X684675D01*
X683476Y508354D01*
X684675Y509553D01*
X688274D01*
X695472Y514352D02*
Y507154D01*
X691873D01*
X690673Y508354D01*
Y510753D01*
X691873Y511952D01*
X695472D01*
X455746Y514352D02*
Y507154D01*
X459345D01*
X460544Y508354D01*
Y513152D01*
X459345Y514352D01*
X455746D01*
X462944Y511952D02*
Y507154D01*
Y509553D01*
X464143Y510753D01*
X465343Y511952D01*
X466542D01*
X470141Y507154D02*
X472541D01*
X471341D01*
Y511952D01*
X470141D01*
X476139Y507154D02*
X478539D01*
X477339D01*
Y514352D01*
X476139D01*
X482137Y507154D02*
X484537D01*
X483337D01*
Y514352D01*
X482137D01*
X495333D02*
Y507154D01*
X500132D01*
X503730Y511952D02*
X506130D01*
X507329Y510753D01*
Y507154D01*
X503730D01*
X502531Y508354D01*
X503730Y509553D01*
X507329D01*
X509728Y511952D02*
Y508354D01*
X510928Y507154D01*
X514527D01*
Y505954D01*
X513327Y504755D01*
X512128D01*
X514527Y507154D02*
Y511952D01*
X520525Y507154D02*
X518126D01*
X516926Y508354D01*
Y510753D01*
X518126Y511952D01*
X520525D01*
X521725Y510753D01*
Y509553D01*
X516926D01*
X524124Y511952D02*
Y507154D01*
Y509553D01*
X525323Y510753D01*
X526523Y511952D01*
X527723D01*
X538519Y507154D02*
Y514352D01*
X542118D01*
X543318Y513152D01*
Y510753D01*
X542118Y509553D01*
X538519D01*
X546916Y511952D02*
X549316D01*
X550515Y510753D01*
Y507154D01*
X546916D01*
X545717Y508354D01*
X546916Y509553D01*
X550515D01*
X552914Y507154D02*
X555314D01*
X554114D01*
Y511952D01*
X552914D01*
X558913D02*
Y507154D01*
Y509553D01*
X560112Y510753D01*
X561312Y511952D01*
X562511D01*
X382366Y514352D02*
Y507154D01*
Y510753D01*
X387164D01*
Y514352D01*
Y507154D01*
X390763D02*
X393162D01*
X394362Y508354D01*
Y510753D01*
X393162Y511952D01*
X390763D01*
X389563Y510753D01*
Y508354D01*
X390763Y507154D01*
X396761D02*
X399160D01*
X397961D01*
Y514352D01*
X396761D01*
X406358Y507154D02*
X403959D01*
X402759Y508354D01*
Y510753D01*
X403959Y511952D01*
X406358D01*
X407558Y510753D01*
Y509553D01*
X402759D01*
X417155Y514352D02*
X421953D01*
X419554D01*
Y507154D01*
X424352Y511952D02*
Y508354D01*
X425552Y507154D01*
X429151D01*
Y505954D01*
X427951Y504755D01*
X426751D01*
X429151Y507154D02*
Y511952D01*
X431550Y504755D02*
Y511952D01*
X435149D01*
X436348Y510753D01*
Y508354D01*
X435149Y507154D01*
X431550D01*
X442346D02*
X439947D01*
X438748Y508354D01*
Y510753D01*
X439947Y511952D01*
X442346D01*
X443546Y510753D01*
Y509553D01*
X438748D01*
X331778Y507154D02*
Y514352D01*
X335377D01*
X336577Y513152D01*
Y510753D01*
X335377Y509553D01*
X331778D01*
X338976Y507154D02*
X341375D01*
X340175D01*
Y514352D01*
X338976D01*
X346174Y511952D02*
X348573D01*
X349772Y510753D01*
Y507154D01*
X346174D01*
X344974Y508354D01*
X346174Y509553D01*
X349772D01*
X353371Y513152D02*
Y511952D01*
X352171D01*
X354571D01*
X353371D01*
Y508354D01*
X354571Y507154D01*
X361768D02*
X359369D01*
X358170Y508354D01*
Y510753D01*
X359369Y511952D01*
X361768D01*
X362968Y510753D01*
Y509553D01*
X358170D01*
X370166Y514352D02*
Y507154D01*
X366567D01*
X365367Y508354D01*
Y510753D01*
X366567Y511952D01*
X370166D01*
X227808Y514352D02*
Y507154D01*
Y510753D01*
X232607D01*
Y514352D01*
Y507154D01*
X236206D02*
X238605D01*
X239804Y508354D01*
Y510753D01*
X238605Y511952D01*
X236206D01*
X235006Y510753D01*
Y508354D01*
X236206Y507154D01*
X242204D02*
X244603D01*
X243403D01*
Y514352D01*
X242204D01*
X251800Y507154D02*
X249401D01*
X248202Y508354D01*
Y510753D01*
X249401Y511952D01*
X251800D01*
X253000Y510753D01*
Y509553D01*
X248202D01*
X267395Y513152D02*
X266196Y514352D01*
X263797D01*
X262597Y513152D01*
Y511952D01*
X263797Y510753D01*
X266196D01*
X267395Y509553D01*
Y508354D01*
X266196Y507154D01*
X263797D01*
X262597Y508354D01*
X269795Y507154D02*
X272194D01*
X270994D01*
Y511952D01*
X269795D01*
X275793D02*
X280591D01*
X275793Y507154D01*
X280591D01*
X286589D02*
X284190D01*
X282990Y508354D01*
Y510753D01*
X284190Y511952D01*
X286589D01*
X287789Y510753D01*
Y509553D01*
X282990D01*
X178621Y513152D02*
X177421Y514352D01*
X175022D01*
X173822Y513152D01*
Y508354D01*
X175022Y507154D01*
X177421D01*
X178621Y508354D01*
X182219Y507154D02*
X184619D01*
X185818Y508354D01*
Y510753D01*
X184619Y511952D01*
X182219D01*
X181020Y510753D01*
Y508354D01*
X182219Y507154D01*
X188217Y511952D02*
Y508354D01*
X189417Y507154D01*
X193016D01*
Y511952D01*
X195415Y507154D02*
Y511952D01*
X199014D01*
X200214Y510753D01*
Y507154D01*
X203812Y513152D02*
Y511952D01*
X202613D01*
X205012D01*
X203812D01*
Y508354D01*
X205012Y507154D01*
X128033Y513152D02*
X126833Y514352D01*
X124434D01*
X123235Y513152D01*
Y511952D01*
X124434Y510753D01*
X126833D01*
X128033Y509553D01*
Y508354D01*
X126833Y507154D01*
X124434D01*
X123235Y508354D01*
X130432Y511952D02*
Y508354D01*
X131632Y507154D01*
X135231D01*
Y505954D01*
X134031Y504755D01*
X132832D01*
X135231Y507154D02*
Y511952D01*
X137630Y507154D02*
Y511952D01*
X138830D01*
X140029Y510753D01*
Y507154D01*
Y510753D01*
X141229Y511952D01*
X142428Y510753D01*
Y507154D01*
X144828Y514352D02*
Y507154D01*
X148426D01*
X149626Y508354D01*
Y509553D01*
Y510753D01*
X148426Y511952D01*
X144828D01*
X153225Y507154D02*
X155624D01*
X156824Y508354D01*
Y510753D01*
X155624Y511952D01*
X153225D01*
X152025Y510753D01*
Y508354D01*
X153225Y507154D01*
X159223D02*
X161622D01*
X160423D01*
Y514352D01*
X159223D01*
D75*
X97835Y1136949D02*
Y1143947D01*
X102500Y1136949D01*
Y1143947D01*
X108331D02*
X105999D01*
X104832Y1142780D01*
Y1138115D01*
X105999Y1136949D01*
X108331D01*
X109498Y1138115D01*
Y1142780D01*
X108331Y1143947D01*
X111830D02*
X116495D01*
X114163D01*
Y1136949D01*
X123493Y1143947D02*
X118828D01*
Y1136949D01*
X123493D01*
X118828Y1140448D02*
X121160D01*
X130491Y1142780D02*
X129324Y1143947D01*
X126992D01*
X125826Y1142780D01*
Y1141614D01*
X126992Y1140448D01*
X129324D01*
X130491Y1139281D01*
Y1138115D01*
X129324Y1136949D01*
X126992D01*
X125826Y1138115D01*
X132823Y1141614D02*
X133990D01*
Y1140448D01*
X132823D01*
Y1141614D01*
Y1138115D02*
X133990D01*
Y1136949D01*
X132823D01*
Y1138115D01*
X98835Y1117949D02*
X101167D01*
X100001D01*
Y1124947D01*
X98835Y1123780D01*
X104666Y1117949D02*
Y1119115D01*
X105832D01*
Y1117949D01*
X104666D01*
X122160Y1124947D02*
X117495D01*
Y1121448D01*
X119828D01*
X117495D01*
Y1117949D01*
X124493D02*
Y1122614D01*
X126826Y1124947D01*
X129158Y1122614D01*
Y1117949D01*
Y1121448D01*
X124493D01*
X131491Y1124947D02*
Y1117949D01*
X134990D01*
X136156Y1119115D01*
Y1120281D01*
X134990Y1121448D01*
X131491D01*
X134990D01*
X136156Y1122614D01*
Y1123780D01*
X134990Y1124947D01*
X131491D01*
X138488Y1117949D02*
Y1124947D01*
X141987D01*
X143154Y1123780D01*
Y1121448D01*
X141987Y1120281D01*
X138488D01*
X140821D02*
X143154Y1117949D01*
X145486Y1124947D02*
X147819D01*
X146652D01*
Y1117949D01*
X145486D01*
X147819D01*
X155983Y1123780D02*
X154817Y1124947D01*
X152484D01*
X151318Y1123780D01*
Y1119115D01*
X152484Y1117949D01*
X154817D01*
X155983Y1119115D01*
X158315Y1117949D02*
Y1122614D01*
X160648Y1124947D01*
X162981Y1122614D01*
Y1117949D01*
Y1121448D01*
X158315D01*
X165313Y1124947D02*
X169978D01*
X167646D01*
Y1117949D01*
X176976Y1124947D02*
X172311D01*
Y1117949D01*
X176976D01*
X172311Y1121448D02*
X174644D01*
X186306Y1117949D02*
Y1122614D01*
X188639Y1124947D01*
X190972Y1122614D01*
Y1117949D01*
Y1121448D01*
X186306D01*
X193304Y1117949D02*
Y1124947D01*
X197969Y1117949D01*
Y1124947D01*
X200302D02*
Y1117949D01*
X203801D01*
X204967Y1119115D01*
Y1123780D01*
X203801Y1124947D01*
X200302D01*
X214297D02*
X216630D01*
X215464D01*
Y1117949D01*
X214297D01*
X216630D01*
X220129D02*
Y1124947D01*
X224794Y1117949D01*
Y1124947D01*
X231792Y1123780D02*
X230625Y1124947D01*
X228293D01*
X227127Y1123780D01*
Y1122614D01*
X228293Y1121448D01*
X230625D01*
X231792Y1120281D01*
Y1119115D01*
X230625Y1117949D01*
X228293D01*
X227127Y1119115D01*
X234124Y1117949D02*
Y1124947D01*
X237623D01*
X238789Y1123780D01*
Y1121448D01*
X237623Y1120281D01*
X234124D01*
X245787Y1124947D02*
X241122D01*
Y1117949D01*
X245787D01*
X241122Y1121448D02*
X243455D01*
X252785Y1123780D02*
X251619Y1124947D01*
X249286D01*
X248120Y1123780D01*
Y1119115D01*
X249286Y1117949D01*
X251619D01*
X252785Y1119115D01*
X255118Y1124947D02*
X259783D01*
X257450D01*
Y1117949D01*
X269113D02*
Y1124947D01*
X272612D01*
X273778Y1123780D01*
Y1121448D01*
X272612Y1120281D01*
X269113D01*
X280776Y1124947D02*
X276111D01*
Y1117949D01*
X280776D01*
X276111Y1121448D02*
X278443D01*
X283108Y1117949D02*
Y1124947D01*
X286607D01*
X287774Y1123780D01*
Y1121448D01*
X286607Y1120281D01*
X283108D01*
X285441D02*
X287774Y1117949D01*
X297104Y1124947D02*
X299436D01*
X298270D01*
Y1117949D01*
X297104D01*
X299436D01*
X302935D02*
Y1124947D01*
X306434D01*
X307601Y1123780D01*
Y1121448D01*
X306434Y1120281D01*
X302935D01*
X314598Y1123780D02*
X313432Y1124947D01*
X311099D01*
X309933Y1123780D01*
Y1119115D01*
X311099Y1117949D01*
X313432D01*
X314598Y1119115D01*
X321596Y1124947D02*
X319264Y1123780D01*
X316931Y1121448D01*
Y1119115D01*
X318097Y1117949D01*
X320430D01*
X321596Y1119115D01*
Y1120281D01*
X320430Y1121448D01*
X316931D01*
X323929Y1123780D02*
X325095Y1124947D01*
X327428D01*
X328594Y1123780D01*
Y1119115D01*
X327428Y1117949D01*
X325095D01*
X323929Y1119115D01*
Y1123780D01*
X330926Y1117949D02*
X333259D01*
X332093D01*
Y1124947D01*
X330926Y1123780D01*
X336758Y1117949D02*
X339090D01*
X337924D01*
Y1124947D01*
X336758Y1123780D01*
X349587Y1117949D02*
Y1122614D01*
X351920Y1124947D01*
X354252Y1122614D01*
Y1117949D01*
Y1121448D01*
X349587D01*
X356585Y1117949D02*
Y1124947D01*
X361250Y1117949D01*
Y1124947D01*
X363582D02*
Y1117949D01*
X367081D01*
X368248Y1119115D01*
Y1123780D01*
X367081Y1124947D01*
X363582D01*
X377578D02*
X379910D01*
X378744D01*
Y1117949D01*
X377578D01*
X379910D01*
X383409D02*
Y1124947D01*
X386908D01*
X388075Y1123780D01*
Y1121448D01*
X386908Y1120281D01*
X383409D01*
X395072Y1123780D02*
X393906Y1124947D01*
X391573D01*
X390407Y1123780D01*
Y1119115D01*
X391573Y1117949D01*
X393906D01*
X395072Y1119115D01*
X397405Y1121448D02*
X402070D01*
X409068Y1124947D02*
X406735Y1123780D01*
X404403Y1121448D01*
Y1119115D01*
X405569Y1117949D01*
X407901D01*
X409068Y1119115D01*
Y1120281D01*
X407901Y1121448D01*
X404403D01*
X411400Y1123780D02*
X412567Y1124947D01*
X414899D01*
X416066Y1123780D01*
Y1119115D01*
X414899Y1117949D01*
X412567D01*
X411400Y1119115D01*
Y1123780D01*
X418398Y1117949D02*
X420731D01*
X419564D01*
Y1124947D01*
X418398Y1123780D01*
X424230D02*
X425396Y1124947D01*
X427728D01*
X428895Y1123780D01*
Y1122614D01*
X427728Y1121448D01*
X426562D01*
X427728D01*
X428895Y1120281D01*
Y1119115D01*
X427728Y1117949D01*
X425396D01*
X424230Y1119115D01*
X432394Y1116782D02*
X433560Y1117949D01*
Y1119115D01*
X432394D01*
Y1117949D01*
X433560D01*
X432394Y1116782D01*
X431227Y1115616D01*
X449888Y1123780D02*
X448722Y1124947D01*
X446389D01*
X445223Y1123780D01*
Y1119115D01*
X446389Y1117949D01*
X448722D01*
X449888Y1119115D01*
X452220Y1124947D02*
Y1117949D01*
X456886D01*
X459218D02*
Y1122614D01*
X461551Y1124947D01*
X463883Y1122614D01*
Y1117949D01*
Y1121448D01*
X459218D01*
X470881Y1123780D02*
X469715Y1124947D01*
X467382D01*
X466216Y1123780D01*
Y1122614D01*
X467382Y1121448D01*
X469715D01*
X470881Y1120281D01*
Y1119115D01*
X469715Y1117949D01*
X467382D01*
X466216Y1119115D01*
X477879Y1123780D02*
X476713Y1124947D01*
X474380D01*
X473214Y1123780D01*
Y1122614D01*
X474380Y1121448D01*
X476713D01*
X477879Y1120281D01*
Y1119115D01*
X476713Y1117949D01*
X474380D01*
X473214Y1119115D01*
X487209Y1123780D02*
X488376Y1124947D01*
X490708D01*
X491874Y1123780D01*
Y1122614D01*
X490708Y1121448D01*
X489542D01*
X490708D01*
X491874Y1120281D01*
Y1119115D01*
X490708Y1117949D01*
X488376D01*
X487209Y1119115D01*
X495373Y1116782D02*
X496539Y1117949D01*
Y1119115D01*
X495373D01*
Y1117949D01*
X496539D01*
X495373Y1116782D01*
X494207Y1115616D01*
X508202Y1124947D02*
X512868D01*
X510535D01*
Y1117949D01*
X515200Y1124947D02*
Y1123780D01*
X517533Y1121448D01*
X519865Y1123780D01*
Y1124947D01*
X517533Y1121448D02*
Y1117949D01*
X522198D02*
Y1124947D01*
X525697D01*
X526863Y1123780D01*
Y1121448D01*
X525697Y1120281D01*
X522198D01*
X533861Y1124947D02*
X529196D01*
Y1117949D01*
X533861D01*
X529196Y1121448D02*
X531528D01*
X543191Y1123780D02*
X544357Y1124947D01*
X546690D01*
X547856Y1123780D01*
Y1122614D01*
X546690Y1121448D01*
X545524D01*
X546690D01*
X547856Y1120281D01*
Y1119115D01*
X546690Y1117949D01*
X544357D01*
X543191Y1119115D01*
X550189Y1117949D02*
Y1119115D01*
X551355D01*
Y1117949D01*
X550189D01*
X103500Y1097949D02*
X98835D01*
X103500Y1102614D01*
Y1103780D01*
X102333Y1104947D01*
X100001D01*
X98835Y1103780D01*
X105832Y1097949D02*
Y1099115D01*
X106999D01*
Y1097949D01*
X105832D01*
X118662D02*
Y1104947D01*
X120994Y1102614D01*
X123327Y1104947D01*
Y1097949D01*
X125659Y1104947D02*
X127992D01*
X126826D01*
Y1097949D01*
X125659D01*
X127992D01*
X131491D02*
Y1104947D01*
X136156Y1097949D01*
Y1104947D01*
X138488D02*
X140821D01*
X139655D01*
Y1097949D01*
X138488D01*
X140821D01*
X144320D02*
Y1104947D01*
X146652Y1102614D01*
X148985Y1104947D01*
Y1097949D01*
X151318Y1104947D02*
Y1099115D01*
X152484Y1097949D01*
X154817D01*
X155983Y1099115D01*
Y1104947D01*
X158315Y1097949D02*
Y1104947D01*
X160648Y1102614D01*
X162981Y1104947D01*
Y1097949D01*
X172311Y1104947D02*
X176976D01*
X174644D01*
Y1097949D01*
X179309D02*
Y1104947D01*
X182808D01*
X183974Y1103780D01*
Y1101448D01*
X182808Y1100281D01*
X179309D01*
X181641D02*
X183974Y1097949D01*
X186306D02*
Y1102614D01*
X188639Y1104947D01*
X190972Y1102614D01*
Y1097949D01*
Y1101448D01*
X186306D01*
X197969Y1103780D02*
X196803Y1104947D01*
X194470D01*
X193304Y1103780D01*
Y1099115D01*
X194470Y1097949D01*
X196803D01*
X197969Y1099115D01*
X204967Y1104947D02*
X200302D01*
Y1097949D01*
X204967D01*
X200302Y1101448D02*
X202635D01*
X214297Y1104947D02*
Y1097949D01*
X216630Y1100281D01*
X218963Y1097949D01*
Y1104947D01*
X221295D02*
X223628D01*
X222461D01*
Y1097949D01*
X221295D01*
X223628D01*
X227127Y1104947D02*
Y1097949D01*
X230625D01*
X231792Y1099115D01*
Y1103780D01*
X230625Y1104947D01*
X227127D01*
X234124D02*
X238789D01*
X236457D01*
Y1097949D01*
X241122Y1104947D02*
Y1097949D01*
Y1101448D01*
X245787D01*
Y1104947D01*
Y1097949D01*
X255118Y1104947D02*
X257450D01*
X256284D01*
Y1097949D01*
X255118D01*
X257450D01*
X265614Y1103780D02*
X264448Y1104947D01*
X262115D01*
X260949Y1103780D01*
Y1102614D01*
X262115Y1101448D01*
X264448D01*
X265614Y1100281D01*
Y1099115D01*
X264448Y1097949D01*
X262115D01*
X260949Y1099115D01*
X278443Y1097949D02*
Y1104947D01*
X274944Y1101448D01*
X279610D01*
X288940Y1097949D02*
Y1104947D01*
X291272Y1102614D01*
X293605Y1104947D01*
Y1097949D01*
X295938Y1104947D02*
X298270D01*
X297104D01*
Y1097949D01*
X295938D01*
X298270D01*
X301769Y1104947D02*
Y1097949D01*
X306434D01*
X309933Y1096782D02*
X311099Y1097949D01*
Y1099115D01*
X309933D01*
Y1097949D01*
X311099D01*
X309933Y1096782D01*
X308767Y1095616D01*
X322762Y1097949D02*
Y1104947D01*
X325095Y1102614D01*
X327428Y1104947D01*
Y1097949D01*
X329760Y1104947D02*
X332093D01*
X330926D01*
Y1097949D01*
X329760D01*
X332093D01*
X335592D02*
Y1104947D01*
X340257Y1097949D01*
Y1104947D01*
X342589D02*
X344922D01*
X343756D01*
Y1097949D01*
X342589D01*
X344922D01*
X348421D02*
Y1104947D01*
X350753Y1102614D01*
X353086Y1104947D01*
Y1097949D01*
X355418Y1104947D02*
Y1099115D01*
X356585Y1097949D01*
X358917D01*
X360084Y1099115D01*
Y1104947D01*
X362416Y1097949D02*
Y1104947D01*
X364749Y1102614D01*
X367081Y1104947D01*
Y1097949D01*
X381077Y1103780D02*
X379910Y1104947D01*
X377578D01*
X376412Y1103780D01*
Y1099115D01*
X377578Y1097949D01*
X379910D01*
X381077Y1099115D01*
X386908Y1104947D02*
X384576D01*
X383409Y1103780D01*
Y1099115D01*
X384576Y1097949D01*
X386908D01*
X388075Y1099115D01*
Y1103780D01*
X386908Y1104947D01*
X390407Y1097949D02*
Y1104947D01*
X395072Y1097949D01*
Y1104947D01*
X397405D02*
Y1097949D01*
X400904D01*
X402070Y1099115D01*
Y1103780D01*
X400904Y1104947D01*
X397405D01*
X404403D02*
Y1099115D01*
X405569Y1097949D01*
X407901D01*
X409068Y1099115D01*
Y1104947D01*
X416066Y1103780D02*
X414899Y1104947D01*
X412567D01*
X411400Y1103780D01*
Y1099115D01*
X412567Y1097949D01*
X414899D01*
X416066Y1099115D01*
X418398Y1104947D02*
X423063D01*
X420731D01*
Y1097949D01*
X428895Y1104947D02*
X426562D01*
X425396Y1103780D01*
Y1099115D01*
X426562Y1097949D01*
X428895D01*
X430061Y1099115D01*
Y1103780D01*
X428895Y1104947D01*
X432394Y1097949D02*
Y1104947D01*
X435892D01*
X437059Y1103780D01*
Y1101448D01*
X435892Y1100281D01*
X432394D01*
X434726D02*
X437059Y1097949D01*
X451054Y1103780D02*
X449888Y1104947D01*
X447555D01*
X446389Y1103780D01*
Y1102614D01*
X447555Y1101448D01*
X449888D01*
X451054Y1100281D01*
Y1099115D01*
X449888Y1097949D01*
X447555D01*
X446389Y1099115D01*
X453387Y1097949D02*
Y1104947D01*
X456886D01*
X458052Y1103780D01*
Y1101448D01*
X456886Y1100281D01*
X453387D01*
X460385Y1097949D02*
Y1102614D01*
X462717Y1104947D01*
X465050Y1102614D01*
Y1097949D01*
Y1101448D01*
X460385D01*
X472048Y1103780D02*
X470881Y1104947D01*
X468549D01*
X467382Y1103780D01*
Y1099115D01*
X468549Y1097949D01*
X470881D01*
X472048Y1099115D01*
X474380Y1104947D02*
X476713D01*
X475546D01*
Y1097949D01*
X474380D01*
X476713D01*
X480211D02*
Y1104947D01*
X484877Y1097949D01*
Y1104947D01*
X491874Y1103780D02*
X490708Y1104947D01*
X488376D01*
X487209Y1103780D01*
Y1099115D01*
X488376Y1097949D01*
X490708D01*
X491874Y1099115D01*
Y1101448D01*
X489542D01*
X501205Y1104947D02*
X503537D01*
X502371D01*
Y1097949D01*
X501205D01*
X503537D01*
X511701Y1103780D02*
X510535Y1104947D01*
X508202D01*
X507036Y1103780D01*
Y1102614D01*
X508202Y1101448D01*
X510535D01*
X511701Y1100281D01*
Y1099115D01*
X510535Y1097949D01*
X508202D01*
X507036Y1099115D01*
X524531Y1097949D02*
Y1104947D01*
X521032Y1101448D01*
X525697D01*
X535027Y1097949D02*
Y1104947D01*
X537360Y1102614D01*
X539692Y1104947D01*
Y1097949D01*
X542025Y1104947D02*
X544357D01*
X543191D01*
Y1097949D01*
X542025D01*
X544357D01*
X547856Y1104947D02*
Y1097949D01*
X552522D01*
X556020Y1096782D02*
X557187Y1097949D01*
Y1099115D01*
X556020D01*
Y1097949D01*
X557187D01*
X556020Y1096782D01*
X554854Y1095616D01*
X568850Y1097949D02*
Y1104947D01*
X571182Y1102614D01*
X573515Y1104947D01*
Y1097949D01*
X575847Y1104947D02*
X578180D01*
X577014D01*
Y1097949D01*
X575847D01*
X578180D01*
X581679D02*
Y1104947D01*
X586344Y1097949D01*
Y1104947D01*
X588677D02*
X591009D01*
X589843D01*
Y1097949D01*
X588677D01*
X591009D01*
X594508D02*
Y1104947D01*
X596840Y1102614D01*
X599173Y1104947D01*
Y1097949D01*
X601506Y1104947D02*
Y1099115D01*
X602672Y1097949D01*
X605005D01*
X606171Y1099115D01*
Y1104947D01*
X608503Y1097949D02*
Y1104947D01*
X610836Y1102614D01*
X613168Y1104947D01*
Y1097949D01*
X622499D02*
Y1104947D01*
X625998D01*
X627164Y1103780D01*
Y1101448D01*
X625998Y1100281D01*
X622499D01*
X629497Y1104947D02*
Y1097949D01*
X634162D01*
X636494D02*
Y1102614D01*
X638827Y1104947D01*
X641159Y1102614D01*
Y1097949D01*
Y1101448D01*
X636494D01*
X643492Y1104947D02*
X648157D01*
X645825D01*
Y1097949D01*
X655155Y1104947D02*
X650490D01*
Y1097949D01*
X655155D01*
X650490Y1101448D02*
X652822D01*
X657488Y1104947D02*
Y1097949D01*
X660986D01*
X662153Y1099115D01*
Y1103780D01*
X660986Y1104947D01*
X657488D01*
X671483D02*
Y1097949D01*
Y1101448D01*
X676148D01*
Y1104947D01*
Y1097949D01*
X681980Y1104947D02*
X679647D01*
X678481Y1103780D01*
Y1099115D01*
X679647Y1097949D01*
X681980D01*
X683146Y1099115D01*
Y1103780D01*
X681980Y1104947D01*
X685478D02*
Y1097949D01*
X690144D01*
X697141Y1104947D02*
X692476D01*
Y1097949D01*
X697141D01*
X692476Y1101448D02*
X694809D01*
X706472Y1104947D02*
Y1097949D01*
X709971D01*
X711137Y1099115D01*
Y1103780D01*
X709971Y1104947D01*
X706472D01*
X713470D02*
X715802D01*
X714636D01*
Y1097949D01*
X713470D01*
X715802D01*
X719301D02*
Y1102614D01*
X721633Y1104947D01*
X723966Y1102614D01*
Y1097949D01*
Y1101448D01*
X719301D01*
X726299Y1097949D02*
Y1104947D01*
X728631Y1102614D01*
X730964Y1104947D01*
Y1097949D01*
X737962Y1104947D02*
X733296D01*
Y1097949D01*
X737962D01*
X733296Y1101448D02*
X735629D01*
X740294Y1104947D02*
X744959D01*
X742627D01*
Y1097949D01*
X751957Y1104947D02*
X747292D01*
Y1097949D01*
X751957D01*
X747292Y1101448D02*
X749624D01*
X754290Y1097949D02*
Y1104947D01*
X757789D01*
X758955Y1103780D01*
Y1101448D01*
X757789Y1100281D01*
X754290D01*
X756622D02*
X758955Y1097949D01*
X768285Y1104947D02*
X770618D01*
X769451D01*
Y1097949D01*
X768285D01*
X770618D01*
X778782Y1103780D02*
X777615Y1104947D01*
X775283D01*
X774117Y1103780D01*
Y1102614D01*
X775283Y1101448D01*
X777615D01*
X778782Y1100281D01*
Y1099115D01*
X777615Y1097949D01*
X775283D01*
X774117Y1099115D01*
X788112Y1103780D02*
X789278Y1104947D01*
X791611D01*
X792777Y1103780D01*
Y1102614D01*
X791611Y1101448D01*
X790445D01*
X791611D01*
X792777Y1100281D01*
Y1099115D01*
X791611Y1097949D01*
X789278D01*
X788112Y1099115D01*
X795110Y1097949D02*
Y1099115D01*
X796276D01*
Y1097949D01*
X795110D01*
X800941Y1103780D02*
X802108Y1104947D01*
X804440D01*
X805606Y1103780D01*
Y1102614D01*
X804440Y1101448D01*
X803274D01*
X804440D01*
X805606Y1100281D01*
Y1099115D01*
X804440Y1097949D01*
X802108D01*
X800941Y1099115D01*
X814937Y1097949D02*
Y1104947D01*
X817269Y1102614D01*
X819602Y1104947D01*
Y1097949D01*
X821934Y1104947D02*
X824267D01*
X823101D01*
Y1097949D01*
X821934D01*
X824267D01*
X827766Y1104947D02*
Y1097949D01*
X832431D01*
X834764D02*
Y1099115D01*
X835930D01*
Y1097949D01*
X834764D01*
X98835Y1083780D02*
X100001Y1084947D01*
X102333D01*
X103500Y1083780D01*
Y1082614D01*
X102333Y1081448D01*
X101167D01*
X102333D01*
X103500Y1080281D01*
Y1079115D01*
X102333Y1077949D01*
X100001D01*
X98835Y1079115D01*
X105832Y1077949D02*
Y1079115D01*
X106999D01*
Y1077949D01*
X105832D01*
X118662Y1084947D02*
Y1077949D01*
X123327D01*
X125659D02*
Y1082614D01*
X127992Y1084947D01*
X130324Y1082614D01*
Y1077949D01*
Y1081448D01*
X125659D01*
X132657Y1084947D02*
Y1083780D01*
X134990Y1081448D01*
X137322Y1083780D01*
Y1084947D01*
X134990Y1081448D02*
Y1077949D01*
X144320Y1084947D02*
X139655D01*
Y1077949D01*
X144320D01*
X139655Y1081448D02*
X141987D01*
X146652Y1077949D02*
Y1084947D01*
X150151D01*
X151318Y1083780D01*
Y1081448D01*
X150151Y1080281D01*
X146652D01*
X148985D02*
X151318Y1077949D01*
X160648Y1084947D02*
X165313D01*
X162981D01*
Y1077949D01*
X171145Y1084947D02*
X168812D01*
X167646Y1083780D01*
Y1079115D01*
X168812Y1077949D01*
X171145D01*
X172311Y1079115D01*
Y1083780D01*
X171145Y1084947D01*
X181641D02*
Y1077949D01*
X186306D01*
X188639D02*
Y1082614D01*
X190972Y1084947D01*
X193304Y1082614D01*
Y1077949D01*
Y1081448D01*
X188639D01*
X195637Y1084947D02*
Y1083780D01*
X197969Y1081448D01*
X200302Y1083780D01*
Y1084947D01*
X197969Y1081448D02*
Y1077949D01*
X207300Y1084947D02*
X202635D01*
Y1077949D01*
X207300D01*
X202635Y1081448D02*
X204967D01*
X209632Y1077949D02*
Y1084947D01*
X213131D01*
X214297Y1083780D01*
Y1081448D01*
X213131Y1080281D01*
X209632D01*
X211965D02*
X214297Y1077949D01*
X223628D02*
Y1084947D01*
X227127D01*
X228293Y1083780D01*
Y1081448D01*
X227127Y1080281D01*
X223628D01*
X225960D02*
X228293Y1077949D01*
X235291Y1084947D02*
X230625D01*
Y1077949D01*
X235291D01*
X230625Y1081448D02*
X232958D01*
X242288Y1083780D02*
X241122Y1084947D01*
X238789D01*
X237623Y1083780D01*
Y1079115D01*
X238789Y1077949D01*
X241122D01*
X242288Y1079115D01*
Y1081448D01*
X239956D01*
X244621Y1084947D02*
X246954D01*
X245787D01*
Y1077949D01*
X244621D01*
X246954D01*
X255118Y1083780D02*
X253951Y1084947D01*
X251619D01*
X250452Y1083780D01*
Y1082614D01*
X251619Y1081448D01*
X253951D01*
X255118Y1080281D01*
Y1079115D01*
X253951Y1077949D01*
X251619D01*
X250452Y1079115D01*
X257450Y1084947D02*
X262115D01*
X259783D01*
Y1077949D01*
X264448D02*
Y1084947D01*
X267947D01*
X269113Y1083780D01*
Y1081448D01*
X267947Y1080281D01*
X264448D01*
X266780D02*
X269113Y1077949D01*
X271446D02*
Y1082614D01*
X273778Y1084947D01*
X276111Y1082614D01*
Y1077949D01*
Y1081448D01*
X271446D01*
X278443Y1084947D02*
X283108D01*
X280776D01*
Y1077949D01*
X285441Y1084947D02*
X287774D01*
X286607D01*
Y1077949D01*
X285441D01*
X287774D01*
X294771Y1084947D02*
X292439D01*
X291272Y1083780D01*
Y1079115D01*
X292439Y1077949D01*
X294771D01*
X295938Y1079115D01*
Y1083780D01*
X294771Y1084947D01*
X298270Y1077949D02*
Y1084947D01*
X302935Y1077949D01*
Y1084947D01*
X316931Y1083780D02*
X315765Y1084947D01*
X313432D01*
X312266Y1083780D01*
Y1082614D01*
X313432Y1081448D01*
X315765D01*
X316931Y1080281D01*
Y1079115D01*
X315765Y1077949D01*
X313432D01*
X312266Y1079115D01*
X319264Y1084947D02*
Y1077949D01*
Y1081448D01*
X323929D01*
Y1084947D01*
Y1077949D01*
X326261D02*
Y1082614D01*
X328594Y1084947D01*
X330926Y1082614D01*
Y1077949D01*
Y1081448D01*
X326261D01*
X333259Y1084947D02*
Y1077949D01*
X337924D01*
X340257Y1084947D02*
Y1077949D01*
X344922D01*
X354252Y1084947D02*
Y1077949D01*
X357751D01*
X358917Y1079115D01*
Y1080281D01*
X357751Y1081448D01*
X354252D01*
X357751D01*
X358917Y1082614D01*
Y1083780D01*
X357751Y1084947D01*
X354252D01*
X365915D02*
X361250D01*
Y1077949D01*
X365915D01*
X361250Y1081448D02*
X363582D01*
X375245Y1084947D02*
Y1077949D01*
X377578Y1080281D01*
X379910Y1077949D01*
Y1084947D01*
X382243D02*
X384576D01*
X383409D01*
Y1077949D01*
X382243D01*
X384576D01*
X388075Y1084947D02*
X392740D01*
X390407D01*
Y1077949D01*
X395072Y1084947D02*
Y1077949D01*
Y1081448D01*
X399738D01*
Y1084947D01*
Y1077949D01*
X402070Y1084947D02*
X404403D01*
X403236D01*
Y1077949D01*
X402070D01*
X404403D01*
X407901D02*
Y1084947D01*
X412567Y1077949D01*
Y1084947D01*
X426562Y1077949D02*
X421897D01*
X426562Y1082614D01*
Y1083780D01*
X425396Y1084947D01*
X423063D01*
X421897Y1083780D01*
X435892Y1077949D02*
Y1084947D01*
X438225Y1082614D01*
X440558Y1084947D01*
Y1077949D01*
X442890Y1084947D02*
X445223D01*
X444057D01*
Y1077949D01*
X442890D01*
X445223D01*
X448722Y1084947D02*
Y1077949D01*
X453387D01*
X455719D02*
Y1079115D01*
X456886D01*
Y1077949D01*
X455719D01*
X102500Y1023947D02*
X100167Y1022780D01*
X97835Y1020448D01*
Y1018115D01*
X99001Y1016949D01*
X101333D01*
X102500Y1018115D01*
Y1019281D01*
X101333Y1020448D01*
X97835D01*
X104832Y1016949D02*
Y1018115D01*
X105999D01*
Y1016949D01*
X104832D01*
X122327Y1022780D02*
X121160Y1023947D01*
X118828D01*
X117662Y1022780D01*
Y1018115D01*
X118828Y1016949D01*
X121160D01*
X122327Y1018115D01*
X128158Y1023947D02*
X125826D01*
X124659Y1022780D01*
Y1018115D01*
X125826Y1016949D01*
X128158D01*
X129324Y1018115D01*
Y1022780D01*
X128158Y1023947D01*
X131657Y1016949D02*
Y1023947D01*
X135156D01*
X136322Y1022780D01*
Y1020448D01*
X135156Y1019281D01*
X131657D01*
X138655Y1016949D02*
Y1023947D01*
X142154D01*
X143320Y1022780D01*
Y1020448D01*
X142154Y1019281D01*
X138655D01*
X150318Y1023947D02*
X145652D01*
Y1016949D01*
X150318D01*
X145652Y1020448D02*
X147985D01*
X152650Y1016949D02*
Y1023947D01*
X156149D01*
X157315Y1022780D01*
Y1020448D01*
X156149Y1019281D01*
X152650D01*
X154983D02*
X157315Y1016949D01*
X166646D02*
Y1023947D01*
X170145D01*
X171311Y1022780D01*
Y1020448D01*
X170145Y1019281D01*
X166646D01*
X173644Y1023947D02*
Y1016949D01*
X178309D01*
X180641D02*
Y1021614D01*
X182974Y1023947D01*
X185306Y1021614D01*
Y1016949D01*
Y1020448D01*
X180641D01*
X187639Y1023947D02*
X192304D01*
X189972D01*
Y1016949D01*
X199302Y1023947D02*
X194637D01*
Y1016949D01*
X199302D01*
X194637Y1020448D02*
X196969D01*
X212131Y1023947D02*
X209799D01*
X208632Y1022780D01*
Y1018115D01*
X209799Y1016949D01*
X212131D01*
X213297Y1018115D01*
Y1022780D01*
X212131Y1023947D01*
X215630Y1016949D02*
Y1023947D01*
X220295Y1016949D01*
Y1023947D01*
X229625D02*
Y1016949D01*
X231958Y1019281D01*
X234291Y1016949D01*
Y1023947D01*
X236623Y1016949D02*
Y1021614D01*
X238956Y1023947D01*
X241288Y1021614D01*
Y1016949D01*
Y1020448D01*
X236623D01*
X243621Y1023947D02*
Y1016949D01*
X248286D01*
X250619Y1023947D02*
Y1016949D01*
X255284D01*
X262281Y1022780D02*
X261115Y1023947D01*
X258783D01*
X257616Y1022780D01*
Y1021614D01*
X258783Y1020448D01*
X261115D01*
X262281Y1019281D01*
Y1018115D01*
X261115Y1016949D01*
X258783D01*
X257616Y1018115D01*
X275111Y1023947D02*
X272778D01*
X271612Y1022780D01*
Y1018115D01*
X272778Y1016949D01*
X275111D01*
X276277Y1018115D01*
Y1022780D01*
X275111Y1023947D01*
X283275D02*
X278610D01*
Y1020448D01*
X280942D01*
X278610D01*
Y1016949D01*
X292605D02*
Y1023947D01*
X296104D01*
X297270Y1022780D01*
Y1020448D01*
X296104Y1019281D01*
X292605D01*
X299603Y1023947D02*
Y1016949D01*
X304268D01*
X306601D02*
Y1021614D01*
X308933Y1023947D01*
X311266Y1021614D01*
Y1016949D01*
Y1020448D01*
X306601D01*
X313598Y1023947D02*
X318264D01*
X315931D01*
Y1016949D01*
X325261Y1023947D02*
X320596D01*
Y1016949D01*
X325261D01*
X320596Y1020448D02*
X322929D01*
X327594Y1023947D02*
Y1016949D01*
X331093D01*
X332259Y1018115D01*
Y1022780D01*
X331093Y1023947D01*
X327594D01*
X341589D02*
Y1016949D01*
Y1020448D01*
X346254D01*
Y1023947D01*
Y1016949D01*
X352086Y1023947D02*
X349753D01*
X348587Y1022780D01*
Y1018115D01*
X349753Y1016949D01*
X352086D01*
X353252Y1018115D01*
Y1022780D01*
X352086Y1023947D01*
X355585D02*
Y1016949D01*
X360250D01*
X367248Y1023947D02*
X362582D01*
Y1016949D01*
X367248D01*
X362582Y1020448D02*
X364915D01*
X374245Y1022780D02*
X373079Y1023947D01*
X370746D01*
X369580Y1022780D01*
Y1021614D01*
X370746Y1020448D01*
X373079D01*
X374245Y1019281D01*
Y1018115D01*
X373079Y1016949D01*
X370746D01*
X369580Y1018115D01*
X388241Y1022780D02*
X387075Y1023947D01*
X384742D01*
X383576Y1022780D01*
Y1021614D01*
X384742Y1020448D01*
X387075D01*
X388241Y1019281D01*
Y1018115D01*
X387075Y1016949D01*
X384742D01*
X383576Y1018115D01*
X390573Y1023947D02*
Y1016949D01*
Y1020448D01*
X395239D01*
Y1023947D01*
Y1016949D01*
X397571D02*
Y1021614D01*
X399904Y1023947D01*
X402236Y1021614D01*
Y1016949D01*
Y1020448D01*
X397571D01*
X404569Y1023947D02*
Y1016949D01*
X409234D01*
X411567Y1023947D02*
Y1016949D01*
X416232D01*
X425562Y1023947D02*
Y1016949D01*
X429061D01*
X430227Y1018115D01*
Y1019281D01*
X429061Y1020448D01*
X425562D01*
X429061D01*
X430227Y1021614D01*
Y1022780D01*
X429061Y1023947D01*
X425562D01*
X437225D02*
X432560D01*
Y1016949D01*
X437225D01*
X432560Y1020448D02*
X434893D01*
X446555Y1016949D02*
Y1021614D01*
X448888Y1023947D01*
X451221Y1021614D01*
Y1016949D01*
Y1020448D01*
X446555D01*
X460551Y1016949D02*
Y1023947D01*
X462883Y1021614D01*
X465216Y1023947D01*
Y1016949D01*
X467549Y1023947D02*
X469881D01*
X468715D01*
Y1016949D01*
X467549D01*
X469881D01*
X473380D02*
Y1023947D01*
X478045Y1016949D01*
Y1023947D01*
X480378D02*
X482710D01*
X481544D01*
Y1016949D01*
X480378D01*
X482710D01*
X486209D02*
Y1023947D01*
X488542Y1021614D01*
X490874Y1023947D01*
Y1016949D01*
X493207Y1023947D02*
Y1018115D01*
X494373Y1016949D01*
X496706D01*
X497872Y1018115D01*
Y1023947D01*
X500205Y1016949D02*
Y1023947D01*
X502537Y1021614D01*
X504870Y1023947D01*
Y1016949D01*
X517699Y1023947D02*
X515367D01*
X514200Y1022780D01*
Y1018115D01*
X515367Y1016949D01*
X517699D01*
X518865Y1018115D01*
Y1022780D01*
X517699Y1023947D01*
X525863D02*
X521198D01*
Y1020448D01*
X523530D01*
X521198D01*
Y1016949D01*
X535193Y1022780D02*
X536360Y1023947D01*
X538692D01*
X539859Y1022780D01*
Y1018115D01*
X538692Y1016949D01*
X536360D01*
X535193Y1018115D01*
Y1022780D01*
X542191Y1016949D02*
Y1018115D01*
X543357D01*
Y1016949D01*
X542191D01*
X548023Y1022780D02*
X549189Y1023947D01*
X551521D01*
X552688Y1022780D01*
Y1021614D01*
X551521Y1020448D01*
X552688Y1019281D01*
Y1018115D01*
X551521Y1016949D01*
X549189D01*
X548023Y1018115D01*
Y1019281D01*
X549189Y1020448D01*
X548023Y1021614D01*
Y1022780D01*
X549189Y1020448D02*
X551521D01*
X562018Y1016949D02*
Y1023947D01*
X564351Y1021614D01*
X566683Y1023947D01*
Y1016949D01*
X569016Y1023947D02*
X571348D01*
X570182D01*
Y1016949D01*
X569016D01*
X571348D01*
X574847Y1023947D02*
Y1016949D01*
X579512D01*
X581845D02*
Y1018115D01*
X583011D01*
Y1016949D01*
X581845D01*
X97835Y1003947D02*
X102500D01*
Y1002780D01*
X97835Y998115D01*
Y996949D01*
X104832D02*
Y998115D01*
X105999D01*
Y996949D01*
X104832D01*
X117662Y1003947D02*
Y996949D01*
X122327D01*
X124659D02*
Y1003947D01*
X128158D01*
X129324Y1002780D01*
Y1000448D01*
X128158Y999281D01*
X124659D01*
X131657Y1003947D02*
X133990D01*
X132823D01*
Y996949D01*
X131657D01*
X133990D01*
X149151Y1002780D02*
X147985Y1003947D01*
X145652D01*
X144486Y1002780D01*
Y1001614D01*
X145652Y1000448D01*
X147985D01*
X149151Y999281D01*
Y998115D01*
X147985Y996949D01*
X145652D01*
X144486Y998115D01*
X154983Y1003947D02*
X152650D01*
X151484Y1002780D01*
Y998115D01*
X152650Y996949D01*
X154983D01*
X156149Y998115D01*
Y1002780D01*
X154983Y1003947D01*
X158482D02*
Y996949D01*
X163147D01*
X165480Y1003947D02*
Y996949D01*
X168978D01*
X170145Y998115D01*
Y1002780D01*
X168978Y1003947D01*
X165480D01*
X177142D02*
X172477D01*
Y996949D01*
X177142D01*
X172477Y1000448D02*
X174810D01*
X179475Y996949D02*
Y1003947D01*
X182974D01*
X184140Y1002780D01*
Y1000448D01*
X182974Y999281D01*
X179475D01*
X181807D02*
X184140Y996949D01*
X193470D02*
Y1003947D01*
X195803Y1001614D01*
X198136Y1003947D01*
Y996949D01*
X200468D02*
Y1001614D01*
X202801Y1003947D01*
X205133Y1001614D01*
Y996949D01*
Y1000448D01*
X200468D01*
X212131Y1002780D02*
X210965Y1003947D01*
X208632D01*
X207466Y1002780D01*
Y1001614D01*
X208632Y1000448D01*
X210965D01*
X212131Y999281D01*
Y998115D01*
X210965Y996949D01*
X208632D01*
X207466Y998115D01*
X214464Y1003947D02*
Y996949D01*
Y999281D01*
X219129Y1003947D01*
X215630Y1000448D01*
X219129Y996949D01*
X228459Y1003947D02*
X233124D01*
X230792D01*
Y996949D01*
X238956Y1003947D02*
X236623D01*
X235457Y1002780D01*
Y998115D01*
X236623Y996949D01*
X238956D01*
X240122Y998115D01*
Y1002780D01*
X238956Y1003947D01*
X242455Y996949D02*
Y1003947D01*
X245953D01*
X247120Y1002780D01*
Y1000448D01*
X245953Y999281D01*
X242455D01*
X256450Y996949D02*
Y1001614D01*
X258783Y1003947D01*
X261115Y1001614D01*
Y996949D01*
Y1000448D01*
X256450D01*
X263448Y996949D02*
Y1003947D01*
X268113Y996949D01*
Y1003947D01*
X270446D02*
Y996949D01*
X273944D01*
X275111Y998115D01*
Y1002780D01*
X273944Y1003947D01*
X270446D01*
X284441D02*
Y996949D01*
X287940D01*
X289106Y998115D01*
Y999281D01*
X287940Y1000448D01*
X284441D01*
X287940D01*
X289106Y1001614D01*
Y1002780D01*
X287940Y1003947D01*
X284441D01*
X294938D02*
X292605D01*
X291439Y1002780D01*
Y998115D01*
X292605Y996949D01*
X294938D01*
X296104Y998115D01*
Y1002780D01*
X294938Y1003947D01*
X298436D02*
X303102D01*
X300769D01*
Y996949D01*
X305434Y1003947D02*
X310099D01*
X307767D01*
Y996949D01*
X315931Y1003947D02*
X313598D01*
X312432Y1002780D01*
Y998115D01*
X313598Y996949D01*
X315931D01*
X317097Y998115D01*
Y1002780D01*
X315931Y1003947D01*
X319430Y996949D02*
Y1003947D01*
X321762Y1001614D01*
X324095Y1003947D01*
Y996949D01*
X338090Y1002780D02*
X336924Y1003947D01*
X334592D01*
X333425Y1002780D01*
Y1001614D01*
X334592Y1000448D01*
X336924D01*
X338090Y999281D01*
Y998115D01*
X336924Y996949D01*
X334592D01*
X333425Y998115D01*
X340423Y1003947D02*
X342756D01*
X341589D01*
Y996949D01*
X340423D01*
X342756D01*
X346254Y1003947D02*
Y996949D01*
X349753D01*
X350920Y998115D01*
Y1002780D01*
X349753Y1003947D01*
X346254D01*
X357917D02*
X353252D01*
Y996949D01*
X357917D01*
X353252Y1000448D02*
X355585D01*
X370746Y1003947D02*
X368414D01*
X367248Y1002780D01*
Y998115D01*
X368414Y996949D01*
X370746D01*
X371913Y998115D01*
Y1002780D01*
X370746Y1003947D01*
X374245D02*
Y999281D01*
X376578Y996949D01*
X378910Y999281D01*
Y1003947D01*
X385908D02*
X381243D01*
Y996949D01*
X385908D01*
X381243Y1000448D02*
X383576D01*
X388241Y996949D02*
Y1003947D01*
X391740D01*
X392906Y1002780D01*
Y1000448D01*
X391740Y999281D01*
X388241D01*
X390573D02*
X392906Y996949D01*
X402236Y1003947D02*
Y996949D01*
X405735D01*
X406902Y998115D01*
Y999281D01*
X405735Y1000448D01*
X402236D01*
X405735D01*
X406902Y1001614D01*
Y1002780D01*
X405735Y1003947D01*
X402236D01*
X409234Y996949D02*
Y1001614D01*
X411567Y1003947D01*
X413899Y1001614D01*
Y996949D01*
Y1000448D01*
X409234D01*
X420897Y1002780D02*
X419731Y1003947D01*
X417398D01*
X416232Y1002780D01*
Y1001614D01*
X417398Y1000448D01*
X419731D01*
X420897Y999281D01*
Y998115D01*
X419731Y996949D01*
X417398D01*
X416232Y998115D01*
X427895Y1003947D02*
X423230D01*
Y996949D01*
X427895D01*
X423230Y1000448D02*
X425562D01*
X441890Y1002780D02*
X440724Y1003947D01*
X438391D01*
X437225Y1002780D01*
Y998115D01*
X438391Y996949D01*
X440724D01*
X441890Y998115D01*
X447722Y1003947D02*
X445389D01*
X444223Y1002780D01*
Y998115D01*
X445389Y996949D01*
X447722D01*
X448888Y998115D01*
Y1002780D01*
X447722Y1003947D01*
X451221Y996949D02*
Y1003947D01*
X454719D01*
X455886Y1002780D01*
Y1000448D01*
X454719Y999281D01*
X451221D01*
X458218Y996949D02*
Y1003947D01*
X461717D01*
X462883Y1002780D01*
Y1000448D01*
X461717Y999281D01*
X458218D01*
X469881Y1003947D02*
X465216D01*
Y996949D01*
X469881D01*
X465216Y1000448D02*
X467549D01*
X472214Y996949D02*
Y1003947D01*
X475713D01*
X476879Y1002780D01*
Y1000448D01*
X475713Y999281D01*
X472214D01*
X474546D02*
X476879Y996949D01*
X488542D02*
X486209Y999281D01*
Y1001614D01*
X488542Y1003947D01*
X496706Y1002780D02*
X495540Y1003947D01*
X493207D01*
X492041Y1002780D01*
Y998115D01*
X493207Y996949D01*
X495540D01*
X496706Y998115D01*
X502537Y1003947D02*
X500205D01*
X499038Y1002780D01*
Y998115D01*
X500205Y996949D01*
X502537D01*
X503704Y998115D01*
Y1002780D01*
X502537Y1003947D01*
X506036D02*
Y996949D01*
X510701D01*
X516533Y1003947D02*
X514200D01*
X513034Y1002780D01*
Y998115D01*
X514200Y996949D01*
X516533D01*
X517699Y998115D01*
Y1002780D01*
X516533Y1003947D01*
X520032Y996949D02*
Y1003947D01*
X523530D01*
X524697Y1002780D01*
Y1000448D01*
X523530Y999281D01*
X520032D01*
X522364D02*
X524697Y996949D01*
X538692Y1002780D02*
X537526Y1003947D01*
X535193D01*
X534027Y1002780D01*
Y998115D01*
X535193Y996949D01*
X537526D01*
X538692Y998115D01*
Y1000448D01*
X536360D01*
X541025Y996949D02*
Y1003947D01*
X544524D01*
X545690Y1002780D01*
Y1000448D01*
X544524Y999281D01*
X541025D01*
X543357D02*
X545690Y996949D01*
X552688Y1003947D02*
X548023D01*
Y996949D01*
X552688D01*
X548023Y1000448D02*
X550355D01*
X559686Y1003947D02*
X555020D01*
Y996949D01*
X559686D01*
X555020Y1000448D02*
X557353D01*
X562018Y996949D02*
Y1003947D01*
X566683Y996949D01*
Y1003947D01*
X569016Y996949D02*
X571348Y999281D01*
Y1001614D01*
X569016Y1003947D01*
X574847Y996949D02*
Y998115D01*
X576014D01*
Y996949D01*
X574847D01*
X97835Y982780D02*
X99001Y983947D01*
X101333D01*
X102500Y982780D01*
Y981614D01*
X101333Y980448D01*
X102500Y979281D01*
Y978115D01*
X101333Y976949D01*
X99001D01*
X97835Y978115D01*
Y979281D01*
X99001Y980448D01*
X97835Y981614D01*
Y982780D01*
X99001Y980448D02*
X101333D01*
X104832Y976949D02*
Y978115D01*
X105999D01*
Y976949D01*
X104832D01*
X122327Y982780D02*
X121160Y983947D01*
X118828D01*
X117662Y982780D01*
Y978115D01*
X118828Y976949D01*
X121160D01*
X122327Y978115D01*
Y980448D01*
X119994D01*
X128158Y983947D02*
X125826D01*
X124659Y982780D01*
Y978115D01*
X125826Y976949D01*
X128158D01*
X129324Y978115D01*
Y982780D01*
X128158Y983947D01*
X131657D02*
Y976949D01*
X136322D01*
X138655Y983947D02*
Y976949D01*
X142154D01*
X143320Y978115D01*
Y982780D01*
X142154Y983947D01*
X138655D01*
X152650Y976949D02*
Y983947D01*
X156149D01*
X157315Y982780D01*
Y980448D01*
X156149Y979281D01*
X152650D01*
X159648Y983947D02*
Y976949D01*
X164313D01*
X166646D02*
Y981614D01*
X168978Y983947D01*
X171311Y981614D01*
Y976949D01*
Y980448D01*
X166646D01*
X173644Y983947D02*
X178309D01*
X175976D01*
Y976949D01*
X185306Y983947D02*
X180641D01*
Y976949D01*
X185306D01*
X180641Y980448D02*
X182974D01*
X199302Y983947D02*
X194637D01*
Y976949D01*
X199302D01*
X194637Y980448D02*
X196969D01*
X201635Y983947D02*
X206300Y976949D01*
Y983947D02*
X201635Y976949D01*
X208632D02*
Y983947D01*
X212131D01*
X213297Y982780D01*
Y980448D01*
X212131Y979281D01*
X208632D01*
X219129Y983947D02*
X216796D01*
X215630Y982780D01*
Y978115D01*
X216796Y976949D01*
X219129D01*
X220295Y978115D01*
Y982780D01*
X219129Y983947D01*
X227293Y982780D02*
X226127Y983947D01*
X223794D01*
X222628Y982780D01*
Y981614D01*
X223794Y980448D01*
X226127D01*
X227293Y979281D01*
Y978115D01*
X226127Y976949D01*
X223794D01*
X222628Y978115D01*
X234291Y983947D02*
X229625D01*
Y976949D01*
X234291D01*
X229625Y980448D02*
X231958D01*
X236623Y983947D02*
Y976949D01*
X240122D01*
X241288Y978115D01*
Y982780D01*
X240122Y983947D01*
X236623D01*
X255284Y982780D02*
X254117Y983947D01*
X251785D01*
X250619Y982780D01*
Y978115D01*
X251785Y976949D01*
X254117D01*
X255284Y978115D01*
X261115Y983947D02*
X258783D01*
X257616Y982780D01*
Y978115D01*
X258783Y976949D01*
X261115D01*
X262281Y978115D01*
Y982780D01*
X261115Y983947D01*
X264614Y976949D02*
Y983947D01*
X268113D01*
X269279Y982780D01*
Y980448D01*
X268113Y979281D01*
X264614D01*
X271612Y976949D02*
Y983947D01*
X275111D01*
X276277Y982780D01*
Y980448D01*
X275111Y979281D01*
X271612D01*
X283275Y983947D02*
X278610D01*
Y976949D01*
X283275D01*
X278610Y980448D02*
X280942D01*
X285607Y976949D02*
Y983947D01*
X289106D01*
X290272Y982780D01*
Y980448D01*
X289106Y979281D01*
X285607D01*
X287940D02*
X290272Y976949D01*
X293771Y975782D02*
X294938Y976949D01*
Y978115D01*
X293771D01*
Y976949D01*
X294938D01*
X293771Y975782D01*
X292605Y974616D01*
X311266Y983947D02*
X306601D01*
Y976949D01*
X311266D01*
X306601Y980448D02*
X308933D01*
X313598Y983947D02*
Y976949D01*
X318264D01*
X325261Y983947D02*
X320596D01*
Y976949D01*
X325261D01*
X320596Y980448D02*
X322929D01*
X332259Y982780D02*
X331093Y983947D01*
X328760D01*
X327594Y982780D01*
Y978115D01*
X328760Y976949D01*
X331093D01*
X332259Y978115D01*
X334592Y983947D02*
X339257D01*
X336924D01*
Y976949D01*
X341589D02*
Y983947D01*
X345088D01*
X346254Y982780D01*
Y980448D01*
X345088Y979281D01*
X341589D01*
X343922D02*
X346254Y976949D01*
X352086Y983947D02*
X349753D01*
X348587Y982780D01*
Y978115D01*
X349753Y976949D01*
X352086D01*
X353252Y978115D01*
Y982780D01*
X352086Y983947D01*
X355585D02*
Y976949D01*
X360250D01*
X367248Y983947D02*
X362582D01*
Y976949D01*
X367248D01*
X362582Y980448D02*
X364915D01*
X374245Y982780D02*
X373079Y983947D01*
X370746D01*
X369580Y982780D01*
Y981614D01*
X370746Y980448D01*
X373079D01*
X374245Y979281D01*
Y978115D01*
X373079Y976949D01*
X370746D01*
X369580Y978115D01*
X381243Y982780D02*
X380077Y983947D01*
X377744D01*
X376578Y982780D01*
Y981614D01*
X377744Y980448D01*
X380077D01*
X381243Y979281D01*
Y978115D01*
X380077Y976949D01*
X377744D01*
X376578Y978115D01*
X390573Y976949D02*
Y983947D01*
X395239Y976949D01*
Y983947D01*
X397571D02*
X399904D01*
X398738D01*
Y976949D01*
X397571D01*
X399904D01*
X408068Y982780D02*
X406902Y983947D01*
X404569D01*
X403403Y982780D01*
Y978115D01*
X404569Y976949D01*
X406902D01*
X408068Y978115D01*
X410400Y983947D02*
Y976949D01*
Y979281D01*
X415065Y983947D01*
X411567Y980448D01*
X415065Y976949D01*
X422063Y983947D02*
X417398D01*
Y976949D01*
X422063D01*
X417398Y980448D02*
X419731D01*
X424396Y983947D02*
Y976949D01*
X429061D01*
X440724D02*
X438391Y979281D01*
Y981614D01*
X440724Y983947D01*
X444223Y976949D02*
X446555D01*
X445389D01*
Y983947D01*
X444223Y982780D01*
X454719Y976949D02*
X450054D01*
X454719Y981614D01*
Y982780D01*
X453553Y983947D01*
X451221D01*
X450054Y982780D01*
X457052D02*
X458218Y983947D01*
X460551D01*
X461717Y982780D01*
Y978115D01*
X460551Y976949D01*
X458218D01*
X457052Y978115D01*
Y982780D01*
X464050Y980448D02*
X468715D01*
X471047Y982780D02*
X472214Y983947D01*
X474546D01*
X475713Y982780D01*
Y981614D01*
X474546Y980448D01*
X473380D01*
X474546D01*
X475713Y979281D01*
Y978115D01*
X474546Y976949D01*
X472214D01*
X471047Y978115D01*
X482710Y983947D02*
X480378Y982780D01*
X478045Y980448D01*
Y978115D01*
X479212Y976949D01*
X481544D01*
X482710Y978115D01*
Y979281D01*
X481544Y980448D01*
X478045D01*
X485043Y982780D02*
X486209Y983947D01*
X488542D01*
X489708Y982780D01*
Y978115D01*
X488542Y976949D01*
X486209D01*
X485043Y978115D01*
Y982780D01*
X499038Y976949D02*
Y983947D01*
X501371Y981614D01*
X503704Y983947D01*
Y976949D01*
X506036Y983947D02*
X508369D01*
X507202D01*
Y976949D01*
X506036D01*
X508369D01*
X516533Y982780D02*
X515367Y983947D01*
X513034D01*
X511868Y982780D01*
Y978115D01*
X513034Y976949D01*
X515367D01*
X516533Y978115D01*
X518865Y976949D02*
Y983947D01*
X522364D01*
X523530Y982780D01*
Y980448D01*
X522364Y979281D01*
X518865D01*
X521198D02*
X523530Y976949D01*
X529362Y983947D02*
X527029D01*
X525863Y982780D01*
Y978115D01*
X527029Y976949D01*
X529362D01*
X530528Y978115D01*
Y982780D01*
X529362Y983947D01*
X532861Y980448D02*
X537526D01*
X539859Y983947D02*
X542191D01*
X541025D01*
Y976949D01*
X539859D01*
X542191D01*
X545690D02*
Y983947D01*
X550355Y976949D01*
Y983947D01*
X557353Y982780D02*
X556187Y983947D01*
X553854D01*
X552688Y982780D01*
Y978115D01*
X553854Y976949D01*
X556187D01*
X557353Y978115D01*
X559686Y983947D02*
Y976949D01*
Y980448D01*
X564351D01*
Y983947D01*
Y976949D01*
X566683D02*
X569016Y979281D01*
Y981614D01*
X566683Y983947D01*
X573681Y975782D02*
X574847Y976949D01*
Y978115D01*
X573681D01*
Y976949D01*
X574847D01*
X573681Y975782D01*
X572515Y974616D01*
X586510Y983947D02*
X588843D01*
X587676D01*
Y976949D01*
X586510D01*
X588843D01*
X592342D02*
Y983947D01*
X594674Y981614D01*
X597007Y983947D01*
Y976949D01*
X599339D02*
Y983947D01*
X601672Y981614D01*
X604004Y983947D01*
Y976949D01*
X611002Y983947D02*
X606337D01*
Y976949D01*
X611002D01*
X606337Y980448D02*
X608670D01*
X613335Y976949D02*
Y983947D01*
X616834D01*
X618000Y982780D01*
Y980448D01*
X616834Y979281D01*
X613335D01*
X615667D02*
X618000Y976949D01*
X624998Y982780D02*
X623831Y983947D01*
X621499D01*
X620333Y982780D01*
Y981614D01*
X621499Y980448D01*
X623831D01*
X624998Y979281D01*
Y978115D01*
X623831Y976949D01*
X621499D01*
X620333Y978115D01*
X627330Y983947D02*
X629663D01*
X628497D01*
Y976949D01*
X627330D01*
X629663D01*
X636661Y983947D02*
X634328D01*
X633162Y982780D01*
Y978115D01*
X634328Y976949D01*
X636661D01*
X637827Y978115D01*
Y982780D01*
X636661Y983947D01*
X640160Y976949D02*
Y983947D01*
X644825Y976949D01*
Y983947D01*
X658820Y982780D02*
X657654Y983947D01*
X655321D01*
X654155Y982780D01*
Y978115D01*
X655321Y976949D01*
X657654D01*
X658820Y978115D01*
Y980448D01*
X656488D01*
X664652Y983947D02*
X662319D01*
X661153Y982780D01*
Y978115D01*
X662319Y976949D01*
X664652D01*
X665818Y978115D01*
Y982780D01*
X664652Y983947D01*
X668151D02*
Y976949D01*
X672816D01*
X675148Y983947D02*
Y976949D01*
X678647D01*
X679813Y978115D01*
Y982780D01*
X678647Y983947D01*
X675148D01*
X691476Y976949D02*
X689144Y979281D01*
Y981614D01*
X691476Y983947D01*
X699640Y976949D02*
X694975D01*
X699640Y981614D01*
Y982780D01*
X698474Y983947D01*
X696141D01*
X694975Y982780D01*
X701973Y980448D02*
X706638D01*
X713636Y983947D02*
X711303Y982780D01*
X708971Y980448D01*
Y978115D01*
X710137Y976949D01*
X712469D01*
X713636Y978115D01*
Y979281D01*
X712469Y980448D01*
X708971D01*
X722966Y976949D02*
Y983947D01*
X725299Y981614D01*
X727631Y983947D01*
Y976949D01*
X729964Y983947D02*
X732296D01*
X731130D01*
Y976949D01*
X729964D01*
X732296D01*
X740460Y982780D02*
X739294Y983947D01*
X736962D01*
X735795Y982780D01*
Y978115D01*
X736962Y976949D01*
X739294D01*
X740460Y978115D01*
X742793Y976949D02*
Y983947D01*
X746292D01*
X747458Y982780D01*
Y980448D01*
X746292Y979281D01*
X742793D01*
X745126D02*
X747458Y976949D01*
X753290Y983947D02*
X750957D01*
X749791Y982780D01*
Y978115D01*
X750957Y976949D01*
X753290D01*
X754456Y978115D01*
Y982780D01*
X753290Y983947D01*
X756788Y980448D02*
X761454D01*
X763786Y983947D02*
X766119D01*
X764953D01*
Y976949D01*
X763786D01*
X766119D01*
X769618D02*
Y983947D01*
X774283Y976949D01*
Y983947D01*
X781281Y982780D02*
X780114Y983947D01*
X777782D01*
X776615Y982780D01*
Y978115D01*
X777782Y976949D01*
X780114D01*
X781281Y978115D01*
X783613Y983947D02*
Y976949D01*
Y980448D01*
X788278D01*
Y983947D01*
Y976949D01*
X790611D02*
X792943Y979281D01*
Y981614D01*
X790611Y983947D01*
X796442Y976949D02*
Y978115D01*
X797609D01*
Y976949D01*
X796442D01*
X97835Y958115D02*
X99001Y956949D01*
X101333D01*
X102500Y958115D01*
Y962780D01*
X101333Y963947D01*
X99001D01*
X97835Y962780D01*
Y961614D01*
X99001Y960448D01*
X102500D01*
X104832Y956949D02*
Y958115D01*
X105999D01*
Y956949D01*
X104832D01*
X117662D02*
Y963947D01*
X119994Y961614D01*
X122327Y963947D01*
Y956949D01*
X124659D02*
Y961614D01*
X126992Y963947D01*
X129324Y961614D01*
Y956949D01*
Y960448D01*
X124659D01*
X131657Y963947D02*
X136322D01*
X133990D01*
Y956949D01*
X143320Y963947D02*
X138655D01*
Y956949D01*
X143320D01*
X138655Y960448D02*
X140987D01*
X145652Y956949D02*
Y963947D01*
X149151D01*
X150318Y962780D01*
Y960448D01*
X149151Y959281D01*
X145652D01*
X147985D02*
X150318Y956949D01*
X152650Y963947D02*
X154983D01*
X153817D01*
Y956949D01*
X152650D01*
X154983D01*
X158482D02*
Y961614D01*
X160814Y963947D01*
X163147Y961614D01*
Y956949D01*
Y960448D01*
X158482D01*
X165480Y963947D02*
Y956949D01*
X170145D01*
X177142Y962780D02*
X175976Y963947D01*
X173644D01*
X172477Y962780D01*
Y961614D01*
X173644Y960448D01*
X175976D01*
X177142Y959281D01*
Y958115D01*
X175976Y956949D01*
X173644D01*
X172477Y958115D01*
X186473Y956949D02*
Y961614D01*
X188805Y963947D01*
X191138Y961614D01*
Y956949D01*
Y960448D01*
X186473D01*
X193470Y956949D02*
Y963947D01*
X198136Y956949D01*
Y963947D01*
X200468D02*
Y956949D01*
X203967D01*
X205133Y958115D01*
Y962780D01*
X203967Y963947D01*
X200468D01*
X214464Y956949D02*
Y963947D01*
X217963D01*
X219129Y962780D01*
Y960448D01*
X217963Y959281D01*
X214464D01*
X221461Y956949D02*
Y963947D01*
X224960D01*
X226127Y962780D01*
Y960448D01*
X224960Y959281D01*
X221461D01*
X223794D02*
X226127Y956949D01*
X231958Y963947D02*
X229625D01*
X228459Y962780D01*
Y958115D01*
X229625Y956949D01*
X231958D01*
X233124Y958115D01*
Y962780D01*
X231958Y963947D01*
X240122Y962780D02*
X238956Y963947D01*
X236623D01*
X235457Y962780D01*
Y958115D01*
X236623Y956949D01*
X238956D01*
X240122Y958115D01*
X247120Y963947D02*
X242455D01*
Y956949D01*
X247120D01*
X242455Y960448D02*
X244787D01*
X254117Y962780D02*
X252951Y963947D01*
X250619D01*
X249452Y962780D01*
Y961614D01*
X250619Y960448D01*
X252951D01*
X254117Y959281D01*
Y958115D01*
X252951Y956949D01*
X250619D01*
X249452Y958115D01*
X261115Y962780D02*
X259949Y963947D01*
X257616D01*
X256450Y962780D01*
Y961614D01*
X257616Y960448D01*
X259949D01*
X261115Y959281D01*
Y958115D01*
X259949Y956949D01*
X257616D01*
X256450Y958115D01*
X268113Y963947D02*
X263448D01*
Y956949D01*
X268113D01*
X263448Y960448D02*
X265780D01*
X275111Y962780D02*
X273944Y963947D01*
X271612D01*
X270446Y962780D01*
Y961614D01*
X271612Y960448D01*
X273944D01*
X275111Y959281D01*
Y958115D01*
X273944Y956949D01*
X271612D01*
X270446Y958115D01*
X284441Y956949D02*
Y963947D01*
X286774Y961614D01*
X289106Y963947D01*
Y956949D01*
X291439D02*
Y961614D01*
X293771Y963947D01*
X296104Y961614D01*
Y956949D01*
Y960448D01*
X291439D01*
X298436Y963947D02*
Y962780D01*
X300769Y960448D01*
X303102Y962780D01*
Y963947D01*
X300769Y960448D02*
Y956949D01*
X312432Y963947D02*
Y956949D01*
X315931D01*
X317097Y958115D01*
Y959281D01*
X315931Y960448D01*
X312432D01*
X315931D01*
X317097Y961614D01*
Y962780D01*
X315931Y963947D01*
X312432D01*
X324095D02*
X319430D01*
Y956949D01*
X324095D01*
X319430Y960448D02*
X321762D01*
X338090Y962780D02*
X336924Y963947D01*
X334592D01*
X333425Y962780D01*
Y958115D01*
X334592Y956949D01*
X336924D01*
X338090Y958115D01*
X340423Y963947D02*
Y956949D01*
Y960448D01*
X345088D01*
Y963947D01*
Y956949D01*
X347421D02*
Y961614D01*
X349753Y963947D01*
X352086Y961614D01*
Y956949D01*
Y960448D01*
X347421D01*
X354418Y956949D02*
Y963947D01*
X359084Y956949D01*
Y963947D01*
X366081Y962780D02*
X364915Y963947D01*
X362582D01*
X361416Y962780D01*
Y958115D01*
X362582Y956949D01*
X364915D01*
X366081Y958115D01*
Y960448D01*
X363749D01*
X373079Y963947D02*
X368414D01*
Y956949D01*
X373079D01*
X368414Y960448D02*
X370746D01*
X375412Y963947D02*
Y956949D01*
X378910D01*
X380077Y958115D01*
Y962780D01*
X378910Y963947D01*
X375412D01*
X389407D02*
Y956949D01*
X391740Y959281D01*
X394072Y956949D01*
Y963947D01*
X396405D02*
X398738D01*
X397571D01*
Y956949D01*
X396405D01*
X398738D01*
X402236Y963947D02*
X406902D01*
X404569D01*
Y956949D01*
X409234Y963947D02*
Y956949D01*
Y960448D01*
X413899D01*
Y963947D01*
Y956949D01*
X423230D02*
Y963947D01*
X426728D01*
X427895Y962780D01*
Y960448D01*
X426728Y959281D01*
X423230D01*
X430227Y956949D02*
Y963947D01*
X433726D01*
X434893Y962780D01*
Y960448D01*
X433726Y959281D01*
X430227D01*
X432560D02*
X434893Y956949D01*
X437225Y963947D02*
X439558D01*
X438391D01*
Y956949D01*
X437225D01*
X439558D01*
X446555Y963947D02*
X444223D01*
X443056Y962780D01*
Y958115D01*
X444223Y956949D01*
X446555D01*
X447722Y958115D01*
Y962780D01*
X446555Y963947D01*
X450054Y956949D02*
Y963947D01*
X453553D01*
X454719Y962780D01*
Y960448D01*
X453553Y959281D01*
X450054D01*
X452387D02*
X454719Y956949D01*
X464050Y963947D02*
X468715D01*
Y962780D01*
X464050Y958115D01*
Y956949D01*
X468715D01*
X471047Y960448D02*
X475713D01*
X478045Y956949D02*
Y963947D01*
X481544D01*
X482710Y962780D01*
Y960448D01*
X481544Y959281D01*
X478045D01*
X488542Y963947D02*
X486209D01*
X485043Y962780D01*
Y958115D01*
X486209Y956949D01*
X488542D01*
X489708Y958115D01*
Y962780D01*
X488542Y963947D01*
X492041D02*
Y956949D01*
X494373Y959281D01*
X496706Y956949D01*
Y963947D01*
X503704D02*
X499038D01*
Y956949D01*
X503704D01*
X499038Y960448D02*
X501371D01*
X506036Y956949D02*
Y963947D01*
X509535D01*
X510701Y962780D01*
Y960448D01*
X509535Y959281D01*
X506036D01*
X508369D02*
X510701Y956949D01*
X520032D02*
Y961614D01*
X522364Y963947D01*
X524697Y961614D01*
Y956949D01*
Y960448D01*
X520032D01*
X527029Y956949D02*
Y963947D01*
X530528D01*
X531695Y962780D01*
Y960448D01*
X530528Y959281D01*
X527029D01*
X534027Y956949D02*
Y963947D01*
X537526D01*
X538692Y962780D01*
Y960448D01*
X537526Y959281D01*
X534027D01*
X541025Y956949D02*
Y963947D01*
X544524D01*
X545690Y962780D01*
Y960448D01*
X544524Y959281D01*
X541025D01*
X543357D02*
X545690Y956949D01*
X551521Y963947D02*
X549189D01*
X548023Y962780D01*
Y958115D01*
X549189Y956949D01*
X551521D01*
X552688Y958115D01*
Y962780D01*
X551521Y963947D01*
X555020D02*
Y959281D01*
X557353Y956949D01*
X559686Y959281D01*
Y963947D01*
X562018Y956949D02*
Y961614D01*
X564351Y963947D01*
X566683Y961614D01*
Y956949D01*
Y960448D01*
X562018D01*
X569016Y963947D02*
Y956949D01*
X573681D01*
X576014D02*
Y958115D01*
X577180D01*
Y956949D01*
X576014D01*
X97835Y936949D02*
X100167D01*
X99001D01*
Y943947D01*
X97835Y942780D01*
X103666D02*
X104832Y943947D01*
X107165D01*
X108331Y942780D01*
Y938115D01*
X107165Y936949D01*
X104832D01*
X103666Y938115D01*
Y942780D01*
X110664Y936949D02*
Y938115D01*
X111830D01*
Y936949D01*
X110664D01*
X126992Y943947D02*
X124659D01*
X123493Y942780D01*
Y938115D01*
X124659Y936949D01*
X126992D01*
X128158Y938115D01*
Y942780D01*
X126992Y943947D01*
X130491D02*
Y938115D01*
X131657Y936949D01*
X133990D01*
X135156Y938115D01*
Y943947D01*
X137488D02*
X142154D01*
X139821D01*
Y936949D01*
X144486Y943947D02*
Y936949D01*
X149151D01*
X151484Y943947D02*
X153817D01*
X152650D01*
Y936949D01*
X151484D01*
X153817D01*
X157315D02*
Y943947D01*
X161981Y936949D01*
Y943947D01*
X168978D02*
X164313D01*
Y936949D01*
X168978D01*
X164313Y940448D02*
X166646D01*
X178309Y936949D02*
Y943947D01*
X181807D01*
X182974Y942780D01*
Y940448D01*
X181807Y939281D01*
X178309D01*
X180641D02*
X182974Y936949D01*
X188805Y943947D02*
X186473D01*
X185306Y942780D01*
Y938115D01*
X186473Y936949D01*
X188805D01*
X189972Y938115D01*
Y942780D01*
X188805Y943947D01*
X192304D02*
Y938115D01*
X193470Y936949D01*
X195803D01*
X196969Y938115D01*
Y943947D01*
X199302D02*
X203967D01*
X201635D01*
Y936949D01*
X210965Y943947D02*
X206300D01*
Y936949D01*
X210965D01*
X206300Y940448D02*
X208632D01*
X220295Y943947D02*
X224960D01*
X222628D01*
Y936949D01*
X230792Y943947D02*
X228459D01*
X227293Y942780D01*
Y938115D01*
X228459Y936949D01*
X230792D01*
X231958Y938115D01*
Y942780D01*
X230792Y943947D01*
X234291D02*
Y936949D01*
X238956D01*
X245953Y943947D02*
X241288D01*
Y936949D01*
X245953D01*
X241288Y940448D02*
X243621D01*
X248286Y936949D02*
Y943947D01*
X251785D01*
X252951Y942780D01*
Y940448D01*
X251785Y939281D01*
X248286D01*
X250619D02*
X252951Y936949D01*
X255284D02*
Y941614D01*
X257616Y943947D01*
X259949Y941614D01*
Y936949D01*
Y940448D01*
X255284D01*
X262281Y936949D02*
Y943947D01*
X266947Y936949D01*
Y943947D01*
X273944Y942780D02*
X272778Y943947D01*
X270446D01*
X269279Y942780D01*
Y938115D01*
X270446Y936949D01*
X272778D01*
X273944Y938115D01*
X280942Y943947D02*
X276277D01*
Y936949D01*
X280942D01*
X276277Y940448D02*
X278610D01*
X294938Y942780D02*
X293771Y943947D01*
X291439D01*
X290272Y942780D01*
Y941614D01*
X291439Y940448D01*
X293771D01*
X294938Y939281D01*
Y938115D01*
X293771Y936949D01*
X291439D01*
X290272Y938115D01*
X297270Y943947D02*
Y936949D01*
Y940448D01*
X301935D01*
Y943947D01*
Y936949D01*
X304268D02*
Y941614D01*
X306601Y943947D01*
X308933Y941614D01*
Y936949D01*
Y940448D01*
X304268D01*
X311266Y943947D02*
Y936949D01*
X315931D01*
X318264Y943947D02*
Y936949D01*
X322929D01*
X332259Y943947D02*
Y936949D01*
X335758D01*
X336924Y938115D01*
Y939281D01*
X335758Y940448D01*
X332259D01*
X335758D01*
X336924Y941614D01*
Y942780D01*
X335758Y943947D01*
X332259D01*
X343922D02*
X339257D01*
Y936949D01*
X343922D01*
X339257Y940448D02*
X341589D01*
X353252D02*
X357917D01*
X355585Y942780D02*
Y938115D01*
X360250Y936949D02*
X364915Y941614D01*
X367248Y940448D02*
X371913D01*
X381243Y942780D02*
X382409Y943947D01*
X384742D01*
X385908Y942780D01*
Y941614D01*
X384742Y940448D01*
X383576D01*
X384742D01*
X385908Y939281D01*
Y938115D01*
X384742Y936949D01*
X382409D01*
X381243Y938115D01*
X388241Y936949D02*
Y943947D01*
X390573Y941614D01*
X392906Y943947D01*
Y936949D01*
X395239Y943947D02*
X397571D01*
X396405D01*
Y936949D01*
X395239D01*
X397571D01*
X401070Y943947D02*
Y936949D01*
X405735D01*
X412733Y942780D02*
X411567Y943947D01*
X409234D01*
X408068Y942780D01*
Y941614D01*
X409234Y940448D01*
X411567D01*
X412733Y939281D01*
Y938115D01*
X411567Y936949D01*
X409234D01*
X408068Y938115D01*
X415065Y936949D02*
Y938115D01*
X416232D01*
Y936949D01*
X415065D01*
X102333Y1057949D02*
Y1064947D01*
X98835Y1061448D01*
X103500D01*
X105832Y1057949D02*
Y1059115D01*
X106999D01*
Y1057949D01*
X105832D01*
X123327Y1063780D02*
X122160Y1064947D01*
X119828D01*
X118662Y1063780D01*
Y1062614D01*
X119828Y1061448D01*
X122160D01*
X123327Y1060281D01*
Y1059115D01*
X122160Y1057949D01*
X119828D01*
X118662Y1059115D01*
X129158Y1064947D02*
X126826D01*
X125659Y1063780D01*
Y1059115D01*
X126826Y1057949D01*
X129158D01*
X130324Y1059115D01*
Y1063780D01*
X129158Y1064947D01*
X132657D02*
Y1057949D01*
X137322D01*
X139655Y1064947D02*
Y1057949D01*
X143154D01*
X144320Y1059115D01*
Y1063780D01*
X143154Y1064947D01*
X139655D01*
X151318D02*
X146652D01*
Y1057949D01*
X151318D01*
X146652Y1061448D02*
X148985D01*
X153650Y1057949D02*
Y1064947D01*
X157149D01*
X158315Y1063780D01*
Y1061448D01*
X157149Y1060281D01*
X153650D01*
X155983D02*
X158315Y1057949D01*
X167646D02*
Y1064947D01*
X169978Y1062614D01*
X172311Y1064947D01*
Y1057949D01*
X174644D02*
Y1062614D01*
X176976Y1064947D01*
X179309Y1062614D01*
Y1057949D01*
Y1061448D01*
X174644D01*
X186306Y1063780D02*
X185140Y1064947D01*
X182808D01*
X181641Y1063780D01*
Y1062614D01*
X182808Y1061448D01*
X185140D01*
X186306Y1060281D01*
Y1059115D01*
X185140Y1057949D01*
X182808D01*
X181641Y1059115D01*
X188639Y1064947D02*
Y1057949D01*
Y1060281D01*
X193304Y1064947D01*
X189805Y1061448D01*
X193304Y1057949D01*
X202635Y1064947D02*
X207300D01*
X204967D01*
Y1057949D01*
X213131Y1064947D02*
X210799D01*
X209632Y1063780D01*
Y1059115D01*
X210799Y1057949D01*
X213131D01*
X214297Y1059115D01*
Y1063780D01*
X213131Y1064947D01*
X223628D02*
Y1057949D01*
X228293D01*
X230625D02*
Y1062614D01*
X232958Y1064947D01*
X235291Y1062614D01*
Y1057949D01*
Y1061448D01*
X230625D01*
X237623Y1064947D02*
Y1063780D01*
X239956Y1061448D01*
X242288Y1063780D01*
Y1064947D01*
X239956Y1061448D02*
Y1057949D01*
X249286Y1064947D02*
X244621D01*
Y1057949D01*
X249286D01*
X244621Y1061448D02*
X246954D01*
X251619Y1057949D02*
Y1064947D01*
X255118D01*
X256284Y1063780D01*
Y1061448D01*
X255118Y1060281D01*
X251619D01*
X253951D02*
X256284Y1057949D01*
X265614D02*
Y1064947D01*
X269113D01*
X270279Y1063780D01*
Y1061448D01*
X269113Y1060281D01*
X265614D01*
X267947D02*
X270279Y1057949D01*
X277277Y1064947D02*
X272612D01*
Y1057949D01*
X277277D01*
X272612Y1061448D02*
X274944D01*
X284275Y1063780D02*
X283108Y1064947D01*
X280776D01*
X279610Y1063780D01*
Y1059115D01*
X280776Y1057949D01*
X283108D01*
X284275Y1059115D01*
Y1061448D01*
X281942D01*
X286607Y1064947D02*
X288940D01*
X287774D01*
Y1057949D01*
X286607D01*
X288940D01*
X297104Y1063780D02*
X295938Y1064947D01*
X293605D01*
X292439Y1063780D01*
Y1062614D01*
X293605Y1061448D01*
X295938D01*
X297104Y1060281D01*
Y1059115D01*
X295938Y1057949D01*
X293605D01*
X292439Y1059115D01*
X299436Y1064947D02*
X304102D01*
X301769D01*
Y1057949D01*
X306434D02*
Y1064947D01*
X309933D01*
X311099Y1063780D01*
Y1061448D01*
X309933Y1060281D01*
X306434D01*
X308767D02*
X311099Y1057949D01*
X313432D02*
Y1062614D01*
X315765Y1064947D01*
X318097Y1062614D01*
Y1057949D01*
Y1061448D01*
X313432D01*
X320430Y1064947D02*
X325095D01*
X322762D01*
Y1057949D01*
X327428Y1064947D02*
X329760D01*
X328594D01*
Y1057949D01*
X327428D01*
X329760D01*
X336758Y1064947D02*
X334425D01*
X333259Y1063780D01*
Y1059115D01*
X334425Y1057949D01*
X336758D01*
X337924Y1059115D01*
Y1063780D01*
X336758Y1064947D01*
X340257Y1057949D02*
Y1064947D01*
X344922Y1057949D01*
Y1064947D01*
X358917Y1063780D02*
X357751Y1064947D01*
X355418D01*
X354252Y1063780D01*
Y1062614D01*
X355418Y1061448D01*
X357751D01*
X358917Y1060281D01*
Y1059115D01*
X357751Y1057949D01*
X355418D01*
X354252Y1059115D01*
X361250Y1064947D02*
Y1057949D01*
Y1061448D01*
X365915D01*
Y1064947D01*
Y1057949D01*
X368248D02*
Y1062614D01*
X370580Y1064947D01*
X372913Y1062614D01*
Y1057949D01*
Y1061448D01*
X368248D01*
X375245Y1064947D02*
Y1057949D01*
X379910D01*
X382243Y1064947D02*
Y1057949D01*
X386908D01*
X396239Y1064947D02*
Y1057949D01*
X399738D01*
X400904Y1059115D01*
Y1060281D01*
X399738Y1061448D01*
X396239D01*
X399738D01*
X400904Y1062614D01*
Y1063780D01*
X399738Y1064947D01*
X396239D01*
X407901D02*
X403236D01*
Y1057949D01*
X407901D01*
X403236Y1061448D02*
X405569D01*
X417232Y1064947D02*
Y1057949D01*
X419564Y1060281D01*
X421897Y1057949D01*
Y1064947D01*
X424230D02*
X426562D01*
X425396D01*
Y1057949D01*
X424230D01*
X426562D01*
X430061Y1064947D02*
X434726D01*
X432394D01*
Y1057949D01*
X437059Y1064947D02*
Y1057949D01*
Y1061448D01*
X441724D01*
Y1064947D01*
Y1057949D01*
X444057Y1064947D02*
X446389D01*
X445223D01*
Y1057949D01*
X444057D01*
X446389D01*
X449888D02*
Y1064947D01*
X454553Y1057949D01*
Y1064947D01*
X468549Y1057949D02*
X463883D01*
X468549Y1062614D01*
Y1063780D01*
X467382Y1064947D01*
X465050D01*
X463883Y1063780D01*
X477879Y1057949D02*
Y1064947D01*
X480211Y1062614D01*
X482544Y1064947D01*
Y1057949D01*
X484877Y1064947D02*
X487209D01*
X486043D01*
Y1057949D01*
X484877D01*
X487209D01*
X490708Y1064947D02*
Y1057949D01*
X495373D01*
X497706D02*
Y1059115D01*
X498872D01*
Y1057949D01*
X497706D01*
X103500Y1044947D02*
X98835D01*
Y1041448D01*
X101167Y1042614D01*
X102333D01*
X103500Y1041448D01*
Y1039115D01*
X102333Y1037949D01*
X100001D01*
X98835Y1039115D01*
X105832Y1037949D02*
Y1039115D01*
X106999D01*
Y1037949D01*
X105832D01*
X118662Y1044947D02*
Y1037949D01*
Y1041448D01*
X123327D01*
Y1044947D01*
Y1037949D01*
X129158Y1044947D02*
X126826D01*
X125659Y1043780D01*
Y1039115D01*
X126826Y1037949D01*
X129158D01*
X130324Y1039115D01*
Y1043780D01*
X129158Y1044947D01*
X132657D02*
Y1037949D01*
X137322D01*
X144320Y1044947D02*
X139655D01*
Y1037949D01*
X144320D01*
X139655Y1041448D02*
X141987D01*
X158315Y1043780D02*
X157149Y1044947D01*
X154817D01*
X153650Y1043780D01*
Y1042614D01*
X154817Y1041448D01*
X157149D01*
X158315Y1040281D01*
Y1039115D01*
X157149Y1037949D01*
X154817D01*
X153650Y1039115D01*
X160648Y1044947D02*
X162981D01*
X161814D01*
Y1037949D01*
X160648D01*
X162981D01*
X166480Y1044947D02*
X171145D01*
Y1043780D01*
X166480Y1039115D01*
Y1037949D01*
X171145D01*
X178142Y1044947D02*
X173477D01*
Y1037949D01*
X178142D01*
X173477Y1041448D02*
X175810D01*
X187473Y1044947D02*
X192138D01*
X189805D01*
Y1037949D01*
X197969Y1044947D02*
X195637D01*
X194470Y1043780D01*
Y1039115D01*
X195637Y1037949D01*
X197969D01*
X199136Y1039115D01*
Y1043780D01*
X197969Y1044947D01*
X201468D02*
Y1037949D01*
X206133D01*
X213131Y1044947D02*
X208466D01*
Y1037949D01*
X213131D01*
X208466Y1041448D02*
X210799D01*
X215464Y1037949D02*
Y1044947D01*
X218963D01*
X220129Y1043780D01*
Y1041448D01*
X218963Y1040281D01*
X215464D01*
X217796D02*
X220129Y1037949D01*
X222461D02*
Y1042614D01*
X224794Y1044947D01*
X227127Y1042614D01*
Y1037949D01*
Y1041448D01*
X222461D01*
X229459Y1037949D02*
Y1044947D01*
X234124Y1037949D01*
Y1044947D01*
X241122Y1043780D02*
X239956Y1044947D01*
X237623D01*
X236457Y1043780D01*
Y1039115D01*
X237623Y1037949D01*
X239956D01*
X241122Y1039115D01*
X248120Y1044947D02*
X243455D01*
Y1037949D01*
X248120D01*
X243455Y1041448D02*
X245787D01*
X251619Y1036782D02*
X252785Y1037949D01*
Y1039115D01*
X251619D01*
Y1037949D01*
X252785D01*
X251619Y1036782D01*
X250452Y1035616D01*
X264448Y1041448D02*
X269113D01*
X266780Y1043780D02*
Y1039115D01*
X276111Y1037949D02*
X271446D01*
X276111Y1042614D01*
Y1043780D01*
X274944Y1044947D01*
X272612D01*
X271446Y1043780D01*
X278443Y1037949D02*
X283108Y1042614D01*
X285441Y1041448D02*
X290106D01*
X292439Y1043780D02*
X293605Y1044947D01*
X295938D01*
X297104Y1043780D01*
Y1042614D01*
X295938Y1041448D01*
X294771D01*
X295938D01*
X297104Y1040281D01*
Y1039115D01*
X295938Y1037949D01*
X293605D01*
X292439Y1039115D01*
X306434Y1037949D02*
Y1044947D01*
X308767Y1042614D01*
X311099Y1044947D01*
Y1037949D01*
X313432Y1044947D02*
X315765D01*
X314598D01*
Y1037949D01*
X313432D01*
X315765D01*
X319264Y1044947D02*
Y1037949D01*
X323929D01*
X330926Y1043780D02*
X329760Y1044947D01*
X327428D01*
X326261Y1043780D01*
Y1042614D01*
X327428Y1041448D01*
X329760D01*
X330926Y1040281D01*
Y1039115D01*
X329760Y1037949D01*
X327428D01*
X326261Y1039115D01*
X333259Y1037949D02*
Y1039115D01*
X334425D01*
Y1037949D01*
X333259D01*
X346088Y1044947D02*
Y1037949D01*
Y1041448D01*
X350753D01*
Y1044947D01*
Y1037949D01*
X356585Y1044947D02*
X354252D01*
X353086Y1043780D01*
Y1039115D01*
X354252Y1037949D01*
X356585D01*
X357751Y1039115D01*
Y1043780D01*
X356585Y1044947D01*
X360084D02*
Y1037949D01*
X364749D01*
X371746Y1044947D02*
X367081D01*
Y1037949D01*
X371746D01*
X367081Y1041448D02*
X369414D01*
X381077Y1037949D02*
Y1044947D01*
X384576D01*
X385742Y1043780D01*
Y1041448D01*
X384576Y1040281D01*
X381077D01*
X391573Y1044947D02*
X389241D01*
X388075Y1043780D01*
Y1039115D01*
X389241Y1037949D01*
X391573D01*
X392740Y1039115D01*
Y1043780D01*
X391573Y1044947D01*
X399738Y1043780D02*
X398571Y1044947D01*
X396239D01*
X395072Y1043780D01*
Y1042614D01*
X396239Y1041448D01*
X398571D01*
X399738Y1040281D01*
Y1039115D01*
X398571Y1037949D01*
X396239D01*
X395072Y1039115D01*
X402070Y1044947D02*
X404403D01*
X403236D01*
Y1037949D01*
X402070D01*
X404403D01*
X407901Y1044947D02*
X412567D01*
X410234D01*
Y1037949D01*
X414899Y1044947D02*
X417232D01*
X416066D01*
Y1037949D01*
X414899D01*
X417232D01*
X424230Y1044947D02*
X421897D01*
X420731Y1043780D01*
Y1039115D01*
X421897Y1037949D01*
X424230D01*
X425396Y1039115D01*
Y1043780D01*
X424230Y1044947D01*
X427728Y1037949D02*
Y1044947D01*
X432394Y1037949D01*
Y1044947D01*
X441724D02*
X446389D01*
X444057D01*
Y1037949D01*
X452220Y1044947D02*
X449888D01*
X448722Y1043780D01*
Y1039115D01*
X449888Y1037949D01*
X452220D01*
X453387Y1039115D01*
Y1043780D01*
X452220Y1044947D01*
X455719D02*
Y1037949D01*
X460385D01*
X467382Y1044947D02*
X462717D01*
Y1037949D01*
X467382D01*
X462717Y1041448D02*
X465050D01*
X469715Y1037949D02*
Y1044947D01*
X473214D01*
X474380Y1043780D01*
Y1041448D01*
X473214Y1040281D01*
X469715D01*
X472048D02*
X474380Y1037949D01*
X476713D02*
Y1042614D01*
X479045Y1044947D01*
X481378Y1042614D01*
Y1037949D01*
Y1041448D01*
X476713D01*
X483710Y1037949D02*
Y1044947D01*
X488376Y1037949D01*
Y1044947D01*
X495373Y1043780D02*
X494207Y1044947D01*
X491874D01*
X490708Y1043780D01*
Y1039115D01*
X491874Y1037949D01*
X494207D01*
X495373Y1039115D01*
X502371Y1044947D02*
X497706D01*
Y1037949D01*
X502371D01*
X497706Y1041448D02*
X500038D01*
X516366Y1043780D02*
X515200Y1044947D01*
X512868D01*
X511701Y1043780D01*
Y1042614D01*
X512868Y1041448D01*
X515200D01*
X516366Y1040281D01*
Y1039115D01*
X515200Y1037949D01*
X512868D01*
X511701Y1039115D01*
X518699Y1044947D02*
Y1037949D01*
Y1041448D01*
X523364D01*
Y1044947D01*
Y1037949D01*
X525697D02*
Y1042614D01*
X528029Y1044947D01*
X530362Y1042614D01*
Y1037949D01*
Y1041448D01*
X525697D01*
X532694Y1044947D02*
Y1037949D01*
X537360D01*
X539692Y1044947D02*
Y1037949D01*
X544357D01*
X553688Y1044947D02*
Y1037949D01*
X557187D01*
X558353Y1039115D01*
Y1040281D01*
X557187Y1041448D01*
X553688D01*
X557187D01*
X558353Y1042614D01*
Y1043780D01*
X557187Y1044947D01*
X553688D01*
X565351D02*
X560685D01*
Y1037949D01*
X565351D01*
X560685Y1041448D02*
X563018D01*
X574681Y1044947D02*
Y1037949D01*
X577014Y1040281D01*
X579346Y1037949D01*
Y1044947D01*
X581679D02*
X584011D01*
X582845D01*
Y1037949D01*
X581679D01*
X584011D01*
X587510Y1044947D02*
X592175D01*
X589843D01*
Y1037949D01*
X594508Y1044947D02*
Y1037949D01*
Y1041448D01*
X599173D01*
Y1044947D01*
Y1037949D01*
X601506Y1044947D02*
X603838D01*
X602672D01*
Y1037949D01*
X601506D01*
X603838D01*
X607337D02*
Y1044947D01*
X612002Y1037949D01*
Y1044947D01*
X625998Y1037949D02*
X621333D01*
X625998Y1042614D01*
Y1043780D01*
X624831Y1044947D01*
X622499D01*
X621333Y1043780D01*
X635328Y1037949D02*
Y1044947D01*
X637661Y1042614D01*
X639993Y1044947D01*
Y1037949D01*
X642326Y1044947D02*
X644658D01*
X643492D01*
Y1037949D01*
X642326D01*
X644658D01*
X648157Y1044947D02*
Y1037949D01*
X652822D01*
X659820Y1043780D02*
X658654Y1044947D01*
X656321D01*
X655155Y1043780D01*
Y1042614D01*
X656321Y1041448D01*
X658654D01*
X659820Y1040281D01*
Y1039115D01*
X658654Y1037949D01*
X656321D01*
X655155Y1039115D01*
X662153Y1037949D02*
Y1039115D01*
X663319D01*
Y1037949D01*
X662153D01*
M02*
