G04*
G04 #@! TF.GenerationSoftware,Altium Limited,Altium Designer,18.1.7 (191)*
G04*
G04 Layer_Physical_Order=1*
G04 Layer_Color=255*
%FSLAX25Y25*%
%MOIN*%
G70*
G01*
G75*
%ADD10C,0.01000*%
%ADD11C,0.02500*%
%ADD12C,0.00201*%
%ADD13C,0.00900*%
%ADD14C,0.02953*%
%ADD15C,0.00500*%
%ADD16C,0.00600*%
%ADD17R,0.01378X0.00787*%
%ADD18R,0.01083X0.00591*%
%ADD19R,0.01476X0.00787*%
%ADD20C,0.00787*%
%ADD21R,0.01181X0.00984*%
G04:AMPARAMS|DCode=22|XSize=5.91mil|YSize=19.68mil|CornerRadius=1.48mil|HoleSize=0mil|Usage=FLASHONLY|Rotation=270.000|XOffset=0mil|YOffset=0mil|HoleType=Round|Shape=RoundedRectangle|*
%AMROUNDEDRECTD22*
21,1,0.00591,0.01673,0,0,270.0*
21,1,0.00295,0.01968,0,0,270.0*
1,1,0.00295,-0.00837,-0.00148*
1,1,0.00295,-0.00837,0.00148*
1,1,0.00295,0.00837,0.00148*
1,1,0.00295,0.00837,-0.00148*
%
%ADD22ROUNDEDRECTD22*%
G04:AMPARAMS|DCode=23|XSize=9.84mil|YSize=5.91mil|CornerRadius=1.48mil|HoleSize=0mil|Usage=FLASHONLY|Rotation=270.000|XOffset=0mil|YOffset=0mil|HoleType=Round|Shape=RoundedRectangle|*
%AMROUNDEDRECTD23*
21,1,0.00984,0.00295,0,0,270.0*
21,1,0.00689,0.00591,0,0,270.0*
1,1,0.00295,-0.00148,-0.00345*
1,1,0.00295,-0.00148,0.00345*
1,1,0.00295,0.00148,0.00345*
1,1,0.00295,0.00148,-0.00345*
%
%ADD23ROUNDEDRECTD23*%
%ADD24R,0.00945X0.01181*%
%ADD25R,0.01181X0.00945*%
%ADD26R,0.00984X0.01181*%
%ADD27C,0.01968*%
%ADD44R,0.02756X0.02244*%
%ADD45R,0.02756X0.02284*%
%ADD46R,0.02953X0.01968*%
%ADD47C,0.00984*%
%ADD48C,0.00787*%
%ADD49C,0.00492*%
%ADD50C,0.00866*%
%ADD51C,0.00394*%
%ADD52C,0.00689*%
%ADD53C,0.00591*%
%ADD54C,0.00472*%
%ADD55C,0.00984*%
G36*
X211701Y310642D02*
X211697Y310640D01*
X211685Y310638D01*
X211666Y310636D01*
X211508Y310632D01*
X211308Y310631D01*
Y311024D01*
X211382Y311026D01*
X211449Y311032D01*
X211508Y311041D01*
X211560Y311054D01*
X211603Y311070D01*
X211638Y311091D01*
X211666Y311115D01*
X211685Y311142D01*
X211697Y311173D01*
X211701Y311208D01*
Y310642D01*
D02*
G37*
G36*
X206967Y311804D02*
X206985Y311785D01*
X207016Y311768D01*
X207059Y311753D01*
X207114Y311741D01*
X207182Y311731D01*
X207354Y311718D01*
X207576Y311713D01*
Y310729D01*
X207459Y310728D01*
X207114Y310701D01*
X207059Y310689D01*
X207016Y310674D01*
X206985Y310658D01*
X206967Y310639D01*
X206961Y310618D01*
Y311825D01*
X206967Y311804D01*
D02*
G37*
G36*
X214704Y310888D02*
X214716Y310855D01*
X214735Y310825D01*
X214763Y310800D01*
X214798Y310778D01*
X214842Y310760D01*
X214893Y310747D01*
X214952Y310737D01*
X215019Y310731D01*
X215093Y310729D01*
Y310335D01*
X215019Y310334D01*
X214842Y310321D01*
X214798Y310313D01*
X214763Y310304D01*
X214735Y310293D01*
X214716Y310279D01*
X214704Y310264D01*
X214700Y310248D01*
Y310926D01*
X214704Y310888D01*
D02*
G37*
G36*
X191781Y311012D02*
X191793Y310146D01*
X191788Y310148D01*
X191774Y310150D01*
X191752Y310152D01*
X191500Y310158D01*
X191336Y310158D01*
Y311024D01*
X191781Y311012D01*
D02*
G37*
G36*
X199999Y310683D02*
X200004Y310643D01*
X200012Y310603D01*
X200024Y310563D01*
X200040Y310525D01*
X200059Y310487D01*
X200082Y310449D01*
X200108Y310412D01*
X200138Y310376D01*
X200172Y310340D01*
X199894Y310062D01*
X199858Y310096D01*
X199822Y310126D01*
X199785Y310152D01*
X199747Y310175D01*
X199709Y310194D01*
X199671Y310210D01*
X199631Y310222D01*
X199592Y310230D01*
X199551Y310236D01*
X199510Y310237D01*
X199997Y310724D01*
X199999Y310683D01*
D02*
G37*
G36*
X194245Y310996D02*
X194269Y310981D01*
X194308Y310968D01*
X194363Y310957D01*
X194434Y310947D01*
X194466Y310945D01*
X194667Y310957D01*
X194722Y310968D01*
X194761Y310981D01*
X194785Y310996D01*
X194793Y311012D01*
Y310930D01*
X195025Y310926D01*
Y310138D01*
X194875Y310136D01*
X194793Y310128D01*
Y310052D01*
X194785Y310068D01*
X194761Y310083D01*
X194722Y310096D01*
X194667Y310107D01*
X194624Y310113D01*
X194623Y310113D01*
X194521Y310093D01*
X194434Y310068D01*
X194363Y310036D01*
X194308Y310000D01*
X194269Y309957D01*
X194245Y309909D01*
X194237Y309855D01*
X194228Y309847D01*
X194220Y309824D01*
X194213Y309784D01*
X194207Y309729D01*
X194204Y309660D01*
X194228Y309248D01*
X194237Y309241D01*
X194192D01*
X194190Y309068D01*
X193403D01*
X193402Y309217D01*
X193401Y309241D01*
X193316D01*
X193333Y309248D01*
X193347Y309272D01*
X193360Y309312D01*
X193372Y309367D01*
X193381Y309437D01*
X193385Y309496D01*
X193372Y309729D01*
X193360Y309784D01*
X193347Y309824D01*
X193333Y309847D01*
X193316Y309855D01*
X193399D01*
X193403Y310028D01*
X194190D01*
X194191Y309878D01*
X194192Y309855D01*
X194237D01*
Y310134D01*
X194005Y310138D01*
Y310926D01*
X194155Y310927D01*
X194237Y310932D01*
Y311012D01*
X194245Y310996D01*
D02*
G37*
G36*
X203762Y310102D02*
X203940Y309946D01*
X203961Y309932D01*
X203977Y309923D01*
X203985Y309922D01*
X204014Y309922D01*
X204045Y309926D01*
X204076Y309935D01*
X204109Y309949D01*
X204142Y309967D01*
X204154Y309975D01*
X204247Y310079D01*
X204254Y310095D01*
X204253Y310104D01*
X204279Y310077D01*
X204289Y310086D01*
X204312Y310044D01*
X204651Y309698D01*
X204642Y309699D01*
X204626Y309692D01*
X204603Y309677D01*
X204572Y309653D01*
X204489Y309581D01*
X204456Y309550D01*
X204395Y309478D01*
X204611Y309288D01*
X204635Y309275D01*
X204653Y309269D01*
X204664Y309272D01*
X204396Y309006D01*
X204329Y308839D01*
X204290Y308875D01*
X204276Y308888D01*
X204241Y308854D01*
X204245Y308864D01*
X204239Y308882D01*
X204225Y308907D01*
X204203Y308938D01*
X204195Y308948D01*
X204183Y308956D01*
X204150Y308973D01*
X204118Y308986D01*
X204087Y308993D01*
X204058Y308996D01*
X204030Y308994D01*
X204003Y308987D01*
X204059Y309103D01*
X204030Y309134D01*
X203893Y309274D01*
X204100Y309478D01*
X203893Y309690D01*
X203966Y309763D01*
X204019Y309824D01*
X203971Y309904D01*
X203373Y309617D01*
X203380Y309644D01*
X203382Y309672D01*
X203380Y309701D01*
X203372Y309732D01*
X203360Y309764D01*
X203343Y309797D01*
X203321Y309831D01*
X203294Y309867D01*
X203262Y309904D01*
X203225Y309942D01*
X203723Y310141D01*
X203762Y310102D01*
D02*
G37*
G36*
X196887Y310473D02*
X197442D01*
X197441Y310466D01*
X197441Y310448D01*
X197439Y310072D01*
X197442Y309607D01*
X196844D01*
X196844Y309614D01*
X196845Y309632D01*
X196847Y310008D01*
X196844Y310431D01*
X196504Y310433D01*
X196427Y310431D01*
X196325Y310422D01*
X196235Y310407D01*
X196157Y310386D01*
X196090Y310360D01*
X196036Y310327D01*
X195994Y310289D01*
X195963Y310245D01*
X195944Y310194D01*
X195938Y310138D01*
X195950Y311012D01*
X196292Y311019D01*
Y311024D01*
X196887Y311028D01*
Y310473D01*
D02*
G37*
G36*
X214803Y309007D02*
X214791Y309016D01*
X214774Y309024D01*
X214753Y309032D01*
X214726Y309038D01*
X214695Y309043D01*
X214618Y309051D01*
X214521Y309055D01*
X214466Y309056D01*
Y309646D01*
X214521Y309647D01*
X214695Y309659D01*
X214726Y309664D01*
X214753Y309670D01*
X214774Y309678D01*
X214791Y309686D01*
X214803Y309696D01*
Y309007D01*
D02*
G37*
G36*
X203947Y308970D02*
X203926Y308964D01*
X203903Y308954D01*
X203878Y308940D01*
X203851Y308923D01*
X203821Y308903D01*
X203758Y308852D01*
X203686Y308787D01*
X203648Y308749D01*
X203200Y308997D01*
X203236Y309035D01*
X203295Y309108D01*
X203318Y309143D01*
X203337Y309177D01*
X203350Y309209D01*
X203359Y309241D01*
X203364Y309271D01*
X203363Y309300D01*
X203359Y309328D01*
X203947Y308970D01*
D02*
G37*
G36*
X198813Y309082D02*
X198793Y309046D01*
X198775Y309008D01*
X198760Y308967D01*
X198747Y308923D01*
X198737Y308876D01*
X198728Y308827D01*
X198722Y308775D01*
X198718Y308662D01*
X198324D01*
X198323Y308720D01*
X198313Y308827D01*
X198305Y308876D01*
X198294Y308923D01*
X198282Y308967D01*
X198266Y309008D01*
X198249Y309046D01*
X198229Y309082D01*
X198206Y309115D01*
X198836D01*
X198813Y309082D01*
D02*
G37*
G36*
X195942Y308723D02*
X195955Y308690D01*
X195976Y308660D01*
X196004Y308634D01*
X196041Y308613D01*
X196086Y308595D01*
X196138Y308581D01*
X196198Y308572D01*
X196267Y308566D01*
X196344Y308564D01*
Y308170D01*
X196269Y308169D01*
X196091Y308156D01*
X196048Y308148D01*
X196013Y308139D01*
X195985Y308128D01*
X195966Y308115D01*
X195954Y308100D01*
X195950Y308084D01*
X195938Y308760D01*
X195942Y308723D01*
D02*
G37*
G36*
X213076Y308084D02*
X213088Y307690D01*
X212694D01*
X212692Y307766D01*
X212686Y307835D01*
X212676Y307895D01*
X212663Y307947D01*
X212645Y307992D01*
X212623Y308029D01*
X212598Y308057D01*
X212568Y308078D01*
X212535Y308091D01*
X212497Y308096D01*
X213076Y308084D01*
D02*
G37*
G36*
X192619Y308107D02*
X192621Y308084D01*
X192702D01*
X192685Y308076D01*
X192671Y308052D01*
X192658Y308013D01*
X192647Y307958D01*
X192640Y307912D01*
X192650Y307855D01*
X192676Y307752D01*
X192711Y307666D01*
X192753Y307595D01*
X192802Y307540D01*
X192860Y307500D01*
X192924Y307477D01*
X192997Y307469D01*
X192619D01*
X192615Y307296D01*
X191828D01*
X191827Y307446D01*
X191790Y308076D01*
X191781Y308084D01*
X191829D01*
X191828Y308256D01*
X192615D01*
X192619Y308107D01*
D02*
G37*
G36*
X194237Y308084D02*
X194212Y308079D01*
X194190Y308064D01*
X194171Y308039D01*
X194154Y308005D01*
X194139Y307961D01*
X194127Y307906D01*
X194118Y307842D01*
X194112Y307769D01*
X194108Y307654D01*
X194109Y307630D01*
X194116Y307545D01*
X194129Y307469D01*
X194146Y307404D01*
X194168Y307349D01*
X194195Y307303D01*
X194227Y307268D01*
X194264Y307242D01*
X194306Y307226D01*
X194353Y307221D01*
X193612Y307233D01*
X193612Y307238D01*
X193613Y307252D01*
X193614Y307608D01*
X193612Y307686D01*
X193605Y307772D01*
X193592Y307847D01*
X193575Y307912D01*
X193553Y307968D01*
X193526Y308013D01*
X193494Y308049D01*
X193457Y308074D01*
X193415Y308090D01*
X193368Y308096D01*
X194237Y308084D01*
D02*
G37*
G36*
X214700Y307886D02*
X214702Y307896D01*
X214710Y307894D01*
X214724Y307880D01*
X214742Y307854D01*
X214766Y307816D01*
X214810Y307734D01*
X214815Y307737D01*
X214841Y307688D01*
X214929Y307538D01*
X214948Y307512D01*
X214965Y307491D01*
X214982Y307475D01*
X214997Y307464D01*
X215010Y307457D01*
X214394Y307149D01*
X214397Y307164D01*
X214397Y307183D01*
X214394Y307206D01*
X214388Y307232D01*
X214379Y307263D01*
X214351Y307335D01*
X214320Y307404D01*
X214291Y307459D01*
X214235Y307551D01*
X214179Y307631D01*
X214121Y307701D01*
X214062Y307761D01*
X214002Y307809D01*
X213941Y307847D01*
X213879Y307875D01*
X213815Y307892D01*
X213751Y307898D01*
X214700Y307886D01*
D02*
G37*
G36*
X196622Y307075D02*
X196538Y306989D01*
X196408Y306837D01*
X196361Y306771D01*
X196326Y306712D01*
X196302Y306660D01*
X196292Y306614D01*
X196293Y306576D01*
X196306Y306544D01*
X196332Y306519D01*
X195688Y306965D01*
X195722Y306948D01*
X195761Y306942D01*
X195805Y306945D01*
X195853Y306959D01*
X195906Y306983D01*
X195964Y307017D01*
X196027Y307061D01*
X196095Y307116D01*
X196245Y307255D01*
X196622Y307075D01*
D02*
G37*
G36*
X199296Y306005D02*
X199109Y306003D01*
X198666Y305975D01*
X198558Y305958D01*
X198469Y305938D01*
X198400Y305914D01*
X198351Y305886D01*
X198322Y305855D01*
X198312Y305820D01*
Y306977D01*
X198322Y306979D01*
X198351Y306981D01*
X198794Y306988D01*
X199296Y306989D01*
Y306005D01*
D02*
G37*
G36*
X193612Y305464D02*
X193686Y305463D01*
Y304774D01*
X193555Y304772D01*
X193335Y304753D01*
X193245Y304737D01*
X193169Y304716D01*
X193107Y304690D01*
X193059Y304660D01*
X193025Y304625D01*
X193004Y304585D01*
X192997Y304540D01*
Y304774D01*
X192923Y304774D01*
Y305463D01*
X192997Y305465D01*
Y305501D01*
X193004Y305493D01*
X193025Y305487D01*
X193059Y305482D01*
X193107Y305477D01*
X193158Y305474D01*
X193274Y305484D01*
X193364Y305501D01*
X193439Y305522D01*
X193501Y305547D01*
X193550Y305578D01*
X193584Y305613D01*
X193605Y305653D01*
X193612Y305697D01*
Y305464D01*
D02*
G37*
G36*
X214564Y305892D02*
X214716Y305762D01*
X214782Y305714D01*
X214841Y305679D01*
X214893Y305656D01*
X214938Y305645D01*
X214977Y305647D01*
X215009Y305660D01*
X215035Y305685D01*
X214588Y305042D01*
X214605Y305076D01*
X214611Y305115D01*
X214608Y305158D01*
X214594Y305207D01*
X214570Y305260D01*
X214536Y305318D01*
X214492Y305381D01*
X214437Y305449D01*
X214298Y305599D01*
X214478Y305976D01*
X214564Y305892D01*
D02*
G37*
G36*
X196258Y305843D02*
X196259Y305820D01*
X196344D01*
X196327Y305812D01*
X196312Y305788D01*
X196300Y305749D01*
X196288Y305694D01*
X196279Y305623D01*
X196274Y305564D01*
X196288Y305331D01*
X196300Y305276D01*
X196312Y305237D01*
X196327Y305213D01*
X196344Y305205D01*
X196260D01*
X196257Y305032D01*
X195470D01*
X195469Y305182D01*
X195467Y305205D01*
X195383D01*
X195400Y305213D01*
X195414Y305237D01*
X195427Y305276D01*
X195439Y305331D01*
X195448Y305402D01*
X195452Y305461D01*
X195439Y305694D01*
X195427Y305749D01*
X195414Y305788D01*
X195400Y305812D01*
X195383Y305820D01*
X195466D01*
X195470Y305993D01*
X196257D01*
X196258Y305843D01*
D02*
G37*
G36*
X201362Y306292D02*
X201463Y306227D01*
X201565Y306171D01*
X201669Y306123D01*
X201775Y306083D01*
X201881Y306051D01*
X201989Y306027D01*
X202099Y306011D01*
X202210Y306004D01*
X202322Y306004D01*
X201399Y304807D01*
X201370Y304915D01*
X201335Y305021D01*
X201291Y305123D01*
X201241Y305221D01*
X201183Y305316D01*
X201117Y305408D01*
X201045Y305496D01*
X200964Y305581D01*
X200876Y305662D01*
X200781Y305740D01*
X201262Y306364D01*
X201362Y306292D01*
D02*
G37*
G36*
X212608Y304540D02*
X212600Y304557D01*
X212576Y304571D01*
X212537Y304584D01*
X212482Y304595D01*
X212411Y304605D01*
X212222Y304619D01*
X212197Y304619D01*
X212100Y304611D01*
X211981Y304591D01*
X211877Y304564D01*
X211789Y304528D01*
X211717Y304485D01*
X211661Y304434D01*
X211621Y304375D01*
X211596Y304308D01*
X211587Y304233D01*
X211599Y305402D01*
X211607Y305404D01*
X211631Y305406D01*
X211796Y305411D01*
X211820Y305411D01*
Y305414D01*
X211970Y305417D01*
X212222Y305439D01*
X212324Y305459D01*
X212411Y305485D01*
X212482Y305516D01*
X212537Y305553D01*
X212576Y305595D01*
X212600Y305644D01*
X212608Y305697D01*
Y304540D01*
D02*
G37*
G36*
X191840Y304540D02*
X191336Y304528D01*
Y305316D01*
X191434Y305317D01*
X191665Y305333D01*
X191722Y305343D01*
X191769Y305355D01*
X191805Y305370D01*
X191831Y305386D01*
X191847Y305405D01*
X191852Y305426D01*
X191840Y304540D01*
D02*
G37*
G36*
X215228Y304547D02*
X215188Y304532D01*
X215152Y304507D01*
X215122Y304473D01*
X215096Y304429D01*
X215074Y304376D01*
X215058Y304313D01*
X215046Y304241D01*
X215039Y304159D01*
X215037Y304093D01*
X215055Y303593D01*
X214510Y303697D01*
X214520Y303706D01*
X214529Y303724D01*
X214537Y303751D01*
X214545Y303787D01*
X214550Y303832D01*
X214559Y303949D01*
X214564Y304192D01*
X214567Y304191D01*
X214576Y304540D01*
X215273Y304552D01*
X215228Y304547D01*
D02*
G37*
G36*
X200076Y304932D02*
X200088Y304930D01*
X200109Y304928D01*
X200276Y304923D01*
X200489Y304922D01*
Y304134D01*
X200072Y304122D01*
Y304934D01*
X200076Y304932D01*
D02*
G37*
G36*
X213568Y304540D02*
X213577Y304191D01*
X213580Y304192D01*
X213580Y304102D01*
X213600Y303787D01*
X213607Y303751D01*
X213615Y303724D01*
X213624Y303706D01*
X213634Y303697D01*
X213089Y303593D01*
X213092Y303607D01*
X213095Y303628D01*
X213098Y303659D01*
X213106Y303866D01*
X213107Y304077D01*
X213105Y304159D01*
X213098Y304241D01*
X213086Y304313D01*
X213070Y304376D01*
X213048Y304429D01*
X213022Y304473D01*
X212992Y304507D01*
X212956Y304532D01*
X212916Y304547D01*
X212871Y304552D01*
X213568Y304540D01*
D02*
G37*
G36*
X198125Y304048D02*
X198312D01*
X198277Y304040D01*
X198245Y304016D01*
X198218Y303977D01*
X198194Y303922D01*
X198173Y303851D01*
X198157Y303765D01*
X198144Y303662D01*
X198129Y303410D01*
X198127Y303261D01*
X197340D01*
X197342Y303433D01*
X197155D01*
X197190Y303441D01*
X197222Y303465D01*
X197249Y303504D01*
X197273Y303559D01*
X197294Y303630D01*
X197310Y303717D01*
X197323Y303819D01*
X197338Y304071D01*
X197340Y304221D01*
X198127D01*
X198125Y304048D01*
D02*
G37*
G36*
X196346Y304040D02*
X196348Y304016D01*
X196353Y303851D01*
X196355Y303261D01*
X195568D01*
X195566Y303410D01*
X195538Y303765D01*
X195522Y303851D01*
X195502Y303922D01*
X195477Y303977D01*
X195450Y304016D01*
X195418Y304040D01*
X195383Y304048D01*
X196344D01*
X196346Y304040D01*
D02*
G37*
G36*
X205887Y302461D02*
X205867Y302499D01*
X205841Y302532D01*
X205809Y302562D01*
X205772Y302587D01*
X205730Y302609D01*
X205681Y302627D01*
X205627Y302640D01*
X205567Y302650D01*
X205502Y302656D01*
X205431Y302658D01*
Y303052D01*
X205502Y303054D01*
X205567Y303060D01*
X205627Y303069D01*
X205681Y303083D01*
X205730Y303101D01*
X205772Y303123D01*
X205809Y303148D01*
X205841Y303178D01*
X205867Y303211D01*
X205887Y303249D01*
Y302461D01*
D02*
G37*
G36*
X201461Y302463D02*
X201494Y302438D01*
X201528Y302415D01*
X201564Y302396D01*
X201602Y302380D01*
X201643Y302367D01*
X201686Y302356D01*
X201730Y302349D01*
X201777Y302345D01*
X201826Y302343D01*
Y301949D01*
X201777Y301948D01*
X201730Y301943D01*
X201686Y301936D01*
X201643Y301926D01*
X201602Y301912D01*
X201564Y301896D01*
X201528Y301877D01*
X201494Y301855D01*
X201461Y301830D01*
X201431Y301802D01*
Y302491D01*
X201461Y302463D01*
D02*
G37*
G36*
X199941Y302282D02*
X199891Y302263D01*
X199847Y302233D01*
X199808Y302190D01*
X199776Y302136D01*
X199749Y302069D01*
X199729Y301991D01*
X199717Y301919D01*
X199724Y301810D01*
X199733Y301756D01*
X199744Y301715D01*
X199757Y301685D01*
X199772Y301668D01*
X199788Y301662D01*
X198828D01*
X198882Y301668D01*
X198930Y301685D01*
X198973Y301715D01*
X199009Y301756D01*
X199041Y301810D01*
X199066Y301874D01*
X199086Y301951D01*
X199100Y302040D01*
X199109Y302140D01*
X199111Y302252D01*
X199123D01*
X199123Y302276D01*
X199997Y302288D01*
X199941Y302282D01*
D02*
G37*
G36*
X215020Y301915D02*
X215036Y301906D01*
X215059Y301898D01*
X215089Y301890D01*
X215127Y301884D01*
X215225Y301876D01*
X215353Y301871D01*
X215428Y301871D01*
X215428Y301477D01*
X215353Y301477D01*
X215089Y301457D01*
X215059Y301450D01*
X215036Y301442D01*
X215020Y301433D01*
X215012Y301422D01*
Y301925D01*
X215020Y301915D01*
D02*
G37*
G36*
X204821Y301584D02*
X204826Y301537D01*
X204833Y301492D01*
X204844Y301449D01*
X204857Y301409D01*
X204873Y301371D01*
X204892Y301334D01*
X204915Y301300D01*
X204940Y301268D01*
X204968Y301238D01*
X204279D01*
X204307Y301268D01*
X204332Y301300D01*
X204354Y301334D01*
X204373Y301371D01*
X204390Y301409D01*
X204403Y301449D01*
X204413Y301492D01*
X204420Y301537D01*
X204425Y301584D01*
X204426Y301633D01*
X204820D01*
X204821Y301584D01*
D02*
G37*
G36*
X194395Y302385D02*
X194501Y302319D01*
X194608Y302260D01*
X194716Y302209D01*
X194825Y302166D01*
X194935Y302130D01*
X195047Y302103D01*
X195159Y302083D01*
X195273Y302071D01*
X195387Y302068D01*
Y301280D01*
X195273Y301276D01*
X195159Y301265D01*
X195047Y301245D01*
X194935Y301217D01*
X194825Y301182D01*
X194716Y301139D01*
X194608Y301088D01*
X194501Y301029D01*
X194395Y300962D01*
X194290Y300888D01*
Y302460D01*
X194395Y302385D01*
D02*
G37*
G36*
X214367Y301422D02*
X214369Y301391D01*
X214662D01*
X214606Y301385D01*
X214555Y301367D01*
X214511Y301337D01*
X214473Y301295D01*
X214440Y301241D01*
X214414Y301174D01*
X214407Y301151D01*
X214416Y301140D01*
X214405Y301140D01*
X214393Y301096D01*
X214378Y301006D01*
X214369Y300903D01*
X214366Y300789D01*
X213776D01*
X213773Y300903D01*
X213764Y301006D01*
X213749Y301096D01*
X213738Y301139D01*
X213727Y301139D01*
X213735Y301150D01*
X213729Y301174D01*
X213702Y301241D01*
X213670Y301295D01*
X213631Y301337D01*
X213587Y301367D01*
X213537Y301385D01*
X213481Y301391D01*
X213774D01*
X213775Y301421D01*
X213776Y301476D01*
X214366Y301478D01*
X214367Y301422D01*
D02*
G37*
G36*
X199781Y301243D02*
X199794Y301209D01*
X199814Y301180D01*
X199843Y301154D01*
X199879Y301132D01*
X199924Y301115D01*
X199976Y301101D01*
X200037Y301091D01*
X200106Y301085D01*
X200182Y301083D01*
Y300690D01*
X200107Y300688D01*
X200040Y300682D01*
X199981Y300673D01*
X199930Y300660D01*
X199887Y300643D01*
X199851Y300623D01*
X199824Y300599D01*
X199804Y300571D01*
X199792Y300540D01*
X199788Y300505D01*
X199776Y301280D01*
X199781Y301243D01*
D02*
G37*
G36*
X196860Y300505D02*
X196852Y300502D01*
X196828Y300500D01*
X196663Y300496D01*
X196072Y300493D01*
Y301280D01*
X196222Y301284D01*
X196356Y301295D01*
X196474Y301314D01*
X196576Y301341D01*
X196663Y301376D01*
X196734Y301418D01*
X196789Y301467D01*
X196828Y301524D01*
X196852Y301589D01*
X196860Y301662D01*
Y300505D01*
D02*
G37*
D10*
X546769Y277751D02*
X550767D01*
X548768D01*
Y271753D01*
X553766D02*
X555766D01*
X556765Y272753D01*
Y274752D01*
X555766Y275752D01*
X553766D01*
X552767Y274752D01*
Y272753D01*
X553766Y271753D01*
X558765Y269754D02*
Y275752D01*
X561764D01*
X562764Y274752D01*
Y272753D01*
X561764Y271753D01*
X558765D01*
X570761Y277751D02*
Y271753D01*
X574760D01*
X577759Y275752D02*
X579758D01*
X580758Y274752D01*
Y271753D01*
X577759D01*
X576759Y272753D01*
X577759Y273752D01*
X580758D01*
X582757Y275752D02*
Y272753D01*
X583757Y271753D01*
X586756D01*
Y270753D01*
X585756Y269754D01*
X584756D01*
X586756Y271753D02*
Y275752D01*
X591754Y271753D02*
X589755D01*
X588755Y272753D01*
Y274752D01*
X589755Y275752D01*
X591754D01*
X592754Y274752D01*
Y273752D01*
X588755D01*
X594753Y275752D02*
Y271753D01*
Y273752D01*
X595753Y274752D01*
X596753Y275752D01*
X597752D01*
X642738Y276751D02*
X646736Y272753D01*
X642738D02*
X646736Y276751D01*
X642738Y274752D02*
X646736D01*
X644737Y272753D02*
Y276751D01*
X648736Y271753D02*
Y272753D01*
X649735D01*
Y271753D01*
X648736D01*
X657733Y276751D02*
X656733Y277751D01*
X654734D01*
X653734Y276751D01*
Y272753D01*
X654734Y271753D01*
X656733D01*
X657733Y272753D01*
Y274752D01*
X655733D01*
X659732Y277751D02*
X663731D01*
X661731D01*
Y271753D01*
X665730Y277751D02*
Y271753D01*
X669729D01*
X787532Y423682D02*
G03*
X777532Y433682I-10000J0D01*
G01*
Y168921D02*
G03*
X787532Y178921I0J10000D01*
G01*
X347532Y179022D02*
G03*
X357455Y168923I10100J0D01*
G01*
X357532Y433682D02*
G03*
X347532Y423682I0J-10000D01*
G01*
X357532Y168922D02*
X777532D01*
X357532Y433682D02*
X777532D01*
X787532Y178236D02*
Y423682D01*
X347532Y178727D02*
Y423682D01*
D11*
X530032Y323682D02*
G03*
X525032Y328682I-5000J0D01*
G01*
X525148Y173921D02*
G03*
X530030Y178889I84J4800D01*
G01*
X540032Y328682D02*
G03*
X535032Y323682I0J-5000D01*
G01*
Y178921D02*
G03*
X539944Y173922I5000J0D01*
G01*
X712532Y323682D02*
G03*
X707532Y328682I-5000J0D01*
G01*
X707648Y173921D02*
G03*
X712530Y178889I84J4800D01*
G01*
X717532Y178822D02*
G03*
X722517Y173922I4900J0D01*
G01*
X722532Y328682D02*
G03*
X717532Y323682I0J-5000D01*
G01*
X437532Y398782D02*
G03*
X432632Y403682I-4900J0D01*
G01*
X432732Y371182D02*
G03*
X437532Y375982I0J4800D01*
G01*
Y361282D02*
G03*
X432461Y366179I-4900J0D01*
G01*
X442532Y366082D02*
G03*
X447432Y361182I4900J0D01*
G01*
X442532Y338582D02*
G03*
X447432Y333682I4900J0D01*
G01*
X432632D02*
G03*
X437532Y338582I0J4900D01*
G01*
X612532Y351282D02*
G03*
X607632Y356182I-4900J0D01*
G01*
Y333682D02*
G03*
X612531Y338668I0J4900D01*
G01*
X617532Y338782D02*
G03*
X622543Y333683I5100J0D01*
G01*
X622332Y356182D02*
G03*
X617538Y351131I0J-4800D01*
G01*
X447532Y356182D02*
G03*
X442532Y351182I0J-5000D01*
G01*
X447532Y403682D02*
G03*
X442532Y398682I0J-5000D01*
G01*
X352532Y338682D02*
G03*
X357444Y333683I5000J0D01*
G01*
X357532Y366182D02*
G03*
X352532Y361182I0J-5000D01*
G01*
Y376182D02*
G03*
X357532Y371182I5000J0D01*
G01*
Y403682D02*
G03*
X352532Y398682I0J-5000D01*
G01*
Y413682D02*
G03*
X357532Y408682I5000J0D01*
G01*
Y428682D02*
G03*
X352532Y423682I0J-5000D01*
G01*
X612532D02*
G03*
X607532Y428682I-5000J0D01*
G01*
X622532D02*
G03*
X617532Y423682I0J-5000D01*
G01*
X607532Y408682D02*
G03*
X612532Y413682I0J5000D01*
G01*
Y398682D02*
G03*
X607532Y403682I-5000J0D01*
G01*
X357532Y328682D02*
G03*
X352532Y323682I0J-5000D01*
G01*
X607619Y361182D02*
G03*
X612533Y366182I-87J5000D01*
G01*
X352532Y178921D02*
G03*
X357444Y173922I5000J0D01*
G01*
X657532Y351282D02*
G03*
X652632Y356182I-4900J0D01*
G01*
X652532Y333682D02*
G03*
X657532Y338682I0J5000D01*
G01*
X777532Y173922D02*
G03*
X782532Y178921I0J5000D01*
G01*
X782532Y323770D02*
G03*
X777532Y328683I-5000J-87D01*
G01*
Y333682D02*
G03*
X782532Y338682I0J5000D01*
G01*
Y423782D02*
G03*
X777461Y428679I-4900J0D01*
G01*
X617532Y366182D02*
G03*
X622532Y361182I5000J0D01*
G01*
X777532D02*
G03*
X782532Y366182I0J5000D01*
G01*
X667532Y356182D02*
G03*
X662532Y351182I0J-5000D01*
G01*
X782532Y351282D02*
G03*
X777632Y356182I-4900J0D01*
G01*
X662532Y338582D02*
G03*
X667517Y333683I4900J0D01*
G01*
X540032Y173922D02*
X707532D01*
X357532D02*
X525032D01*
X357532Y328682D02*
X525032D01*
X540032D02*
X707532D01*
X722532Y173922D02*
X777532D01*
X722532Y328682D02*
X777532D01*
X357532Y428682D02*
X607532D01*
X357532Y333682D02*
X432532D01*
X357532Y366182D02*
X432532D01*
X357532Y371182D02*
X432532D01*
X357532Y403682D02*
X432532D01*
X357532Y408682D02*
X607532D01*
X447532Y403682D02*
X607532D01*
X447532Y356182D02*
X607532D01*
X447532Y333682D02*
X607532D01*
X622532D02*
X652532D01*
X622532Y356182D02*
X652532D01*
X667532Y333682D02*
X777532D01*
X622532Y428682D02*
X777532D01*
X447532Y361182D02*
X607619D01*
X622532D02*
X777532D01*
X667532Y356182D02*
X777532D01*
X530029Y178972D02*
X530032Y323682D01*
X535032Y178236D02*
Y323682D01*
X712529Y178236D02*
X712532Y323682D01*
X717532Y177990D02*
Y323682D01*
X352532Y338682D02*
Y361182D01*
X437532Y338682D02*
Y361182D01*
X352532Y376182D02*
Y398682D01*
X437532Y376182D02*
Y398682D01*
X352532Y413682D02*
Y423682D01*
X612532Y413682D02*
Y423682D01*
Y366182D02*
Y398682D01*
X442532Y366182D02*
Y398682D01*
X612532Y338682D02*
Y351182D01*
X442532Y338682D02*
Y351182D01*
X617532Y338682D02*
Y351182D01*
X657532Y338682D02*
Y351182D01*
X782532Y177745D02*
Y323682D01*
Y338682D02*
Y351282D01*
X352395Y178727D02*
X352532Y323682D01*
X617532Y366182D02*
Y423682D01*
X782532Y366182D02*
Y423682D01*
X662532Y338682D02*
Y351182D01*
D12*
X190499Y287573D02*
Y298923D01*
X216875Y287573D02*
Y298924D01*
X180061Y299902D02*
X190926D01*
X180061Y312107D02*
X190926D01*
D13*
X627735Y408701D02*
X625355Y405368D01*
X628925D01*
X627735Y408701D02*
Y403702D01*
X633139Y408701D02*
X630758Y403702D01*
X629806Y408701D02*
X633139D01*
X637114Y407986D02*
X636876Y408463D01*
X636162Y408701D01*
X635686D01*
X634972Y408463D01*
X634495Y407748D01*
X634257Y406558D01*
Y405368D01*
X634495Y404416D01*
X634972Y403940D01*
X635686Y403702D01*
X635924D01*
X636638Y403940D01*
X637114Y404416D01*
X637352Y405130D01*
Y405368D01*
X637114Y406082D01*
X636638Y406558D01*
X635924Y406796D01*
X635686D01*
X634972Y406558D01*
X634495Y406082D01*
X634257Y405368D01*
X641304Y408701D02*
X638923D01*
X638685Y406558D01*
X638923Y406796D01*
X639637Y407034D01*
X640351D01*
X641066Y406796D01*
X641542Y406320D01*
X641780Y405606D01*
Y405130D01*
X641542Y404416D01*
X641066Y403940D01*
X640351Y403702D01*
X639637D01*
X638923Y403940D01*
X638685Y404178D01*
X638447Y404654D01*
X650397Y407510D02*
X650159Y407986D01*
X649683Y408463D01*
X649207Y408701D01*
X648254D01*
X647778Y408463D01*
X647302Y407986D01*
X647064Y407510D01*
X646826Y406796D01*
Y405606D01*
X647064Y404892D01*
X647302Y404416D01*
X647778Y403940D01*
X648254Y403702D01*
X649207D01*
X649683Y403940D01*
X650159Y404416D01*
X650397Y404892D01*
X655610Y403702D02*
X653706Y408701D01*
X651801Y403702D01*
X652515Y405368D02*
X654896D01*
X656776Y408701D02*
Y403702D01*
X659633D01*
X660181Y408701D02*
Y403702D01*
X663037D01*
X666679Y408701D02*
X663585D01*
Y403702D01*
X666679D01*
X663585Y406320D02*
X665489D01*
X672868Y408701D02*
X672392Y408463D01*
X671916Y407986D01*
X671678Y407510D01*
X671440Y406796D01*
Y405606D01*
X671678Y404892D01*
X671916Y404416D01*
X672392Y403940D01*
X672868Y403702D01*
X673820D01*
X674297Y403940D01*
X674773Y404416D01*
X675011Y404892D01*
X675249Y405606D01*
Y406796D01*
X675011Y407510D01*
X674773Y407986D01*
X674297Y408463D01*
X673820Y408701D01*
X672868D01*
X673582Y404654D02*
X675011Y403226D01*
X676415Y408701D02*
Y405130D01*
X676653Y404416D01*
X677129Y403940D01*
X677843Y403702D01*
X678319D01*
X679034Y403940D01*
X679510Y404416D01*
X679748Y405130D01*
Y408701D01*
X684223D02*
X681128D01*
Y403702D01*
X684223D01*
X681128Y406320D02*
X683033D01*
X686722Y408701D02*
Y403702D01*
X685056Y408701D02*
X688389D01*
X692316D02*
X688984Y403702D01*
Y408701D02*
X692316D01*
X688984Y403702D02*
X692316D01*
X697244D02*
X695340Y408701D01*
X693435Y403702D01*
X694149Y405368D02*
X696530D01*
X698410Y408701D02*
Y403702D01*
X701267D01*
X628294Y398876D02*
X628056Y399352D01*
X627580Y399828D01*
X627104Y400066D01*
X626152D01*
X625676Y399828D01*
X625200Y399352D01*
X624962Y398876D01*
X624724Y398161D01*
Y396971D01*
X624962Y396257D01*
X625200Y395781D01*
X625676Y395305D01*
X626152Y395067D01*
X627104D01*
X627580Y395305D01*
X628056Y395781D01*
X628294Y396257D01*
X633508Y395067D02*
X631603Y400066D01*
X629699Y395067D01*
X630413Y396733D02*
X632794D01*
X634674Y400066D02*
Y395067D01*
Y400066D02*
X636578Y395067D01*
X638483Y400066D02*
X636578Y395067D01*
X638483Y400066D02*
Y395067D01*
X643720D02*
X641815Y400066D01*
X639911Y395067D01*
X640625Y396733D02*
X643006D01*
X644886Y400066D02*
Y395067D01*
Y400066D02*
X647028D01*
X647743Y399828D01*
X647981Y399590D01*
X648219Y399114D01*
Y398638D01*
X647981Y398161D01*
X647743Y397923D01*
X647028Y397685D01*
X644886D01*
X646552D02*
X648219Y395067D01*
X649338Y400066D02*
Y395067D01*
X650385Y400066D02*
Y395067D01*
X653241D01*
X653789Y400066D02*
Y395067D01*
X656645D01*
X658621Y400066D02*
X658145Y399828D01*
X657669Y399352D01*
X657431Y398876D01*
X657193Y398161D01*
Y396971D01*
X657431Y396257D01*
X657669Y395781D01*
X658145Y395305D01*
X658621Y395067D01*
X659573D01*
X660049Y395305D01*
X660526Y395781D01*
X660764Y396257D01*
X661002Y396971D01*
Y398161D01*
X660764Y398876D01*
X660526Y399352D01*
X660049Y399828D01*
X659573Y400066D01*
X658621D01*
X662644Y395305D02*
X662406Y395067D01*
X662168Y395305D01*
X662406Y395543D01*
X662644Y395305D01*
Y394829D01*
X662406Y394353D01*
X662168Y394115D01*
X671238Y398876D02*
X671000Y399352D01*
X670524Y399828D01*
X670047Y400066D01*
X669095D01*
X668619Y399828D01*
X668143Y399352D01*
X667905Y398876D01*
X667667Y398161D01*
Y396971D01*
X667905Y396257D01*
X668143Y395781D01*
X668619Y395305D01*
X669095Y395067D01*
X670047D01*
X670524Y395305D01*
X671000Y395781D01*
X671238Y396257D01*
X676451Y395067D02*
X674546Y400066D01*
X672642Y395067D01*
X673356Y396733D02*
X675737D01*
X684640Y398399D02*
X684401Y397685D01*
X683925Y397209D01*
X683211Y396971D01*
X682973D01*
X682259Y397209D01*
X681783Y397685D01*
X681545Y398399D01*
Y398638D01*
X681783Y399352D01*
X682259Y399828D01*
X682973Y400066D01*
X683211D01*
X683925Y399828D01*
X684401Y399352D01*
X684640Y398399D01*
Y397209D01*
X684401Y396019D01*
X683925Y395305D01*
X683211Y395067D01*
X682735D01*
X682021Y395305D01*
X681783Y395781D01*
X686472Y400066D02*
X689091D01*
X687663Y398161D01*
X688377D01*
X688853Y397923D01*
X689091Y397685D01*
X689329Y396971D01*
Y396495D01*
X689091Y395781D01*
X688615Y395305D01*
X687901Y395067D01*
X687187D01*
X686472Y395305D01*
X686234Y395543D01*
X685996Y396019D01*
X691876Y400066D02*
X691162Y399828D01*
X690686Y399114D01*
X690448Y397923D01*
Y397209D01*
X690686Y396019D01*
X691162Y395305D01*
X691876Y395067D01*
X692352D01*
X693066Y395305D01*
X693542Y396019D01*
X693780Y397209D01*
Y397923D01*
X693542Y399114D01*
X693066Y399828D01*
X692352Y400066D01*
X691876D01*
X694899Y399114D02*
X695375Y399352D01*
X696089Y400066D01*
Y395067D01*
X698803Y398876D02*
Y399114D01*
X699041Y399590D01*
X699279Y399828D01*
X699755Y400066D01*
X700707D01*
X701184Y399828D01*
X701422Y399590D01*
X701660Y399114D01*
Y398638D01*
X701422Y398161D01*
X700946Y397447D01*
X698565Y395067D01*
X701898D01*
X365032Y417967D02*
X368888D01*
X370173Y418396D01*
X370602Y418824D01*
X371030Y419681D01*
Y420966D01*
X370602Y421824D01*
X370173Y422252D01*
X368888Y422680D01*
X365032D01*
Y413682D01*
X373044Y422680D02*
Y413682D01*
Y422680D02*
X376901D01*
X378186Y422252D01*
X378614Y421824D01*
X379043Y420966D01*
Y420110D01*
X378614Y419253D01*
X378186Y418824D01*
X376901Y418396D01*
X373044D01*
X376044D02*
X379043Y413682D01*
X383628Y422680D02*
X382771Y422252D01*
X381914Y421395D01*
X381485Y420538D01*
X381057Y419253D01*
Y417110D01*
X381485Y415825D01*
X381914Y414968D01*
X382771Y414111D01*
X383628Y413682D01*
X385342D01*
X386198Y414111D01*
X387055Y414968D01*
X387484Y415825D01*
X387912Y417110D01*
Y419253D01*
X387484Y420538D01*
X387055Y421395D01*
X386198Y422252D01*
X385342Y422680D01*
X383628D01*
X394297D02*
Y415825D01*
X393868Y414539D01*
X393440Y414111D01*
X392583Y413682D01*
X391726D01*
X390869Y414111D01*
X390441Y414539D01*
X390012Y415825D01*
Y416682D01*
X402181Y422680D02*
X396611D01*
Y413682D01*
X402181D01*
X396611Y418396D02*
X400038D01*
X410108Y420538D02*
X409679Y421395D01*
X408822Y422252D01*
X407965Y422680D01*
X406251D01*
X405394Y422252D01*
X404537Y421395D01*
X404109Y420538D01*
X403681Y419253D01*
Y417110D01*
X404109Y415825D01*
X404537Y414968D01*
X405394Y414111D01*
X406251Y413682D01*
X407965D01*
X408822Y414111D01*
X409679Y414968D01*
X410108Y415825D01*
X415635Y422680D02*
Y413682D01*
X412636Y422680D02*
X418634D01*
X420134Y419681D02*
X419706Y419253D01*
X420134Y418824D01*
X420563Y419253D01*
X420134Y419681D01*
Y414539D02*
X419706Y414111D01*
X420134Y413682D01*
X420563Y414111D01*
X420134Y414539D01*
X435602Y422680D02*
X429603Y413682D01*
Y422680D02*
X435602D01*
X429603Y413682D02*
X435602D01*
X437616Y417967D02*
X441472D01*
X442758Y418396D01*
X443186Y418824D01*
X443615Y419681D01*
Y420966D01*
X443186Y421824D01*
X442758Y422252D01*
X441472Y422680D01*
X437616D01*
Y413682D01*
X445629Y422680D02*
X447771Y413682D01*
X449913Y422680D02*
X447771Y413682D01*
X449913Y422680D02*
X452056Y413682D01*
X454198Y422680D02*
X452056Y413682D01*
X463496Y420538D02*
Y420966D01*
X463925Y421824D01*
X464353Y422252D01*
X465210Y422680D01*
X466924D01*
X467781Y422252D01*
X468210Y421824D01*
X468638Y420966D01*
Y420110D01*
X468210Y419253D01*
X467352Y417967D01*
X463068Y413682D01*
X469066D01*
X473651Y422680D02*
X472366Y422252D01*
X471509Y420966D01*
X471080Y418824D01*
Y417539D01*
X471509Y415396D01*
X472366Y414111D01*
X473651Y413682D01*
X474508D01*
X475794Y414111D01*
X476650Y415396D01*
X477079Y417539D01*
Y418824D01*
X476650Y420966D01*
X475794Y422252D01*
X474508Y422680D01*
X473651D01*
X483378D02*
X479093Y416682D01*
X485520D01*
X483378Y422680D02*
Y413682D01*
X623824Y388273D02*
X625014Y383274D01*
X626204Y388273D02*
X625014Y383274D01*
X626204Y388273D02*
X627394Y383274D01*
X628585Y388273D02*
X627394Y383274D01*
X629585Y388273D02*
X630775Y383274D01*
X631965Y388273D02*
X630775Y383274D01*
X631965Y388273D02*
X633155Y383274D01*
X634345Y388273D02*
X633155Y383274D01*
X635345Y388273D02*
X636535Y383274D01*
X637726Y388273D02*
X636535Y383274D01*
X637726Y388273D02*
X638916Y383274D01*
X640106Y388273D02*
X638916Y383274D01*
X641344Y383750D02*
X641106Y383512D01*
X641344Y383274D01*
X641582Y383512D01*
X641344Y383750D01*
X646009Y388273D02*
X642677Y383274D01*
Y388273D02*
X646009D01*
X642677Y383274D02*
X646009D01*
X647128Y385654D02*
X649271D01*
X649985Y385892D01*
X650223Y386130D01*
X650461Y386606D01*
Y387320D01*
X650223Y387797D01*
X649985Y388035D01*
X649271Y388273D01*
X647128D01*
Y383274D01*
X653008Y388273D02*
X652532Y388035D01*
X652056Y387559D01*
X651818Y387082D01*
X651580Y386368D01*
Y385178D01*
X651818Y384464D01*
X652056Y383988D01*
X652532Y383512D01*
X653008Y383274D01*
X653960D01*
X654436Y383512D01*
X654912Y383988D01*
X655150Y384464D01*
X655388Y385178D01*
Y386368D01*
X655150Y387082D01*
X654912Y387559D01*
X654436Y388035D01*
X653960Y388273D01*
X653008D01*
X656555D02*
X657745Y383274D01*
X658935Y388273D02*
X657745Y383274D01*
X658935Y388273D02*
X660125Y383274D01*
X661316Y388273D02*
X660125Y383274D01*
X665410Y388273D02*
X662316D01*
Y383274D01*
X665410D01*
X662316Y385892D02*
X664220D01*
X666243Y388273D02*
Y383274D01*
Y388273D02*
X668386D01*
X669100Y388035D01*
X669338Y387797D01*
X669576Y387320D01*
Y386844D01*
X669338Y386368D01*
X669100Y386130D01*
X668386Y385892D01*
X666243D01*
X667910D02*
X669576Y383274D01*
X670695Y388273D02*
Y383274D01*
Y388273D02*
X672837D01*
X673551Y388035D01*
X673789Y387797D01*
X674027Y387320D01*
Y386844D01*
X673789Y386368D01*
X673551Y386130D01*
X672837Y385892D01*
X670695D02*
X672837D01*
X673551Y385654D01*
X673789Y385416D01*
X674027Y384940D01*
Y384226D01*
X673789Y383750D01*
X673551Y383512D01*
X672837Y383274D01*
X670695D01*
X678955D02*
X677050Y388273D01*
X675146Y383274D01*
X675860Y384940D02*
X678241D01*
X681788Y388273D02*
Y383274D01*
X680121Y388273D02*
X683454D01*
X685715D02*
Y383274D01*
X684049Y388273D02*
X687382D01*
X691071D02*
X687977D01*
Y383274D01*
X691071D01*
X687977Y385892D02*
X689881D01*
X691904Y388273D02*
Y383274D01*
Y388273D02*
X694047D01*
X694761Y388035D01*
X694999Y387797D01*
X695237Y387320D01*
Y386844D01*
X694999Y386368D01*
X694761Y386130D01*
X694047Y385892D01*
X691904D01*
X693571D02*
X695237Y383274D01*
X696356Y388273D02*
X698260Y385892D01*
Y383274D01*
X700165Y388273D02*
X698260Y385892D01*
X701045Y383750D02*
X700807Y383512D01*
X701045Y383274D01*
X701283Y383512D01*
X701045Y383750D01*
X705949Y387082D02*
X705711Y387559D01*
X705235Y388035D01*
X704759Y388273D01*
X703807D01*
X703331Y388035D01*
X702854Y387559D01*
X702616Y387082D01*
X702378Y386368D01*
Y385178D01*
X702616Y384464D01*
X702854Y383988D01*
X703331Y383512D01*
X703807Y383274D01*
X704759D01*
X705235Y383512D01*
X705711Y383988D01*
X705949Y384464D01*
X708782Y388273D02*
X708306Y388035D01*
X707830Y387559D01*
X707592Y387082D01*
X707353Y386368D01*
Y385178D01*
X707592Y384464D01*
X707830Y383988D01*
X708306Y383512D01*
X708782Y383274D01*
X709734D01*
X710210Y383512D01*
X710686Y383988D01*
X710924Y384464D01*
X711162Y385178D01*
Y386368D01*
X710924Y387082D01*
X710686Y387559D01*
X710210Y388035D01*
X709734Y388273D01*
X708782D01*
X712329D02*
Y383274D01*
Y388273D02*
X714233Y383274D01*
X716137Y388273D02*
X714233Y383274D01*
X716137Y388273D02*
Y383274D01*
X474980Y342441D02*
X474699Y341597D01*
X474136Y341035D01*
X473293Y340754D01*
X473012D01*
X472168Y341035D01*
X471606Y341597D01*
X471325Y342441D01*
Y342722D01*
X471606Y343565D01*
X472168Y344128D01*
X473012Y344409D01*
X473293D01*
X474136Y344128D01*
X474699Y343565D01*
X474980Y342441D01*
Y341035D01*
X474699Y339629D01*
X474136Y338786D01*
X473293Y338505D01*
X472731D01*
X471887Y338786D01*
X471606Y339348D01*
X476583Y341035D02*
X481643D01*
X483387Y343284D02*
X483949Y343565D01*
X484792Y344409D01*
Y338505D01*
X489403Y344409D02*
X488560Y344128D01*
X487997Y343284D01*
X487716Y341879D01*
Y341035D01*
X487997Y339629D01*
X488560Y338786D01*
X489403Y338505D01*
X489965D01*
X490809Y338786D01*
X491371Y339629D01*
X491652Y341035D01*
Y341879D01*
X491371Y343284D01*
X490809Y344128D01*
X489965Y344409D01*
X489403D01*
X492974Y341035D02*
X498035D01*
X501465Y344409D02*
X500621Y344128D01*
X500059Y343284D01*
X499778Y341879D01*
Y341035D01*
X500059Y339629D01*
X500621Y338786D01*
X501465Y338505D01*
X502027D01*
X502871Y338786D01*
X503433Y339629D01*
X503714Y341035D01*
Y341879D01*
X503433Y343284D01*
X502871Y344128D01*
X502027Y344409D01*
X501465D01*
X506722D02*
X505879Y344128D01*
X505317Y343284D01*
X505035Y341879D01*
Y341035D01*
X505317Y339629D01*
X505879Y338786D01*
X506722Y338505D01*
X507285D01*
X508128Y338786D01*
X508690Y339629D01*
X508972Y341035D01*
Y341879D01*
X508690Y343284D01*
X508128Y344128D01*
X507285Y344409D01*
X506722D01*
X510574Y343003D02*
Y343284D01*
X510855Y343847D01*
X511136Y344128D01*
X511699Y344409D01*
X512823D01*
X513386Y344128D01*
X513667Y343847D01*
X513948Y343284D01*
Y342722D01*
X513667Y342160D01*
X513105Y341316D01*
X510293Y338505D01*
X514229D01*
X517238Y344409D02*
X516394Y344128D01*
X515832Y343284D01*
X515551Y341879D01*
Y341035D01*
X515832Y339629D01*
X516394Y338786D01*
X517238Y338505D01*
X517800D01*
X518643Y338786D01*
X519206Y339629D01*
X519487Y341035D01*
Y341879D01*
X519206Y343284D01*
X518643Y344128D01*
X517800Y344409D01*
X517238D01*
X521371D02*
X524463D01*
X522776Y342160D01*
X523620D01*
X524182Y341879D01*
X524463Y341597D01*
X524744Y340754D01*
Y340192D01*
X524463Y339348D01*
X523901Y338786D01*
X523057Y338505D01*
X522214D01*
X521371Y338786D01*
X521089Y339067D01*
X520808Y339629D01*
X526066Y341035D02*
X531127D01*
X533432Y344409D02*
X536525D01*
X534838Y342160D01*
X535681D01*
X536244Y341879D01*
X536525Y341597D01*
X536806Y340754D01*
Y340192D01*
X536525Y339348D01*
X535962Y338786D01*
X535119Y338505D01*
X534275D01*
X533432Y338786D01*
X533151Y339067D01*
X532870Y339629D01*
X538127Y336537D02*
X542626D01*
X543385Y344409D02*
Y338505D01*
Y344409D02*
X545915D01*
X546759Y344128D01*
X547040Y343847D01*
X547321Y343284D01*
Y342722D01*
X547040Y342160D01*
X546759Y341879D01*
X545915Y341597D01*
X543385D01*
X545353D02*
X547321Y338505D01*
X552297Y344409D02*
X548642D01*
Y338505D01*
X552297D01*
X548642Y341597D02*
X550892D01*
X553281Y344409D02*
X555531Y338505D01*
X557780Y344409D02*
X555531Y338505D01*
X560226Y344409D02*
X559383Y344128D01*
X558820Y343284D01*
X558539Y341879D01*
Y341035D01*
X558820Y339629D01*
X559383Y338786D01*
X560226Y338505D01*
X560788D01*
X561632Y338786D01*
X562194Y339629D01*
X562475Y341035D01*
Y341879D01*
X562194Y343284D01*
X561632Y344128D01*
X560788Y344409D01*
X560226D01*
X564078Y343003D02*
Y343284D01*
X564359Y343847D01*
X564640Y344128D01*
X565203Y344409D01*
X566327D01*
X566889Y344128D01*
X567171Y343847D01*
X567452Y343284D01*
Y342722D01*
X567171Y342160D01*
X566608Y341316D01*
X563797Y338505D01*
X567733D01*
X569054Y336537D02*
X573553D01*
X575999Y344409D02*
X575155Y344128D01*
X574593Y343284D01*
X574312Y341879D01*
Y341035D01*
X574593Y339629D01*
X575155Y338786D01*
X575999Y338505D01*
X576561D01*
X577405Y338786D01*
X577967Y339629D01*
X578248Y341035D01*
Y341879D01*
X577967Y343284D01*
X577405Y344128D01*
X576561Y344409D01*
X575999D01*
X582943Y343565D02*
X582662Y344128D01*
X581819Y344409D01*
X581256D01*
X580413Y344128D01*
X579851Y343284D01*
X579569Y341879D01*
Y340473D01*
X579851Y339348D01*
X580413Y338786D01*
X581256Y338505D01*
X581538D01*
X582381Y338786D01*
X582943Y339348D01*
X583224Y340192D01*
Y340473D01*
X582943Y341316D01*
X582381Y341879D01*
X581538Y342160D01*
X581256D01*
X580413Y341879D01*
X579851Y341316D01*
X579569Y340473D01*
X584799Y343003D02*
Y343284D01*
X585080Y343847D01*
X585361Y344128D01*
X585924Y344409D01*
X587048D01*
X587610Y344128D01*
X587892Y343847D01*
X588173Y343284D01*
Y342722D01*
X587892Y342160D01*
X587329Y341316D01*
X584518Y338505D01*
X588454D01*
X591462Y344409D02*
X590619Y344128D01*
X590057Y343284D01*
X589775Y341879D01*
Y341035D01*
X590057Y339629D01*
X590619Y338786D01*
X591462Y338505D01*
X592025D01*
X592868Y338786D01*
X593430Y339629D01*
X593712Y341035D01*
Y341879D01*
X593430Y343284D01*
X592868Y344128D01*
X592025Y344409D01*
X591462D01*
X595033Y343284D02*
X595595Y343565D01*
X596439Y344409D01*
Y338505D01*
X600769Y344409D02*
X599925Y344128D01*
X599644Y343565D01*
Y343003D01*
X599925Y342441D01*
X600487Y342160D01*
X601612Y341879D01*
X602456Y341597D01*
X603018Y341035D01*
X603299Y340473D01*
Y339629D01*
X603018Y339067D01*
X602737Y338786D01*
X601893Y338505D01*
X600769D01*
X599925Y338786D01*
X599644Y339067D01*
X599363Y339629D01*
Y340473D01*
X599644Y341035D01*
X600206Y341597D01*
X601050Y341879D01*
X602174Y342160D01*
X602737Y342441D01*
X603018Y343003D01*
Y343565D01*
X602737Y344128D01*
X601893Y344409D01*
X600769D01*
X449639Y387342D02*
X453495D01*
X454780Y387771D01*
X455209Y388199D01*
X455638Y389056D01*
Y390341D01*
X455209Y391198D01*
X454780Y391627D01*
X453495Y392055D01*
X449639D01*
Y383057D01*
X457651Y392055D02*
X459794Y383057D01*
X461936Y392055D02*
X459794Y383057D01*
X461936Y392055D02*
X464079Y383057D01*
X466221Y392055D02*
X464079Y383057D01*
X468020Y392055D02*
Y383057D01*
Y392055D02*
X471877D01*
X473162Y391627D01*
X473591Y391198D01*
X474019Y390341D01*
Y389484D01*
X473591Y388627D01*
X473162Y388199D01*
X471877Y387771D01*
X468020D02*
X471877D01*
X473162Y387342D01*
X473591Y386913D01*
X474019Y386057D01*
Y384771D01*
X473591Y383914D01*
X473162Y383486D01*
X471877Y383057D01*
X468020D01*
X476890Y383486D02*
X476462Y383057D01*
X476033Y383486D01*
X476462Y383914D01*
X476890Y383486D01*
Y382629D01*
X476462Y381772D01*
X476033Y381343D01*
X490216Y392055D02*
X485931Y386057D01*
X492358D01*
X490216Y392055D02*
Y383057D01*
X501014Y392055D02*
Y383057D01*
X506155D01*
X513996D02*
X510569Y392055D01*
X507141Y383057D01*
X508426Y386057D02*
X512711D01*
X516096Y392055D02*
X519524Y387771D01*
Y383057D01*
X522952Y392055D02*
X519524Y387771D01*
X529679Y392055D02*
X524109D01*
Y383057D01*
X529679D01*
X524109Y387771D02*
X527536D01*
X531178Y392055D02*
Y383057D01*
Y392055D02*
X535035D01*
X536320Y391627D01*
X536749Y391198D01*
X537177Y390341D01*
Y389484D01*
X536749Y388627D01*
X536320Y388199D01*
X535035Y387771D01*
X531178D01*
X534178D02*
X537177Y383057D01*
X546261Y392055D02*
Y383057D01*
Y392055D02*
X551831D01*
X546261Y387771D02*
X549689D01*
X552859Y392055D02*
Y383057D01*
X558001D01*
X564557Y392055D02*
X558987D01*
Y383057D01*
X564557D01*
X558987Y387771D02*
X562415D01*
X566057Y392055D02*
X572055Y383057D01*
Y392055D02*
X566057Y383057D01*
X363102Y312281D02*
X362673Y310996D01*
X361817Y310139D01*
X360531Y309710D01*
X360103D01*
X358817Y310139D01*
X357960Y310996D01*
X357532Y312281D01*
Y312710D01*
X357960Y313995D01*
X358817Y314852D01*
X360103Y315281D01*
X360531D01*
X361817Y314852D01*
X362673Y313995D01*
X363102Y312281D01*
Y310139D01*
X362673Y307996D01*
X361817Y306711D01*
X360531Y306282D01*
X359674D01*
X358389Y306711D01*
X357960Y307568D01*
X365544Y310139D02*
X373257D01*
X375913Y313567D02*
X376770Y313995D01*
X378056Y315281D01*
Y306282D01*
X385083Y315281D02*
X383798Y314852D01*
X382941Y313567D01*
X382512Y311424D01*
Y310139D01*
X382941Y307996D01*
X383798Y306711D01*
X385083Y306282D01*
X385940D01*
X387225Y306711D01*
X388082Y307996D01*
X388511Y310139D01*
Y311424D01*
X388082Y313567D01*
X387225Y314852D01*
X385940Y315281D01*
X385083D01*
X390525Y310139D02*
X398237D01*
X403465Y315281D02*
X402179Y314852D01*
X401322Y313567D01*
X400894Y311424D01*
Y310139D01*
X401322Y307996D01*
X402179Y306711D01*
X403465Y306282D01*
X404322D01*
X405607Y306711D01*
X406464Y307996D01*
X406892Y310139D01*
Y311424D01*
X406464Y313567D01*
X405607Y314852D01*
X404322Y315281D01*
X403465D01*
X411477D02*
X410192Y314852D01*
X409335Y313567D01*
X408906Y311424D01*
Y310139D01*
X409335Y307996D01*
X410192Y306711D01*
X411477Y306282D01*
X412334D01*
X413620Y306711D01*
X414477Y307996D01*
X414905Y310139D01*
Y311424D01*
X414477Y313567D01*
X413620Y314852D01*
X412334Y315281D01*
X411477D01*
X417347Y313138D02*
Y313567D01*
X417776Y314423D01*
X418204Y314852D01*
X419061Y315281D01*
X420775D01*
X421632Y314852D01*
X422061Y314423D01*
X422489Y313567D01*
Y312710D01*
X422061Y311853D01*
X421204Y310567D01*
X416919Y306282D01*
X422918D01*
X427502Y315281D02*
X426217Y314852D01*
X425360Y313567D01*
X424931Y311424D01*
Y310139D01*
X425360Y307996D01*
X426217Y306711D01*
X427502Y306282D01*
X428359D01*
X429645Y306711D01*
X430502Y307996D01*
X430930Y310139D01*
Y311424D01*
X430502Y313567D01*
X429645Y314852D01*
X428359Y315281D01*
X427502D01*
X433801D02*
X438514D01*
X435944Y311853D01*
X437229D01*
X438086Y311424D01*
X438514Y310996D01*
X438943Y309710D01*
Y308853D01*
X438514Y307568D01*
X437657Y306711D01*
X436372Y306282D01*
X435086D01*
X433801Y306711D01*
X433373Y307139D01*
X432944Y307996D01*
X440957Y310139D02*
X448669D01*
X452183Y315281D02*
X456896D01*
X454325Y311853D01*
X455611D01*
X456468Y311424D01*
X456896Y310996D01*
X457325Y309710D01*
Y308853D01*
X456896Y307568D01*
X456039Y306711D01*
X454754Y306282D01*
X453468D01*
X452183Y306711D01*
X451754Y307139D01*
X451326Y307996D01*
X459338Y303283D02*
X466194D01*
X467351Y315281D02*
Y306282D01*
Y315281D02*
X471207D01*
X472493Y314852D01*
X472921Y314423D01*
X473350Y313567D01*
Y312710D01*
X472921Y311853D01*
X472493Y311424D01*
X471207Y310996D01*
X467351D01*
X470350D02*
X473350Y306282D01*
X480934Y315281D02*
X475364D01*
Y306282D01*
X480934D01*
X475364Y310996D02*
X478791D01*
X482434Y315281D02*
X485861Y306282D01*
X489289Y315281D02*
X485861Y306282D01*
X493017Y315281D02*
X491732Y314852D01*
X490874Y313567D01*
X490446Y311424D01*
Y310139D01*
X490874Y307996D01*
X491732Y306711D01*
X493017Y306282D01*
X493874D01*
X495159Y306711D01*
X496016Y307996D01*
X496445Y310139D01*
Y311424D01*
X496016Y313567D01*
X495159Y314852D01*
X493874Y315281D01*
X493017D01*
X498887Y313138D02*
Y313567D01*
X499316Y314423D01*
X499744Y314852D01*
X500601Y315281D01*
X502315D01*
X503172Y314852D01*
X503600Y314423D01*
X504029Y313567D01*
Y312710D01*
X503600Y311853D01*
X502743Y310567D01*
X498459Y306282D01*
X504457D01*
X506471Y303283D02*
X513327D01*
X517055Y315281D02*
X515769Y314852D01*
X514912Y313567D01*
X514484Y311424D01*
Y310139D01*
X514912Y307996D01*
X515769Y306711D01*
X517055Y306282D01*
X517912D01*
X519197Y306711D01*
X520054Y307996D01*
X520482Y310139D01*
Y311424D01*
X520054Y313567D01*
X519197Y314852D01*
X517912Y315281D01*
X517055D01*
X527638Y313995D02*
X527210Y314852D01*
X525924Y315281D01*
X525067D01*
X523782Y314852D01*
X522925Y313567D01*
X522496Y311424D01*
Y309282D01*
X522925Y307568D01*
X523782Y306711D01*
X525067Y306282D01*
X525496D01*
X526781Y306711D01*
X527638Y307568D01*
X528067Y308853D01*
Y309282D01*
X527638Y310567D01*
X526781Y311424D01*
X525496Y311853D01*
X525067D01*
X523782Y311424D01*
X522925Y310567D01*
X522496Y309282D01*
X530466Y313138D02*
Y313567D01*
X530895Y314423D01*
X531323Y314852D01*
X532180Y315281D01*
X533894D01*
X534751Y314852D01*
X535179Y314423D01*
X535608Y313567D01*
Y312710D01*
X535179Y311853D01*
X534322Y310567D01*
X530038Y306282D01*
X536036D01*
X540621Y315281D02*
X539336Y314852D01*
X538479Y313567D01*
X538050Y311424D01*
Y310139D01*
X538479Y307996D01*
X539336Y306711D01*
X540621Y306282D01*
X541478D01*
X542763Y306711D01*
X543620Y307996D01*
X544049Y310139D01*
Y311424D01*
X543620Y313567D01*
X542763Y314852D01*
X541478Y315281D01*
X540621D01*
X546063Y313567D02*
X546920Y313995D01*
X548205Y315281D01*
Y306282D01*
X554804Y315281D02*
X553518Y314852D01*
X553090Y313995D01*
Y313138D01*
X553518Y312281D01*
X554375Y311853D01*
X556089Y311424D01*
X557375Y310996D01*
X558231Y310139D01*
X558660Y309282D01*
Y307996D01*
X558231Y307139D01*
X557803Y306711D01*
X556518Y306282D01*
X554804D01*
X553518Y306711D01*
X553090Y307139D01*
X552661Y307996D01*
Y309282D01*
X553090Y310139D01*
X553947Y310996D01*
X555232Y311424D01*
X556946Y311853D01*
X557803Y312281D01*
X558231Y313138D01*
Y313995D01*
X557803Y314852D01*
X556518Y315281D01*
X554804D01*
X561102Y307139D02*
X560674Y306711D01*
X561102Y306282D01*
X561531Y306711D01*
X561102Y307139D01*
X563502Y310567D02*
X567358D01*
X568644Y310996D01*
X569072Y311424D01*
X569501Y312281D01*
Y313567D01*
X569072Y314423D01*
X568644Y314852D01*
X567358Y315281D01*
X563502D01*
Y306282D01*
X576656Y310996D02*
X575799Y311853D01*
X574942Y312281D01*
X573657D01*
X572800Y311853D01*
X571943Y310996D01*
X571514Y309710D01*
Y308853D01*
X571943Y307568D01*
X572800Y306711D01*
X573657Y306282D01*
X574942D01*
X575799Y306711D01*
X576656Y307568D01*
X578584Y315281D02*
Y306282D01*
Y310996D02*
X579441Y311853D01*
X580298Y312281D01*
X581584D01*
X582441Y311853D01*
X583298Y310996D01*
X583726Y309710D01*
Y308853D01*
X583298Y307568D01*
X582441Y306711D01*
X581584Y306282D01*
X580298D01*
X579441Y306711D01*
X578584Y307568D01*
X585654Y315281D02*
Y306282D01*
Y315281D02*
X588654D01*
X589939Y314852D01*
X590796Y313995D01*
X591224Y313138D01*
X591653Y311853D01*
Y309710D01*
X591224Y308425D01*
X590796Y307568D01*
X589939Y306711D01*
X588654Y306282D01*
X585654D01*
X595809Y312281D02*
X594952Y311853D01*
X594095Y310996D01*
X593667Y309710D01*
Y308853D01*
X594095Y307568D01*
X594952Y306711D01*
X595809Y306282D01*
X597095D01*
X597952Y306711D01*
X598809Y307568D01*
X599237Y308853D01*
Y309710D01*
X598809Y310996D01*
X597952Y311853D01*
X597095Y312281D01*
X595809D01*
X606350Y310996D02*
X605493Y311853D01*
X604636Y312281D01*
X603350D01*
X602493Y311853D01*
X601637Y310996D01*
X601208Y309710D01*
Y308853D01*
X601637Y307568D01*
X602493Y306711D01*
X603350Y306282D01*
X604636D01*
X605493Y306711D01*
X606350Y307568D01*
X364387Y288782D02*
X360960Y297780D01*
X357532Y288782D01*
X358817Y291782D02*
X363102D01*
X366487Y294781D02*
Y288782D01*
Y292210D02*
X366915Y293496D01*
X367772Y294353D01*
X368629Y294781D01*
X369915D01*
X372014Y297780D02*
Y290496D01*
X372443Y289211D01*
X373300Y288782D01*
X374157D01*
X370729Y294781D02*
X373728D01*
X375442D02*
X377156Y288782D01*
X378870Y294781D02*
X377156Y288782D01*
X378870Y294781D02*
X380584Y288782D01*
X382298Y294781D02*
X380584Y288782D01*
X386540Y294781D02*
X385683Y294353D01*
X384826Y293496D01*
X384397Y292210D01*
Y291353D01*
X384826Y290068D01*
X385683Y289211D01*
X386540Y288782D01*
X387825D01*
X388682Y289211D01*
X389539Y290068D01*
X389968Y291353D01*
Y292210D01*
X389539Y293496D01*
X388682Y294353D01*
X387825Y294781D01*
X386540D01*
X391939D02*
Y288782D01*
Y292210D02*
X392367Y293496D01*
X393224Y294353D01*
X394081Y294781D01*
X395366D01*
X396181Y297780D02*
Y288782D01*
X400465Y294781D02*
X396181Y290496D01*
X397894Y292210D02*
X400894Y288782D01*
X415805Y295638D02*
X415376Y296495D01*
X414519Y297352D01*
X413662Y297780D01*
X411949D01*
X411092Y297352D01*
X410235Y296495D01*
X409806Y295638D01*
X409378Y294353D01*
Y292210D01*
X409806Y290925D01*
X410235Y290068D01*
X411092Y289211D01*
X411949Y288782D01*
X413662D01*
X414519Y289211D01*
X415376Y290068D01*
X415805Y290925D01*
Y292210D01*
X413662D02*
X415805D01*
X417862Y294781D02*
Y288782D01*
Y292210D02*
X418290Y293496D01*
X419147Y294353D01*
X420004Y294781D01*
X421289D01*
X427245D02*
Y288782D01*
Y293496D02*
X426388Y294353D01*
X425531Y294781D01*
X424246D01*
X423389Y294353D01*
X422532Y293496D01*
X422104Y292210D01*
Y291353D01*
X422532Y290068D01*
X423389Y289211D01*
X424246Y288782D01*
X425531D01*
X426388Y289211D01*
X427245Y290068D01*
X429645Y294781D02*
Y285783D01*
Y293496D02*
X430502Y294353D01*
X431359Y294781D01*
X432644D01*
X433501Y294353D01*
X434358Y293496D01*
X434787Y292210D01*
Y291353D01*
X434358Y290068D01*
X433501Y289211D01*
X432644Y288782D01*
X431359D01*
X430502Y289211D01*
X429645Y290068D01*
X436715Y297780D02*
Y288782D01*
Y293067D02*
X438000Y294353D01*
X438857Y294781D01*
X440142D01*
X441000Y294353D01*
X441428Y293067D01*
Y288782D01*
X444642Y297780D02*
X445070Y297352D01*
X445499Y297780D01*
X445070Y298209D01*
X444642Y297780D01*
X445070Y294781D02*
Y288782D01*
X452226Y293496D02*
X451369Y294353D01*
X450512Y294781D01*
X449226D01*
X448369Y294353D01*
X447512Y293496D01*
X447084Y292210D01*
Y291353D01*
X447512Y290068D01*
X448369Y289211D01*
X449226Y288782D01*
X450512D01*
X451369Y289211D01*
X452226Y290068D01*
X458867Y293496D02*
X458439Y294353D01*
X457153Y294781D01*
X455868D01*
X454582Y294353D01*
X454154Y293496D01*
X454582Y292639D01*
X455439Y292210D01*
X457582Y291782D01*
X458439Y291353D01*
X458867Y290496D01*
Y290068D01*
X458439Y289211D01*
X457153Y288782D01*
X455868D01*
X454582Y289211D01*
X454154Y290068D01*
X634578Y345791D02*
X633292Y345363D01*
X632436Y344077D01*
X632007Y341935D01*
Y340650D01*
X632436Y338507D01*
X633292Y337222D01*
X634578Y336793D01*
X635435D01*
X636720Y337222D01*
X637577Y338507D01*
X638006Y340650D01*
Y341935D01*
X637577Y344077D01*
X636720Y345363D01*
X635435Y345791D01*
X634578D01*
X640448Y343649D02*
Y344077D01*
X640876Y344934D01*
X641305Y345363D01*
X642162Y345791D01*
X643876D01*
X644733Y345363D01*
X645161Y344934D01*
X645590Y344077D01*
Y343220D01*
X645161Y342363D01*
X644304Y341078D01*
X640020Y336793D01*
X646018D01*
X630100Y423476D02*
X624435Y414977D01*
Y423476D02*
X630100D01*
X624435Y414977D02*
X630100D01*
X632002Y419024D02*
X635644D01*
X636858Y419429D01*
X637263Y419833D01*
X637668Y420643D01*
Y421857D01*
X637263Y422666D01*
X636858Y423071D01*
X635644Y423476D01*
X632002D01*
Y414977D01*
X641998Y423476D02*
X641188Y423071D01*
X640379Y422261D01*
X639974Y421452D01*
X639570Y420238D01*
Y418215D01*
X639974Y417001D01*
X640379Y416191D01*
X641188Y415382D01*
X641998Y414977D01*
X643616D01*
X644426Y415382D01*
X645235Y416191D01*
X645640Y417001D01*
X646044Y418215D01*
Y420238D01*
X645640Y421452D01*
X645235Y422261D01*
X644426Y423071D01*
X643616Y423476D01*
X641998D01*
X648027D02*
X650051Y414977D01*
X652074Y423476D02*
X650051Y414977D01*
X652074Y423476D02*
X654098Y414977D01*
X656121Y423476D02*
X654098Y414977D01*
X663081Y423476D02*
X657821D01*
Y414977D01*
X663081D01*
X657821Y419429D02*
X661058D01*
X664498Y423476D02*
Y414977D01*
Y423476D02*
X668140D01*
X669354Y423071D01*
X669758Y422666D01*
X670163Y421857D01*
Y421047D01*
X669758Y420238D01*
X669354Y419833D01*
X668140Y419429D01*
X664498D01*
X667330D02*
X670163Y414977D01*
X672874Y415382D02*
X672470Y414977D01*
X672065Y415382D01*
X672470Y415787D01*
X672874Y415382D01*
Y414573D01*
X672470Y413763D01*
X672065Y413359D01*
X681413Y423476D02*
Y414977D01*
X686269D01*
X687200Y423476D02*
Y414977D01*
X692056D01*
X699057Y421452D02*
X698652Y422261D01*
X697843Y423071D01*
X697034Y423476D01*
X695415D01*
X694605Y423071D01*
X693796Y422261D01*
X693392Y421452D01*
X692987Y420238D01*
Y418215D01*
X693392Y417001D01*
X693796Y416191D01*
X694605Y415382D01*
X695415Y414977D01*
X697034D01*
X697843Y415382D01*
X698652Y416191D01*
X699057Y417001D01*
X696030Y348931D02*
X691746Y339932D01*
X690032Y348931D02*
X696030D01*
X698044Y338647D02*
X704043Y348931D01*
X705071Y346788D02*
Y347217D01*
X705500Y348074D01*
X705928Y348502D01*
X706785Y348931D01*
X708499D01*
X709356Y348502D01*
X709785Y348074D01*
X710213Y347217D01*
Y346360D01*
X709785Y345503D01*
X708928Y344217D01*
X704643Y339932D01*
X710641D01*
X718654Y348931D02*
X714369Y339932D01*
X712655Y348931D02*
X718654D01*
X720668Y338647D02*
X726667Y348931D01*
X727695Y346788D02*
Y347217D01*
X728124Y348074D01*
X728552Y348502D01*
X729409Y348931D01*
X731123D01*
X731980Y348502D01*
X732408Y348074D01*
X732837Y347217D01*
Y346360D01*
X732408Y345503D01*
X731551Y344217D01*
X727267Y339932D01*
X733265D01*
X737850Y348931D02*
X736565Y348502D01*
X735708Y347217D01*
X735279Y345074D01*
Y343789D01*
X735708Y341646D01*
X736565Y340361D01*
X737850Y339932D01*
X738707D01*
X739992Y340361D01*
X740849Y341646D01*
X741278Y343789D01*
Y345074D01*
X740849Y347217D01*
X739992Y348502D01*
X738707Y348931D01*
X737850D01*
X743292Y347217D02*
X744149Y347645D01*
X745434Y348931D01*
Y339932D01*
X752033Y348931D02*
X750747Y348502D01*
X750319Y347645D01*
Y346788D01*
X750747Y345931D01*
X751604Y345503D01*
X753318Y345074D01*
X754604Y344646D01*
X755461Y343789D01*
X755889Y342932D01*
Y341646D01*
X755461Y340789D01*
X755032Y340361D01*
X753747Y339932D01*
X752033D01*
X750747Y340361D01*
X750319Y340789D01*
X749890Y341646D01*
Y342932D01*
X750319Y343789D01*
X751176Y344646D01*
X752461Y345074D01*
X754175Y345503D01*
X755032Y345931D01*
X755461Y346788D01*
Y347645D01*
X755032Y348502D01*
X753747Y348931D01*
X752033D01*
X625829Y378306D02*
X625115Y378068D01*
X624877Y377592D01*
Y377116D01*
X625115Y376640D01*
X625591Y376402D01*
X626543Y376164D01*
X627257Y375926D01*
X627733Y375450D01*
X627971Y374974D01*
Y374259D01*
X627733Y373783D01*
X627495Y373545D01*
X626781Y373307D01*
X625829D01*
X625115Y373545D01*
X624877Y373783D01*
X624639Y374259D01*
Y374974D01*
X624877Y375450D01*
X625353Y375926D01*
X626067Y376164D01*
X627019Y376402D01*
X627495Y376640D01*
X627733Y377116D01*
Y377592D01*
X627495Y378068D01*
X626781Y378306D01*
X625829D01*
X631947Y377592D02*
X631709Y378068D01*
X630995Y378306D01*
X630518D01*
X629804Y378068D01*
X629328Y377354D01*
X629090Y376164D01*
Y374974D01*
X629328Y374021D01*
X629804Y373545D01*
X630518Y373307D01*
X630757D01*
X631471Y373545D01*
X631947Y374021D01*
X632185Y374735D01*
Y374974D01*
X631947Y375688D01*
X631471Y376164D01*
X630757Y376402D01*
X630518D01*
X629804Y376164D01*
X629328Y375688D01*
X629090Y374974D01*
X636136Y377592D02*
X635898Y378068D01*
X635184Y378306D01*
X634708D01*
X633994Y378068D01*
X633518Y377354D01*
X633280Y376164D01*
Y374974D01*
X633518Y374021D01*
X633994Y373545D01*
X634708Y373307D01*
X634946D01*
X635660Y373545D01*
X636136Y374021D01*
X636374Y374735D01*
Y374974D01*
X636136Y375688D01*
X635660Y376164D01*
X634946Y376402D01*
X634708D01*
X633994Y376164D01*
X633518Y375688D01*
X633280Y374974D01*
X637469Y375450D02*
X641754D01*
X643706Y378306D02*
X646325D01*
X644896Y376402D01*
X645611D01*
X646087Y376164D01*
X646325Y375926D01*
X646563Y375212D01*
Y374735D01*
X646325Y374021D01*
X645849Y373545D01*
X645134Y373307D01*
X644420D01*
X643706Y373545D01*
X643468Y373783D01*
X643230Y374259D01*
X650538Y377592D02*
X650300Y378068D01*
X649586Y378306D01*
X649110D01*
X648396Y378068D01*
X647920Y377354D01*
X647681Y376164D01*
Y374974D01*
X647920Y374021D01*
X648396Y373545D01*
X649110Y373307D01*
X649348D01*
X650062Y373545D01*
X650538Y374021D01*
X650776Y374735D01*
Y374974D01*
X650538Y375688D01*
X650062Y376164D01*
X649348Y376402D01*
X649110D01*
X648396Y376164D01*
X647920Y375688D01*
X647681Y374974D01*
X654251Y378306D02*
X651871Y374974D01*
X655442D01*
X654251Y378306D02*
Y373307D01*
X656322Y375450D02*
X660607D01*
X662321Y377116D02*
Y377354D01*
X662559Y377830D01*
X662797Y378068D01*
X663273Y378306D01*
X664225D01*
X664702Y378068D01*
X664940Y377830D01*
X665178Y377354D01*
Y376878D01*
X664940Y376402D01*
X664464Y375688D01*
X662083Y373307D01*
X665416D01*
X669629Y376640D02*
X669391Y375926D01*
X668915Y375450D01*
X668201Y375212D01*
X667963D01*
X667249Y375450D01*
X666773Y375926D01*
X666535Y376640D01*
Y376878D01*
X666773Y377592D01*
X667249Y378068D01*
X667963Y378306D01*
X668201D01*
X668915Y378068D01*
X669391Y377592D01*
X669629Y376640D01*
Y375450D01*
X669391Y374259D01*
X668915Y373545D01*
X668201Y373307D01*
X667725D01*
X667011Y373545D01*
X666773Y374021D01*
X672414Y378306D02*
X671700Y378068D01*
X671224Y377354D01*
X670986Y376164D01*
Y375450D01*
X671224Y374259D01*
X671700Y373545D01*
X672414Y373307D01*
X672890D01*
X673604Y373545D01*
X674081Y374259D01*
X674319Y375450D01*
Y376164D01*
X674081Y377354D01*
X673604Y378068D01*
X672890Y378306D01*
X672414D01*
X678532Y376640D02*
X678294Y375926D01*
X677818Y375450D01*
X677104Y375212D01*
X676866D01*
X676152Y375450D01*
X675675Y375926D01*
X675437Y376640D01*
Y376878D01*
X675675Y377592D01*
X676152Y378068D01*
X676866Y378306D01*
X677104D01*
X677818Y378068D01*
X678294Y377592D01*
X678532Y376640D01*
Y375450D01*
X678294Y374259D01*
X677818Y373545D01*
X677104Y373307D01*
X676628D01*
X675913Y373545D01*
X675675Y374021D01*
D14*
X109463Y371406D02*
X106183Y374685D01*
X99624D01*
X96344Y371406D01*
Y358286D01*
X99624Y355007D01*
X106183D01*
X109463Y358286D01*
X125862Y374685D02*
X119302D01*
X116023Y371406D01*
Y358286D01*
X119302Y355007D01*
X125862D01*
X129142Y358286D01*
Y371406D01*
X125862Y374685D01*
X135701Y355007D02*
Y374685D01*
X148820Y355007D01*
Y374685D01*
X168499D02*
X155380D01*
Y364846D01*
X161940D01*
X155380D01*
Y355007D01*
X175059Y374685D02*
X181618D01*
X178339D01*
Y355007D01*
X175059D01*
X181618D01*
X191458Y374685D02*
Y355007D01*
X201297D01*
X204577Y358286D01*
Y371406D01*
X201297Y374685D01*
X191458D01*
X224255D02*
X211136D01*
Y355007D01*
X224255D01*
X211136Y364846D02*
X217696D01*
X230815Y355007D02*
Y374685D01*
X243934Y355007D01*
Y374685D01*
X250494D02*
X263613D01*
X257053D01*
Y355007D01*
X270172Y374685D02*
X276732D01*
X273452D01*
Y355007D01*
X270172D01*
X276732D01*
X286571D02*
Y368126D01*
X293131Y374685D01*
X299690Y368126D01*
Y355007D01*
Y364846D01*
X286571D01*
X306250Y374685D02*
Y355007D01*
X319369D01*
D15*
X359474Y341418D02*
X361402D01*
X362045Y341632D01*
X362259Y341846D01*
X362473Y342275D01*
Y342917D01*
X362259Y343346D01*
X362045Y343560D01*
X361402Y343774D01*
X359474D01*
Y339275D01*
X363480Y343774D02*
Y339275D01*
X366480Y343774D02*
Y339275D01*
X363480Y341632D02*
X366480D01*
X369008Y343774D02*
X368579Y343560D01*
X368151Y343132D01*
X367936Y342703D01*
X367722Y342060D01*
Y340989D01*
X367936Y340347D01*
X368151Y339918D01*
X368579Y339490D01*
X369008Y339275D01*
X369865D01*
X370293Y339490D01*
X370722Y339918D01*
X370936Y340347D01*
X371150Y340989D01*
Y342060D01*
X370936Y342703D01*
X370722Y343132D01*
X370293Y343560D01*
X369865Y343774D01*
X369008D01*
X372200D02*
Y339275D01*
Y343774D02*
X375199Y339275D01*
Y343774D02*
Y339275D01*
X379227Y343774D02*
X376442D01*
Y339275D01*
X379227D01*
X376442Y341632D02*
X378156D01*
X380191Y342275D02*
X379977Y342060D01*
X380191Y341846D01*
X380405Y342060D01*
X380191Y342275D01*
Y339704D02*
X379977Y339490D01*
X380191Y339275D01*
X380405Y339490D01*
X380191Y339704D01*
X385997Y343774D02*
X385354Y343560D01*
X385140Y343132D01*
Y342703D01*
X385354Y342275D01*
X385783Y342060D01*
X386640Y341846D01*
X387282Y341632D01*
X387711Y341203D01*
X387925Y340775D01*
Y340132D01*
X387711Y339704D01*
X387497Y339490D01*
X386854Y339275D01*
X385997D01*
X385354Y339490D01*
X385140Y339704D01*
X384926Y340132D01*
Y340775D01*
X385140Y341203D01*
X385568Y341632D01*
X386211Y341846D01*
X387068Y342060D01*
X387497Y342275D01*
X387711Y342703D01*
Y343132D01*
X387497Y343560D01*
X386854Y343774D01*
X385997D01*
X390217D02*
X389575Y343560D01*
X389146Y342917D01*
X388932Y341846D01*
Y341203D01*
X389146Y340132D01*
X389575Y339490D01*
X390217Y339275D01*
X390646D01*
X391289Y339490D01*
X391717Y340132D01*
X391931Y341203D01*
Y341846D01*
X391717Y342917D01*
X391289Y343560D01*
X390646Y343774D01*
X390217D01*
X395509D02*
X393367D01*
X393153Y341846D01*
X393367Y342060D01*
X394009Y342275D01*
X394652D01*
X395295Y342060D01*
X395724Y341632D01*
X395938Y340989D01*
Y340561D01*
X395724Y339918D01*
X395295Y339490D01*
X394652Y339275D01*
X394009D01*
X393367Y339490D01*
X393153Y339704D01*
X392938Y340132D01*
X396945Y341203D02*
X400801D01*
X403200Y343774D02*
X402558Y343560D01*
X402343Y343132D01*
Y342703D01*
X402558Y342275D01*
X402986Y342060D01*
X403843Y341846D01*
X404486Y341632D01*
X404914Y341203D01*
X405129Y340775D01*
Y340132D01*
X404914Y339704D01*
X404700Y339490D01*
X404057Y339275D01*
X403200D01*
X402558Y339490D01*
X402343Y339704D01*
X402129Y340132D01*
Y340775D01*
X402343Y341203D01*
X402772Y341632D01*
X403415Y341846D01*
X404272Y342060D01*
X404700Y342275D01*
X404914Y342703D01*
Y343132D01*
X404700Y343560D01*
X404057Y343774D01*
X403200D01*
X407207D02*
X406564Y343560D01*
X406350Y343132D01*
Y342703D01*
X406564Y342275D01*
X406992Y342060D01*
X407849Y341846D01*
X408492Y341632D01*
X408921Y341203D01*
X409135Y340775D01*
Y340132D01*
X408921Y339704D01*
X408706Y339490D01*
X408064Y339275D01*
X407207D01*
X406564Y339490D01*
X406350Y339704D01*
X406136Y340132D01*
Y340775D01*
X406350Y341203D01*
X406778Y341632D01*
X407421Y341846D01*
X408278Y342060D01*
X408706Y342275D01*
X408921Y342703D01*
Y343132D01*
X408706Y343560D01*
X408064Y343774D01*
X407207D01*
X412927Y342275D02*
X412713Y341632D01*
X412284Y341203D01*
X411641Y340989D01*
X411427D01*
X410784Y341203D01*
X410356Y341632D01*
X410142Y342275D01*
Y342489D01*
X410356Y343132D01*
X410784Y343560D01*
X411427Y343774D01*
X411641D01*
X412284Y343560D01*
X412713Y343132D01*
X412927Y342275D01*
Y341203D01*
X412713Y340132D01*
X412284Y339490D01*
X411641Y339275D01*
X411213D01*
X410570Y339490D01*
X410356Y339918D01*
X414148Y341203D02*
X418004D01*
X421475Y343774D02*
X419333Y340775D01*
X422546D01*
X421475Y343774D02*
Y339275D01*
X425910Y343774D02*
X423767D01*
X423553Y341846D01*
X423767Y342060D01*
X424410Y342275D01*
X425053D01*
X425696Y342060D01*
X426124Y341632D01*
X426338Y340989D01*
Y340561D01*
X426124Y339918D01*
X425696Y339490D01*
X425053Y339275D01*
X424410D01*
X423767Y339490D01*
X423553Y339704D01*
X423339Y340132D01*
X427774Y343774D02*
X430130D01*
X428845Y342060D01*
X429488D01*
X429916Y341846D01*
X430130Y341632D01*
X430345Y340989D01*
Y340561D01*
X430130Y339918D01*
X429702Y339490D01*
X429059Y339275D01*
X428416D01*
X427774Y339490D01*
X427560Y339704D01*
X427345Y340132D01*
X431352Y342917D02*
X431780Y343132D01*
X432423Y343774D01*
Y339275D01*
X359474Y361274D02*
Y356775D01*
Y361274D02*
X360974D01*
X361616Y361060D01*
X362045Y360632D01*
X362259Y360203D01*
X362473Y359560D01*
Y358489D01*
X362259Y357847D01*
X362045Y357418D01*
X361616Y356990D01*
X360974Y356775D01*
X359474D01*
X366266Y361274D02*
X363480D01*
Y356775D01*
X366266D01*
X363480Y359132D02*
X365194D01*
X370015Y360632D02*
X369586Y361060D01*
X368944Y361274D01*
X368087D01*
X367444Y361060D01*
X367015Y360632D01*
Y360203D01*
X367230Y359775D01*
X367444Y359560D01*
X367872Y359346D01*
X369158Y358918D01*
X369586Y358703D01*
X369800Y358489D01*
X370015Y358061D01*
Y357418D01*
X369586Y356990D01*
X368944Y356775D01*
X368087D01*
X367444Y356990D01*
X367015Y357418D01*
X371022Y361274D02*
Y356775D01*
X375178Y360203D02*
X374964Y360632D01*
X374535Y361060D01*
X374107Y361274D01*
X373250D01*
X372821Y361060D01*
X372393Y360632D01*
X372179Y360203D01*
X371964Y359560D01*
Y358489D01*
X372179Y357847D01*
X372393Y357418D01*
X372821Y356990D01*
X373250Y356775D01*
X374107D01*
X374535Y356990D01*
X374964Y357418D01*
X375178Y357847D01*
Y358489D01*
X374107D02*
X375178D01*
X376206Y361274D02*
Y356775D01*
Y361274D02*
X379206Y356775D01*
Y361274D02*
Y356775D01*
X383233Y361274D02*
X380448D01*
Y356775D01*
X383233D01*
X380448Y359132D02*
X382162D01*
X383983Y361274D02*
Y356775D01*
Y361274D02*
X385911D01*
X386554Y361060D01*
X386768Y360846D01*
X386982Y360418D01*
Y359989D01*
X386768Y359560D01*
X386554Y359346D01*
X385911Y359132D01*
X383983D01*
X385483D02*
X386982Y356775D01*
X388204Y359775D02*
X387989Y359560D01*
X388204Y359346D01*
X388418Y359560D01*
X388204Y359775D01*
Y357204D02*
X387989Y356990D01*
X388204Y356775D01*
X388418Y356990D01*
X388204Y357204D01*
X395081Y361274D02*
Y357847D01*
X394866Y357204D01*
X394652Y356990D01*
X394224Y356775D01*
X393795D01*
X393367Y356990D01*
X393153Y357204D01*
X392938Y357847D01*
Y358275D01*
X396452Y357204D02*
X396238Y356990D01*
X396452Y356775D01*
X396666Y356990D01*
X396452Y357204D01*
X401187Y358918D02*
X403115D01*
X403757Y359132D01*
X403972Y359346D01*
X404186Y359775D01*
Y360418D01*
X403972Y360846D01*
X403757Y361060D01*
X403115Y361274D01*
X401187D01*
Y356775D01*
X407978Y361274D02*
X405193D01*
Y356775D01*
X407978D01*
X405193Y359132D02*
X406907D01*
X408728Y361274D02*
Y356775D01*
Y361274D02*
X410656D01*
X411299Y361060D01*
X411513Y360846D01*
X411727Y360418D01*
Y359989D01*
X411513Y359560D01*
X411299Y359346D01*
X410656Y359132D01*
X408728D01*
X410227D02*
X411727Y356775D01*
X415519Y361274D02*
X412734D01*
Y356775D01*
X415519D01*
X412734Y359132D02*
X414448D01*
X419268Y361274D02*
X416269Y356775D01*
Y361274D02*
X419268D01*
X416269Y356775D02*
X419268D01*
X360317Y398181D02*
X357532D01*
Y393682D01*
X360317D01*
X357532Y396039D02*
X359245D01*
X361067Y398181D02*
Y393682D01*
Y398181D02*
X364066Y393682D01*
Y398181D02*
Y393682D01*
X368522Y397110D02*
X368308Y397539D01*
X367879Y397967D01*
X367451Y398181D01*
X366594D01*
X366165Y397967D01*
X365737Y397539D01*
X365523Y397110D01*
X365308Y396467D01*
Y395396D01*
X365523Y394754D01*
X365737Y394325D01*
X366165Y393897D01*
X366594Y393682D01*
X367451D01*
X367879Y393897D01*
X368308Y394325D01*
X368522Y394754D01*
Y395396D01*
X367451D02*
X368522D01*
X369550Y398181D02*
Y393682D01*
X370493Y398181D02*
Y393682D01*
Y398181D02*
X373493Y393682D01*
Y398181D02*
Y393682D01*
X377520Y398181D02*
X374735D01*
Y393682D01*
X377520D01*
X374735Y396039D02*
X376449D01*
X381055Y398181D02*
X378270D01*
Y393682D01*
X381055D01*
X378270Y396039D02*
X379984D01*
X381805Y398181D02*
Y393682D01*
Y398181D02*
X383733D01*
X384376Y397967D01*
X384590Y397753D01*
X384804Y397324D01*
Y396896D01*
X384590Y396467D01*
X384376Y396253D01*
X383733Y396039D01*
X381805D01*
X383305D02*
X384804Y393682D01*
X386026Y396682D02*
X385811Y396467D01*
X386026Y396253D01*
X386240Y396467D01*
X386026Y396682D01*
Y394111D02*
X385811Y393897D01*
X386026Y393682D01*
X386240Y393897D01*
X386026Y394111D01*
X392903Y398181D02*
Y394754D01*
X392688Y394111D01*
X392474Y393897D01*
X392046Y393682D01*
X391617D01*
X391189Y393897D01*
X390974Y394111D01*
X390760Y394754D01*
Y395182D01*
X394274Y394111D02*
X394059Y393897D01*
X394274Y393682D01*
X394488Y393897D01*
X394274Y394111D01*
X399008Y395825D02*
X400937D01*
X401579Y396039D01*
X401794Y396253D01*
X402008Y396682D01*
Y397324D01*
X401794Y397753D01*
X401579Y397967D01*
X400937Y398181D01*
X399008D01*
Y393682D01*
X405800Y398181D02*
X403015D01*
Y393682D01*
X405800D01*
X403015Y396039D02*
X404729D01*
X406550Y398181D02*
Y393682D01*
Y398181D02*
X408478D01*
X409121Y397967D01*
X409335Y397753D01*
X409549Y397324D01*
Y396896D01*
X409335Y396467D01*
X409121Y396253D01*
X408478Y396039D01*
X406550D01*
X408049D02*
X409549Y393682D01*
X413341Y398181D02*
X410556D01*
Y393682D01*
X413341D01*
X410556Y396039D02*
X412270D01*
X417090Y398181D02*
X414091Y393682D01*
Y398181D02*
X417090D01*
X414091Y393682D02*
X417090D01*
X726745Y323110D02*
X726531Y323539D01*
X726102Y323967D01*
X725674Y324181D01*
X724817D01*
X724389Y323967D01*
X723960Y323539D01*
X723746Y323110D01*
X723532Y322467D01*
Y321396D01*
X723746Y320754D01*
X723960Y320325D01*
X724389Y319897D01*
X724817Y319682D01*
X725674D01*
X726102Y319897D01*
X726531Y320325D01*
X726745Y320754D01*
Y321396D01*
X725674D02*
X726745D01*
X730559Y324181D02*
X727774D01*
Y319682D01*
X730559D01*
X727774Y322039D02*
X729488D01*
X731309Y324181D02*
Y319682D01*
Y324181D02*
X733237D01*
X733879Y323967D01*
X734094Y323753D01*
X734308Y323324D01*
Y322896D01*
X734094Y322467D01*
X733879Y322253D01*
X733237Y322039D01*
X731309D01*
X732808D02*
X734308Y319682D01*
X735315Y324181D02*
Y319682D01*
Y324181D02*
X737243D01*
X737886Y323967D01*
X738100Y323753D01*
X738314Y323324D01*
Y322896D01*
X738100Y322467D01*
X737886Y322253D01*
X737243Y322039D01*
X735315D02*
X737243D01*
X737886Y321825D01*
X738100Y321611D01*
X738314Y321182D01*
Y320539D01*
X738100Y320111D01*
X737886Y319897D01*
X737243Y319682D01*
X735315D01*
X742106Y324181D02*
X739321D01*
Y319682D01*
X742106D01*
X739321Y322039D02*
X741035D01*
X742856Y324181D02*
Y319682D01*
Y324181D02*
X744784D01*
X745427Y323967D01*
X745641Y323753D01*
X745856Y323324D01*
Y322896D01*
X745641Y322467D01*
X745427Y322253D01*
X744784Y322039D01*
X742856D01*
X744356D02*
X745856Y319682D01*
X747077Y322682D02*
X746862Y322467D01*
X747077Y322253D01*
X747291Y322467D01*
X747077Y322682D01*
Y320111D02*
X746862Y319897D01*
X747077Y319682D01*
X747291Y319897D01*
X747077Y320111D01*
X357532Y324181D02*
Y319682D01*
Y324181D02*
X360317D01*
X357532Y322039D02*
X359246D01*
X360831Y324181D02*
Y319682D01*
X361774Y324181D02*
Y319682D01*
X364345D01*
X367622Y324181D02*
X364837D01*
Y319682D01*
X367622D01*
X364837Y322039D02*
X366551D01*
X371907Y324181D02*
Y319682D01*
Y324181D02*
X374906Y319682D01*
Y324181D02*
Y319682D01*
X379577D02*
X377863Y324181D01*
X376149Y319682D01*
X376792Y321182D02*
X378934D01*
X380627Y324181D02*
Y319682D01*
Y324181D02*
X382341Y319682D01*
X384055Y324181D02*
X382341Y319682D01*
X384055Y324181D02*
Y319682D01*
X388125Y324181D02*
X385340D01*
Y319682D01*
X388125D01*
X385340Y322039D02*
X387054D01*
X389089Y322682D02*
X388875Y322467D01*
X389089Y322253D01*
X389303Y322467D01*
X389089Y322682D01*
Y320111D02*
X388875Y319897D01*
X389089Y319682D01*
X389303Y319897D01*
X389089Y320111D01*
X447781Y399431D02*
Y394932D01*
X446282Y399431D02*
X449281D01*
X449817D02*
Y394932D01*
X452259Y399431D02*
Y394932D01*
X450759Y399431D02*
X453759D01*
X454294D02*
Y394932D01*
X456865D01*
X460143Y399431D02*
X457358D01*
Y394932D01*
X460143D01*
X457358Y397289D02*
X459072D01*
X461107Y397932D02*
X460893Y397717D01*
X461107Y397503D01*
X461321Y397717D01*
X461107Y397932D01*
Y395361D02*
X460893Y395147D01*
X461107Y394932D01*
X461321Y395147D01*
X461107Y395361D01*
X447532Y349575D02*
X449460D01*
X450103Y349789D01*
X450317Y350003D01*
X450531Y350432D01*
Y351075D01*
X450317Y351503D01*
X450103Y351717D01*
X449460Y351931D01*
X447532D01*
Y347432D01*
X454966D02*
X453252Y351931D01*
X451538Y347432D01*
X452181Y348932D02*
X454323D01*
X456015Y351931D02*
Y347432D01*
Y351931D02*
X457944D01*
X458586Y351717D01*
X458801Y351503D01*
X459015Y351075D01*
Y350646D01*
X458801Y350218D01*
X458586Y350003D01*
X457944Y349789D01*
X456015D01*
X457515D02*
X459015Y347432D01*
X461521Y351931D02*
Y347432D01*
X460022Y351931D02*
X463021D01*
X467092D02*
Y347432D01*
Y351931D02*
X470091Y347432D01*
Y351931D02*
Y347432D01*
X472619Y351931D02*
X472191Y351717D01*
X471762Y351289D01*
X471548Y350860D01*
X471334Y350218D01*
Y349146D01*
X471548Y348504D01*
X471762Y348075D01*
X472191Y347647D01*
X472619Y347432D01*
X473476D01*
X473905Y347647D01*
X474333Y348075D01*
X474547Y348504D01*
X474761Y349146D01*
Y350218D01*
X474547Y350860D01*
X474333Y351289D01*
X473905Y351717D01*
X473476Y351931D01*
X472619D01*
X476026Y347861D02*
X475811Y347647D01*
X476026Y347432D01*
X476240Y347647D01*
X476026Y347861D01*
X477439Y350432D02*
X477225Y350218D01*
X477439Y350003D01*
X477654Y350218D01*
X477439Y350432D01*
Y347861D02*
X477225Y347647D01*
X477439Y347432D01*
X477654Y347647D01*
X477439Y347861D01*
X541532Y324181D02*
Y319682D01*
X544102D01*
X548023D02*
X546309Y324181D01*
X544595Y319682D01*
X545238Y321182D02*
X547380D01*
X549073Y324181D02*
X550787Y322039D01*
Y319682D01*
X552501Y324181D02*
X550787Y322039D01*
X555864Y324181D02*
X553079D01*
Y319682D01*
X555864D01*
X553079Y322039D02*
X554793D01*
X556614Y324181D02*
Y319682D01*
Y324181D02*
X558542D01*
X559185Y323967D01*
X559399Y323753D01*
X559614Y323324D01*
Y322896D01*
X559399Y322467D01*
X559185Y322253D01*
X558542Y322039D01*
X556614D01*
X558114D02*
X559614Y319682D01*
X560835Y322682D02*
X560620Y322467D01*
X560835Y322253D01*
X561049Y322467D01*
X560835Y322682D01*
Y320111D02*
X560620Y319897D01*
X560835Y319682D01*
X561049Y319897D01*
X560835Y320111D01*
X357532Y378325D02*
X359460D01*
X360103Y378539D01*
X360317Y378753D01*
X360531Y379182D01*
Y379824D01*
X360317Y380253D01*
X360103Y380467D01*
X359460Y380681D01*
X357532D01*
Y376182D01*
X361538Y380681D02*
Y376182D01*
X364537Y380681D02*
Y376182D01*
X361538Y378539D02*
X364537D01*
X367065Y380681D02*
X366637Y380467D01*
X366208Y380039D01*
X365994Y379610D01*
X365780Y378967D01*
Y377896D01*
X365994Y377254D01*
X366208Y376825D01*
X366637Y376397D01*
X367065Y376182D01*
X367922D01*
X368351Y376397D01*
X368779Y376825D01*
X368993Y377254D01*
X369208Y377896D01*
Y378967D01*
X368993Y379610D01*
X368779Y380039D01*
X368351Y380467D01*
X367922Y380681D01*
X367065D01*
X370257D02*
Y376182D01*
Y380681D02*
X373257Y376182D01*
Y380681D02*
Y376182D01*
X377285Y380681D02*
X374499D01*
Y376182D01*
X377285D01*
X374499Y378539D02*
X376213D01*
X378249Y379182D02*
X378034Y378967D01*
X378249Y378753D01*
X378463Y378967D01*
X378249Y379182D01*
Y376611D02*
X378034Y376397D01*
X378249Y376182D01*
X378463Y376397D01*
X378249Y376611D01*
X384054Y380681D02*
X383412Y380467D01*
X383197Y380039D01*
Y379610D01*
X383412Y379182D01*
X383840Y378967D01*
X384697Y378753D01*
X385340Y378539D01*
X385768Y378111D01*
X385983Y377682D01*
Y377039D01*
X385768Y376611D01*
X385554Y376397D01*
X384911Y376182D01*
X384054D01*
X383412Y376397D01*
X383197Y376611D01*
X382983Y377039D01*
Y377682D01*
X383197Y378111D01*
X383626Y378539D01*
X384269Y378753D01*
X385126Y378967D01*
X385554Y379182D01*
X385768Y379610D01*
Y380039D01*
X385554Y380467D01*
X384911Y380681D01*
X384054D01*
X388275D02*
X387632Y380467D01*
X387204Y379824D01*
X386990Y378753D01*
Y378111D01*
X387204Y377039D01*
X387632Y376397D01*
X388275Y376182D01*
X388703D01*
X389346Y376397D01*
X389775Y377039D01*
X389989Y378111D01*
Y378753D01*
X389775Y379824D01*
X389346Y380467D01*
X388703Y380681D01*
X388275D01*
X393567D02*
X391424D01*
X391210Y378753D01*
X391424Y378967D01*
X392067Y379182D01*
X392710D01*
X393353Y378967D01*
X393781Y378539D01*
X393995Y377896D01*
Y377468D01*
X393781Y376825D01*
X393353Y376397D01*
X392710Y376182D01*
X392067D01*
X391424Y376397D01*
X391210Y376611D01*
X390996Y377039D01*
X395002Y378111D02*
X398858D01*
X401258Y380681D02*
X400615Y380467D01*
X400401Y380039D01*
Y379610D01*
X400615Y379182D01*
X401044Y378967D01*
X401901Y378753D01*
X402543Y378539D01*
X402972Y378111D01*
X403186Y377682D01*
Y377039D01*
X402972Y376611D01*
X402758Y376397D01*
X402115Y376182D01*
X401258D01*
X400615Y376397D01*
X400401Y376611D01*
X400187Y377039D01*
Y377682D01*
X400401Y378111D01*
X400830Y378539D01*
X401472Y378753D01*
X402329Y378967D01*
X402758Y379182D01*
X402972Y379610D01*
Y380039D01*
X402758Y380467D01*
X402115Y380681D01*
X401258D01*
X405264D02*
X404622Y380467D01*
X404407Y380039D01*
Y379610D01*
X404622Y379182D01*
X405050Y378967D01*
X405907Y378753D01*
X406550Y378539D01*
X406978Y378111D01*
X407192Y377682D01*
Y377039D01*
X406978Y376611D01*
X406764Y376397D01*
X406121Y376182D01*
X405264D01*
X404622Y376397D01*
X404407Y376611D01*
X404193Y377039D01*
Y377682D01*
X404407Y378111D01*
X404836Y378539D01*
X405478Y378753D01*
X406335Y378967D01*
X406764Y379182D01*
X406978Y379610D01*
Y380039D01*
X406764Y380467D01*
X406121Y380681D01*
X405264D01*
X410984Y379182D02*
X410770Y378539D01*
X410342Y378111D01*
X409699Y377896D01*
X409485D01*
X408842Y378111D01*
X408414Y378539D01*
X408199Y379182D01*
Y379396D01*
X408414Y380039D01*
X408842Y380467D01*
X409485Y380681D01*
X409699D01*
X410342Y380467D01*
X410770Y380039D01*
X410984Y379182D01*
Y378111D01*
X410770Y377039D01*
X410342Y376397D01*
X409699Y376182D01*
X409270D01*
X408628Y376397D01*
X408414Y376825D01*
X412206Y378111D02*
X416062D01*
X419533Y380681D02*
X417390Y377682D01*
X420604D01*
X419533Y380681D02*
Y376182D01*
X423967Y380681D02*
X421825D01*
X421611Y378753D01*
X421825Y378967D01*
X422468Y379182D01*
X423110D01*
X423753Y378967D01*
X424182Y378539D01*
X424396Y377896D01*
Y377468D01*
X424182Y376825D01*
X423753Y376397D01*
X423110Y376182D01*
X422468D01*
X421825Y376397D01*
X421611Y376611D01*
X421396Y377039D01*
X425831Y380681D02*
X428188D01*
X426902Y378967D01*
X427545D01*
X427974Y378753D01*
X428188Y378539D01*
X428402Y377896D01*
Y377468D01*
X428188Y376825D01*
X427759Y376397D01*
X427117Y376182D01*
X426474D01*
X425831Y376397D01*
X425617Y376611D01*
X425403Y377039D01*
X429409Y379824D02*
X429838Y380039D01*
X430480Y380681D01*
Y376182D01*
X667532Y351931D02*
Y347432D01*
Y351931D02*
X669031D01*
X669674Y351717D01*
X670103Y351289D01*
X670317Y350860D01*
X670531Y350218D01*
Y349146D01*
X670317Y348504D01*
X670103Y348075D01*
X669674Y347647D01*
X669031Y347432D01*
X667532D01*
X674966D02*
X673252Y351931D01*
X671538Y347432D01*
X672181Y348932D02*
X674323D01*
X677515Y351931D02*
Y347432D01*
X676016Y351931D02*
X679015D01*
X682336D02*
X679551D01*
Y347432D01*
X682336D01*
X679551Y349789D02*
X681264D01*
X683300Y350432D02*
X683085Y350218D01*
X683300Y350003D01*
X683514Y350218D01*
X683300Y350432D01*
Y347861D02*
X683085Y347647D01*
X683300Y347432D01*
X683514Y347647D01*
X683300Y347861D01*
X621282Y351931D02*
Y347432D01*
Y351931D02*
X623210D01*
X623852Y351717D01*
X624067Y351503D01*
X624281Y351075D01*
Y350646D01*
X624067Y350218D01*
X623852Y350003D01*
X623210Y349789D01*
X621282D01*
X622781D02*
X624281Y347432D01*
X628073Y351931D02*
X625288D01*
Y347432D01*
X628073D01*
X625288Y349789D02*
X627002D01*
X628823Y351931D02*
X630537Y347432D01*
X632251Y351931D02*
X630537Y347432D01*
X633043Y350432D02*
X632829Y350218D01*
X633043Y350003D01*
X633258Y350218D01*
X633043Y350432D01*
Y347861D02*
X632829Y347647D01*
X633043Y347432D01*
X633258Y347647D01*
X633043Y347861D01*
D16*
X178902Y284707D02*
X179569Y285373D01*
X180902D01*
X181568Y284707D01*
Y282041D01*
X180902Y281375D01*
X179569D01*
X178902Y282041D01*
Y284707D01*
X182901Y281375D02*
Y282041D01*
X183568D01*
Y281375D01*
X182901D01*
X186233Y284707D02*
X186900Y285373D01*
X188233D01*
X188899Y284707D01*
Y282041D01*
X188233Y281375D01*
X186900D01*
X186233Y282041D01*
Y284707D01*
X190232D02*
X190899Y285373D01*
X192231D01*
X192898Y284707D01*
Y282041D01*
X192231Y281375D01*
X190899D01*
X190232Y282041D01*
Y284707D01*
X194231Y281375D02*
Y284040D01*
X194897D01*
X195564Y283374D01*
Y281375D01*
Y283374D01*
X196230Y284040D01*
X196897Y283374D01*
Y281375D01*
X198230D02*
Y284040D01*
X198896D01*
X199562Y283374D01*
Y281375D01*
Y283374D01*
X200229Y284040D01*
X200895Y283374D01*
Y281375D01*
X207944Y285373D02*
X206611Y284707D01*
X205278Y283374D01*
Y282041D01*
X205945Y281375D01*
X207278D01*
X207944Y282041D01*
Y282707D01*
X207278Y283374D01*
X205278D01*
X209277Y281375D02*
Y282041D01*
X209944D01*
Y281375D01*
X209277D01*
X212609Y285373D02*
X215275D01*
Y284707D01*
X212609Y282041D01*
Y281375D01*
X216608Y284707D02*
X217275Y285373D01*
X218607D01*
X219274Y284707D01*
Y282041D01*
X218607Y281375D01*
X217275D01*
X216608Y282041D01*
Y284707D01*
X220607Y281375D02*
Y284040D01*
X221273D01*
X221940Y283374D01*
Y281375D01*
Y283374D01*
X222606Y284040D01*
X223273Y283374D01*
Y281375D01*
X224606D02*
Y284040D01*
X225272D01*
X225939Y283374D01*
Y281375D01*
Y283374D01*
X226605Y284040D01*
X227271Y283374D01*
Y281375D01*
X155868Y300635D02*
X156535Y301302D01*
X157868D01*
X158534Y300635D01*
Y297969D01*
X157868Y297303D01*
X156535D01*
X155868Y297969D01*
Y300635D01*
X159867Y297303D02*
Y297969D01*
X160534D01*
Y297303D01*
X159867D01*
X163199Y300635D02*
X163866Y301302D01*
X165199D01*
X165865Y300635D01*
Y297969D01*
X165199Y297303D01*
X163866D01*
X163199Y297969D01*
Y300635D01*
X167198D02*
X167865Y301302D01*
X169197D01*
X169864Y300635D01*
Y297969D01*
X169197Y297303D01*
X167865D01*
X167198Y297969D01*
Y300635D01*
X171197Y297303D02*
Y299969D01*
X171863D01*
X172530Y299302D01*
Y297303D01*
Y299302D01*
X173196Y299969D01*
X173863Y299302D01*
Y297303D01*
X175196D02*
Y299969D01*
X175862D01*
X176528Y299302D01*
Y297303D01*
Y299302D01*
X177195Y299969D01*
X177861Y299302D01*
Y297303D01*
X156535Y312840D02*
X157201Y313506D01*
X158534D01*
X159201Y312840D01*
Y312173D01*
X158534Y311507D01*
X157868D01*
X158534D01*
X159201Y310841D01*
Y310174D01*
X158534Y309508D01*
X157201D01*
X156535Y310174D01*
X160534Y309508D02*
Y310174D01*
X161200D01*
Y309508D01*
X160534D01*
X163866D02*
X165199D01*
X164532D01*
Y313506D01*
X163866Y312840D01*
X167198D02*
X167865Y313506D01*
X169197D01*
X169864Y312840D01*
Y310174D01*
X169197Y309508D01*
X167865D01*
X167198Y310174D01*
Y312840D01*
X171197Y309508D02*
Y312173D01*
X171863D01*
X172530Y311507D01*
Y309508D01*
Y311507D01*
X173196Y312173D01*
X173863Y311507D01*
Y309508D01*
X175196D02*
Y312173D01*
X175862D01*
X176528Y311507D01*
Y309508D01*
Y311507D01*
X177195Y312173D01*
X177861Y311507D01*
Y309508D01*
D17*
X212399Y308465D02*
D03*
D18*
X214171Y308169D02*
D03*
X212230Y309744D02*
D03*
Y310925D02*
D03*
X214171Y309350D02*
D03*
D19*
X213974Y310630D02*
D03*
D20*
X198521Y309351D02*
D03*
Y310729D02*
D03*
X197143Y309351D02*
D03*
Y310729D02*
D03*
X211119Y305020D02*
D03*
X211218Y301871D02*
D03*
D21*
X192419Y306989D02*
D03*
Y305020D02*
D03*
X195371Y308564D02*
D03*
Y310532D02*
D03*
X199505Y306497D02*
D03*
Y304528D02*
D03*
D22*
X214071Y301674D02*
D03*
D23*
X213383Y303249D02*
D03*
X214761D02*
D03*
D24*
X193777Y310434D02*
D03*
X192241D02*
D03*
Y308662D02*
D03*
X193777D02*
D03*
D25*
X194190Y306772D02*
D03*
Y305237D02*
D03*
D26*
X197832Y306398D02*
D03*
X195863D02*
D03*
X197635Y302855D02*
D03*
X199603D02*
D03*
X199308Y301083D02*
D03*
X197340D02*
D03*
X213088Y305119D02*
D03*
X215056D02*
D03*
X197832Y304627D02*
D03*
X195863D02*
D03*
D27*
X193698Y301674D02*
D03*
X202359Y305020D02*
D03*
X208560Y309548D02*
D03*
X206789Y302855D02*
D03*
D44*
X205607Y310796D02*
D03*
X202458D02*
D03*
D45*
X205608Y308142D02*
D03*
X202459D02*
D03*
D46*
X210135Y304430D02*
D03*
Y301280D02*
D03*
D47*
X207930Y308444D02*
X208814Y309327D01*
Y309421D01*
X206248Y311221D02*
X207576D01*
X191336Y307186D02*
X192222D01*
X197832Y304710D02*
Y306398D01*
Y306497D02*
X199505D01*
D48*
X206243Y311226D02*
X206248Y311221D01*
X191336Y304922D02*
X192419D01*
X192222Y307186D02*
Y308859D01*
Y306989D02*
Y307186D01*
X195962Y301674D02*
Y304627D01*
X193698Y301674D02*
X195962D01*
X209457Y303906D02*
X210544Y304993D01*
X209874Y301871D02*
X211119D01*
X209672Y301670D02*
X209874Y301871D01*
X200981Y306083D02*
X202359Y305020D01*
X211119D02*
X213088D01*
X210529D02*
X211119D01*
Y301871D02*
X211175D01*
X195962Y300887D02*
X197340D01*
X195962D02*
Y301670D01*
X193797Y308859D02*
Y310532D01*
X195272D01*
X195863Y304627D02*
Y306398D01*
X198521Y310729D02*
X199407D01*
X198521Y309351D02*
X199308D01*
X197733Y302855D02*
Y304430D01*
X199505Y304528D02*
X200489D01*
D49*
X204033Y309482D02*
X204961Y310410D01*
X204033Y309482D02*
X204957Y308559D01*
X203107Y308556D02*
X203918Y309367D01*
X203068Y310448D02*
X203951Y309565D01*
X203918Y309367D02*
X204033Y309482D01*
X203951Y309565D02*
X204033Y309482D01*
X202426Y305341D02*
X202503Y305300D01*
X202737Y305181D01*
X203048Y305020D01*
X193860Y307151D02*
Y308354D01*
D50*
X191336Y310591D02*
X192123D01*
D51*
X195371Y308367D02*
X198226D01*
X205411Y302855D02*
X206789D01*
X204629Y302073D02*
X205411Y302855D01*
X204623Y302068D02*
X204629Y302073D01*
X204623Y300887D02*
Y302068D01*
X201080Y302146D02*
X202064D01*
X206316Y306398D01*
X211513Y309646D02*
X212244D01*
X199308Y300887D02*
X202064D01*
X206592Y305414D02*
X207812D01*
X211021Y308623D01*
X202064Y300887D02*
X206592Y305414D01*
X210233Y308957D02*
Y309942D01*
X211021Y308623D02*
Y309154D01*
X212244Y309646D02*
X212262Y309665D01*
X207674Y306398D02*
X210233Y308957D01*
X211119Y310828D02*
X212104D01*
X206316Y306398D02*
X207674D01*
X214993Y305148D02*
X215159D01*
X212891Y307284D02*
Y308465D01*
X203028Y305000D02*
X203062Y304966D01*
X214868Y305273D02*
Y305415D01*
Y305213D02*
Y305273D01*
X214993Y305148D01*
X212891Y307284D02*
X214859Y305316D01*
X213344Y303288D02*
X213383Y303249D01*
X213291Y303341D02*
X213344Y303288D01*
X214466Y310532D02*
X215548D01*
X214072Y301674D02*
X215647D01*
X216237Y302264D01*
X199369Y300747D02*
X199405Y300711D01*
X200981Y306083D02*
X200993Y306072D01*
X193566Y308648D02*
X193860Y308354D01*
X193566Y308648D02*
Y308804D01*
X196848Y307579D02*
X199210Y307579D01*
X200391Y308760D02*
Y309843D01*
X199505Y310729D02*
X200391Y309843D01*
X198226Y308367D02*
X198521Y308662D01*
Y309351D01*
X199210Y307579D02*
X200391Y308760D01*
X199308Y300910D02*
Y300986D01*
X195962Y306694D02*
X196848Y307579D01*
X214822Y305415D02*
X214868D01*
X214269Y310657D02*
X214485Y310441D01*
X216237Y302264D02*
Y309843D01*
X215548Y310532D02*
X216237Y309843D01*
X214229Y309328D02*
X214253Y309351D01*
X210233Y309942D02*
X211119Y310828D01*
X211021Y309154D02*
X211513Y309646D01*
D52*
X194092Y305119D02*
X194190D01*
X192419D02*
X194092D01*
D53*
X199407Y301083D02*
Y302855D01*
X214071Y300788D02*
Y301669D01*
X214253Y309351D02*
X215155D01*
X214269Y308170D02*
X214859Y306989D01*
X197143Y309351D02*
Y310729D01*
X195476Y310729D02*
X197143D01*
D54*
X213344Y303288D02*
Y305119D01*
Y303249D02*
Y303288D01*
X214800Y303446D02*
Y305020D01*
D55*
X204623Y300887D02*
D03*
X200489Y304528D02*
D03*
X200981Y306083D02*
D03*
X207930Y308444D02*
D03*
X199505Y310729D02*
D03*
X214072Y300788D02*
D03*
X193797Y303839D02*
D03*
X195962Y300887D02*
D03*
X191336Y304823D02*
D03*
Y310631D02*
D03*
Y301379D02*
D03*
X203836Y309449D02*
D03*
X207576Y311221D02*
D03*
X215155Y309351D02*
D03*
X214859Y306989D02*
D03*
X199308Y309351D02*
D03*
X191336Y307186D02*
D03*
X201080Y302146D02*
D03*
M02*
