G04*
G04 #@! TF.GenerationSoftware,Altium Limited,Altium Designer,18.1.7 (191)*
G04*
G04 Layer_Physical_Order=4*
G04 Layer_Color=16711680*
%FSLAX25Y25*%
%MOIN*%
G70*
G01*
G75*
%ADD10C,0.01000*%
%ADD11C,0.02500*%
%ADD12C,0.00201*%
%ADD13C,0.00900*%
%ADD14C,0.02953*%
%ADD15C,0.00500*%
%ADD16C,0.00600*%
%ADD20C,0.00787*%
%ADD25R,0.01181X0.00945*%
%ADD26R,0.00984X0.01181*%
%ADD47C,0.00984*%
%ADD48C,0.00787*%
%ADD49C,0.00492*%
%ADD51C,0.00394*%
%ADD52C,0.00689*%
%ADD53C,0.00591*%
%ADD55C,0.00984*%
%ADD56C,0.00906*%
%ADD57R,0.01968X0.01575*%
%ADD58C,0.00689*%
%ADD59C,0.01063*%
%ADD60R,0.01181X0.01181*%
%ADD61R,0.00945X0.01181*%
G36*
X193808Y310150D02*
X193801Y310204D01*
X193777Y310252D01*
X193738Y310295D01*
X193683Y310332D01*
X193612Y310363D01*
X193525Y310388D01*
X193423Y310408D01*
X193323Y310420D01*
X193025Y310403D01*
X192970Y310391D01*
X192930Y310378D01*
X192906Y310364D01*
X192899Y310347D01*
Y311268D01*
X192906Y311259D01*
X192930Y311251D01*
X192970Y311244D01*
X193025Y311238D01*
X193253Y311227D01*
X193683Y311252D01*
X193738Y311263D01*
X193777Y311276D01*
X193801Y311291D01*
X193808Y311308D01*
Y310150D01*
D02*
G37*
G36*
X196712Y310158D02*
X196678Y310146D01*
X196649Y310126D01*
X196623Y310098D01*
X196601Y310061D01*
X196584Y310016D01*
X196570Y309964D01*
X196560Y309903D01*
X196554Y309834D01*
X196552Y309757D01*
X196159D01*
X196157Y309834D01*
X196151Y309903D01*
X196141Y309964D01*
X196127Y310016D01*
X196109Y310061D01*
X196088Y310098D01*
X196062Y310126D01*
X196033Y310146D01*
X195999Y310158D01*
X195962Y310162D01*
X196749D01*
X196712Y310158D01*
D02*
G37*
G36*
X196554Y309389D02*
X196560Y309330D01*
X196570Y309272D01*
X196584Y309216D01*
X196601Y309162D01*
X196623Y309110D01*
X196649Y309060D01*
X196678Y309011D01*
X196712Y308965D01*
X196749Y308921D01*
X196561Y308921D01*
X196564Y308772D01*
X196147D01*
X196149Y308781D01*
X196151Y308800D01*
X196154Y308874D01*
X196155Y308921D01*
X196028Y308921D01*
Y308145D01*
X195992Y308169D01*
X195949Y308190D01*
X195898Y308208D01*
X195840Y308224D01*
X195773Y308238D01*
X195699Y308249D01*
X195583Y308259D01*
X195438Y308249D01*
X195363Y308238D01*
X195297Y308224D01*
X195238Y308208D01*
X195187Y308190D01*
X195144Y308169D01*
X195108Y308145D01*
Y308982D01*
X195144Y308959D01*
X195187Y308938D01*
X195238Y308919D01*
X195297Y308903D01*
X195363Y308890D01*
X195438Y308879D01*
X195553Y308869D01*
X195699Y308879D01*
X195773Y308890D01*
X195840Y308903D01*
X195898Y308919D01*
X195949Y308938D01*
X195992Y308959D01*
X195995Y308961D01*
X195999Y308965D01*
X196033Y309011D01*
X196062Y309060D01*
X196088Y309110D01*
X196109Y309162D01*
X196127Y309216D01*
X196141Y309272D01*
X196151Y309330D01*
X196157Y309389D01*
X196159Y309451D01*
X196552Y309451D01*
X196554Y309389D01*
D02*
G37*
G36*
X201988Y308085D02*
X201944Y308116D01*
X201898Y308144D01*
X201850Y308168D01*
X201800Y308190D01*
X201748Y308208D01*
X201694Y308222D01*
X201639Y308234D01*
X201581Y308242D01*
X201522Y308247D01*
X201460Y308249D01*
X201460Y308642D01*
X201522Y308644D01*
X201581Y308649D01*
X201639Y308657D01*
X201694Y308669D01*
X201748Y308683D01*
X201800Y308701D01*
X201850Y308723D01*
X201898Y308747D01*
X201944Y308775D01*
X201988Y308806D01*
X201988Y308085D01*
D02*
G37*
G36*
X192616Y308812D02*
X192899D01*
X192845Y308804D01*
X192797Y308780D01*
X192754Y308741D01*
X192717Y308686D01*
X192686Y308615D01*
X192661Y308528D01*
X192642Y308430D01*
X192646Y308362D01*
X192658Y308315D01*
X192671Y308282D01*
X192685Y308262D01*
X192702Y308255D01*
X192623D01*
X192618Y308174D01*
X192615Y308024D01*
X191828D01*
X191827Y308174D01*
X191822Y308255D01*
X191555D01*
X191607Y308262D01*
X191653Y308282D01*
X191694Y308315D01*
X191729Y308362D01*
X191760Y308422D01*
X191784Y308495D01*
X191803Y308581D01*
X191797Y308686D01*
X191786Y308741D01*
X191773Y308780D01*
X191758Y308804D01*
X191742Y308812D01*
X191825D01*
X191828Y308922D01*
X192615D01*
X192616Y308812D01*
D02*
G37*
G36*
X192699Y307800D02*
X192723Y307733D01*
X192763Y307674D01*
X192820Y307623D01*
X192892Y307579D01*
X192980Y307544D01*
X193083Y307516D01*
X193203Y307497D01*
X193338Y307485D01*
X193489Y307481D01*
Y306694D01*
X192702Y306704D01*
X192690Y307875D01*
X192699Y307800D01*
D02*
G37*
G36*
X195255Y307419D02*
X195195Y306610D01*
X195171Y306626D01*
X195134Y306640D01*
X195082Y306653D01*
X195017Y306664D01*
X194846Y306680D01*
X194620Y306690D01*
X194339Y306694D01*
X194580Y307481D01*
X195255Y307419D01*
D02*
G37*
G36*
X201617Y307285D02*
X201676Y307272D01*
X201733Y307262D01*
X201789Y307256D01*
X201845Y307254D01*
X201900Y307255D01*
X201954Y307260D01*
X202007Y307269D01*
X202060Y307281D01*
X202111Y307298D01*
X201891Y306610D01*
X201859Y306653D01*
X201823Y306694D01*
X201785Y306732D01*
X201744Y306768D01*
X201700Y306801D01*
X201654Y306831D01*
X201604Y306859D01*
X201552Y306884D01*
X201497Y306907D01*
X201439Y306927D01*
X201558Y307302D01*
X201617Y307285D01*
D02*
G37*
G36*
X197544Y307345D02*
X197591Y307312D01*
X197639Y307282D01*
X197689Y307257D01*
X197741Y307235D01*
X197795Y307217D01*
X197851Y307203D01*
X197909Y307193D01*
X197969Y307188D01*
X198030Y307186D01*
Y306792D01*
X197969Y306790D01*
X197909Y306784D01*
X197851Y306774D01*
X197795Y306761D01*
X197741Y306743D01*
X197689Y306721D01*
X197639Y306696D01*
X197591Y306666D01*
X197544Y306632D01*
X197500Y306595D01*
Y307382D01*
X197544Y307345D01*
D02*
G37*
G36*
Y305770D02*
X197591Y305737D01*
X197639Y305707D01*
X197689Y305682D01*
X197741Y305660D01*
X197795Y305642D01*
X197851Y305629D01*
X197909Y305619D01*
X197969Y305613D01*
X198030Y305611D01*
Y305217D01*
X197969Y305215D01*
X197909Y305209D01*
X197851Y305199D01*
X197795Y305186D01*
X197741Y305168D01*
X197689Y305146D01*
X197639Y305121D01*
X197591Y305091D01*
X197544Y305058D01*
X197500Y305020D01*
Y305808D01*
X197544Y305770D01*
D02*
G37*
G36*
X195224Y305009D02*
X195213Y305011D01*
X195187Y305013D01*
X194826Y305019D01*
X194424Y305020D01*
Y305808D01*
X195224Y305819D01*
Y305009D01*
D02*
G37*
G36*
X201249Y304589D02*
X201201Y304567D01*
X201117Y304522D01*
X201081Y304499D01*
X201049Y304475D01*
X201021Y304452D01*
X200997Y304427D01*
X200977Y304402D01*
X200961Y304377D01*
X200949Y304352D01*
X200675Y304984D01*
X200702Y304975D01*
X200731Y304970D01*
X200763Y304967D01*
X200797Y304968D01*
X200833Y304972D01*
X200872Y304979D01*
X200914Y304990D01*
X200958Y305004D01*
X201054Y305041D01*
X201249Y304589D01*
D02*
G37*
G36*
X202148Y304858D02*
X202111Y304865D01*
X202069Y304867D01*
X202022Y304865D01*
X201970Y304858D01*
X201913Y304847D01*
X201852Y304831D01*
X201715Y304786D01*
X201559Y304724D01*
X201364Y305175D01*
X201443Y305211D01*
X201643Y305315D01*
X201696Y305349D01*
X201743Y305383D01*
X201783Y305416D01*
X201817Y305449D01*
X201844Y305481D01*
X201864Y305513D01*
X202148Y304858D01*
D02*
G37*
G36*
X192717Y303934D02*
X192739Y303682D01*
X192759Y303579D01*
X192785Y303493D01*
X192816Y303422D01*
X192853Y303367D01*
X192895Y303327D01*
X192943Y303304D01*
X192997Y303296D01*
X192712D01*
X192714Y303052D01*
X191926D01*
X191923Y303186D01*
X191915Y303296D01*
X191840D01*
X191856Y303304D01*
X191871Y303327D01*
X191884Y303367D01*
X191895Y303422D01*
X191896Y303426D01*
X191877Y303506D01*
X191850Y303584D01*
X191816Y303648D01*
X191776Y303698D01*
X191730Y303734D01*
X191678Y303756D01*
X191620Y303764D01*
X191920Y303760D01*
X191926Y304083D01*
X192714D01*
X192717Y303934D01*
D02*
G37*
G36*
X198301Y304228D02*
X198352Y304198D01*
X198407Y304172D01*
X198466Y304149D01*
X198529Y304129D01*
X198594Y304114D01*
X198617Y304110D01*
X198619Y304110D01*
X198654Y304121D01*
X198686Y304134D01*
X198714Y304148D01*
X198739Y304165D01*
X198760Y304184D01*
Y304091D01*
X198893Y304085D01*
Y303593D01*
X198813Y303591D01*
X198760Y303586D01*
Y303495D01*
X198739Y303513D01*
X198714Y303530D01*
X198686Y303545D01*
X198654Y303558D01*
X198619Y303569D01*
X198617Y303569D01*
X198594Y303565D01*
X198529Y303549D01*
X198466Y303530D01*
X198407Y303507D01*
X198352Y303480D01*
X198301Y303450D01*
X198252Y303416D01*
Y304262D01*
X198301Y304228D01*
D02*
G37*
G36*
X194460Y303415D02*
X194446Y303421D01*
X194421Y303426D01*
X194384Y303431D01*
X194274Y303438D01*
X193797Y303446D01*
Y304233D01*
X194460Y304263D01*
Y303415D01*
D02*
G37*
G36*
X201988Y303360D02*
X201944Y303391D01*
X201898Y303419D01*
X201850Y303444D01*
X201800Y303465D01*
X201748Y303483D01*
X201694Y303498D01*
X201639Y303509D01*
X201581Y303518D01*
X201522Y303523D01*
X201460Y303524D01*
X201460Y303918D01*
X201522Y303920D01*
X201581Y303924D01*
X201639Y303933D01*
X201694Y303944D01*
X201748Y303959D01*
X201800Y303977D01*
X201850Y303998D01*
X201898Y304023D01*
X201944Y304051D01*
X201988Y304082D01*
X201988Y303360D01*
D02*
G37*
G36*
X196745Y303469D02*
X196715Y303417D01*
X196688Y303362D01*
X196665Y303303D01*
X196646Y303241D01*
X196630Y303175D01*
X196617Y303106D01*
X196616Y303097D01*
X196617Y303091D01*
X196626Y303052D01*
X196637Y303017D01*
X196650Y302985D01*
X196665Y302957D01*
X196681Y302932D01*
X196700Y302911D01*
X196603D01*
X196602Y302876D01*
X196109D01*
X196109Y302911D01*
X196011D01*
X196030Y302932D01*
X196046Y302957D01*
X196061Y302985D01*
X196074Y303017D01*
X196085Y303052D01*
X196094Y303091D01*
X196095Y303096D01*
X196093Y303106D01*
X196081Y303175D01*
X196065Y303241D01*
X196046Y303303D01*
X196023Y303362D01*
X195996Y303417D01*
X195966Y303469D01*
X195933Y303517D01*
X196778D01*
X196745Y303469D01*
D02*
G37*
G36*
X201983Y301789D02*
X201952Y301810D01*
X201914Y301829D01*
X201870Y301846D01*
X201820Y301860D01*
X201764Y301872D01*
X201701Y301883D01*
X201636Y301889D01*
X201611Y301885D01*
X201572Y301876D01*
X201537Y301865D01*
X201505Y301852D01*
X201477Y301837D01*
X201452Y301820D01*
X201431Y301802D01*
Y301899D01*
X201390Y301900D01*
Y302392D01*
X201431Y302393D01*
Y302491D01*
X201452Y302472D01*
X201477Y302455D01*
X201505Y302441D01*
X201537Y302428D01*
X201572Y302417D01*
X201611Y302408D01*
X201631Y302405D01*
X201701Y302410D01*
X201764Y302420D01*
X201820Y302432D01*
X201870Y302447D01*
X201914Y302463D01*
X201952Y302482D01*
X201983Y302503D01*
Y301789D01*
D02*
G37*
G36*
X198394Y301938D02*
X198302Y301844D01*
X198161Y301681D01*
X198111Y301613D01*
X198075Y301553D01*
X198053Y301501D01*
X198045Y301459D01*
X198051Y301424D01*
X198070Y301398D01*
X198103Y301381D01*
X197283Y301650D01*
X197324Y301641D01*
X197369Y301640D01*
X197417Y301648D01*
X197468Y301665D01*
X197522Y301690D01*
X197580Y301723D01*
X197640Y301764D01*
X197703Y301815D01*
X197770Y301873D01*
X197839Y301940D01*
X198394Y301938D01*
D02*
G37*
G36*
X201075Y301654D02*
X201060Y301652D01*
X201042Y301646D01*
X201021Y301636D01*
X200998Y301622D01*
X200972Y301604D01*
X200912Y301555D01*
X200841Y301489D01*
X200801Y301450D01*
X200384Y301868D01*
X200423Y301907D01*
X200537Y302039D01*
X200555Y302065D01*
X200570Y302088D01*
X200580Y302108D01*
X200586Y302126D01*
X200588Y302141D01*
X201075Y301654D01*
D02*
G37*
G36*
X191840Y300874D02*
X191835Y300905D01*
X191820Y300932D01*
X191795Y300956D01*
X191759Y300977D01*
X191714Y300994D01*
X191658Y301009D01*
X191593Y301020D01*
X191517Y301028D01*
X191336Y301034D01*
Y301723D01*
X191432Y301724D01*
X191820Y301747D01*
X191835Y301753D01*
X191840Y301760D01*
Y300874D01*
D02*
G37*
G36*
X197155Y300505D02*
X197147Y300502D01*
X197124Y300500D01*
X196958Y300496D01*
X196368Y300493D01*
Y301280D01*
X196517Y301284D01*
X196651Y301295D01*
X196769Y301314D01*
X196871Y301341D01*
X196958Y301376D01*
X197029Y301418D01*
X197084Y301467D01*
X197124Y301524D01*
X197147Y301589D01*
X197155Y301662D01*
Y300505D01*
D02*
G37*
G36*
X207576Y310729D02*
X207476Y310728D01*
X207241Y310708D01*
X207183Y310696D01*
X207136Y310682D01*
X207099Y310665D01*
X207073Y310646D01*
X207057Y310624D01*
X207052Y310599D01*
Y311504D01*
X207057Y311507D01*
X207073Y311509D01*
X207099Y311510D01*
X207476Y311516D01*
X207576Y311516D01*
Y310729D01*
D02*
G37*
G36*
X204143Y310347D02*
X204135Y310345D01*
X204112Y310343D01*
X203946Y310338D01*
X203356Y310335D01*
Y311123D01*
X203505Y311126D01*
X203639Y311138D01*
X203757Y311157D01*
X203860Y311184D01*
X203946Y311218D01*
X204017Y311260D01*
X204072Y311310D01*
X204112Y311367D01*
X204135Y311432D01*
X204143Y311504D01*
Y310347D01*
D02*
G37*
G36*
X207007Y310611D02*
X206988Y310585D01*
X206982Y310551D01*
X206990Y310508D01*
X207012Y310456D01*
X207048Y310397D01*
X207098Y310328D01*
X207162Y310251D01*
X207330Y310072D01*
X206776Y310069D01*
X206707Y310136D01*
X206577Y310245D01*
X206517Y310286D01*
X206459Y310320D01*
X206405Y310344D01*
X206354Y310361D01*
X206306Y310369D01*
X206261Y310368D01*
X206220Y310359D01*
X207040Y310629D01*
X207007Y310611D01*
D02*
G37*
G36*
X205087Y311026D02*
X205082Y310986D01*
X205088Y310940D01*
X205105Y310888D01*
X205135Y310829D01*
X205175Y310765D01*
X205227Y310694D01*
X205290Y310617D01*
X205451Y310446D01*
X205202Y309999D01*
X205105Y310093D01*
X204935Y310242D01*
X204862Y310296D01*
X204797Y310338D01*
X204739Y310366D01*
X204690Y310381D01*
X204648Y310383D01*
X204614Y310372D01*
X204587Y310347D01*
X205103Y311060D01*
X205087Y311026D01*
D02*
G37*
G36*
X207383Y308809D02*
X207428Y308784D01*
X207477Y308762D01*
X207521Y308747D01*
X207533Y308753D01*
X207558Y308770D01*
X207579Y308789D01*
Y308729D01*
X207587Y308727D01*
X207648Y308714D01*
X207713Y308703D01*
X207854Y308692D01*
X207930Y308690D01*
Y308198D01*
X207854Y308197D01*
X207713Y308185D01*
X207648Y308174D01*
X207587Y308161D01*
X207579Y308159D01*
Y308100D01*
X207558Y308118D01*
X207533Y308135D01*
X207521Y308142D01*
X207477Y308126D01*
X207428Y308104D01*
X207383Y308079D01*
X207343Y308051D01*
Y308131D01*
X207333Y308128D01*
X207296Y308109D01*
X207264Y308088D01*
X207264Y308196D01*
X207209Y308198D01*
Y308690D01*
X207262Y308691D01*
X207265Y308692D01*
X207265Y308802D01*
X207297Y308781D01*
X207335Y308762D01*
X207343Y308759D01*
Y308837D01*
X207383Y308809D01*
D02*
G37*
G36*
X205658Y309231D02*
X205675Y309007D01*
X205684Y308944D01*
X205697Y308888D01*
X205711Y308838D01*
X205728Y308794D01*
X205747Y308756D01*
X205768Y308724D01*
X205054Y308724D01*
X205075Y308755D01*
X205094Y308793D01*
X205111Y308837D01*
X205125Y308887D01*
X205137Y308943D01*
X205147Y309005D01*
X205160Y309149D01*
X205165Y309317D01*
X205657Y309318D01*
X205658Y309231D01*
D02*
G37*
G36*
X204034Y309186D02*
X204039Y309127D01*
X204043Y309098D01*
X204180D01*
X204152Y309068D01*
X204127Y309036D01*
X204105Y309002D01*
X204086Y308965D01*
X204078Y308947D01*
X204092Y308908D01*
X204113Y308858D01*
X204138Y308810D01*
X204166Y308764D01*
X204197Y308719D01*
X204033Y308719D01*
X204033Y308703D01*
X203639D01*
X203639Y308719D01*
X203475Y308719D01*
X203507Y308763D01*
X203534Y308809D01*
X203559Y308857D01*
X203580Y308907D01*
X203594Y308946D01*
X203586Y308965D01*
X203567Y309002D01*
X203544Y309036D01*
X203519Y309068D01*
X203491Y309098D01*
X203628D01*
X203632Y309126D01*
X203637Y309185D01*
X203639Y309246D01*
X204033Y309247D01*
X204034Y309186D01*
D02*
G37*
G36*
X207296Y307207D02*
X207334Y307188D01*
X207378Y307171D01*
X207428Y307157D01*
X207484Y307144D01*
X207546Y307135D01*
X207576Y307141D01*
X207611Y307152D01*
X207643Y307165D01*
X207671Y307180D01*
X207696Y307196D01*
X207717Y307215D01*
Y307120D01*
X207858Y307117D01*
Y306625D01*
X207771Y306624D01*
X207717Y306620D01*
Y306526D01*
X207696Y306545D01*
X207671Y306562D01*
X207643Y306576D01*
X207611Y306589D01*
X207576Y306600D01*
X207546Y306607D01*
X207484Y306597D01*
X207428Y306585D01*
X207378Y306570D01*
X207334Y306554D01*
X207296Y306535D01*
X207265Y306514D01*
Y307228D01*
X207296Y307207D01*
D02*
G37*
G36*
X207304Y305626D02*
X207350Y305598D01*
X207398Y305573D01*
X207448Y305552D01*
X207500Y305534D01*
X207554Y305519D01*
X207609Y305507D01*
X207667Y305499D01*
X207726Y305494D01*
X207788Y305493D01*
Y305099D01*
X207726Y305097D01*
X207667Y305093D01*
X207609Y305084D01*
X207554Y305073D01*
X207500Y305058D01*
X207448Y305040D01*
X207398Y305019D01*
X207350Y304994D01*
X207304Y304966D01*
X207260Y304935D01*
Y305657D01*
X207304Y305626D01*
D02*
G37*
G36*
Y304051D02*
X207350Y304023D01*
X207398Y303998D01*
X207448Y303977D01*
X207500Y303959D01*
X207554Y303944D01*
X207609Y303933D01*
X207667Y303924D01*
X207726Y303920D01*
X207788Y303918D01*
X207788Y303524D01*
X207726Y303523D01*
X207667Y303518D01*
X207609Y303509D01*
X207554Y303498D01*
X207500Y303483D01*
X207448Y303465D01*
X207398Y303444D01*
X207350Y303419D01*
X207304Y303391D01*
X207260Y303360D01*
X207260Y304082D01*
X207304Y304051D01*
D02*
G37*
G36*
X205859Y302051D02*
X205860Y301997D01*
X205865Y301944D01*
X205873Y301890D01*
X205885Y301837D01*
X205901Y301783D01*
X205921Y301730D01*
X205944Y301677D01*
X205972Y301624D01*
X205986Y301599D01*
X205997Y301583D01*
X206026Y301546D01*
X206055Y301512D01*
X206087Y301481D01*
X206120Y301453D01*
X206154Y301430D01*
X206189Y301409D01*
X206226Y301392D01*
X206264Y301378D01*
X206304Y301367D01*
X205720Y301002D01*
X205728Y301042D01*
X205732Y301083D01*
X205732Y301124D01*
X205730Y301165D01*
X205723Y301206D01*
X205713Y301247D01*
X205699Y301289D01*
X205682Y301331D01*
X205661Y301373D01*
X205651Y301390D01*
X205635Y301413D01*
X205599Y301461D01*
X205562Y301506D01*
X205523Y301547D01*
X205482Y301585D01*
X205439Y301619D01*
X205394Y301650D01*
X205348Y301678D01*
X205300Y301702D01*
X205250Y301723D01*
X205862Y302105D01*
X205859Y302051D01*
D02*
G37*
G36*
X215143Y305599D02*
X214269Y305587D01*
X214325Y305594D01*
X214375Y305612D01*
X214420Y305643D01*
X214458Y305685D01*
X214490Y305740D01*
X214517Y305806D01*
X214538Y305884D01*
X214552Y305974D01*
X214561Y306076D01*
X214564Y306189D01*
X215155D01*
X215143Y305599D01*
D02*
G37*
G36*
X212696Y305916D02*
X212702Y305848D01*
X212712Y305787D01*
X212726Y305735D01*
X212743Y305690D01*
X212765Y305654D01*
X212790Y305625D01*
X212820Y305604D01*
X212854Y305592D01*
X212891Y305587D01*
X212214Y305599D01*
X212230Y305603D01*
X212245Y305615D01*
X212258Y305634D01*
X212269Y305662D01*
X212279Y305697D01*
X212287Y305741D01*
X212293Y305792D01*
X212299Y305918D01*
X212300Y305993D01*
X212694D01*
X212696Y305916D01*
D02*
G37*
G36*
X212214Y304442D02*
X212206Y304477D01*
X212182Y304508D01*
X212143Y304536D01*
X212088Y304560D01*
X212017Y304580D01*
X211931Y304597D01*
X211828Y304610D01*
X211576Y304625D01*
X211427Y304627D01*
Y305414D01*
X211576Y305416D01*
X211931Y305444D01*
X212017Y305460D01*
X212088Y305481D01*
X212143Y305505D01*
X212182Y305532D01*
X212206Y305564D01*
X212214Y305599D01*
Y304442D01*
D02*
G37*
G36*
X215057Y304465D02*
X215058Y304442D01*
X215143D01*
X215126Y304434D01*
X215112Y304410D01*
X215099Y304371D01*
X215087Y304316D01*
X215078Y304245D01*
X215074Y304187D01*
X215087Y303953D01*
X215099Y303898D01*
X215112Y303859D01*
X215126Y303835D01*
X215143Y303827D01*
X215060D01*
X215056Y303654D01*
X214269D01*
X214268Y303804D01*
X214267Y303827D01*
X214182D01*
X214199Y303835D01*
X214213Y303859D01*
X214227Y303898D01*
X214238Y303953D01*
X214247Y304024D01*
X214251Y304083D01*
X214238Y304316D01*
X214227Y304371D01*
X214213Y304410D01*
X214199Y304434D01*
X214182Y304442D01*
X214265D01*
X214269Y304615D01*
X215056D01*
X215057Y304465D01*
D02*
G37*
G36*
X212908Y302960D02*
X213174Y303266D01*
X213154Y303234D01*
X213144Y303196D01*
X213145Y303153D01*
X213157Y303105D01*
X213179Y303052D01*
X213212Y302994D01*
X213256Y302931D01*
X213311Y302862D01*
X213376Y302788D01*
X213453Y302709D01*
X213213Y302392D01*
X213131Y302471D01*
X212984Y302596D01*
X212919Y302641D01*
X212860Y302675D01*
X212808Y302697D01*
X212767Y302706D01*
X212731Y302691D01*
X212614Y302623D01*
X212483Y302531D01*
X212340Y302415D01*
X212017Y302113D01*
X211657Y302867D01*
X211763Y302977D01*
X211941Y303187D01*
X212014Y303288D01*
X212075Y303385D01*
X212125Y303480D01*
X212164Y303571D01*
X212192Y303660D01*
X212208Y303745D01*
X212214Y303827D01*
X212908Y302960D01*
D02*
G37*
G36*
X213720Y300444D02*
X213690Y300472D01*
X213658Y300497D01*
X213624Y300519D01*
X213587Y300539D01*
X213549Y300555D01*
X213509Y300568D01*
X213466Y300579D01*
X213421Y300586D01*
X213374Y300590D01*
X213325Y300592D01*
X213326Y300986D01*
X213375Y300987D01*
X213422Y300992D01*
X213467Y300999D01*
X213509Y301009D01*
X213550Y301023D01*
X213588Y301039D01*
X213625Y301058D01*
X213659Y301080D01*
X213691Y301105D01*
X213721Y301133D01*
X213720Y300444D01*
D02*
G37*
G36*
X210725Y306313D02*
X210724Y306384D01*
X210706Y306613D01*
X210698Y306657D01*
X210688Y306695D01*
X210677Y306728D01*
X210664Y306756D01*
X210650Y306778D01*
X211194Y306777D01*
X211180Y306755D01*
X211167Y306728D01*
X211156Y306695D01*
X211146Y306656D01*
X211138Y306612D01*
X211126Y306509D01*
X211122Y306449D01*
X211119Y306312D01*
X210725Y306313D01*
D02*
G37*
G36*
X212300Y306312D02*
X212300Y306384D01*
X212282Y306613D01*
X212274Y306657D01*
X212264Y306695D01*
X212253Y306727D01*
X212241Y306754D01*
X212227Y306776D01*
X212768D01*
X212754Y306754D01*
X212741Y306727D01*
X212730Y306695D01*
X212721Y306657D01*
X212713Y306613D01*
X212701Y306509D01*
X212695Y306384D01*
X212694Y306312D01*
X212300D01*
D02*
G37*
G36*
X209402Y308787D02*
X209453Y308738D01*
X209628Y308588D01*
X209664Y308563D01*
X209698Y308543D01*
X209729Y308527D01*
X209757Y308517D01*
X209782Y308512D01*
X209399Y308129D01*
X209394Y308155D01*
X209384Y308182D01*
X209368Y308213D01*
X209348Y308247D01*
X209323Y308283D01*
X209258Y308365D01*
X209174Y308458D01*
X209124Y308509D01*
X209402Y308787D01*
D02*
G37*
G36*
X209643Y310631D02*
X209588Y310630D01*
X209414Y310618D01*
X209383Y310613D01*
X209356Y310606D01*
X209334Y310599D01*
X209317Y310591D01*
X209305Y310581D01*
Y311270D01*
X209317Y311261D01*
X209334Y311253D01*
X209356Y311245D01*
X209383Y311239D01*
X209414Y311233D01*
X209491Y311226D01*
X209588Y311222D01*
X209643Y311221D01*
Y310631D01*
D02*
G37*
G36*
X213886Y308448D02*
X213907Y308441D01*
X213935Y308436D01*
X213969Y308431D01*
X214057Y308423D01*
X214238Y308418D01*
X214312Y308418D01*
X214384Y308024D01*
X214316Y308023D01*
X214193Y308014D01*
X214138Y308006D01*
X214089Y307997D01*
X214043Y307984D01*
X214003Y307970D01*
X213967Y307954D01*
X213936Y307935D01*
X213910Y307915D01*
X213872Y308455D01*
X213886Y308448D01*
D02*
G37*
G36*
X214508Y306644D02*
X214487Y306663D01*
X214462Y306680D01*
X214434Y306695D01*
X214403Y306707D01*
X214367Y306718D01*
X214329Y306727D01*
X214286Y306734D01*
X214254Y306737D01*
X213900Y306725D01*
Y307253D01*
X213909Y307249D01*
X213927Y307246D01*
X213955Y307244D01*
X214094Y307238D01*
X214202Y307237D01*
X214286Y307244D01*
X214329Y307251D01*
X214367Y307259D01*
X214403Y307270D01*
X214434Y307283D01*
X214462Y307298D01*
X214487Y307315D01*
X214508Y307333D01*
Y306644D01*
D02*
G37*
G36*
X215195Y306625D02*
X215186Y306608D01*
X215179Y306587D01*
X215172Y306560D01*
X215167Y306529D01*
X215159Y306452D01*
X215155Y306355D01*
X215155Y306300D01*
X214564D01*
X214564Y306355D01*
X214552Y306529D01*
X214546Y306560D01*
X214540Y306587D01*
X214533Y306608D01*
X214524Y306625D01*
X214515Y306637D01*
X215204D01*
X215195Y306625D01*
D02*
G37*
D10*
X544476Y238554D02*
Y232555D01*
X547475D01*
X548475Y233555D01*
Y234555D01*
X547475Y235555D01*
X544476D01*
X547475D01*
X548475Y236554D01*
Y237554D01*
X547475Y238554D01*
X544476D01*
X551474Y232555D02*
X553473D01*
X554473Y233555D01*
Y235555D01*
X553473Y236554D01*
X551474D01*
X550474Y235555D01*
Y233555D01*
X551474Y232555D01*
X557472Y237554D02*
Y236554D01*
X556472D01*
X558472D01*
X557472D01*
Y233555D01*
X558472Y232555D01*
X562470Y237554D02*
Y236554D01*
X561471D01*
X563470D01*
X562470D01*
Y233555D01*
X563470Y232555D01*
X567469D02*
X569468D01*
X570468Y233555D01*
Y235555D01*
X569468Y236554D01*
X567469D01*
X566469Y235555D01*
Y233555D01*
X567469Y232555D01*
X572467D02*
Y236554D01*
X573467D01*
X574466Y235555D01*
Y232555D01*
Y235555D01*
X575466Y236554D01*
X576466Y235555D01*
Y232555D01*
X584463Y238554D02*
Y232555D01*
X588462D01*
X591461Y236554D02*
X593460D01*
X594460Y235555D01*
Y232555D01*
X591461D01*
X590461Y233555D01*
X591461Y234555D01*
X594460D01*
X596459Y236554D02*
Y233555D01*
X597459Y232555D01*
X600458D01*
Y231556D01*
X599458Y230556D01*
X598459D01*
X600458Y232555D02*
Y236554D01*
X605456Y232555D02*
X603457D01*
X602457Y233555D01*
Y235555D01*
X603457Y236554D01*
X605456D01*
X606456Y235555D01*
Y234555D01*
X602457D01*
X608455Y236554D02*
Y232555D01*
Y234555D01*
X609455Y235555D01*
X610455Y236554D01*
X611454D01*
X644444Y237554D02*
X648443Y233555D01*
X644444D02*
X648443Y237554D01*
X644444Y235555D02*
X648443D01*
X646443Y233555D02*
Y237554D01*
X650442Y232555D02*
Y233555D01*
X651441D01*
Y232555D01*
X650442D01*
X659439Y237554D02*
X658439Y238554D01*
X656440D01*
X655440Y237554D01*
Y233555D01*
X656440Y232555D01*
X658439D01*
X659439Y233555D01*
Y235555D01*
X657440D01*
X661438Y238554D02*
Y232555D01*
X664437D01*
X665437Y233555D01*
Y234555D01*
X664437Y235555D01*
X661438D01*
X664437D01*
X665437Y236554D01*
Y237554D01*
X664437Y238554D01*
X661438D01*
X667436D02*
Y232555D01*
X671435D01*
X787532Y423682D02*
G03*
X777532Y433682I-10000J0D01*
G01*
Y168921D02*
G03*
X787532Y178921I0J10000D01*
G01*
X347532Y179022D02*
G03*
X357455Y168923I10100J0D01*
G01*
X357532Y433682D02*
G03*
X347532Y423682I0J-10000D01*
G01*
X357532Y168922D02*
X777532D01*
X357532Y433682D02*
X777532D01*
X787532Y178236D02*
Y423682D01*
X347532Y178727D02*
Y423682D01*
D11*
X530032Y323682D02*
G03*
X525032Y328682I-5000J0D01*
G01*
X525148Y173921D02*
G03*
X530030Y178889I84J4800D01*
G01*
X540032Y328682D02*
G03*
X535032Y323682I0J-5000D01*
G01*
Y178921D02*
G03*
X539944Y173922I5000J0D01*
G01*
X712532Y323682D02*
G03*
X707532Y328682I-5000J0D01*
G01*
X707648Y173921D02*
G03*
X712530Y178889I84J4800D01*
G01*
X717532Y178822D02*
G03*
X722517Y173922I4900J0D01*
G01*
X722532Y328682D02*
G03*
X717532Y323682I0J-5000D01*
G01*
X437532Y398782D02*
G03*
X432632Y403682I-4900J0D01*
G01*
X432732Y371182D02*
G03*
X437532Y375982I0J4800D01*
G01*
Y361282D02*
G03*
X432461Y366179I-4900J0D01*
G01*
X442532Y366082D02*
G03*
X447432Y361182I4900J0D01*
G01*
X442532Y338582D02*
G03*
X447432Y333682I4900J0D01*
G01*
X432632D02*
G03*
X437532Y338582I0J4900D01*
G01*
X612532Y351282D02*
G03*
X607632Y356182I-4900J0D01*
G01*
Y333682D02*
G03*
X612531Y338668I0J4900D01*
G01*
X617532Y338782D02*
G03*
X622543Y333683I5100J0D01*
G01*
X622332Y356182D02*
G03*
X617538Y351131I0J-4800D01*
G01*
X447532Y356182D02*
G03*
X442532Y351182I0J-5000D01*
G01*
X447532Y403682D02*
G03*
X442532Y398682I0J-5000D01*
G01*
X352532Y338682D02*
G03*
X357444Y333683I5000J0D01*
G01*
X357532Y366182D02*
G03*
X352532Y361182I0J-5000D01*
G01*
Y376182D02*
G03*
X357532Y371182I5000J0D01*
G01*
Y403682D02*
G03*
X352532Y398682I0J-5000D01*
G01*
Y413682D02*
G03*
X357532Y408682I5000J0D01*
G01*
Y428682D02*
G03*
X352532Y423682I0J-5000D01*
G01*
X612532D02*
G03*
X607532Y428682I-5000J0D01*
G01*
X622532D02*
G03*
X617532Y423682I0J-5000D01*
G01*
X607532Y408682D02*
G03*
X612532Y413682I0J5000D01*
G01*
Y398682D02*
G03*
X607532Y403682I-5000J0D01*
G01*
X357532Y328682D02*
G03*
X352532Y323682I0J-5000D01*
G01*
X607619Y361182D02*
G03*
X612533Y366182I-87J5000D01*
G01*
X352532Y178921D02*
G03*
X357444Y173922I5000J0D01*
G01*
X657532Y351282D02*
G03*
X652632Y356182I-4900J0D01*
G01*
X652532Y333682D02*
G03*
X657532Y338682I0J5000D01*
G01*
X777532Y173922D02*
G03*
X782532Y178921I0J5000D01*
G01*
X782532Y323770D02*
G03*
X777532Y328683I-5000J-87D01*
G01*
Y333682D02*
G03*
X782532Y338682I0J5000D01*
G01*
Y423782D02*
G03*
X777461Y428679I-4900J0D01*
G01*
X617532Y366182D02*
G03*
X622532Y361182I5000J0D01*
G01*
X777532D02*
G03*
X782532Y366182I0J5000D01*
G01*
X667532Y356182D02*
G03*
X662532Y351182I0J-5000D01*
G01*
X782532Y351282D02*
G03*
X777632Y356182I-4900J0D01*
G01*
X662532Y338582D02*
G03*
X667517Y333683I4900J0D01*
G01*
X540032Y173922D02*
X707532D01*
X357532D02*
X525032D01*
X357532Y328682D02*
X525032D01*
X540032D02*
X707532D01*
X722532Y173922D02*
X777532D01*
X722532Y328682D02*
X777532D01*
X357532Y428682D02*
X607532D01*
X357532Y333682D02*
X432532D01*
X357532Y366182D02*
X432532D01*
X357532Y371182D02*
X432532D01*
X357532Y403682D02*
X432532D01*
X357532Y408682D02*
X607532D01*
X447532Y403682D02*
X607532D01*
X447532Y356182D02*
X607532D01*
X447532Y333682D02*
X607532D01*
X622532D02*
X652532D01*
X622532Y356182D02*
X652532D01*
X667532Y333682D02*
X777532D01*
X622532Y428682D02*
X777532D01*
X447532Y361182D02*
X607619D01*
X622532D02*
X777532D01*
X667532Y356182D02*
X777532D01*
X530029Y178972D02*
X530032Y323682D01*
X535032Y178236D02*
Y323682D01*
X712529Y178236D02*
X712532Y323682D01*
X717532Y177990D02*
Y323682D01*
X352532Y338682D02*
Y361182D01*
X437532Y338682D02*
Y361182D01*
X352532Y376182D02*
Y398682D01*
X437532Y376182D02*
Y398682D01*
X352532Y413682D02*
Y423682D01*
X612532Y413682D02*
Y423682D01*
Y366182D02*
Y398682D01*
X442532Y366182D02*
Y398682D01*
X612532Y338682D02*
Y351182D01*
X442532Y338682D02*
Y351182D01*
X617532Y338682D02*
Y351182D01*
X657532Y338682D02*
Y351182D01*
X782532Y177745D02*
Y323682D01*
Y338682D02*
Y351282D01*
X352395Y178727D02*
X352532Y323682D01*
X617532Y366182D02*
Y423682D01*
X782532Y366182D02*
Y423682D01*
X662532Y338682D02*
Y351182D01*
D12*
X190499Y287573D02*
Y298923D01*
X216875Y287573D02*
Y298924D01*
X180061Y299902D02*
X190926D01*
X180061Y312107D02*
X190926D01*
D13*
X627735Y408701D02*
X625355Y405368D01*
X628925D01*
X627735Y408701D02*
Y403702D01*
X633139Y408701D02*
X630758Y403702D01*
X629806Y408701D02*
X633139D01*
X637114Y407986D02*
X636876Y408463D01*
X636162Y408701D01*
X635686D01*
X634972Y408463D01*
X634495Y407748D01*
X634257Y406558D01*
Y405368D01*
X634495Y404416D01*
X634972Y403940D01*
X635686Y403702D01*
X635924D01*
X636638Y403940D01*
X637114Y404416D01*
X637352Y405130D01*
Y405368D01*
X637114Y406082D01*
X636638Y406558D01*
X635924Y406796D01*
X635686D01*
X634972Y406558D01*
X634495Y406082D01*
X634257Y405368D01*
X641304Y408701D02*
X638923D01*
X638685Y406558D01*
X638923Y406796D01*
X639637Y407034D01*
X640351D01*
X641066Y406796D01*
X641542Y406320D01*
X641780Y405606D01*
Y405130D01*
X641542Y404416D01*
X641066Y403940D01*
X640351Y403702D01*
X639637D01*
X638923Y403940D01*
X638685Y404178D01*
X638447Y404654D01*
X650397Y407510D02*
X650159Y407986D01*
X649683Y408463D01*
X649207Y408701D01*
X648254D01*
X647778Y408463D01*
X647302Y407986D01*
X647064Y407510D01*
X646826Y406796D01*
Y405606D01*
X647064Y404892D01*
X647302Y404416D01*
X647778Y403940D01*
X648254Y403702D01*
X649207D01*
X649683Y403940D01*
X650159Y404416D01*
X650397Y404892D01*
X655610Y403702D02*
X653706Y408701D01*
X651801Y403702D01*
X652515Y405368D02*
X654896D01*
X656776Y408701D02*
Y403702D01*
X659633D01*
X660181Y408701D02*
Y403702D01*
X663037D01*
X666679Y408701D02*
X663585D01*
Y403702D01*
X666679D01*
X663585Y406320D02*
X665489D01*
X672868Y408701D02*
X672392Y408463D01*
X671916Y407986D01*
X671678Y407510D01*
X671440Y406796D01*
Y405606D01*
X671678Y404892D01*
X671916Y404416D01*
X672392Y403940D01*
X672868Y403702D01*
X673820D01*
X674297Y403940D01*
X674773Y404416D01*
X675011Y404892D01*
X675249Y405606D01*
Y406796D01*
X675011Y407510D01*
X674773Y407986D01*
X674297Y408463D01*
X673820Y408701D01*
X672868D01*
X673582Y404654D02*
X675011Y403226D01*
X676415Y408701D02*
Y405130D01*
X676653Y404416D01*
X677129Y403940D01*
X677843Y403702D01*
X678319D01*
X679034Y403940D01*
X679510Y404416D01*
X679748Y405130D01*
Y408701D01*
X684223D02*
X681128D01*
Y403702D01*
X684223D01*
X681128Y406320D02*
X683033D01*
X686722Y408701D02*
Y403702D01*
X685056Y408701D02*
X688389D01*
X692316D02*
X688984Y403702D01*
Y408701D02*
X692316D01*
X688984Y403702D02*
X692316D01*
X697244D02*
X695340Y408701D01*
X693435Y403702D01*
X694149Y405368D02*
X696530D01*
X698410Y408701D02*
Y403702D01*
X701267D01*
X628294Y398876D02*
X628056Y399352D01*
X627580Y399828D01*
X627104Y400066D01*
X626152D01*
X625676Y399828D01*
X625200Y399352D01*
X624962Y398876D01*
X624724Y398161D01*
Y396971D01*
X624962Y396257D01*
X625200Y395781D01*
X625676Y395305D01*
X626152Y395067D01*
X627104D01*
X627580Y395305D01*
X628056Y395781D01*
X628294Y396257D01*
X633508Y395067D02*
X631603Y400066D01*
X629699Y395067D01*
X630413Y396733D02*
X632794D01*
X634674Y400066D02*
Y395067D01*
Y400066D02*
X636578Y395067D01*
X638483Y400066D02*
X636578Y395067D01*
X638483Y400066D02*
Y395067D01*
X643720D02*
X641815Y400066D01*
X639911Y395067D01*
X640625Y396733D02*
X643006D01*
X644886Y400066D02*
Y395067D01*
Y400066D02*
X647028D01*
X647743Y399828D01*
X647981Y399590D01*
X648219Y399114D01*
Y398638D01*
X647981Y398161D01*
X647743Y397923D01*
X647028Y397685D01*
X644886D01*
X646552D02*
X648219Y395067D01*
X649338Y400066D02*
Y395067D01*
X650385Y400066D02*
Y395067D01*
X653241D01*
X653789Y400066D02*
Y395067D01*
X656645D01*
X658621Y400066D02*
X658145Y399828D01*
X657669Y399352D01*
X657431Y398876D01*
X657193Y398161D01*
Y396971D01*
X657431Y396257D01*
X657669Y395781D01*
X658145Y395305D01*
X658621Y395067D01*
X659573D01*
X660049Y395305D01*
X660526Y395781D01*
X660764Y396257D01*
X661002Y396971D01*
Y398161D01*
X660764Y398876D01*
X660526Y399352D01*
X660049Y399828D01*
X659573Y400066D01*
X658621D01*
X662644Y395305D02*
X662406Y395067D01*
X662168Y395305D01*
X662406Y395543D01*
X662644Y395305D01*
Y394829D01*
X662406Y394353D01*
X662168Y394115D01*
X671238Y398876D02*
X671000Y399352D01*
X670524Y399828D01*
X670047Y400066D01*
X669095D01*
X668619Y399828D01*
X668143Y399352D01*
X667905Y398876D01*
X667667Y398161D01*
Y396971D01*
X667905Y396257D01*
X668143Y395781D01*
X668619Y395305D01*
X669095Y395067D01*
X670047D01*
X670524Y395305D01*
X671000Y395781D01*
X671238Y396257D01*
X676451Y395067D02*
X674546Y400066D01*
X672642Y395067D01*
X673356Y396733D02*
X675737D01*
X684640Y398399D02*
X684401Y397685D01*
X683925Y397209D01*
X683211Y396971D01*
X682973D01*
X682259Y397209D01*
X681783Y397685D01*
X681545Y398399D01*
Y398638D01*
X681783Y399352D01*
X682259Y399828D01*
X682973Y400066D01*
X683211D01*
X683925Y399828D01*
X684401Y399352D01*
X684640Y398399D01*
Y397209D01*
X684401Y396019D01*
X683925Y395305D01*
X683211Y395067D01*
X682735D01*
X682021Y395305D01*
X681783Y395781D01*
X686472Y400066D02*
X689091D01*
X687663Y398161D01*
X688377D01*
X688853Y397923D01*
X689091Y397685D01*
X689329Y396971D01*
Y396495D01*
X689091Y395781D01*
X688615Y395305D01*
X687901Y395067D01*
X687187D01*
X686472Y395305D01*
X686234Y395543D01*
X685996Y396019D01*
X691876Y400066D02*
X691162Y399828D01*
X690686Y399114D01*
X690448Y397923D01*
Y397209D01*
X690686Y396019D01*
X691162Y395305D01*
X691876Y395067D01*
X692352D01*
X693066Y395305D01*
X693542Y396019D01*
X693780Y397209D01*
Y397923D01*
X693542Y399114D01*
X693066Y399828D01*
X692352Y400066D01*
X691876D01*
X694899Y399114D02*
X695375Y399352D01*
X696089Y400066D01*
Y395067D01*
X698803Y398876D02*
Y399114D01*
X699041Y399590D01*
X699279Y399828D01*
X699755Y400066D01*
X700707D01*
X701184Y399828D01*
X701422Y399590D01*
X701660Y399114D01*
Y398638D01*
X701422Y398161D01*
X700946Y397447D01*
X698565Y395067D01*
X701898D01*
X365032Y417967D02*
X368888D01*
X370173Y418396D01*
X370602Y418824D01*
X371030Y419681D01*
Y420966D01*
X370602Y421824D01*
X370173Y422252D01*
X368888Y422680D01*
X365032D01*
Y413682D01*
X373044Y422680D02*
Y413682D01*
Y422680D02*
X376901D01*
X378186Y422252D01*
X378614Y421824D01*
X379043Y420966D01*
Y420110D01*
X378614Y419253D01*
X378186Y418824D01*
X376901Y418396D01*
X373044D01*
X376044D02*
X379043Y413682D01*
X383628Y422680D02*
X382771Y422252D01*
X381914Y421395D01*
X381485Y420538D01*
X381057Y419253D01*
Y417110D01*
X381485Y415825D01*
X381914Y414968D01*
X382771Y414111D01*
X383628Y413682D01*
X385342D01*
X386198Y414111D01*
X387055Y414968D01*
X387484Y415825D01*
X387912Y417110D01*
Y419253D01*
X387484Y420538D01*
X387055Y421395D01*
X386198Y422252D01*
X385342Y422680D01*
X383628D01*
X394297D02*
Y415825D01*
X393868Y414539D01*
X393440Y414111D01*
X392583Y413682D01*
X391726D01*
X390869Y414111D01*
X390441Y414539D01*
X390012Y415825D01*
Y416682D01*
X402181Y422680D02*
X396611D01*
Y413682D01*
X402181D01*
X396611Y418396D02*
X400038D01*
X410108Y420538D02*
X409679Y421395D01*
X408822Y422252D01*
X407965Y422680D01*
X406251D01*
X405394Y422252D01*
X404537Y421395D01*
X404109Y420538D01*
X403681Y419253D01*
Y417110D01*
X404109Y415825D01*
X404537Y414968D01*
X405394Y414111D01*
X406251Y413682D01*
X407965D01*
X408822Y414111D01*
X409679Y414968D01*
X410108Y415825D01*
X415635Y422680D02*
Y413682D01*
X412636Y422680D02*
X418634D01*
X420134Y419681D02*
X419706Y419253D01*
X420134Y418824D01*
X420563Y419253D01*
X420134Y419681D01*
Y414539D02*
X419706Y414111D01*
X420134Y413682D01*
X420563Y414111D01*
X420134Y414539D01*
X435602Y422680D02*
X429603Y413682D01*
Y422680D02*
X435602D01*
X429603Y413682D02*
X435602D01*
X437616Y417967D02*
X441472D01*
X442758Y418396D01*
X443186Y418824D01*
X443615Y419681D01*
Y420966D01*
X443186Y421824D01*
X442758Y422252D01*
X441472Y422680D01*
X437616D01*
Y413682D01*
X445629Y422680D02*
X447771Y413682D01*
X449913Y422680D02*
X447771Y413682D01*
X449913Y422680D02*
X452056Y413682D01*
X454198Y422680D02*
X452056Y413682D01*
X463496Y420538D02*
Y420966D01*
X463925Y421824D01*
X464353Y422252D01*
X465210Y422680D01*
X466924D01*
X467781Y422252D01*
X468210Y421824D01*
X468638Y420966D01*
Y420110D01*
X468210Y419253D01*
X467352Y417967D01*
X463068Y413682D01*
X469066D01*
X473651Y422680D02*
X472366Y422252D01*
X471509Y420966D01*
X471080Y418824D01*
Y417539D01*
X471509Y415396D01*
X472366Y414111D01*
X473651Y413682D01*
X474508D01*
X475794Y414111D01*
X476650Y415396D01*
X477079Y417539D01*
Y418824D01*
X476650Y420966D01*
X475794Y422252D01*
X474508Y422680D01*
X473651D01*
X483378D02*
X479093Y416682D01*
X485520D01*
X483378Y422680D02*
Y413682D01*
X623824Y388273D02*
X625014Y383274D01*
X626204Y388273D02*
X625014Y383274D01*
X626204Y388273D02*
X627394Y383274D01*
X628585Y388273D02*
X627394Y383274D01*
X629585Y388273D02*
X630775Y383274D01*
X631965Y388273D02*
X630775Y383274D01*
X631965Y388273D02*
X633155Y383274D01*
X634345Y388273D02*
X633155Y383274D01*
X635345Y388273D02*
X636535Y383274D01*
X637726Y388273D02*
X636535Y383274D01*
X637726Y388273D02*
X638916Y383274D01*
X640106Y388273D02*
X638916Y383274D01*
X641344Y383750D02*
X641106Y383512D01*
X641344Y383274D01*
X641582Y383512D01*
X641344Y383750D01*
X646009Y388273D02*
X642677Y383274D01*
Y388273D02*
X646009D01*
X642677Y383274D02*
X646009D01*
X647128Y385654D02*
X649271D01*
X649985Y385892D01*
X650223Y386130D01*
X650461Y386606D01*
Y387320D01*
X650223Y387797D01*
X649985Y388035D01*
X649271Y388273D01*
X647128D01*
Y383274D01*
X653008Y388273D02*
X652532Y388035D01*
X652056Y387559D01*
X651818Y387082D01*
X651580Y386368D01*
Y385178D01*
X651818Y384464D01*
X652056Y383988D01*
X652532Y383512D01*
X653008Y383274D01*
X653960D01*
X654436Y383512D01*
X654912Y383988D01*
X655150Y384464D01*
X655388Y385178D01*
Y386368D01*
X655150Y387082D01*
X654912Y387559D01*
X654436Y388035D01*
X653960Y388273D01*
X653008D01*
X656555D02*
X657745Y383274D01*
X658935Y388273D02*
X657745Y383274D01*
X658935Y388273D02*
X660125Y383274D01*
X661316Y388273D02*
X660125Y383274D01*
X665410Y388273D02*
X662316D01*
Y383274D01*
X665410D01*
X662316Y385892D02*
X664220D01*
X666243Y388273D02*
Y383274D01*
Y388273D02*
X668386D01*
X669100Y388035D01*
X669338Y387797D01*
X669576Y387320D01*
Y386844D01*
X669338Y386368D01*
X669100Y386130D01*
X668386Y385892D01*
X666243D01*
X667910D02*
X669576Y383274D01*
X670695Y388273D02*
Y383274D01*
Y388273D02*
X672837D01*
X673551Y388035D01*
X673789Y387797D01*
X674027Y387320D01*
Y386844D01*
X673789Y386368D01*
X673551Y386130D01*
X672837Y385892D01*
X670695D02*
X672837D01*
X673551Y385654D01*
X673789Y385416D01*
X674027Y384940D01*
Y384226D01*
X673789Y383750D01*
X673551Y383512D01*
X672837Y383274D01*
X670695D01*
X678955D02*
X677050Y388273D01*
X675146Y383274D01*
X675860Y384940D02*
X678241D01*
X681788Y388273D02*
Y383274D01*
X680121Y388273D02*
X683454D01*
X685715D02*
Y383274D01*
X684049Y388273D02*
X687382D01*
X691071D02*
X687977D01*
Y383274D01*
X691071D01*
X687977Y385892D02*
X689881D01*
X691904Y388273D02*
Y383274D01*
Y388273D02*
X694047D01*
X694761Y388035D01*
X694999Y387797D01*
X695237Y387320D01*
Y386844D01*
X694999Y386368D01*
X694761Y386130D01*
X694047Y385892D01*
X691904D01*
X693571D02*
X695237Y383274D01*
X696356Y388273D02*
X698260Y385892D01*
Y383274D01*
X700165Y388273D02*
X698260Y385892D01*
X701045Y383750D02*
X700807Y383512D01*
X701045Y383274D01*
X701283Y383512D01*
X701045Y383750D01*
X705949Y387082D02*
X705711Y387559D01*
X705235Y388035D01*
X704759Y388273D01*
X703807D01*
X703331Y388035D01*
X702854Y387559D01*
X702616Y387082D01*
X702378Y386368D01*
Y385178D01*
X702616Y384464D01*
X702854Y383988D01*
X703331Y383512D01*
X703807Y383274D01*
X704759D01*
X705235Y383512D01*
X705711Y383988D01*
X705949Y384464D01*
X708782Y388273D02*
X708306Y388035D01*
X707830Y387559D01*
X707592Y387082D01*
X707353Y386368D01*
Y385178D01*
X707592Y384464D01*
X707830Y383988D01*
X708306Y383512D01*
X708782Y383274D01*
X709734D01*
X710210Y383512D01*
X710686Y383988D01*
X710924Y384464D01*
X711162Y385178D01*
Y386368D01*
X710924Y387082D01*
X710686Y387559D01*
X710210Y388035D01*
X709734Y388273D01*
X708782D01*
X712329D02*
Y383274D01*
Y388273D02*
X714233Y383274D01*
X716137Y388273D02*
X714233Y383274D01*
X716137Y388273D02*
Y383274D01*
X474980Y342441D02*
X474699Y341597D01*
X474136Y341035D01*
X473293Y340754D01*
X473012D01*
X472168Y341035D01*
X471606Y341597D01*
X471325Y342441D01*
Y342722D01*
X471606Y343565D01*
X472168Y344128D01*
X473012Y344409D01*
X473293D01*
X474136Y344128D01*
X474699Y343565D01*
X474980Y342441D01*
Y341035D01*
X474699Y339629D01*
X474136Y338786D01*
X473293Y338505D01*
X472731D01*
X471887Y338786D01*
X471606Y339348D01*
X476583Y341035D02*
X481643D01*
X483387Y343284D02*
X483949Y343565D01*
X484792Y344409D01*
Y338505D01*
X489403Y344409D02*
X488560Y344128D01*
X487997Y343284D01*
X487716Y341879D01*
Y341035D01*
X487997Y339629D01*
X488560Y338786D01*
X489403Y338505D01*
X489965D01*
X490809Y338786D01*
X491371Y339629D01*
X491652Y341035D01*
Y341879D01*
X491371Y343284D01*
X490809Y344128D01*
X489965Y344409D01*
X489403D01*
X492974Y341035D02*
X498035D01*
X501465Y344409D02*
X500621Y344128D01*
X500059Y343284D01*
X499778Y341879D01*
Y341035D01*
X500059Y339629D01*
X500621Y338786D01*
X501465Y338505D01*
X502027D01*
X502871Y338786D01*
X503433Y339629D01*
X503714Y341035D01*
Y341879D01*
X503433Y343284D01*
X502871Y344128D01*
X502027Y344409D01*
X501465D01*
X506722D02*
X505879Y344128D01*
X505317Y343284D01*
X505035Y341879D01*
Y341035D01*
X505317Y339629D01*
X505879Y338786D01*
X506722Y338505D01*
X507285D01*
X508128Y338786D01*
X508690Y339629D01*
X508972Y341035D01*
Y341879D01*
X508690Y343284D01*
X508128Y344128D01*
X507285Y344409D01*
X506722D01*
X510574Y343003D02*
Y343284D01*
X510855Y343847D01*
X511136Y344128D01*
X511699Y344409D01*
X512823D01*
X513386Y344128D01*
X513667Y343847D01*
X513948Y343284D01*
Y342722D01*
X513667Y342160D01*
X513105Y341316D01*
X510293Y338505D01*
X514229D01*
X517238Y344409D02*
X516394Y344128D01*
X515832Y343284D01*
X515551Y341879D01*
Y341035D01*
X515832Y339629D01*
X516394Y338786D01*
X517238Y338505D01*
X517800D01*
X518643Y338786D01*
X519206Y339629D01*
X519487Y341035D01*
Y341879D01*
X519206Y343284D01*
X518643Y344128D01*
X517800Y344409D01*
X517238D01*
X521371D02*
X524463D01*
X522776Y342160D01*
X523620D01*
X524182Y341879D01*
X524463Y341597D01*
X524744Y340754D01*
Y340192D01*
X524463Y339348D01*
X523901Y338786D01*
X523057Y338505D01*
X522214D01*
X521371Y338786D01*
X521089Y339067D01*
X520808Y339629D01*
X526066Y341035D02*
X531127D01*
X533432Y344409D02*
X536525D01*
X534838Y342160D01*
X535681D01*
X536244Y341879D01*
X536525Y341597D01*
X536806Y340754D01*
Y340192D01*
X536525Y339348D01*
X535962Y338786D01*
X535119Y338505D01*
X534275D01*
X533432Y338786D01*
X533151Y339067D01*
X532870Y339629D01*
X538127Y336537D02*
X542626D01*
X543385Y344409D02*
Y338505D01*
Y344409D02*
X545915D01*
X546759Y344128D01*
X547040Y343847D01*
X547321Y343284D01*
Y342722D01*
X547040Y342160D01*
X546759Y341879D01*
X545915Y341597D01*
X543385D01*
X545353D02*
X547321Y338505D01*
X552297Y344409D02*
X548642D01*
Y338505D01*
X552297D01*
X548642Y341597D02*
X550892D01*
X553281Y344409D02*
X555531Y338505D01*
X557780Y344409D02*
X555531Y338505D01*
X560226Y344409D02*
X559383Y344128D01*
X558820Y343284D01*
X558539Y341879D01*
Y341035D01*
X558820Y339629D01*
X559383Y338786D01*
X560226Y338505D01*
X560788D01*
X561632Y338786D01*
X562194Y339629D01*
X562475Y341035D01*
Y341879D01*
X562194Y343284D01*
X561632Y344128D01*
X560788Y344409D01*
X560226D01*
X564078Y343003D02*
Y343284D01*
X564359Y343847D01*
X564640Y344128D01*
X565203Y344409D01*
X566327D01*
X566889Y344128D01*
X567171Y343847D01*
X567452Y343284D01*
Y342722D01*
X567171Y342160D01*
X566608Y341316D01*
X563797Y338505D01*
X567733D01*
X569054Y336537D02*
X573553D01*
X575999Y344409D02*
X575155Y344128D01*
X574593Y343284D01*
X574312Y341879D01*
Y341035D01*
X574593Y339629D01*
X575155Y338786D01*
X575999Y338505D01*
X576561D01*
X577405Y338786D01*
X577967Y339629D01*
X578248Y341035D01*
Y341879D01*
X577967Y343284D01*
X577405Y344128D01*
X576561Y344409D01*
X575999D01*
X582943Y343565D02*
X582662Y344128D01*
X581819Y344409D01*
X581256D01*
X580413Y344128D01*
X579851Y343284D01*
X579569Y341879D01*
Y340473D01*
X579851Y339348D01*
X580413Y338786D01*
X581256Y338505D01*
X581538D01*
X582381Y338786D01*
X582943Y339348D01*
X583224Y340192D01*
Y340473D01*
X582943Y341316D01*
X582381Y341879D01*
X581538Y342160D01*
X581256D01*
X580413Y341879D01*
X579851Y341316D01*
X579569Y340473D01*
X584799Y343003D02*
Y343284D01*
X585080Y343847D01*
X585361Y344128D01*
X585924Y344409D01*
X587048D01*
X587610Y344128D01*
X587892Y343847D01*
X588173Y343284D01*
Y342722D01*
X587892Y342160D01*
X587329Y341316D01*
X584518Y338505D01*
X588454D01*
X591462Y344409D02*
X590619Y344128D01*
X590057Y343284D01*
X589775Y341879D01*
Y341035D01*
X590057Y339629D01*
X590619Y338786D01*
X591462Y338505D01*
X592025D01*
X592868Y338786D01*
X593430Y339629D01*
X593712Y341035D01*
Y341879D01*
X593430Y343284D01*
X592868Y344128D01*
X592025Y344409D01*
X591462D01*
X595033Y343284D02*
X595595Y343565D01*
X596439Y344409D01*
Y338505D01*
X600769Y344409D02*
X599925Y344128D01*
X599644Y343565D01*
Y343003D01*
X599925Y342441D01*
X600487Y342160D01*
X601612Y341879D01*
X602456Y341597D01*
X603018Y341035D01*
X603299Y340473D01*
Y339629D01*
X603018Y339067D01*
X602737Y338786D01*
X601893Y338505D01*
X600769D01*
X599925Y338786D01*
X599644Y339067D01*
X599363Y339629D01*
Y340473D01*
X599644Y341035D01*
X600206Y341597D01*
X601050Y341879D01*
X602174Y342160D01*
X602737Y342441D01*
X603018Y343003D01*
Y343565D01*
X602737Y344128D01*
X601893Y344409D01*
X600769D01*
X449639Y387342D02*
X453495D01*
X454780Y387771D01*
X455209Y388199D01*
X455638Y389056D01*
Y390341D01*
X455209Y391198D01*
X454780Y391627D01*
X453495Y392055D01*
X449639D01*
Y383057D01*
X457651Y392055D02*
X459794Y383057D01*
X461936Y392055D02*
X459794Y383057D01*
X461936Y392055D02*
X464079Y383057D01*
X466221Y392055D02*
X464079Y383057D01*
X468020Y392055D02*
Y383057D01*
Y392055D02*
X471877D01*
X473162Y391627D01*
X473591Y391198D01*
X474019Y390341D01*
Y389484D01*
X473591Y388627D01*
X473162Y388199D01*
X471877Y387771D01*
X468020D02*
X471877D01*
X473162Y387342D01*
X473591Y386913D01*
X474019Y386057D01*
Y384771D01*
X473591Y383914D01*
X473162Y383486D01*
X471877Y383057D01*
X468020D01*
X476890Y383486D02*
X476462Y383057D01*
X476033Y383486D01*
X476462Y383914D01*
X476890Y383486D01*
Y382629D01*
X476462Y381772D01*
X476033Y381343D01*
X490216Y392055D02*
X485931Y386057D01*
X492358D01*
X490216Y392055D02*
Y383057D01*
X501014Y392055D02*
Y383057D01*
X506155D01*
X513996D02*
X510569Y392055D01*
X507141Y383057D01*
X508426Y386057D02*
X512711D01*
X516096Y392055D02*
X519524Y387771D01*
Y383057D01*
X522952Y392055D02*
X519524Y387771D01*
X529679Y392055D02*
X524109D01*
Y383057D01*
X529679D01*
X524109Y387771D02*
X527536D01*
X531178Y392055D02*
Y383057D01*
Y392055D02*
X535035D01*
X536320Y391627D01*
X536749Y391198D01*
X537177Y390341D01*
Y389484D01*
X536749Y388627D01*
X536320Y388199D01*
X535035Y387771D01*
X531178D01*
X534178D02*
X537177Y383057D01*
X546261Y392055D02*
Y383057D01*
Y392055D02*
X551831D01*
X546261Y387771D02*
X549689D01*
X552859Y392055D02*
Y383057D01*
X558001D01*
X564557Y392055D02*
X558987D01*
Y383057D01*
X564557D01*
X558987Y387771D02*
X562415D01*
X566057Y392055D02*
X572055Y383057D01*
Y392055D02*
X566057Y383057D01*
X363102Y312281D02*
X362673Y310996D01*
X361817Y310139D01*
X360531Y309710D01*
X360103D01*
X358817Y310139D01*
X357960Y310996D01*
X357532Y312281D01*
Y312710D01*
X357960Y313995D01*
X358817Y314852D01*
X360103Y315281D01*
X360531D01*
X361817Y314852D01*
X362673Y313995D01*
X363102Y312281D01*
Y310139D01*
X362673Y307996D01*
X361817Y306711D01*
X360531Y306282D01*
X359674D01*
X358389Y306711D01*
X357960Y307568D01*
X365544Y310139D02*
X373257D01*
X375913Y313567D02*
X376770Y313995D01*
X378056Y315281D01*
Y306282D01*
X385083Y315281D02*
X383798Y314852D01*
X382941Y313567D01*
X382512Y311424D01*
Y310139D01*
X382941Y307996D01*
X383798Y306711D01*
X385083Y306282D01*
X385940D01*
X387225Y306711D01*
X388082Y307996D01*
X388511Y310139D01*
Y311424D01*
X388082Y313567D01*
X387225Y314852D01*
X385940Y315281D01*
X385083D01*
X390525Y310139D02*
X398237D01*
X403465Y315281D02*
X402179Y314852D01*
X401322Y313567D01*
X400894Y311424D01*
Y310139D01*
X401322Y307996D01*
X402179Y306711D01*
X403465Y306282D01*
X404322D01*
X405607Y306711D01*
X406464Y307996D01*
X406892Y310139D01*
Y311424D01*
X406464Y313567D01*
X405607Y314852D01*
X404322Y315281D01*
X403465D01*
X411477D02*
X410192Y314852D01*
X409335Y313567D01*
X408906Y311424D01*
Y310139D01*
X409335Y307996D01*
X410192Y306711D01*
X411477Y306282D01*
X412334D01*
X413620Y306711D01*
X414477Y307996D01*
X414905Y310139D01*
Y311424D01*
X414477Y313567D01*
X413620Y314852D01*
X412334Y315281D01*
X411477D01*
X417347Y313138D02*
Y313567D01*
X417776Y314423D01*
X418204Y314852D01*
X419061Y315281D01*
X420775D01*
X421632Y314852D01*
X422061Y314423D01*
X422489Y313567D01*
Y312710D01*
X422061Y311853D01*
X421204Y310567D01*
X416919Y306282D01*
X422918D01*
X427502Y315281D02*
X426217Y314852D01*
X425360Y313567D01*
X424931Y311424D01*
Y310139D01*
X425360Y307996D01*
X426217Y306711D01*
X427502Y306282D01*
X428359D01*
X429645Y306711D01*
X430502Y307996D01*
X430930Y310139D01*
Y311424D01*
X430502Y313567D01*
X429645Y314852D01*
X428359Y315281D01*
X427502D01*
X433801D02*
X438514D01*
X435944Y311853D01*
X437229D01*
X438086Y311424D01*
X438514Y310996D01*
X438943Y309710D01*
Y308853D01*
X438514Y307568D01*
X437657Y306711D01*
X436372Y306282D01*
X435086D01*
X433801Y306711D01*
X433373Y307139D01*
X432944Y307996D01*
X440957Y310139D02*
X448669D01*
X452183Y315281D02*
X456896D01*
X454325Y311853D01*
X455611D01*
X456468Y311424D01*
X456896Y310996D01*
X457325Y309710D01*
Y308853D01*
X456896Y307568D01*
X456039Y306711D01*
X454754Y306282D01*
X453468D01*
X452183Y306711D01*
X451754Y307139D01*
X451326Y307996D01*
X459338Y303283D02*
X466194D01*
X467351Y315281D02*
Y306282D01*
Y315281D02*
X471207D01*
X472493Y314852D01*
X472921Y314423D01*
X473350Y313567D01*
Y312710D01*
X472921Y311853D01*
X472493Y311424D01*
X471207Y310996D01*
X467351D01*
X470350D02*
X473350Y306282D01*
X480934Y315281D02*
X475364D01*
Y306282D01*
X480934D01*
X475364Y310996D02*
X478791D01*
X482434Y315281D02*
X485861Y306282D01*
X489289Y315281D02*
X485861Y306282D01*
X493017Y315281D02*
X491732Y314852D01*
X490874Y313567D01*
X490446Y311424D01*
Y310139D01*
X490874Y307996D01*
X491732Y306711D01*
X493017Y306282D01*
X493874D01*
X495159Y306711D01*
X496016Y307996D01*
X496445Y310139D01*
Y311424D01*
X496016Y313567D01*
X495159Y314852D01*
X493874Y315281D01*
X493017D01*
X498887Y313138D02*
Y313567D01*
X499316Y314423D01*
X499744Y314852D01*
X500601Y315281D01*
X502315D01*
X503172Y314852D01*
X503600Y314423D01*
X504029Y313567D01*
Y312710D01*
X503600Y311853D01*
X502743Y310567D01*
X498459Y306282D01*
X504457D01*
X506471Y303283D02*
X513327D01*
X517055Y315281D02*
X515769Y314852D01*
X514912Y313567D01*
X514484Y311424D01*
Y310139D01*
X514912Y307996D01*
X515769Y306711D01*
X517055Y306282D01*
X517912D01*
X519197Y306711D01*
X520054Y307996D01*
X520482Y310139D01*
Y311424D01*
X520054Y313567D01*
X519197Y314852D01*
X517912Y315281D01*
X517055D01*
X527638Y313995D02*
X527210Y314852D01*
X525924Y315281D01*
X525067D01*
X523782Y314852D01*
X522925Y313567D01*
X522496Y311424D01*
Y309282D01*
X522925Y307568D01*
X523782Y306711D01*
X525067Y306282D01*
X525496D01*
X526781Y306711D01*
X527638Y307568D01*
X528067Y308853D01*
Y309282D01*
X527638Y310567D01*
X526781Y311424D01*
X525496Y311853D01*
X525067D01*
X523782Y311424D01*
X522925Y310567D01*
X522496Y309282D01*
X530466Y313138D02*
Y313567D01*
X530895Y314423D01*
X531323Y314852D01*
X532180Y315281D01*
X533894D01*
X534751Y314852D01*
X535179Y314423D01*
X535608Y313567D01*
Y312710D01*
X535179Y311853D01*
X534322Y310567D01*
X530038Y306282D01*
X536036D01*
X540621Y315281D02*
X539336Y314852D01*
X538479Y313567D01*
X538050Y311424D01*
Y310139D01*
X538479Y307996D01*
X539336Y306711D01*
X540621Y306282D01*
X541478D01*
X542763Y306711D01*
X543620Y307996D01*
X544049Y310139D01*
Y311424D01*
X543620Y313567D01*
X542763Y314852D01*
X541478Y315281D01*
X540621D01*
X546063Y313567D02*
X546920Y313995D01*
X548205Y315281D01*
Y306282D01*
X554804Y315281D02*
X553518Y314852D01*
X553090Y313995D01*
Y313138D01*
X553518Y312281D01*
X554375Y311853D01*
X556089Y311424D01*
X557375Y310996D01*
X558231Y310139D01*
X558660Y309282D01*
Y307996D01*
X558231Y307139D01*
X557803Y306711D01*
X556518Y306282D01*
X554804D01*
X553518Y306711D01*
X553090Y307139D01*
X552661Y307996D01*
Y309282D01*
X553090Y310139D01*
X553947Y310996D01*
X555232Y311424D01*
X556946Y311853D01*
X557803Y312281D01*
X558231Y313138D01*
Y313995D01*
X557803Y314852D01*
X556518Y315281D01*
X554804D01*
X561102Y307139D02*
X560674Y306711D01*
X561102Y306282D01*
X561531Y306711D01*
X561102Y307139D01*
X563502Y310567D02*
X567358D01*
X568644Y310996D01*
X569072Y311424D01*
X569501Y312281D01*
Y313567D01*
X569072Y314423D01*
X568644Y314852D01*
X567358Y315281D01*
X563502D01*
Y306282D01*
X576656Y310996D02*
X575799Y311853D01*
X574942Y312281D01*
X573657D01*
X572800Y311853D01*
X571943Y310996D01*
X571514Y309710D01*
Y308853D01*
X571943Y307568D01*
X572800Y306711D01*
X573657Y306282D01*
X574942D01*
X575799Y306711D01*
X576656Y307568D01*
X578584Y315281D02*
Y306282D01*
Y310996D02*
X579441Y311853D01*
X580298Y312281D01*
X581584D01*
X582441Y311853D01*
X583298Y310996D01*
X583726Y309710D01*
Y308853D01*
X583298Y307568D01*
X582441Y306711D01*
X581584Y306282D01*
X580298D01*
X579441Y306711D01*
X578584Y307568D01*
X585654Y315281D02*
Y306282D01*
Y315281D02*
X588654D01*
X589939Y314852D01*
X590796Y313995D01*
X591224Y313138D01*
X591653Y311853D01*
Y309710D01*
X591224Y308425D01*
X590796Y307568D01*
X589939Y306711D01*
X588654Y306282D01*
X585654D01*
X595809Y312281D02*
X594952Y311853D01*
X594095Y310996D01*
X593667Y309710D01*
Y308853D01*
X594095Y307568D01*
X594952Y306711D01*
X595809Y306282D01*
X597095D01*
X597952Y306711D01*
X598809Y307568D01*
X599237Y308853D01*
Y309710D01*
X598809Y310996D01*
X597952Y311853D01*
X597095Y312281D01*
X595809D01*
X606350Y310996D02*
X605493Y311853D01*
X604636Y312281D01*
X603350D01*
X602493Y311853D01*
X601637Y310996D01*
X601208Y309710D01*
Y308853D01*
X601637Y307568D01*
X602493Y306711D01*
X603350Y306282D01*
X604636D01*
X605493Y306711D01*
X606350Y307568D01*
X364387Y288782D02*
X360960Y297780D01*
X357532Y288782D01*
X358817Y291782D02*
X363102D01*
X366487Y294781D02*
Y288782D01*
Y292210D02*
X366915Y293496D01*
X367772Y294353D01*
X368629Y294781D01*
X369915D01*
X372014Y297780D02*
Y290496D01*
X372443Y289211D01*
X373300Y288782D01*
X374157D01*
X370729Y294781D02*
X373728D01*
X375442D02*
X377156Y288782D01*
X378870Y294781D02*
X377156Y288782D01*
X378870Y294781D02*
X380584Y288782D01*
X382298Y294781D02*
X380584Y288782D01*
X386540Y294781D02*
X385683Y294353D01*
X384826Y293496D01*
X384397Y292210D01*
Y291353D01*
X384826Y290068D01*
X385683Y289211D01*
X386540Y288782D01*
X387825D01*
X388682Y289211D01*
X389539Y290068D01*
X389968Y291353D01*
Y292210D01*
X389539Y293496D01*
X388682Y294353D01*
X387825Y294781D01*
X386540D01*
X391939D02*
Y288782D01*
Y292210D02*
X392367Y293496D01*
X393224Y294353D01*
X394081Y294781D01*
X395366D01*
X396181Y297780D02*
Y288782D01*
X400465Y294781D02*
X396181Y290496D01*
X397894Y292210D02*
X400894Y288782D01*
X415805Y295638D02*
X415376Y296495D01*
X414519Y297352D01*
X413662Y297780D01*
X411949D01*
X411092Y297352D01*
X410235Y296495D01*
X409806Y295638D01*
X409378Y294353D01*
Y292210D01*
X409806Y290925D01*
X410235Y290068D01*
X411092Y289211D01*
X411949Y288782D01*
X413662D01*
X414519Y289211D01*
X415376Y290068D01*
X415805Y290925D01*
Y292210D01*
X413662D02*
X415805D01*
X417862Y294781D02*
Y288782D01*
Y292210D02*
X418290Y293496D01*
X419147Y294353D01*
X420004Y294781D01*
X421289D01*
X427245D02*
Y288782D01*
Y293496D02*
X426388Y294353D01*
X425531Y294781D01*
X424246D01*
X423389Y294353D01*
X422532Y293496D01*
X422104Y292210D01*
Y291353D01*
X422532Y290068D01*
X423389Y289211D01*
X424246Y288782D01*
X425531D01*
X426388Y289211D01*
X427245Y290068D01*
X429645Y294781D02*
Y285783D01*
Y293496D02*
X430502Y294353D01*
X431359Y294781D01*
X432644D01*
X433501Y294353D01*
X434358Y293496D01*
X434787Y292210D01*
Y291353D01*
X434358Y290068D01*
X433501Y289211D01*
X432644Y288782D01*
X431359D01*
X430502Y289211D01*
X429645Y290068D01*
X436715Y297780D02*
Y288782D01*
Y293067D02*
X438000Y294353D01*
X438857Y294781D01*
X440142D01*
X441000Y294353D01*
X441428Y293067D01*
Y288782D01*
X444642Y297780D02*
X445070Y297352D01*
X445499Y297780D01*
X445070Y298209D01*
X444642Y297780D01*
X445070Y294781D02*
Y288782D01*
X452226Y293496D02*
X451369Y294353D01*
X450512Y294781D01*
X449226D01*
X448369Y294353D01*
X447512Y293496D01*
X447084Y292210D01*
Y291353D01*
X447512Y290068D01*
X448369Y289211D01*
X449226Y288782D01*
X450512D01*
X451369Y289211D01*
X452226Y290068D01*
X458867Y293496D02*
X458439Y294353D01*
X457153Y294781D01*
X455868D01*
X454582Y294353D01*
X454154Y293496D01*
X454582Y292639D01*
X455439Y292210D01*
X457582Y291782D01*
X458439Y291353D01*
X458867Y290496D01*
Y290068D01*
X458439Y289211D01*
X457153Y288782D01*
X455868D01*
X454582Y289211D01*
X454154Y290068D01*
X634578Y345791D02*
X633292Y345363D01*
X632436Y344077D01*
X632007Y341935D01*
Y340650D01*
X632436Y338507D01*
X633292Y337222D01*
X634578Y336793D01*
X635435D01*
X636720Y337222D01*
X637577Y338507D01*
X638006Y340650D01*
Y341935D01*
X637577Y344077D01*
X636720Y345363D01*
X635435Y345791D01*
X634578D01*
X640448Y343649D02*
Y344077D01*
X640876Y344934D01*
X641305Y345363D01*
X642162Y345791D01*
X643876D01*
X644733Y345363D01*
X645161Y344934D01*
X645590Y344077D01*
Y343220D01*
X645161Y342363D01*
X644304Y341078D01*
X640020Y336793D01*
X646018D01*
X630100Y423476D02*
X624435Y414977D01*
Y423476D02*
X630100D01*
X624435Y414977D02*
X630100D01*
X632002Y419024D02*
X635644D01*
X636858Y419429D01*
X637263Y419833D01*
X637668Y420643D01*
Y421857D01*
X637263Y422666D01*
X636858Y423071D01*
X635644Y423476D01*
X632002D01*
Y414977D01*
X641998Y423476D02*
X641188Y423071D01*
X640379Y422261D01*
X639974Y421452D01*
X639570Y420238D01*
Y418215D01*
X639974Y417001D01*
X640379Y416191D01*
X641188Y415382D01*
X641998Y414977D01*
X643616D01*
X644426Y415382D01*
X645235Y416191D01*
X645640Y417001D01*
X646044Y418215D01*
Y420238D01*
X645640Y421452D01*
X645235Y422261D01*
X644426Y423071D01*
X643616Y423476D01*
X641998D01*
X648027D02*
X650051Y414977D01*
X652074Y423476D02*
X650051Y414977D01*
X652074Y423476D02*
X654098Y414977D01*
X656121Y423476D02*
X654098Y414977D01*
X663081Y423476D02*
X657821D01*
Y414977D01*
X663081D01*
X657821Y419429D02*
X661058D01*
X664498Y423476D02*
Y414977D01*
Y423476D02*
X668140D01*
X669354Y423071D01*
X669758Y422666D01*
X670163Y421857D01*
Y421047D01*
X669758Y420238D01*
X669354Y419833D01*
X668140Y419429D01*
X664498D01*
X667330D02*
X670163Y414977D01*
X672874Y415382D02*
X672470Y414977D01*
X672065Y415382D01*
X672470Y415787D01*
X672874Y415382D01*
Y414573D01*
X672470Y413763D01*
X672065Y413359D01*
X681413Y423476D02*
Y414977D01*
X686269D01*
X687200Y423476D02*
Y414977D01*
X692056D01*
X699057Y421452D02*
X698652Y422261D01*
X697843Y423071D01*
X697034Y423476D01*
X695415D01*
X694605Y423071D01*
X693796Y422261D01*
X693392Y421452D01*
X692987Y420238D01*
Y418215D01*
X693392Y417001D01*
X693796Y416191D01*
X694605Y415382D01*
X695415Y414977D01*
X697034D01*
X697843Y415382D01*
X698652Y416191D01*
X699057Y417001D01*
X696030Y348931D02*
X691746Y339932D01*
X690032Y348931D02*
X696030D01*
X698044Y338647D02*
X704043Y348931D01*
X705071Y346788D02*
Y347217D01*
X705500Y348074D01*
X705928Y348502D01*
X706785Y348931D01*
X708499D01*
X709356Y348502D01*
X709785Y348074D01*
X710213Y347217D01*
Y346360D01*
X709785Y345503D01*
X708928Y344217D01*
X704643Y339932D01*
X710641D01*
X718654Y348931D02*
X714369Y339932D01*
X712655Y348931D02*
X718654D01*
X720668Y338647D02*
X726667Y348931D01*
X727695Y346788D02*
Y347217D01*
X728124Y348074D01*
X728552Y348502D01*
X729409Y348931D01*
X731123D01*
X731980Y348502D01*
X732408Y348074D01*
X732837Y347217D01*
Y346360D01*
X732408Y345503D01*
X731551Y344217D01*
X727267Y339932D01*
X733265D01*
X737850Y348931D02*
X736565Y348502D01*
X735708Y347217D01*
X735279Y345074D01*
Y343789D01*
X735708Y341646D01*
X736565Y340361D01*
X737850Y339932D01*
X738707D01*
X739992Y340361D01*
X740849Y341646D01*
X741278Y343789D01*
Y345074D01*
X740849Y347217D01*
X739992Y348502D01*
X738707Y348931D01*
X737850D01*
X743292Y347217D02*
X744149Y347645D01*
X745434Y348931D01*
Y339932D01*
X752033Y348931D02*
X750747Y348502D01*
X750319Y347645D01*
Y346788D01*
X750747Y345931D01*
X751604Y345503D01*
X753318Y345074D01*
X754604Y344646D01*
X755461Y343789D01*
X755889Y342932D01*
Y341646D01*
X755461Y340789D01*
X755032Y340361D01*
X753747Y339932D01*
X752033D01*
X750747Y340361D01*
X750319Y340789D01*
X749890Y341646D01*
Y342932D01*
X750319Y343789D01*
X751176Y344646D01*
X752461Y345074D01*
X754175Y345503D01*
X755032Y345931D01*
X755461Y346788D01*
Y347645D01*
X755032Y348502D01*
X753747Y348931D01*
X752033D01*
X625829Y378306D02*
X625115Y378068D01*
X624877Y377592D01*
Y377116D01*
X625115Y376640D01*
X625591Y376402D01*
X626543Y376164D01*
X627257Y375926D01*
X627733Y375450D01*
X627971Y374974D01*
Y374259D01*
X627733Y373783D01*
X627495Y373545D01*
X626781Y373307D01*
X625829D01*
X625115Y373545D01*
X624877Y373783D01*
X624639Y374259D01*
Y374974D01*
X624877Y375450D01*
X625353Y375926D01*
X626067Y376164D01*
X627019Y376402D01*
X627495Y376640D01*
X627733Y377116D01*
Y377592D01*
X627495Y378068D01*
X626781Y378306D01*
X625829D01*
X631947Y377592D02*
X631709Y378068D01*
X630995Y378306D01*
X630518D01*
X629804Y378068D01*
X629328Y377354D01*
X629090Y376164D01*
Y374974D01*
X629328Y374021D01*
X629804Y373545D01*
X630518Y373307D01*
X630757D01*
X631471Y373545D01*
X631947Y374021D01*
X632185Y374735D01*
Y374974D01*
X631947Y375688D01*
X631471Y376164D01*
X630757Y376402D01*
X630518D01*
X629804Y376164D01*
X629328Y375688D01*
X629090Y374974D01*
X636136Y377592D02*
X635898Y378068D01*
X635184Y378306D01*
X634708D01*
X633994Y378068D01*
X633518Y377354D01*
X633280Y376164D01*
Y374974D01*
X633518Y374021D01*
X633994Y373545D01*
X634708Y373307D01*
X634946D01*
X635660Y373545D01*
X636136Y374021D01*
X636374Y374735D01*
Y374974D01*
X636136Y375688D01*
X635660Y376164D01*
X634946Y376402D01*
X634708D01*
X633994Y376164D01*
X633518Y375688D01*
X633280Y374974D01*
X637469Y375450D02*
X641754D01*
X643706Y378306D02*
X646325D01*
X644896Y376402D01*
X645611D01*
X646087Y376164D01*
X646325Y375926D01*
X646563Y375212D01*
Y374735D01*
X646325Y374021D01*
X645849Y373545D01*
X645134Y373307D01*
X644420D01*
X643706Y373545D01*
X643468Y373783D01*
X643230Y374259D01*
X650538Y377592D02*
X650300Y378068D01*
X649586Y378306D01*
X649110D01*
X648396Y378068D01*
X647920Y377354D01*
X647681Y376164D01*
Y374974D01*
X647920Y374021D01*
X648396Y373545D01*
X649110Y373307D01*
X649348D01*
X650062Y373545D01*
X650538Y374021D01*
X650776Y374735D01*
Y374974D01*
X650538Y375688D01*
X650062Y376164D01*
X649348Y376402D01*
X649110D01*
X648396Y376164D01*
X647920Y375688D01*
X647681Y374974D01*
X654251Y378306D02*
X651871Y374974D01*
X655442D01*
X654251Y378306D02*
Y373307D01*
X656322Y375450D02*
X660607D01*
X662321Y377116D02*
Y377354D01*
X662559Y377830D01*
X662797Y378068D01*
X663273Y378306D01*
X664225D01*
X664702Y378068D01*
X664940Y377830D01*
X665178Y377354D01*
Y376878D01*
X664940Y376402D01*
X664464Y375688D01*
X662083Y373307D01*
X665416D01*
X669629Y376640D02*
X669391Y375926D01*
X668915Y375450D01*
X668201Y375212D01*
X667963D01*
X667249Y375450D01*
X666773Y375926D01*
X666535Y376640D01*
Y376878D01*
X666773Y377592D01*
X667249Y378068D01*
X667963Y378306D01*
X668201D01*
X668915Y378068D01*
X669391Y377592D01*
X669629Y376640D01*
Y375450D01*
X669391Y374259D01*
X668915Y373545D01*
X668201Y373307D01*
X667725D01*
X667011Y373545D01*
X666773Y374021D01*
X672414Y378306D02*
X671700Y378068D01*
X671224Y377354D01*
X670986Y376164D01*
Y375450D01*
X671224Y374259D01*
X671700Y373545D01*
X672414Y373307D01*
X672890D01*
X673604Y373545D01*
X674081Y374259D01*
X674319Y375450D01*
Y376164D01*
X674081Y377354D01*
X673604Y378068D01*
X672890Y378306D01*
X672414D01*
X678532Y376640D02*
X678294Y375926D01*
X677818Y375450D01*
X677104Y375212D01*
X676866D01*
X676152Y375450D01*
X675675Y375926D01*
X675437Y376640D01*
Y376878D01*
X675675Y377592D01*
X676152Y378068D01*
X676866Y378306D01*
X677104D01*
X677818Y378068D01*
X678294Y377592D01*
X678532Y376640D01*
Y375450D01*
X678294Y374259D01*
X677818Y373545D01*
X677104Y373307D01*
X676628D01*
X675913Y373545D01*
X675675Y374021D01*
D14*
X109463Y371406D02*
X106183Y374685D01*
X99624D01*
X96344Y371406D01*
Y358286D01*
X99624Y355007D01*
X106183D01*
X109463Y358286D01*
X125862Y374685D02*
X119302D01*
X116023Y371406D01*
Y358286D01*
X119302Y355007D01*
X125862D01*
X129142Y358286D01*
Y371406D01*
X125862Y374685D01*
X135701Y355007D02*
Y374685D01*
X148820Y355007D01*
Y374685D01*
X168499D02*
X155380D01*
Y364846D01*
X161940D01*
X155380D01*
Y355007D01*
X175059Y374685D02*
X181618D01*
X178339D01*
Y355007D01*
X175059D01*
X181618D01*
X191458Y374685D02*
Y355007D01*
X201297D01*
X204577Y358286D01*
Y371406D01*
X201297Y374685D01*
X191458D01*
X224255D02*
X211136D01*
Y355007D01*
X224255D01*
X211136Y364846D02*
X217696D01*
X230815Y355007D02*
Y374685D01*
X243934Y355007D01*
Y374685D01*
X250494D02*
X263613D01*
X257053D01*
Y355007D01*
X270172Y374685D02*
X276732D01*
X273452D01*
Y355007D01*
X270172D01*
X276732D01*
X286571D02*
Y368126D01*
X293131Y374685D01*
X299690Y368126D01*
Y355007D01*
Y364846D01*
X286571D01*
X306250Y374685D02*
Y355007D01*
X319369D01*
D15*
X359474Y341418D02*
X361402D01*
X362045Y341632D01*
X362259Y341846D01*
X362473Y342275D01*
Y342917D01*
X362259Y343346D01*
X362045Y343560D01*
X361402Y343774D01*
X359474D01*
Y339275D01*
X363480Y343774D02*
Y339275D01*
X366480Y343774D02*
Y339275D01*
X363480Y341632D02*
X366480D01*
X369008Y343774D02*
X368579Y343560D01*
X368151Y343132D01*
X367936Y342703D01*
X367722Y342060D01*
Y340989D01*
X367936Y340347D01*
X368151Y339918D01*
X368579Y339490D01*
X369008Y339275D01*
X369865D01*
X370293Y339490D01*
X370722Y339918D01*
X370936Y340347D01*
X371150Y340989D01*
Y342060D01*
X370936Y342703D01*
X370722Y343132D01*
X370293Y343560D01*
X369865Y343774D01*
X369008D01*
X372200D02*
Y339275D01*
Y343774D02*
X375199Y339275D01*
Y343774D02*
Y339275D01*
X379227Y343774D02*
X376442D01*
Y339275D01*
X379227D01*
X376442Y341632D02*
X378156D01*
X380191Y342275D02*
X379977Y342060D01*
X380191Y341846D01*
X380405Y342060D01*
X380191Y342275D01*
Y339704D02*
X379977Y339490D01*
X380191Y339275D01*
X380405Y339490D01*
X380191Y339704D01*
X385997Y343774D02*
X385354Y343560D01*
X385140Y343132D01*
Y342703D01*
X385354Y342275D01*
X385783Y342060D01*
X386640Y341846D01*
X387282Y341632D01*
X387711Y341203D01*
X387925Y340775D01*
Y340132D01*
X387711Y339704D01*
X387497Y339490D01*
X386854Y339275D01*
X385997D01*
X385354Y339490D01*
X385140Y339704D01*
X384926Y340132D01*
Y340775D01*
X385140Y341203D01*
X385568Y341632D01*
X386211Y341846D01*
X387068Y342060D01*
X387497Y342275D01*
X387711Y342703D01*
Y343132D01*
X387497Y343560D01*
X386854Y343774D01*
X385997D01*
X390217D02*
X389575Y343560D01*
X389146Y342917D01*
X388932Y341846D01*
Y341203D01*
X389146Y340132D01*
X389575Y339490D01*
X390217Y339275D01*
X390646D01*
X391289Y339490D01*
X391717Y340132D01*
X391931Y341203D01*
Y341846D01*
X391717Y342917D01*
X391289Y343560D01*
X390646Y343774D01*
X390217D01*
X395509D02*
X393367D01*
X393153Y341846D01*
X393367Y342060D01*
X394009Y342275D01*
X394652D01*
X395295Y342060D01*
X395724Y341632D01*
X395938Y340989D01*
Y340561D01*
X395724Y339918D01*
X395295Y339490D01*
X394652Y339275D01*
X394009D01*
X393367Y339490D01*
X393153Y339704D01*
X392938Y340132D01*
X396945Y341203D02*
X400801D01*
X403200Y343774D02*
X402558Y343560D01*
X402343Y343132D01*
Y342703D01*
X402558Y342275D01*
X402986Y342060D01*
X403843Y341846D01*
X404486Y341632D01*
X404914Y341203D01*
X405129Y340775D01*
Y340132D01*
X404914Y339704D01*
X404700Y339490D01*
X404057Y339275D01*
X403200D01*
X402558Y339490D01*
X402343Y339704D01*
X402129Y340132D01*
Y340775D01*
X402343Y341203D01*
X402772Y341632D01*
X403415Y341846D01*
X404272Y342060D01*
X404700Y342275D01*
X404914Y342703D01*
Y343132D01*
X404700Y343560D01*
X404057Y343774D01*
X403200D01*
X407207D02*
X406564Y343560D01*
X406350Y343132D01*
Y342703D01*
X406564Y342275D01*
X406992Y342060D01*
X407849Y341846D01*
X408492Y341632D01*
X408921Y341203D01*
X409135Y340775D01*
Y340132D01*
X408921Y339704D01*
X408706Y339490D01*
X408064Y339275D01*
X407207D01*
X406564Y339490D01*
X406350Y339704D01*
X406136Y340132D01*
Y340775D01*
X406350Y341203D01*
X406778Y341632D01*
X407421Y341846D01*
X408278Y342060D01*
X408706Y342275D01*
X408921Y342703D01*
Y343132D01*
X408706Y343560D01*
X408064Y343774D01*
X407207D01*
X412927Y342275D02*
X412713Y341632D01*
X412284Y341203D01*
X411641Y340989D01*
X411427D01*
X410784Y341203D01*
X410356Y341632D01*
X410142Y342275D01*
Y342489D01*
X410356Y343132D01*
X410784Y343560D01*
X411427Y343774D01*
X411641D01*
X412284Y343560D01*
X412713Y343132D01*
X412927Y342275D01*
Y341203D01*
X412713Y340132D01*
X412284Y339490D01*
X411641Y339275D01*
X411213D01*
X410570Y339490D01*
X410356Y339918D01*
X414148Y341203D02*
X418004D01*
X421475Y343774D02*
X419333Y340775D01*
X422546D01*
X421475Y343774D02*
Y339275D01*
X425910Y343774D02*
X423767D01*
X423553Y341846D01*
X423767Y342060D01*
X424410Y342275D01*
X425053D01*
X425696Y342060D01*
X426124Y341632D01*
X426338Y340989D01*
Y340561D01*
X426124Y339918D01*
X425696Y339490D01*
X425053Y339275D01*
X424410D01*
X423767Y339490D01*
X423553Y339704D01*
X423339Y340132D01*
X427774Y343774D02*
X430130D01*
X428845Y342060D01*
X429488D01*
X429916Y341846D01*
X430130Y341632D01*
X430345Y340989D01*
Y340561D01*
X430130Y339918D01*
X429702Y339490D01*
X429059Y339275D01*
X428416D01*
X427774Y339490D01*
X427560Y339704D01*
X427345Y340132D01*
X431352Y342917D02*
X431780Y343132D01*
X432423Y343774D01*
Y339275D01*
X359474Y361274D02*
Y356775D01*
Y361274D02*
X360974D01*
X361616Y361060D01*
X362045Y360632D01*
X362259Y360203D01*
X362473Y359560D01*
Y358489D01*
X362259Y357847D01*
X362045Y357418D01*
X361616Y356990D01*
X360974Y356775D01*
X359474D01*
X366266Y361274D02*
X363480D01*
Y356775D01*
X366266D01*
X363480Y359132D02*
X365194D01*
X370015Y360632D02*
X369586Y361060D01*
X368944Y361274D01*
X368087D01*
X367444Y361060D01*
X367015Y360632D01*
Y360203D01*
X367230Y359775D01*
X367444Y359560D01*
X367872Y359346D01*
X369158Y358918D01*
X369586Y358703D01*
X369800Y358489D01*
X370015Y358061D01*
Y357418D01*
X369586Y356990D01*
X368944Y356775D01*
X368087D01*
X367444Y356990D01*
X367015Y357418D01*
X371022Y361274D02*
Y356775D01*
X375178Y360203D02*
X374964Y360632D01*
X374535Y361060D01*
X374107Y361274D01*
X373250D01*
X372821Y361060D01*
X372393Y360632D01*
X372179Y360203D01*
X371964Y359560D01*
Y358489D01*
X372179Y357847D01*
X372393Y357418D01*
X372821Y356990D01*
X373250Y356775D01*
X374107D01*
X374535Y356990D01*
X374964Y357418D01*
X375178Y357847D01*
Y358489D01*
X374107D02*
X375178D01*
X376206Y361274D02*
Y356775D01*
Y361274D02*
X379206Y356775D01*
Y361274D02*
Y356775D01*
X383233Y361274D02*
X380448D01*
Y356775D01*
X383233D01*
X380448Y359132D02*
X382162D01*
X383983Y361274D02*
Y356775D01*
Y361274D02*
X385911D01*
X386554Y361060D01*
X386768Y360846D01*
X386982Y360418D01*
Y359989D01*
X386768Y359560D01*
X386554Y359346D01*
X385911Y359132D01*
X383983D01*
X385483D02*
X386982Y356775D01*
X388204Y359775D02*
X387989Y359560D01*
X388204Y359346D01*
X388418Y359560D01*
X388204Y359775D01*
Y357204D02*
X387989Y356990D01*
X388204Y356775D01*
X388418Y356990D01*
X388204Y357204D01*
X395081Y361274D02*
Y357847D01*
X394866Y357204D01*
X394652Y356990D01*
X394224Y356775D01*
X393795D01*
X393367Y356990D01*
X393153Y357204D01*
X392938Y357847D01*
Y358275D01*
X396452Y357204D02*
X396238Y356990D01*
X396452Y356775D01*
X396666Y356990D01*
X396452Y357204D01*
X401187Y358918D02*
X403115D01*
X403757Y359132D01*
X403972Y359346D01*
X404186Y359775D01*
Y360418D01*
X403972Y360846D01*
X403757Y361060D01*
X403115Y361274D01*
X401187D01*
Y356775D01*
X407978Y361274D02*
X405193D01*
Y356775D01*
X407978D01*
X405193Y359132D02*
X406907D01*
X408728Y361274D02*
Y356775D01*
Y361274D02*
X410656D01*
X411299Y361060D01*
X411513Y360846D01*
X411727Y360418D01*
Y359989D01*
X411513Y359560D01*
X411299Y359346D01*
X410656Y359132D01*
X408728D01*
X410227D02*
X411727Y356775D01*
X415519Y361274D02*
X412734D01*
Y356775D01*
X415519D01*
X412734Y359132D02*
X414448D01*
X419268Y361274D02*
X416269Y356775D01*
Y361274D02*
X419268D01*
X416269Y356775D02*
X419268D01*
X360317Y398181D02*
X357532D01*
Y393682D01*
X360317D01*
X357532Y396039D02*
X359245D01*
X361067Y398181D02*
Y393682D01*
Y398181D02*
X364066Y393682D01*
Y398181D02*
Y393682D01*
X368522Y397110D02*
X368308Y397539D01*
X367879Y397967D01*
X367451Y398181D01*
X366594D01*
X366165Y397967D01*
X365737Y397539D01*
X365523Y397110D01*
X365308Y396467D01*
Y395396D01*
X365523Y394754D01*
X365737Y394325D01*
X366165Y393897D01*
X366594Y393682D01*
X367451D01*
X367879Y393897D01*
X368308Y394325D01*
X368522Y394754D01*
Y395396D01*
X367451D02*
X368522D01*
X369550Y398181D02*
Y393682D01*
X370493Y398181D02*
Y393682D01*
Y398181D02*
X373493Y393682D01*
Y398181D02*
Y393682D01*
X377520Y398181D02*
X374735D01*
Y393682D01*
X377520D01*
X374735Y396039D02*
X376449D01*
X381055Y398181D02*
X378270D01*
Y393682D01*
X381055D01*
X378270Y396039D02*
X379984D01*
X381805Y398181D02*
Y393682D01*
Y398181D02*
X383733D01*
X384376Y397967D01*
X384590Y397753D01*
X384804Y397324D01*
Y396896D01*
X384590Y396467D01*
X384376Y396253D01*
X383733Y396039D01*
X381805D01*
X383305D02*
X384804Y393682D01*
X386026Y396682D02*
X385811Y396467D01*
X386026Y396253D01*
X386240Y396467D01*
X386026Y396682D01*
Y394111D02*
X385811Y393897D01*
X386026Y393682D01*
X386240Y393897D01*
X386026Y394111D01*
X392903Y398181D02*
Y394754D01*
X392688Y394111D01*
X392474Y393897D01*
X392046Y393682D01*
X391617D01*
X391189Y393897D01*
X390974Y394111D01*
X390760Y394754D01*
Y395182D01*
X394274Y394111D02*
X394059Y393897D01*
X394274Y393682D01*
X394488Y393897D01*
X394274Y394111D01*
X399008Y395825D02*
X400937D01*
X401579Y396039D01*
X401794Y396253D01*
X402008Y396682D01*
Y397324D01*
X401794Y397753D01*
X401579Y397967D01*
X400937Y398181D01*
X399008D01*
Y393682D01*
X405800Y398181D02*
X403015D01*
Y393682D01*
X405800D01*
X403015Y396039D02*
X404729D01*
X406550Y398181D02*
Y393682D01*
Y398181D02*
X408478D01*
X409121Y397967D01*
X409335Y397753D01*
X409549Y397324D01*
Y396896D01*
X409335Y396467D01*
X409121Y396253D01*
X408478Y396039D01*
X406550D01*
X408049D02*
X409549Y393682D01*
X413341Y398181D02*
X410556D01*
Y393682D01*
X413341D01*
X410556Y396039D02*
X412270D01*
X417090Y398181D02*
X414091Y393682D01*
Y398181D02*
X417090D01*
X414091Y393682D02*
X417090D01*
X726745Y323110D02*
X726531Y323539D01*
X726102Y323967D01*
X725674Y324181D01*
X724817D01*
X724389Y323967D01*
X723960Y323539D01*
X723746Y323110D01*
X723532Y322467D01*
Y321396D01*
X723746Y320754D01*
X723960Y320325D01*
X724389Y319897D01*
X724817Y319682D01*
X725674D01*
X726102Y319897D01*
X726531Y320325D01*
X726745Y320754D01*
Y321396D01*
X725674D02*
X726745D01*
X730559Y324181D02*
X727774D01*
Y319682D01*
X730559D01*
X727774Y322039D02*
X729488D01*
X731309Y324181D02*
Y319682D01*
Y324181D02*
X733237D01*
X733879Y323967D01*
X734094Y323753D01*
X734308Y323324D01*
Y322896D01*
X734094Y322467D01*
X733879Y322253D01*
X733237Y322039D01*
X731309D01*
X732808D02*
X734308Y319682D01*
X735315Y324181D02*
Y319682D01*
Y324181D02*
X737243D01*
X737886Y323967D01*
X738100Y323753D01*
X738314Y323324D01*
Y322896D01*
X738100Y322467D01*
X737886Y322253D01*
X737243Y322039D01*
X735315D02*
X737243D01*
X737886Y321825D01*
X738100Y321611D01*
X738314Y321182D01*
Y320539D01*
X738100Y320111D01*
X737886Y319897D01*
X737243Y319682D01*
X735315D01*
X742106Y324181D02*
X739321D01*
Y319682D01*
X742106D01*
X739321Y322039D02*
X741035D01*
X742856Y324181D02*
Y319682D01*
Y324181D02*
X744784D01*
X745427Y323967D01*
X745641Y323753D01*
X745856Y323324D01*
Y322896D01*
X745641Y322467D01*
X745427Y322253D01*
X744784Y322039D01*
X742856D01*
X744356D02*
X745856Y319682D01*
X747077Y322682D02*
X746862Y322467D01*
X747077Y322253D01*
X747291Y322467D01*
X747077Y322682D01*
Y320111D02*
X746862Y319897D01*
X747077Y319682D01*
X747291Y319897D01*
X747077Y320111D01*
X357532Y324181D02*
Y319682D01*
Y324181D02*
X360317D01*
X357532Y322039D02*
X359246D01*
X360831Y324181D02*
Y319682D01*
X361774Y324181D02*
Y319682D01*
X364345D01*
X367622Y324181D02*
X364837D01*
Y319682D01*
X367622D01*
X364837Y322039D02*
X366551D01*
X371907Y324181D02*
Y319682D01*
Y324181D02*
X374906Y319682D01*
Y324181D02*
Y319682D01*
X379577D02*
X377863Y324181D01*
X376149Y319682D01*
X376792Y321182D02*
X378934D01*
X380627Y324181D02*
Y319682D01*
Y324181D02*
X382341Y319682D01*
X384055Y324181D02*
X382341Y319682D01*
X384055Y324181D02*
Y319682D01*
X388125Y324181D02*
X385340D01*
Y319682D01*
X388125D01*
X385340Y322039D02*
X387054D01*
X389089Y322682D02*
X388875Y322467D01*
X389089Y322253D01*
X389303Y322467D01*
X389089Y322682D01*
Y320111D02*
X388875Y319897D01*
X389089Y319682D01*
X389303Y319897D01*
X389089Y320111D01*
X447781Y399431D02*
Y394932D01*
X446282Y399431D02*
X449281D01*
X449817D02*
Y394932D01*
X452259Y399431D02*
Y394932D01*
X450759Y399431D02*
X453759D01*
X454294D02*
Y394932D01*
X456865D01*
X460143Y399431D02*
X457358D01*
Y394932D01*
X460143D01*
X457358Y397289D02*
X459072D01*
X461107Y397932D02*
X460893Y397717D01*
X461107Y397503D01*
X461321Y397717D01*
X461107Y397932D01*
Y395361D02*
X460893Y395147D01*
X461107Y394932D01*
X461321Y395147D01*
X461107Y395361D01*
X447532Y349575D02*
X449460D01*
X450103Y349789D01*
X450317Y350003D01*
X450531Y350432D01*
Y351075D01*
X450317Y351503D01*
X450103Y351717D01*
X449460Y351931D01*
X447532D01*
Y347432D01*
X454966D02*
X453252Y351931D01*
X451538Y347432D01*
X452181Y348932D02*
X454323D01*
X456015Y351931D02*
Y347432D01*
Y351931D02*
X457944D01*
X458586Y351717D01*
X458801Y351503D01*
X459015Y351075D01*
Y350646D01*
X458801Y350218D01*
X458586Y350003D01*
X457944Y349789D01*
X456015D01*
X457515D02*
X459015Y347432D01*
X461521Y351931D02*
Y347432D01*
X460022Y351931D02*
X463021D01*
X467092D02*
Y347432D01*
Y351931D02*
X470091Y347432D01*
Y351931D02*
Y347432D01*
X472619Y351931D02*
X472191Y351717D01*
X471762Y351289D01*
X471548Y350860D01*
X471334Y350218D01*
Y349146D01*
X471548Y348504D01*
X471762Y348075D01*
X472191Y347647D01*
X472619Y347432D01*
X473476D01*
X473905Y347647D01*
X474333Y348075D01*
X474547Y348504D01*
X474761Y349146D01*
Y350218D01*
X474547Y350860D01*
X474333Y351289D01*
X473905Y351717D01*
X473476Y351931D01*
X472619D01*
X476026Y347861D02*
X475811Y347647D01*
X476026Y347432D01*
X476240Y347647D01*
X476026Y347861D01*
X477439Y350432D02*
X477225Y350218D01*
X477439Y350003D01*
X477654Y350218D01*
X477439Y350432D01*
Y347861D02*
X477225Y347647D01*
X477439Y347432D01*
X477654Y347647D01*
X477439Y347861D01*
X541532Y324181D02*
Y319682D01*
X544102D01*
X548023D02*
X546309Y324181D01*
X544595Y319682D01*
X545238Y321182D02*
X547380D01*
X549073Y324181D02*
X550787Y322039D01*
Y319682D01*
X552501Y324181D02*
X550787Y322039D01*
X555864Y324181D02*
X553079D01*
Y319682D01*
X555864D01*
X553079Y322039D02*
X554793D01*
X556614Y324181D02*
Y319682D01*
Y324181D02*
X558542D01*
X559185Y323967D01*
X559399Y323753D01*
X559614Y323324D01*
Y322896D01*
X559399Y322467D01*
X559185Y322253D01*
X558542Y322039D01*
X556614D01*
X558114D02*
X559614Y319682D01*
X560835Y322682D02*
X560620Y322467D01*
X560835Y322253D01*
X561049Y322467D01*
X560835Y322682D01*
Y320111D02*
X560620Y319897D01*
X560835Y319682D01*
X561049Y319897D01*
X560835Y320111D01*
X357532Y378325D02*
X359460D01*
X360103Y378539D01*
X360317Y378753D01*
X360531Y379182D01*
Y379824D01*
X360317Y380253D01*
X360103Y380467D01*
X359460Y380681D01*
X357532D01*
Y376182D01*
X361538Y380681D02*
Y376182D01*
X364537Y380681D02*
Y376182D01*
X361538Y378539D02*
X364537D01*
X367065Y380681D02*
X366637Y380467D01*
X366208Y380039D01*
X365994Y379610D01*
X365780Y378967D01*
Y377896D01*
X365994Y377254D01*
X366208Y376825D01*
X366637Y376397D01*
X367065Y376182D01*
X367922D01*
X368351Y376397D01*
X368779Y376825D01*
X368993Y377254D01*
X369208Y377896D01*
Y378967D01*
X368993Y379610D01*
X368779Y380039D01*
X368351Y380467D01*
X367922Y380681D01*
X367065D01*
X370257D02*
Y376182D01*
Y380681D02*
X373257Y376182D01*
Y380681D02*
Y376182D01*
X377285Y380681D02*
X374499D01*
Y376182D01*
X377285D01*
X374499Y378539D02*
X376213D01*
X378249Y379182D02*
X378034Y378967D01*
X378249Y378753D01*
X378463Y378967D01*
X378249Y379182D01*
Y376611D02*
X378034Y376397D01*
X378249Y376182D01*
X378463Y376397D01*
X378249Y376611D01*
X384054Y380681D02*
X383412Y380467D01*
X383197Y380039D01*
Y379610D01*
X383412Y379182D01*
X383840Y378967D01*
X384697Y378753D01*
X385340Y378539D01*
X385768Y378111D01*
X385983Y377682D01*
Y377039D01*
X385768Y376611D01*
X385554Y376397D01*
X384911Y376182D01*
X384054D01*
X383412Y376397D01*
X383197Y376611D01*
X382983Y377039D01*
Y377682D01*
X383197Y378111D01*
X383626Y378539D01*
X384269Y378753D01*
X385126Y378967D01*
X385554Y379182D01*
X385768Y379610D01*
Y380039D01*
X385554Y380467D01*
X384911Y380681D01*
X384054D01*
X388275D02*
X387632Y380467D01*
X387204Y379824D01*
X386990Y378753D01*
Y378111D01*
X387204Y377039D01*
X387632Y376397D01*
X388275Y376182D01*
X388703D01*
X389346Y376397D01*
X389775Y377039D01*
X389989Y378111D01*
Y378753D01*
X389775Y379824D01*
X389346Y380467D01*
X388703Y380681D01*
X388275D01*
X393567D02*
X391424D01*
X391210Y378753D01*
X391424Y378967D01*
X392067Y379182D01*
X392710D01*
X393353Y378967D01*
X393781Y378539D01*
X393995Y377896D01*
Y377468D01*
X393781Y376825D01*
X393353Y376397D01*
X392710Y376182D01*
X392067D01*
X391424Y376397D01*
X391210Y376611D01*
X390996Y377039D01*
X395002Y378111D02*
X398858D01*
X401258Y380681D02*
X400615Y380467D01*
X400401Y380039D01*
Y379610D01*
X400615Y379182D01*
X401044Y378967D01*
X401901Y378753D01*
X402543Y378539D01*
X402972Y378111D01*
X403186Y377682D01*
Y377039D01*
X402972Y376611D01*
X402758Y376397D01*
X402115Y376182D01*
X401258D01*
X400615Y376397D01*
X400401Y376611D01*
X400187Y377039D01*
Y377682D01*
X400401Y378111D01*
X400830Y378539D01*
X401472Y378753D01*
X402329Y378967D01*
X402758Y379182D01*
X402972Y379610D01*
Y380039D01*
X402758Y380467D01*
X402115Y380681D01*
X401258D01*
X405264D02*
X404622Y380467D01*
X404407Y380039D01*
Y379610D01*
X404622Y379182D01*
X405050Y378967D01*
X405907Y378753D01*
X406550Y378539D01*
X406978Y378111D01*
X407192Y377682D01*
Y377039D01*
X406978Y376611D01*
X406764Y376397D01*
X406121Y376182D01*
X405264D01*
X404622Y376397D01*
X404407Y376611D01*
X404193Y377039D01*
Y377682D01*
X404407Y378111D01*
X404836Y378539D01*
X405478Y378753D01*
X406335Y378967D01*
X406764Y379182D01*
X406978Y379610D01*
Y380039D01*
X406764Y380467D01*
X406121Y380681D01*
X405264D01*
X410984Y379182D02*
X410770Y378539D01*
X410342Y378111D01*
X409699Y377896D01*
X409485D01*
X408842Y378111D01*
X408414Y378539D01*
X408199Y379182D01*
Y379396D01*
X408414Y380039D01*
X408842Y380467D01*
X409485Y380681D01*
X409699D01*
X410342Y380467D01*
X410770Y380039D01*
X410984Y379182D01*
Y378111D01*
X410770Y377039D01*
X410342Y376397D01*
X409699Y376182D01*
X409270D01*
X408628Y376397D01*
X408414Y376825D01*
X412206Y378111D02*
X416062D01*
X419533Y380681D02*
X417390Y377682D01*
X420604D01*
X419533Y380681D02*
Y376182D01*
X423967Y380681D02*
X421825D01*
X421611Y378753D01*
X421825Y378967D01*
X422468Y379182D01*
X423110D01*
X423753Y378967D01*
X424182Y378539D01*
X424396Y377896D01*
Y377468D01*
X424182Y376825D01*
X423753Y376397D01*
X423110Y376182D01*
X422468D01*
X421825Y376397D01*
X421611Y376611D01*
X421396Y377039D01*
X425831Y380681D02*
X428188D01*
X426902Y378967D01*
X427545D01*
X427974Y378753D01*
X428188Y378539D01*
X428402Y377896D01*
Y377468D01*
X428188Y376825D01*
X427759Y376397D01*
X427117Y376182D01*
X426474D01*
X425831Y376397D01*
X425617Y376611D01*
X425403Y377039D01*
X429409Y379824D02*
X429838Y380039D01*
X430480Y380681D01*
Y376182D01*
X667532Y351931D02*
Y347432D01*
Y351931D02*
X669031D01*
X669674Y351717D01*
X670103Y351289D01*
X670317Y350860D01*
X670531Y350218D01*
Y349146D01*
X670317Y348504D01*
X670103Y348075D01*
X669674Y347647D01*
X669031Y347432D01*
X667532D01*
X674966D02*
X673252Y351931D01*
X671538Y347432D01*
X672181Y348932D02*
X674323D01*
X677515Y351931D02*
Y347432D01*
X676016Y351931D02*
X679015D01*
X682336D02*
X679551D01*
Y347432D01*
X682336D01*
X679551Y349789D02*
X681264D01*
X683300Y350432D02*
X683085Y350218D01*
X683300Y350003D01*
X683514Y350218D01*
X683300Y350432D01*
Y347861D02*
X683085Y347647D01*
X683300Y347432D01*
X683514Y347647D01*
X683300Y347861D01*
X621282Y351931D02*
Y347432D01*
Y351931D02*
X623210D01*
X623852Y351717D01*
X624067Y351503D01*
X624281Y351075D01*
Y350646D01*
X624067Y350218D01*
X623852Y350003D01*
X623210Y349789D01*
X621282D01*
X622781D02*
X624281Y347432D01*
X628073Y351931D02*
X625288D01*
Y347432D01*
X628073D01*
X625288Y349789D02*
X627002D01*
X628823Y351931D02*
X630537Y347432D01*
X632251Y351931D02*
X630537Y347432D01*
X633043Y350432D02*
X632829Y350218D01*
X633043Y350003D01*
X633258Y350218D01*
X633043Y350432D01*
Y347861D02*
X632829Y347647D01*
X633043Y347432D01*
X633258Y347647D01*
X633043Y347861D01*
D16*
X178902Y284707D02*
X179569Y285373D01*
X180902D01*
X181568Y284707D01*
Y282041D01*
X180902Y281375D01*
X179569D01*
X178902Y282041D01*
Y284707D01*
X182901Y281375D02*
Y282041D01*
X183568D01*
Y281375D01*
X182901D01*
X186233Y284707D02*
X186900Y285373D01*
X188233D01*
X188899Y284707D01*
Y282041D01*
X188233Y281375D01*
X186900D01*
X186233Y282041D01*
Y284707D01*
X190232D02*
X190899Y285373D01*
X192231D01*
X192898Y284707D01*
Y282041D01*
X192231Y281375D01*
X190899D01*
X190232Y282041D01*
Y284707D01*
X194231Y281375D02*
Y284040D01*
X194897D01*
X195564Y283374D01*
Y281375D01*
Y283374D01*
X196230Y284040D01*
X196897Y283374D01*
Y281375D01*
X198230D02*
Y284040D01*
X198896D01*
X199562Y283374D01*
Y281375D01*
Y283374D01*
X200229Y284040D01*
X200895Y283374D01*
Y281375D01*
X207944Y285373D02*
X206611Y284707D01*
X205278Y283374D01*
Y282041D01*
X205945Y281375D01*
X207278D01*
X207944Y282041D01*
Y282707D01*
X207278Y283374D01*
X205278D01*
X209277Y281375D02*
Y282041D01*
X209944D01*
Y281375D01*
X209277D01*
X212609Y285373D02*
X215275D01*
Y284707D01*
X212609Y282041D01*
Y281375D01*
X216608Y284707D02*
X217275Y285373D01*
X218607D01*
X219274Y284707D01*
Y282041D01*
X218607Y281375D01*
X217275D01*
X216608Y282041D01*
Y284707D01*
X220607Y281375D02*
Y284040D01*
X221273D01*
X221940Y283374D01*
Y281375D01*
Y283374D01*
X222606Y284040D01*
X223273Y283374D01*
Y281375D01*
X224606D02*
Y284040D01*
X225272D01*
X225939Y283374D01*
Y281375D01*
Y283374D01*
X226605Y284040D01*
X227271Y283374D01*
Y281375D01*
X155868Y300635D02*
X156535Y301302D01*
X157868D01*
X158534Y300635D01*
Y297969D01*
X157868Y297303D01*
X156535D01*
X155868Y297969D01*
Y300635D01*
X159867Y297303D02*
Y297969D01*
X160534D01*
Y297303D01*
X159867D01*
X163199Y300635D02*
X163866Y301302D01*
X165199D01*
X165865Y300635D01*
Y297969D01*
X165199Y297303D01*
X163866D01*
X163199Y297969D01*
Y300635D01*
X167198D02*
X167865Y301302D01*
X169197D01*
X169864Y300635D01*
Y297969D01*
X169197Y297303D01*
X167865D01*
X167198Y297969D01*
Y300635D01*
X171197Y297303D02*
Y299969D01*
X171863D01*
X172530Y299302D01*
Y297303D01*
Y299302D01*
X173196Y299969D01*
X173863Y299302D01*
Y297303D01*
X175196D02*
Y299969D01*
X175862D01*
X176528Y299302D01*
Y297303D01*
Y299302D01*
X177195Y299969D01*
X177861Y299302D01*
Y297303D01*
X156535Y312840D02*
X157201Y313506D01*
X158534D01*
X159201Y312840D01*
Y312173D01*
X158534Y311507D01*
X157868D01*
X158534D01*
X159201Y310841D01*
Y310174D01*
X158534Y309508D01*
X157201D01*
X156535Y310174D01*
X160534Y309508D02*
Y310174D01*
X161200D01*
Y309508D01*
X160534D01*
X163866D02*
X165199D01*
X164532D01*
Y313506D01*
X163866Y312840D01*
X167198D02*
X167865Y313506D01*
X169197D01*
X169864Y312840D01*
Y310174D01*
X169197Y309508D01*
X167865D01*
X167198Y310174D01*
Y312840D01*
X171197Y309508D02*
Y312173D01*
X171863D01*
X172530Y311507D01*
Y309508D01*
Y311507D01*
X173196Y312173D01*
X173863Y311507D01*
Y309508D01*
X175196D02*
Y312173D01*
X175862D01*
X176528Y311507D01*
Y309508D01*
Y311507D01*
X177195Y312173D01*
X177861Y311507D01*
Y309508D01*
D20*
X211119Y305020D02*
D03*
X211218Y301871D02*
D03*
D25*
X192419Y301300D02*
D03*
Y302835D02*
D03*
X192320Y310808D02*
D03*
Y309272D02*
D03*
D26*
X204623Y310926D02*
D03*
X214663Y305020D02*
D03*
X212694D02*
D03*
X214663Y303249D02*
D03*
X212694D02*
D03*
X197635Y301083D02*
D03*
X199603D02*
D03*
D47*
X207039Y308437D02*
X207046Y308444D01*
D48*
X206592Y311123D02*
X207576D01*
X192320Y310827D02*
X194387D01*
X192320Y303052D02*
Y304527D01*
X192222Y307087D02*
Y308922D01*
X191729Y307087D02*
X192222D01*
X199505Y310729D02*
X204649D01*
X195962Y300887D02*
X197635D01*
X211119Y305020D02*
X212694D01*
X211218Y301871D02*
X212596Y303249D01*
X214663Y303249D02*
Y304823D01*
X192222Y307087D02*
X195568D01*
X192812Y305414D02*
X195568D01*
X191926Y304528D02*
X192812Y305414D01*
X193797Y303839D02*
X194781D01*
X194889D01*
X207581Y311211D02*
Y311218D01*
D49*
X207046Y308444D02*
X207930D01*
X213678Y306989D02*
X214859D01*
X205411Y308446D02*
Y310138D01*
X200489Y304528D02*
X202261Y305296D01*
X196355Y302560D02*
Y303839D01*
X204623Y310926D02*
X205411Y310138D01*
X197930Y303839D02*
X199111D01*
X199308D01*
X201080Y302124D02*
Y302146D01*
X202261D01*
X206985Y306871D02*
X208068D01*
X208099D01*
D51*
X214682Y304975D02*
X214734Y305028D01*
X199074Y304032D02*
X199110Y304039D01*
X197935Y303815D02*
X198041Y303835D01*
X206173Y300871D02*
X206216Y300800D01*
X212470Y307015D02*
X212497Y306988D01*
Y306989D01*
Y305217D02*
Y306988D01*
X212500Y306984D01*
X206985Y303721D02*
X207891D01*
X210824Y300788D01*
X210922D02*
X211527D01*
X210922Y306280D02*
Y306989D01*
X206985Y305296D02*
X209938D01*
X207379Y309745D02*
X208167D01*
X206592Y310532D02*
X207379Y309745D01*
X208962Y310983D02*
X209052D01*
X208167Y309745D02*
X209741Y308170D01*
X198521Y302343D02*
X199702D01*
X200686Y303327D01*
X200883D02*
X201277Y303721D01*
X197537Y301359D02*
X198521Y302343D01*
X201277Y303721D02*
X202261D01*
X202249Y303709D02*
X202262Y303721D01*
X200076Y308446D02*
X202261D01*
X211528Y300789D02*
X213954D01*
X211527Y300788D02*
X211528Y300789D01*
X212912Y302972D02*
X213816Y302068D01*
X203836Y308509D02*
Y309449D01*
X201277Y307186D02*
X202262Y306871D01*
X197935Y303815D02*
X197935Y303815D01*
X197935Y303815D02*
X197935Y303815D01*
X197935Y303815D02*
X197935D01*
X197934Y303815D02*
X197935Y303815D01*
X197935Y303815D02*
X197935Y303815D01*
X202052Y302139D02*
X202136D01*
X205411Y308446D02*
X205412Y308446D01*
X196355Y308564D02*
X196355Y308564D01*
X209938Y305296D02*
X210922Y306280D01*
X198619Y306989D02*
X200076Y308446D01*
X213816Y302068D02*
X215718D01*
X216237Y302587D01*
Y307605D01*
X215622Y308221D02*
X216237Y307605D01*
X213700Y308221D02*
X215622D01*
X196355Y308564D02*
Y310729D01*
X199073Y304032D02*
X199074Y304032D01*
X200686Y303327D02*
X200883D01*
X197143Y306989D02*
X198619D01*
X197143Y305414D02*
X198226D01*
X199997Y307186D01*
X199997D02*
X199997D01*
X201277D01*
X205412Y302146D02*
X206198Y300887D01*
X213680Y308241D02*
X213700Y308221D01*
D52*
X191336Y301379D02*
X192419D01*
D53*
X214859Y304944D02*
Y306989D01*
X209052Y310926D02*
X209741D01*
X194781Y308564D02*
X196355D01*
X199605Y301379D02*
X200312D01*
X201080Y302146D01*
D55*
X204623Y300887D02*
D03*
X200489Y304528D02*
D03*
X200981Y306083D02*
D03*
X199111Y303839D02*
D03*
X207930Y308444D02*
D03*
X196355Y302560D02*
D03*
X199505Y310729D02*
D03*
X214072Y300788D02*
D03*
X205411Y306871D02*
D03*
X208068D02*
D03*
X193797Y303839D02*
D03*
X195962Y300887D02*
D03*
X191336Y304823D02*
D03*
Y310631D02*
D03*
Y301379D02*
D03*
X203836Y309449D02*
D03*
X208954Y310926D02*
D03*
X207576Y311221D02*
D03*
X215155Y309351D02*
D03*
X214859Y306989D02*
D03*
X199308Y309351D02*
D03*
X191336Y307186D02*
D03*
X206198Y300887D02*
D03*
X201080Y302146D02*
D03*
D56*
X205412Y305296D02*
D03*
X202262Y302146D02*
D03*
Y303721D02*
D03*
Y305296D02*
D03*
Y306871D02*
D03*
Y308446D02*
D03*
X203837D02*
D03*
Y306871D02*
D03*
Y305296D02*
D03*
Y303721D02*
D03*
Y302146D02*
D03*
X205412Y308446D02*
D03*
Y306871D02*
D03*
Y303721D02*
D03*
Y302146D02*
D03*
X206986Y308446D02*
D03*
Y306871D02*
D03*
Y305296D02*
D03*
Y303721D02*
D03*
Y302146D02*
D03*
X203836Y303721D02*
D03*
Y302147D02*
D03*
D57*
X191729Y304527D02*
D03*
Y307480D02*
D03*
D58*
X213678Y308170D02*
D03*
X209741Y310926D02*
D03*
Y309745D02*
D03*
Y308170D02*
D03*
Y306989D02*
D03*
X210922Y310926D02*
D03*
Y306989D02*
D03*
X212497Y310926D02*
D03*
X212497Y306989D02*
D03*
X213678Y310926D02*
D03*
Y309745D02*
D03*
Y306989D02*
D03*
D59*
X194781Y308564D02*
D03*
X196355D02*
D03*
X197930D02*
D03*
X195568Y306989D02*
D03*
X197143D02*
D03*
X195568Y305414D02*
D03*
X197143D02*
D03*
X194781Y303839D02*
D03*
X196355D02*
D03*
X197930D02*
D03*
D60*
X194387Y310729D02*
D03*
X196355D02*
D03*
D61*
X206592Y310926D02*
D03*
M02*
