M48
;Layer_Color=9474304
;FILE_FORMAT=2:5
INCH,LZ
;TYPE=PLATED
T1F00S00C0.00335
%
T01
X0191336Y0301379
Y0304823
Y0307186
Y0310631
X0199505Y0310729
X0199308Y0309351
X0203836Y0309449
X020793Y0308444
X0207576Y0311221
X0215155Y0309351
X0214859Y0306989
X0211119Y030502
X0211218Y0301871
X0214072Y0300788
X0204623Y0300887
X020108Y0302146
X0200489Y0304528
X0200981Y0306083
X0193797Y0303839
X0195962Y0300887
M30
